G75*
%MOIN*%
%OFA0B0*%
%FSLAX24Y24*%
%IPPOS*%
%LPD*%
%AMOC8*
5,1,8,0,0,1.08239X$1,22.5*
%
%ADD10C,0.0433*%
%ADD11C,0.0700*%
%ADD12R,0.0600X0.1600*%
%ADD13C,0.0160*%
%ADD14C,0.0100*%
%ADD15C,0.0120*%
%ADD16C,0.0278*%
%ADD17C,0.0240*%
D10*
X002030Y015711D03*
X001026Y016735D03*
X001026Y017719D03*
X001026Y018723D03*
X001026Y019747D03*
X001026Y020731D03*
X001026Y021735D03*
X001026Y022739D03*
X002030Y023743D03*
X003034Y023743D03*
X004038Y023743D03*
X005042Y023743D03*
X006026Y023743D03*
X007050Y022739D03*
X007070Y021735D03*
X007070Y020731D03*
X007070Y019727D03*
X007070Y018743D03*
X007070Y017739D03*
X007070Y016735D03*
X006026Y015711D03*
X005003Y015711D03*
X004019Y015711D03*
X003034Y015711D03*
D11*
X001558Y012452D03*
X001558Y011452D03*
X001558Y010452D03*
X001558Y009452D03*
X001558Y008452D03*
X001558Y007452D03*
X001558Y006452D03*
X001558Y005452D03*
X001558Y004452D03*
X001558Y003452D03*
X001558Y002452D03*
X001558Y001452D03*
X006558Y001471D03*
X006558Y002471D03*
X006558Y003471D03*
X006558Y004471D03*
X006558Y005471D03*
X006558Y006471D03*
X006558Y007471D03*
X006558Y008471D03*
X006558Y009471D03*
X006558Y010471D03*
X006558Y011471D03*
X006558Y012471D03*
D12*
X003046Y025810D03*
X002046Y025810D03*
X001046Y025810D03*
D13*
X000743Y000932D02*
X000765Y000864D01*
X000807Y000807D01*
X000864Y000765D01*
X000932Y000743D01*
X000967Y000740D01*
X007168Y000740D01*
X007204Y000743D01*
X007271Y000765D01*
X007329Y000807D01*
X007371Y000864D01*
X007393Y000932D01*
X007396Y000967D01*
X007396Y002394D01*
X007383Y002381D01*
X007383Y002381D01*
X007042Y002223D01*
X007042Y002223D01*
X007006Y002221D01*
X006990Y002182D01*
X006847Y002039D01*
X006706Y001981D01*
X006761Y001963D01*
X006836Y001925D01*
X006903Y001876D01*
X006962Y001817D01*
X007011Y001749D01*
X007049Y001675D01*
X007075Y001595D01*
X007088Y001513D01*
X007088Y001491D01*
X006578Y001491D01*
X006578Y001451D01*
X006578Y000941D01*
X006600Y000941D01*
X006682Y000954D01*
X006761Y000980D01*
X006836Y001018D01*
X006903Y001067D01*
X006962Y001126D01*
X007011Y001194D01*
X007049Y001268D01*
X007075Y001347D01*
X007088Y001430D01*
X007088Y001451D01*
X006578Y001451D01*
X006538Y001451D01*
X006538Y000941D01*
X006516Y000941D01*
X006434Y000954D01*
X006355Y000980D01*
X006280Y001018D01*
X006213Y001067D01*
X006154Y001126D01*
X006105Y001194D01*
X006067Y001268D01*
X006041Y001347D01*
X006028Y001430D01*
X006028Y001451D01*
X006538Y001451D01*
X006538Y001491D01*
X006028Y001491D01*
X006028Y001513D01*
X006041Y001595D01*
X006067Y001675D01*
X006105Y001749D01*
X006154Y001817D01*
X006213Y001876D01*
X006280Y001925D01*
X006355Y001963D01*
X006410Y001981D01*
X006269Y002039D01*
X006126Y002182D01*
X006048Y002370D01*
X006048Y002573D01*
X006126Y002760D01*
X006269Y002904D01*
X006432Y002971D01*
X006269Y003039D01*
X006126Y003182D01*
X006048Y003370D01*
X006048Y003573D01*
X006126Y003760D01*
X006269Y003904D01*
X006432Y003971D01*
X006269Y004039D01*
X006126Y004182D01*
X006048Y004370D01*
X006048Y004573D01*
X006126Y004760D01*
X006269Y004904D01*
X006432Y004971D01*
X006269Y005039D01*
X006126Y005182D01*
X006048Y005370D01*
X006048Y005573D01*
X006126Y005760D01*
X006269Y005904D01*
X006432Y005971D01*
X006269Y006039D01*
X006126Y006182D01*
X006048Y006370D01*
X006048Y006573D01*
X006126Y006760D01*
X006269Y006904D01*
X006432Y006971D01*
X006269Y007039D01*
X006126Y007182D01*
X006048Y007370D01*
X006048Y007573D01*
X006126Y007760D01*
X006269Y007904D01*
X006432Y007971D01*
X006269Y008039D01*
X006126Y008182D01*
X006048Y008370D01*
X006048Y008573D01*
X006126Y008760D01*
X006269Y008904D01*
X006432Y008971D01*
X006269Y009039D01*
X006126Y009182D01*
X006048Y009370D01*
X006048Y009573D01*
X006126Y009760D01*
X006269Y009904D01*
X006432Y009971D01*
X006269Y010039D01*
X006126Y010182D01*
X006048Y010370D01*
X006048Y010573D01*
X006126Y010760D01*
X006269Y010904D01*
X006432Y010971D01*
X006269Y011039D01*
X006126Y011182D01*
X006048Y011370D01*
X006048Y011573D01*
X006126Y011760D01*
X006269Y011904D01*
X006410Y011962D01*
X006355Y011980D01*
X006280Y012018D01*
X006213Y012067D01*
X006154Y012126D01*
X006105Y012194D01*
X006067Y012268D01*
X006041Y012347D01*
X006028Y012430D01*
X006028Y012451D01*
X006538Y012451D01*
X006538Y012491D01*
X006028Y012491D01*
X006028Y012513D01*
X006041Y012595D01*
X006067Y012675D01*
X006105Y012749D01*
X006154Y012817D01*
X006213Y012876D01*
X006280Y012925D01*
X006355Y012963D01*
X006434Y012988D01*
X006516Y013001D01*
X006538Y013001D01*
X006538Y012491D01*
X006578Y012491D01*
X007088Y012491D01*
X007088Y012513D01*
X007075Y012595D01*
X007049Y012675D01*
X007011Y012749D01*
X006962Y012817D01*
X006903Y012876D01*
X006836Y012925D01*
X006761Y012963D01*
X006682Y012988D01*
X006600Y013001D01*
X006578Y013001D01*
X006578Y012491D01*
X006578Y012451D01*
X007088Y012451D01*
X007088Y012430D01*
X007075Y012347D01*
X007049Y012268D01*
X007011Y012194D01*
X006962Y012126D01*
X006903Y012067D01*
X006836Y012018D01*
X006761Y011980D01*
X006706Y011962D01*
X006847Y011904D01*
X006990Y011760D01*
X007068Y011573D01*
X007068Y011370D01*
X006990Y011182D01*
X006847Y011039D01*
X006684Y010971D01*
X006847Y010904D01*
X006990Y010760D01*
X007068Y010573D01*
X007068Y010370D01*
X006990Y010182D01*
X006847Y010039D01*
X006684Y009971D01*
X006847Y009904D01*
X006990Y009760D01*
X007068Y009573D01*
X007068Y009370D01*
X006990Y009182D01*
X006847Y009039D01*
X006684Y008971D01*
X006847Y008904D01*
X006990Y008760D01*
X007068Y008573D01*
X007068Y008370D01*
X006990Y008182D01*
X006847Y008039D01*
X006684Y007971D01*
X006847Y007904D01*
X006990Y007760D01*
X007068Y007573D01*
X007068Y007370D01*
X006990Y007182D01*
X006847Y007039D01*
X006684Y006971D01*
X006847Y006904D01*
X006990Y006760D01*
X007068Y006573D01*
X007068Y006370D01*
X006990Y006182D01*
X006847Y006039D01*
X006684Y005971D01*
X006847Y005904D01*
X006990Y005760D01*
X007068Y005573D01*
X007068Y005370D01*
X006990Y005182D01*
X006847Y005039D01*
X006684Y004971D01*
X006847Y004904D01*
X006990Y004760D01*
X007068Y004573D01*
X007068Y004370D01*
X006990Y004182D01*
X006847Y004039D01*
X006684Y003971D01*
X006847Y003904D01*
X006990Y003760D01*
X007009Y003715D01*
X007020Y003720D01*
X007072Y003769D01*
X007101Y003835D01*
X007106Y003870D01*
X007106Y016325D01*
X007100Y016359D01*
X007100Y016359D01*
X006995Y016359D01*
X006856Y016416D01*
X006751Y016522D01*
X006693Y016660D01*
X006693Y016810D01*
X006751Y016948D01*
X006856Y017054D01*
X006995Y017112D01*
X007145Y017112D01*
X007283Y017054D01*
X007342Y016995D01*
X007342Y017029D01*
X007335Y017110D01*
X007286Y017265D01*
X007202Y017386D01*
X007145Y017363D01*
X006995Y017363D01*
X006856Y017420D01*
X006751Y017526D01*
X006693Y017664D01*
X006693Y017814D01*
X006751Y017952D01*
X006856Y018058D01*
X006995Y018116D01*
X007145Y018116D01*
X007283Y018058D01*
X007389Y017952D01*
X007396Y017936D01*
X007396Y018546D01*
X007389Y018530D01*
X007283Y018424D01*
X007145Y018366D01*
X006995Y018366D01*
X006856Y018424D01*
X006757Y018523D01*
X003552Y018523D01*
X003519Y018489D01*
X003409Y018444D01*
X003290Y018444D01*
X003180Y018489D01*
X003096Y018574D01*
X003050Y018684D01*
X003050Y018802D01*
X003096Y018912D01*
X003180Y018997D01*
X003290Y019042D01*
X003409Y019042D01*
X003519Y018997D01*
X003552Y018963D01*
X006757Y018963D01*
X006856Y019062D01*
X006995Y019120D01*
X007145Y019120D01*
X007283Y019062D01*
X007389Y018956D01*
X007396Y018940D01*
X007396Y019530D01*
X007389Y019514D01*
X007283Y019408D01*
X007145Y019351D01*
X007004Y019351D01*
X006978Y019324D01*
X006978Y019324D01*
X006949Y019295D01*
X006949Y019295D01*
X006719Y019163D01*
X006719Y019163D01*
X006463Y019094D01*
X003828Y019094D01*
X003794Y019060D01*
X003684Y019015D01*
X003565Y019015D01*
X003455Y019060D01*
X003371Y019144D01*
X003326Y019254D01*
X003326Y019373D01*
X003371Y019483D01*
X003455Y019567D01*
X003565Y019613D01*
X003684Y019613D01*
X003794Y019567D01*
X003828Y019534D01*
X006330Y019534D01*
X006404Y019539D01*
X006547Y019577D01*
X006676Y019651D01*
X006693Y019667D01*
X006693Y019802D01*
X006751Y019941D01*
X006856Y020046D01*
X006995Y020104D01*
X007145Y020104D01*
X007283Y020046D01*
X007389Y019941D01*
X007396Y019925D01*
X007396Y020534D01*
X007389Y020518D01*
X007283Y020412D01*
X007145Y020355D01*
X007004Y020355D01*
X006549Y019900D01*
X006516Y019866D01*
X006516Y019866D01*
X006286Y019733D01*
X006286Y019733D01*
X006030Y019665D01*
X004123Y019665D01*
X004090Y019631D01*
X003980Y019586D01*
X003861Y019586D01*
X003751Y019631D01*
X003667Y019715D01*
X003621Y019825D01*
X003621Y019944D01*
X003667Y020054D01*
X003751Y020138D01*
X003861Y020184D01*
X003980Y020184D01*
X004090Y020138D01*
X004123Y020105D01*
X005897Y020105D01*
X005971Y020110D01*
X006114Y020148D01*
X006243Y020222D01*
X006298Y020271D01*
X006333Y020306D01*
X006363Y020335D01*
X006363Y020335D01*
X006693Y020666D01*
X006693Y020806D01*
X006751Y020944D01*
X006856Y021050D01*
X006995Y021108D01*
X007145Y021108D01*
X007283Y021050D01*
X007389Y020944D01*
X007396Y020928D01*
X007396Y021538D01*
X007389Y021522D01*
X007283Y021416D01*
X007145Y021359D01*
X007004Y021359D01*
X006073Y020427D01*
X006073Y020427D01*
X006043Y020398D01*
X006043Y020398D01*
X005814Y020265D01*
X005814Y020265D01*
X005557Y020196D01*
X004438Y020196D01*
X004405Y020163D01*
X004295Y020117D01*
X004176Y020117D01*
X004066Y020163D01*
X003982Y020247D01*
X003936Y020357D01*
X003936Y020476D01*
X003982Y020586D01*
X004066Y020670D01*
X004176Y020715D01*
X004295Y020715D01*
X004405Y020670D01*
X004438Y020636D01*
X005425Y020636D01*
X005499Y020641D01*
X005642Y020679D01*
X005770Y020753D01*
X005826Y020802D01*
X006693Y021670D01*
X006693Y021810D01*
X006751Y021948D01*
X006856Y022054D01*
X006995Y022112D01*
X007145Y022112D01*
X007283Y022054D01*
X007389Y021948D01*
X007396Y021932D01*
X007396Y022589D01*
X007369Y022526D01*
X007263Y022420D01*
X007125Y022363D01*
X006985Y022363D01*
X005600Y020978D01*
X005600Y020978D01*
X005571Y020949D01*
X005571Y020949D01*
X005341Y020816D01*
X005341Y020816D01*
X005085Y020747D01*
X004733Y020747D01*
X004700Y020714D01*
X004590Y020668D01*
X004471Y020668D01*
X004361Y020714D01*
X004277Y020798D01*
X004231Y020908D01*
X004231Y021027D01*
X004277Y021137D01*
X004361Y021221D01*
X004471Y021266D01*
X004590Y021266D01*
X004700Y021221D01*
X004733Y021187D01*
X004952Y021187D01*
X005026Y021192D01*
X005169Y021231D01*
X005298Y021305D01*
X005353Y021354D01*
X006674Y022674D01*
X006674Y022814D01*
X006731Y022952D01*
X006837Y023058D01*
X006975Y023116D01*
X007125Y023116D01*
X007263Y023058D01*
X007369Y022952D01*
X007396Y022889D01*
X007396Y024038D01*
X007384Y024273D01*
X007293Y024733D01*
X007113Y025166D01*
X006852Y025556D01*
X006521Y025888D01*
X006131Y026148D01*
X005697Y026328D01*
X005237Y026420D01*
X005237Y026420D01*
X005003Y026431D01*
X003526Y026431D01*
X003526Y025880D01*
X003116Y025880D01*
X003116Y025740D01*
X003116Y024830D01*
X003370Y024830D01*
X003416Y024842D01*
X003457Y024866D01*
X003490Y024899D01*
X003514Y024940D01*
X003526Y024986D01*
X003526Y025740D01*
X003116Y025740D01*
X002976Y025740D01*
X002566Y025740D01*
X002566Y024986D01*
X002578Y024940D01*
X002602Y024899D01*
X002636Y024866D01*
X002677Y024842D01*
X002722Y024830D01*
X002976Y024830D01*
X002976Y025740D01*
X002976Y025880D01*
X002566Y025880D01*
X002566Y026431D01*
X002506Y026431D01*
X002506Y024944D01*
X002412Y024850D01*
X002326Y024850D01*
X002326Y023980D01*
X002350Y023956D01*
X002407Y023818D01*
X002407Y023668D01*
X002350Y023530D01*
X002244Y023424D01*
X002105Y023366D01*
X001955Y023366D01*
X001817Y023424D01*
X001711Y023530D01*
X001654Y023668D01*
X001654Y023818D01*
X001711Y023956D01*
X001766Y024011D01*
X001766Y024850D01*
X001680Y024850D01*
X001586Y024944D01*
X001586Y026431D01*
X001526Y026431D01*
X001526Y025880D01*
X001116Y025880D01*
X001116Y025740D01*
X001116Y024830D01*
X001370Y024830D01*
X001416Y024842D01*
X001457Y024866D01*
X001490Y024899D01*
X001514Y024940D01*
X001526Y024986D01*
X001526Y025740D01*
X001116Y025740D01*
X000976Y025740D01*
X000976Y024830D01*
X000740Y024830D01*
X000740Y022985D01*
X000813Y023058D01*
X000952Y023116D01*
X001101Y023116D01*
X001240Y023058D01*
X001346Y022952D01*
X001363Y022910D01*
X001472Y022871D01*
X001472Y022871D01*
X001656Y022704D01*
X001656Y022704D01*
X001739Y022529D01*
X001811Y022456D01*
X003840Y022456D01*
X003818Y022539D02*
X003887Y022283D01*
X004020Y022053D01*
X004049Y022024D01*
X004049Y022024D01*
X004113Y021959D01*
X004251Y021822D01*
X002456Y021822D01*
X002467Y021795D02*
X002422Y021905D01*
X002338Y021989D01*
X002228Y022034D01*
X002109Y022034D01*
X001999Y021989D01*
X001955Y021945D01*
X001358Y021945D01*
X001348Y021955D01*
X001339Y021955D01*
X001240Y022054D01*
X001101Y022112D01*
X000952Y022112D01*
X000813Y022054D01*
X000740Y021981D01*
X000740Y022493D01*
X000813Y022420D01*
X000952Y022363D01*
X001101Y022363D01*
X001240Y022420D01*
X001287Y022467D01*
X001303Y022452D01*
X001259Y022346D01*
X001259Y022227D01*
X001304Y022117D01*
X001389Y022033D01*
X001498Y021987D01*
X001617Y021987D01*
X001727Y022033D01*
X001811Y022117D01*
X001857Y022227D01*
X001857Y022346D01*
X001811Y022456D01*
X001857Y022297D02*
X003883Y022297D01*
X003970Y022139D02*
X001821Y022139D01*
X001991Y021980D02*
X001314Y021980D01*
X001295Y022139D02*
X000740Y022139D01*
X000740Y022297D02*
X001259Y022297D01*
X001276Y022456D02*
X001299Y022456D01*
X001580Y022773D02*
X003818Y022773D01*
X003818Y022931D02*
X001354Y022931D01*
X001163Y023090D02*
X003818Y023090D01*
X003818Y023248D02*
X000740Y023248D01*
X000740Y023090D02*
X000890Y023090D01*
X000740Y023407D02*
X001858Y023407D01*
X001696Y023565D02*
X000740Y023565D01*
X000740Y023724D02*
X001654Y023724D01*
X001681Y023882D02*
X000740Y023882D01*
X000740Y024041D02*
X001766Y024041D01*
X001766Y024199D02*
X000740Y024199D01*
X000740Y024358D02*
X001766Y024358D01*
X001766Y024516D02*
X000740Y024516D01*
X000740Y024675D02*
X001766Y024675D01*
X001766Y024833D02*
X001383Y024833D01*
X001526Y024992D02*
X001586Y024992D01*
X001586Y025150D02*
X001526Y025150D01*
X001526Y025309D02*
X001586Y025309D01*
X001586Y025467D02*
X001526Y025467D01*
X001526Y025626D02*
X001586Y025626D01*
X001586Y025784D02*
X001116Y025784D01*
X001116Y025626D02*
X000976Y025626D01*
X000976Y025467D02*
X001116Y025467D01*
X001116Y025309D02*
X000976Y025309D01*
X000976Y025150D02*
X001116Y025150D01*
X001116Y024992D02*
X000976Y024992D01*
X000976Y024833D02*
X001116Y024833D01*
X001526Y025943D02*
X001586Y025943D01*
X001586Y026101D02*
X001526Y026101D01*
X001526Y026260D02*
X001586Y026260D01*
X001586Y026418D02*
X001526Y026418D01*
X002326Y024833D02*
X002709Y024833D01*
X002566Y024992D02*
X002506Y024992D01*
X002506Y025150D02*
X002566Y025150D01*
X002566Y025309D02*
X002506Y025309D01*
X002506Y025467D02*
X002566Y025467D01*
X002566Y025626D02*
X002506Y025626D01*
X002506Y025784D02*
X002976Y025784D01*
X003116Y025784D02*
X006624Y025784D01*
X006783Y025626D02*
X003526Y025626D01*
X003526Y025467D02*
X006912Y025467D01*
X007018Y025309D02*
X003526Y025309D01*
X003526Y025150D02*
X007120Y025150D01*
X007185Y024992D02*
X003526Y024992D01*
X003383Y024833D02*
X007251Y024833D01*
X007304Y024675D02*
X002326Y024675D01*
X002326Y024516D02*
X007336Y024516D01*
X007367Y024358D02*
X002326Y024358D01*
X002326Y024199D02*
X007388Y024199D01*
X007395Y024041D02*
X006261Y024041D01*
X006240Y024062D02*
X006101Y024120D01*
X005952Y024120D01*
X005813Y024062D01*
X005707Y023956D01*
X005650Y023818D01*
X005650Y023668D01*
X005707Y023530D01*
X005806Y023430D01*
X005806Y023369D01*
X005798Y023259D01*
X005730Y023049D01*
X005600Y022870D01*
X005421Y022741D01*
X005212Y022672D01*
X005101Y022664D01*
X005029Y022664D01*
X004995Y022697D01*
X004885Y022743D01*
X004766Y022743D01*
X004656Y022697D01*
X004572Y022613D01*
X004527Y022503D01*
X004527Y022384D01*
X004572Y022274D01*
X004656Y022190D01*
X004766Y022145D01*
X004885Y022145D01*
X004995Y022190D01*
X005029Y022224D01*
X005283Y022224D01*
X005628Y022336D01*
X005921Y022549D01*
X005921Y022549D01*
X005921Y022549D01*
X006134Y022843D01*
X006246Y023188D01*
X006246Y023430D01*
X006346Y023530D01*
X006403Y023668D01*
X006403Y023818D01*
X006346Y023956D01*
X006240Y024062D01*
X006376Y023882D02*
X007396Y023882D01*
X007396Y023724D02*
X006403Y023724D01*
X006360Y023565D02*
X007396Y023565D01*
X007396Y023407D02*
X006246Y023407D01*
X006246Y023248D02*
X007396Y023248D01*
X007396Y023090D02*
X007187Y023090D01*
X007378Y022931D02*
X007396Y022931D01*
X007396Y022456D02*
X007299Y022456D01*
X007396Y022297D02*
X006920Y022297D01*
X006761Y022139D02*
X007396Y022139D01*
X007396Y021980D02*
X007357Y021980D01*
X007372Y021505D02*
X007396Y021505D01*
X007396Y021346D02*
X006992Y021346D01*
X006834Y021188D02*
X007396Y021188D01*
X007396Y021029D02*
X007304Y021029D01*
X007243Y020395D02*
X007396Y020395D01*
X007396Y020237D02*
X006887Y020237D01*
X006934Y020078D02*
X006728Y020078D01*
X006742Y019920D02*
X006570Y019920D01*
X006693Y019761D02*
X006335Y019761D01*
X006592Y019603D02*
X004021Y019603D01*
X003819Y019603D02*
X003709Y019603D01*
X003648Y019761D02*
X003097Y019761D01*
X003097Y019806D02*
X003052Y019916D01*
X002968Y020000D01*
X002858Y020046D01*
X002739Y020046D01*
X002629Y020000D01*
X002585Y019957D01*
X001347Y019957D01*
X001346Y019960D01*
X001240Y020066D01*
X001101Y020123D01*
X000952Y020123D01*
X000813Y020066D01*
X000740Y019993D01*
X000740Y020485D01*
X000813Y020412D01*
X000952Y020355D01*
X001101Y020355D01*
X001240Y020412D01*
X001346Y020518D01*
X001347Y020521D01*
X002270Y020521D01*
X002314Y020478D01*
X002424Y020432D01*
X002543Y020432D01*
X002653Y020478D01*
X002737Y020562D01*
X002782Y020672D01*
X002782Y020791D01*
X002737Y020901D01*
X002653Y020985D01*
X002543Y021030D01*
X002424Y021030D01*
X002314Y020985D01*
X002270Y020941D01*
X001347Y020941D01*
X001346Y020944D01*
X001240Y021050D01*
X001101Y021108D01*
X000952Y021108D01*
X000813Y021050D01*
X000740Y020977D01*
X000740Y021489D01*
X000813Y021416D01*
X000952Y021359D01*
X001101Y021359D01*
X001240Y021416D01*
X001339Y021515D01*
X001348Y021515D01*
X001358Y021525D01*
X001955Y021525D01*
X001999Y021482D01*
X002109Y021436D01*
X002228Y021436D01*
X002338Y021482D01*
X002422Y021566D01*
X002467Y021676D01*
X002467Y021795D01*
X002462Y021663D02*
X005222Y021663D01*
X005213Y021673D02*
X005247Y021639D01*
X005357Y021594D01*
X005476Y021594D01*
X005586Y021639D01*
X005670Y021723D01*
X005715Y021833D01*
X005715Y021952D01*
X005670Y022062D01*
X005586Y022146D01*
X005476Y022192D01*
X005357Y022192D01*
X005247Y022146D01*
X005213Y022113D01*
X004805Y022113D01*
X004700Y022123D01*
X004506Y022203D01*
X004424Y022270D01*
X004376Y022326D01*
X004301Y022454D01*
X004263Y022597D01*
X004258Y022672D01*
X004258Y023430D01*
X004357Y023530D01*
X004415Y023668D01*
X004415Y023818D01*
X004357Y023956D01*
X004252Y024062D01*
X004113Y024120D01*
X003963Y024120D01*
X003825Y024062D01*
X003719Y023956D01*
X003662Y023818D01*
X003662Y023668D01*
X003719Y023530D01*
X003818Y023430D01*
X003818Y022539D01*
X003818Y022539D01*
X003818Y022614D02*
X001698Y022614D01*
X002203Y023407D02*
X002824Y023407D01*
X002846Y023392D02*
X002919Y023362D01*
X002995Y023346D01*
X003006Y023346D01*
X003006Y023715D01*
X002638Y023715D01*
X002638Y023704D01*
X002653Y023627D01*
X002683Y023555D01*
X002726Y023490D01*
X002782Y023435D01*
X002846Y023392D01*
X003006Y023407D02*
X003063Y023407D01*
X003063Y023346D02*
X003073Y023346D01*
X003150Y023362D01*
X003222Y023392D01*
X003287Y023435D01*
X003342Y023490D01*
X003386Y023555D01*
X003416Y023627D01*
X003431Y023704D01*
X003431Y023715D01*
X003063Y023715D01*
X003063Y023771D01*
X003431Y023771D01*
X003431Y023782D01*
X003416Y023859D01*
X003386Y023931D01*
X003342Y023996D01*
X003287Y024051D01*
X003222Y024094D01*
X003150Y024124D01*
X003073Y024140D01*
X003063Y024140D01*
X003063Y023771D01*
X003006Y023771D01*
X003006Y023715D01*
X003063Y023715D01*
X003063Y023346D01*
X003245Y023407D02*
X003818Y023407D01*
X003704Y023565D02*
X003390Y023565D01*
X003406Y023882D02*
X003688Y023882D01*
X003662Y023724D02*
X003063Y023724D01*
X003006Y023724D02*
X002407Y023724D01*
X002380Y023882D02*
X002663Y023882D01*
X002653Y023859D02*
X002638Y023782D01*
X002638Y023771D01*
X003006Y023771D01*
X003006Y024140D01*
X002995Y024140D01*
X002919Y024124D01*
X002846Y024094D01*
X002782Y024051D01*
X002726Y023996D01*
X002683Y023931D01*
X002653Y023859D01*
X002771Y024041D02*
X002326Y024041D01*
X002364Y023565D02*
X002679Y023565D01*
X003006Y023565D02*
X003063Y023565D01*
X003063Y023882D02*
X003006Y023882D01*
X003006Y024041D02*
X003063Y024041D01*
X003297Y024041D02*
X003804Y024041D01*
X004273Y024041D02*
X004808Y024041D01*
X004829Y024062D02*
X004723Y023956D01*
X004666Y023818D01*
X004666Y023668D01*
X004723Y023530D01*
X004829Y023424D01*
X004837Y023420D01*
X004901Y023357D01*
X004901Y023257D01*
X004867Y023223D01*
X004822Y023114D01*
X004822Y022995D01*
X004867Y022885D01*
X004952Y022800D01*
X005061Y022755D01*
X005180Y022755D01*
X005290Y022800D01*
X005374Y022885D01*
X005420Y022995D01*
X005420Y023114D01*
X005374Y023223D01*
X005341Y023257D01*
X005341Y023509D01*
X005361Y023530D01*
X005419Y023668D01*
X005419Y023818D01*
X005361Y023956D01*
X005255Y024062D01*
X005117Y024120D01*
X004967Y024120D01*
X004829Y024062D01*
X004692Y023882D02*
X004388Y023882D01*
X004415Y023724D02*
X004666Y023724D01*
X004708Y023565D02*
X004372Y023565D01*
X004258Y023407D02*
X004851Y023407D01*
X004892Y023248D02*
X004258Y023248D01*
X004258Y023090D02*
X004822Y023090D01*
X004848Y022931D02*
X004258Y022931D01*
X004258Y022773D02*
X005018Y022773D01*
X005224Y022773D02*
X005466Y022773D01*
X005394Y022931D02*
X005644Y022931D01*
X005743Y023090D02*
X005420Y023090D01*
X005349Y023248D02*
X005794Y023248D01*
X005806Y023407D02*
X005341Y023407D01*
X005376Y023565D02*
X005692Y023565D01*
X005650Y023724D02*
X005419Y023724D01*
X005392Y023882D02*
X005677Y023882D01*
X005792Y024041D02*
X005277Y024041D01*
X004573Y022614D02*
X004262Y022614D01*
X004301Y022456D02*
X004527Y022456D01*
X004563Y022297D02*
X004401Y022297D01*
X004424Y022270D02*
X004424Y022270D01*
X004251Y021822D02*
X004611Y021673D01*
X005213Y021673D01*
X005345Y021346D02*
X000740Y021346D01*
X000740Y021188D02*
X004328Y021188D01*
X004232Y021029D02*
X002545Y021029D01*
X002422Y021029D02*
X001261Y021029D01*
X001329Y021505D02*
X001975Y021505D01*
X002361Y021505D02*
X005505Y021505D01*
X005610Y021663D02*
X005663Y021663D01*
X005711Y021822D02*
X005822Y021822D01*
X005704Y021980D02*
X005980Y021980D01*
X006139Y022139D02*
X005593Y022139D01*
X005509Y022297D02*
X006297Y022297D01*
X006456Y022456D02*
X005793Y022456D01*
X005628Y022336D02*
X005628Y022336D01*
X005240Y022139D02*
X004662Y022139D01*
X004251Y021822D02*
X004251Y021822D01*
X004092Y021980D02*
X002346Y021980D01*
X002749Y020871D02*
X004247Y020871D01*
X004302Y020712D02*
X004365Y020712D01*
X004169Y020712D02*
X002782Y020712D01*
X002729Y020554D02*
X003968Y020554D01*
X003936Y020395D02*
X001200Y020395D01*
X001210Y020078D02*
X003691Y020078D01*
X003621Y019920D02*
X003048Y019920D01*
X003097Y019806D02*
X003097Y019687D01*
X003052Y019578D01*
X002968Y019493D01*
X002858Y019448D01*
X002739Y019448D01*
X002629Y019493D01*
X002585Y019537D01*
X001347Y019537D01*
X001346Y019534D01*
X001240Y019428D01*
X001101Y019370D01*
X000952Y019370D01*
X000813Y019428D01*
X000740Y019501D01*
X000740Y018969D01*
X000813Y019043D01*
X000952Y019100D01*
X001101Y019100D01*
X001240Y019043D01*
X001346Y018937D01*
X001347Y018933D01*
X002347Y018933D01*
X002601Y018865D01*
X002601Y018865D01*
X002828Y018734D01*
X002828Y018734D01*
X002860Y018703D01*
X002950Y018613D01*
X002983Y018580D01*
X003072Y018491D01*
X003133Y018491D01*
X003243Y018445D01*
X003327Y018361D01*
X003373Y018251D01*
X003373Y018132D01*
X003327Y018022D01*
X003243Y017938D01*
X003133Y017893D01*
X003014Y017893D01*
X002904Y017938D01*
X002820Y018022D01*
X002775Y018132D01*
X002775Y018194D01*
X002686Y018283D01*
X002654Y018315D01*
X002624Y018344D01*
X002568Y018394D01*
X002437Y018469D01*
X002291Y018508D01*
X002216Y018513D01*
X001347Y018513D01*
X001346Y018510D01*
X001240Y018404D01*
X001101Y018347D01*
X000952Y018347D01*
X000813Y018404D01*
X000740Y018477D01*
X000740Y017965D01*
X000813Y018039D01*
X000952Y018096D01*
X001101Y018096D01*
X001240Y018039D01*
X001346Y017933D01*
X001368Y017878D01*
X001441Y017848D01*
X001441Y017848D01*
X001441Y017848D01*
X001647Y017642D01*
X001759Y017373D01*
X001759Y015972D01*
X001817Y016031D01*
X001955Y016088D01*
X002105Y016088D01*
X002244Y016031D01*
X002350Y015925D01*
X002407Y015786D01*
X002407Y015646D01*
X002913Y015140D01*
X002913Y015354D01*
X002821Y015392D01*
X002715Y015498D01*
X002658Y015637D01*
X002658Y015786D01*
X002715Y015925D01*
X002821Y016031D01*
X002959Y016088D01*
X003109Y016088D01*
X003248Y016031D01*
X003354Y015925D01*
X003411Y015786D01*
X003411Y015637D01*
X003372Y015544D01*
X003372Y015541D01*
X003375Y015493D01*
X003353Y015431D01*
X003353Y015357D01*
X003642Y015646D01*
X003642Y015786D01*
X003699Y015925D01*
X003805Y016031D01*
X003944Y016088D01*
X004093Y016088D01*
X004232Y016031D01*
X004338Y015925D01*
X004395Y015786D01*
X004395Y015637D01*
X004338Y015498D01*
X004232Y015392D01*
X004093Y015335D01*
X003953Y015335D01*
X003671Y015053D01*
X003636Y015010D01*
X003594Y014909D01*
X003589Y014855D01*
X003589Y014609D01*
X004626Y015646D01*
X004626Y015786D01*
X004684Y015925D01*
X004790Y016031D01*
X004928Y016088D01*
X005078Y016088D01*
X005216Y016031D01*
X005322Y015925D01*
X005379Y015786D01*
X005379Y015637D01*
X005322Y015498D01*
X005216Y015392D01*
X005078Y015335D01*
X004937Y015335D01*
X003907Y014305D01*
X003872Y014262D01*
X003831Y014161D01*
X003825Y014107D01*
X003825Y013821D01*
X005650Y015646D01*
X005650Y015786D01*
X005707Y015925D01*
X005813Y016031D01*
X005952Y016088D01*
X006101Y016088D01*
X006240Y016031D01*
X006346Y015925D01*
X006403Y015786D01*
X006403Y015637D01*
X006346Y015498D01*
X006240Y015392D01*
X006101Y015335D01*
X005961Y015335D01*
X004143Y013517D01*
X004109Y013475D01*
X004067Y013374D01*
X004061Y013319D01*
X004061Y002775D01*
X003952Y002510D01*
X003952Y002510D01*
X003952Y002510D01*
X003915Y002473D01*
X003915Y002473D01*
X002820Y001378D01*
X002820Y001378D01*
X002783Y001341D01*
X002783Y001341D01*
X002518Y001232D01*
X002019Y001232D01*
X001990Y001163D01*
X001847Y001019D01*
X001659Y000942D01*
X001457Y000942D01*
X001269Y001019D01*
X001126Y001163D01*
X001048Y001350D01*
X001048Y001553D01*
X001126Y001741D01*
X001269Y001884D01*
X001432Y001952D01*
X001269Y002019D01*
X001126Y002163D01*
X001048Y002350D01*
X001048Y002553D01*
X001126Y002741D01*
X001269Y002884D01*
X001432Y002952D01*
X001269Y003019D01*
X001126Y003163D01*
X001048Y003350D01*
X001048Y003553D01*
X001126Y003741D01*
X001269Y003884D01*
X001432Y003952D01*
X001269Y004019D01*
X001126Y004163D01*
X001048Y004350D01*
X001048Y004553D01*
X001126Y004741D01*
X001269Y004884D01*
X001432Y004952D01*
X001269Y005019D01*
X001126Y005163D01*
X001048Y005350D01*
X001048Y005553D01*
X001126Y005741D01*
X001269Y005884D01*
X001410Y005942D01*
X001355Y005960D01*
X001280Y005998D01*
X001213Y006047D01*
X001154Y006106D01*
X001105Y006174D01*
X001067Y006248D01*
X001041Y006328D01*
X001028Y006410D01*
X001028Y006432D01*
X001538Y006432D01*
X001538Y006472D01*
X001028Y006472D01*
X001028Y006493D01*
X001041Y006576D01*
X001067Y006655D01*
X001105Y006729D01*
X001154Y006797D01*
X001213Y006856D01*
X001280Y006905D01*
X001355Y006943D01*
X001410Y006961D01*
X001269Y007019D01*
X001126Y007163D01*
X001048Y007350D01*
X001048Y007553D01*
X001126Y007741D01*
X001269Y007884D01*
X001432Y007952D01*
X001269Y008019D01*
X001126Y008163D01*
X001048Y008350D01*
X001048Y008553D01*
X001126Y008741D01*
X001269Y008884D01*
X001432Y008952D01*
X001269Y009019D01*
X001126Y009163D01*
X001048Y009350D01*
X001048Y009553D01*
X001126Y009741D01*
X001269Y009884D01*
X001432Y009952D01*
X001269Y010019D01*
X001126Y010163D01*
X001048Y010350D01*
X001048Y010553D01*
X001126Y010741D01*
X001269Y010884D01*
X001432Y010952D01*
X001269Y011019D01*
X001126Y011163D01*
X001048Y011350D01*
X001048Y011553D01*
X001126Y011741D01*
X001269Y011884D01*
X001432Y011952D01*
X001269Y012019D01*
X001126Y012163D01*
X001048Y012350D01*
X001048Y012553D01*
X001126Y012741D01*
X001269Y012884D01*
X001457Y012962D01*
X001659Y012962D01*
X001847Y012884D01*
X001990Y012741D01*
X002068Y012553D01*
X002068Y012350D01*
X001990Y012163D01*
X001847Y012019D01*
X001684Y011952D01*
X001847Y011884D01*
X001990Y011741D01*
X002068Y011553D01*
X002068Y011350D01*
X001990Y011163D01*
X001847Y011019D01*
X001684Y010952D01*
X001847Y010884D01*
X001990Y010741D01*
X002068Y010553D01*
X002068Y010350D01*
X001990Y010163D01*
X001847Y010019D01*
X001684Y009952D01*
X001847Y009884D01*
X001990Y009741D01*
X002068Y009553D01*
X002068Y009350D01*
X001990Y009163D01*
X001847Y009019D01*
X001684Y008952D01*
X001847Y008884D01*
X001990Y008741D01*
X002068Y008553D01*
X002068Y008350D01*
X001990Y008163D01*
X001847Y008019D01*
X001684Y007952D01*
X001847Y007884D01*
X001990Y007741D01*
X002010Y007694D01*
X002039Y007697D01*
X002133Y007735D01*
X002172Y007768D01*
X002291Y007886D01*
X002299Y007894D01*
X002324Y007920D01*
X002357Y007959D01*
X002396Y008053D01*
X002401Y008104D01*
X002401Y014087D01*
X002396Y014138D01*
X002357Y014232D01*
X002324Y014271D01*
X001529Y015066D01*
X001508Y015087D01*
X001462Y015134D01*
X001391Y015204D01*
X001391Y015204D01*
X001279Y015476D01*
X001279Y016427D01*
X001214Y016384D01*
X001142Y016354D01*
X001066Y016339D01*
X001055Y016339D01*
X001055Y016707D01*
X000998Y016707D01*
X000998Y016339D01*
X000987Y016339D01*
X000911Y016354D01*
X000839Y016384D01*
X000774Y016427D01*
X000740Y016461D01*
X000740Y000967D01*
X000743Y000932D01*
X000753Y000900D02*
X007382Y000900D01*
X007396Y001058D02*
X006891Y001058D01*
X007023Y001217D02*
X007396Y001217D01*
X007396Y001375D02*
X007079Y001375D01*
X007085Y001534D02*
X007396Y001534D01*
X007396Y001692D02*
X007040Y001692D01*
X006928Y001851D02*
X007396Y001851D01*
X007396Y002009D02*
X006775Y002009D01*
X006976Y002168D02*
X007396Y002168D01*
X007396Y002326D02*
X007265Y002326D01*
X007055Y003753D02*
X006993Y003753D01*
X007106Y003911D02*
X006828Y003911D01*
X006878Y004070D02*
X007106Y004070D01*
X007106Y004228D02*
X007009Y004228D01*
X007068Y004387D02*
X007106Y004387D01*
X007106Y004545D02*
X007068Y004545D01*
X007106Y004704D02*
X007014Y004704D01*
X007106Y004862D02*
X006888Y004862D01*
X006803Y005021D02*
X007106Y005021D01*
X007106Y005179D02*
X006987Y005179D01*
X007055Y005338D02*
X007106Y005338D01*
X007106Y005496D02*
X007068Y005496D01*
X007034Y005655D02*
X007106Y005655D01*
X007106Y005813D02*
X006937Y005813D01*
X007106Y005972D02*
X006685Y005972D01*
X006431Y005972D02*
X004061Y005972D01*
X004061Y006130D02*
X006178Y006130D01*
X006082Y006289D02*
X004061Y006289D01*
X004061Y006447D02*
X006048Y006447D01*
X006062Y006606D02*
X004061Y006606D01*
X004061Y006764D02*
X006130Y006764D01*
X006315Y006923D02*
X004061Y006923D01*
X004061Y007081D02*
X006227Y007081D01*
X006102Y007240D02*
X004061Y007240D01*
X004061Y007398D02*
X006048Y007398D01*
X006048Y007557D02*
X004061Y007557D01*
X004061Y007715D02*
X006107Y007715D01*
X006239Y007874D02*
X004061Y007874D01*
X004061Y008032D02*
X006285Y008032D01*
X006122Y008191D02*
X004061Y008191D01*
X004061Y008349D02*
X006056Y008349D01*
X006048Y008508D02*
X004061Y008508D01*
X004061Y008666D02*
X006087Y008666D01*
X006190Y008825D02*
X004061Y008825D01*
X004061Y008983D02*
X006403Y008983D01*
X006166Y009142D02*
X004061Y009142D01*
X004061Y009300D02*
X006077Y009300D01*
X006048Y009459D02*
X004061Y009459D01*
X004061Y009617D02*
X006066Y009617D01*
X006141Y009776D02*
X004061Y009776D01*
X004061Y009934D02*
X006343Y009934D01*
X006215Y010093D02*
X004061Y010093D01*
X004061Y010251D02*
X006097Y010251D01*
X006048Y010410D02*
X004061Y010410D01*
X004061Y010568D02*
X006048Y010568D01*
X006112Y010727D02*
X004061Y010727D01*
X004061Y010885D02*
X006251Y010885D01*
X006264Y011044D02*
X004061Y011044D01*
X004061Y011202D02*
X006117Y011202D01*
X006052Y011361D02*
X004061Y011361D01*
X004061Y011519D02*
X006048Y011519D01*
X006091Y011678D02*
X004061Y011678D01*
X004061Y011836D02*
X006202Y011836D01*
X006326Y011995D02*
X004061Y011995D01*
X004061Y012153D02*
X006134Y012153D01*
X006052Y012312D02*
X004061Y012312D01*
X004061Y012470D02*
X006538Y012470D01*
X006578Y012470D02*
X007106Y012470D01*
X007106Y012312D02*
X007063Y012312D01*
X007106Y012153D02*
X006982Y012153D01*
X007106Y011995D02*
X006790Y011995D01*
X006914Y011836D02*
X007106Y011836D01*
X007106Y011678D02*
X007024Y011678D01*
X007068Y011519D02*
X007106Y011519D01*
X007106Y011361D02*
X007064Y011361D01*
X007106Y011202D02*
X006999Y011202D01*
X007106Y011044D02*
X006852Y011044D01*
X006865Y010885D02*
X007106Y010885D01*
X007106Y010727D02*
X007004Y010727D01*
X007068Y010568D02*
X007106Y010568D01*
X007106Y010410D02*
X007068Y010410D01*
X007106Y010251D02*
X007019Y010251D01*
X007106Y010093D02*
X006901Y010093D01*
X006773Y009934D02*
X007106Y009934D01*
X007106Y009776D02*
X006975Y009776D01*
X007049Y009617D02*
X007106Y009617D01*
X007106Y009459D02*
X007068Y009459D01*
X007039Y009300D02*
X007106Y009300D01*
X007106Y009142D02*
X006950Y009142D01*
X007106Y008983D02*
X006713Y008983D01*
X006926Y008825D02*
X007106Y008825D01*
X007106Y008666D02*
X007029Y008666D01*
X007068Y008508D02*
X007106Y008508D01*
X007106Y008349D02*
X007059Y008349D01*
X007106Y008191D02*
X006994Y008191D01*
X007106Y008032D02*
X006831Y008032D01*
X006877Y007874D02*
X007106Y007874D01*
X007106Y007715D02*
X007009Y007715D01*
X007068Y007557D02*
X007106Y007557D01*
X007106Y007398D02*
X007068Y007398D01*
X007106Y007240D02*
X007014Y007240D01*
X007106Y007081D02*
X006889Y007081D01*
X006801Y006923D02*
X007106Y006923D01*
X007106Y006764D02*
X006986Y006764D01*
X007054Y006606D02*
X007106Y006606D01*
X007106Y006447D02*
X007068Y006447D01*
X007034Y006289D02*
X007106Y006289D01*
X007106Y006130D02*
X006938Y006130D01*
X006313Y005021D02*
X004061Y005021D01*
X004061Y005179D02*
X006129Y005179D01*
X006061Y005338D02*
X004061Y005338D01*
X004061Y005496D02*
X006048Y005496D01*
X006082Y005655D02*
X004061Y005655D01*
X004061Y005813D02*
X006179Y005813D01*
X006228Y004862D02*
X004061Y004862D01*
X004061Y004704D02*
X006102Y004704D01*
X006048Y004545D02*
X004061Y004545D01*
X004061Y004387D02*
X006048Y004387D01*
X006107Y004228D02*
X004061Y004228D01*
X004061Y004070D02*
X006238Y004070D01*
X006288Y003911D02*
X004061Y003911D01*
X004061Y003753D02*
X006123Y003753D01*
X006057Y003594D02*
X004061Y003594D01*
X004061Y003436D02*
X006048Y003436D01*
X006086Y003277D02*
X004061Y003277D01*
X004061Y003119D02*
X006189Y003119D01*
X006167Y002802D02*
X004061Y002802D01*
X004061Y002960D02*
X006406Y002960D01*
X006077Y002643D02*
X004007Y002643D01*
X003927Y002485D02*
X006048Y002485D01*
X006066Y002326D02*
X003768Y002326D01*
X003610Y002168D02*
X006140Y002168D01*
X006341Y002009D02*
X003451Y002009D01*
X003293Y001851D02*
X006188Y001851D01*
X006076Y001692D02*
X003134Y001692D01*
X002976Y001534D02*
X006031Y001534D01*
X006037Y001375D02*
X002817Y001375D01*
X002013Y001217D02*
X006093Y001217D01*
X006225Y001058D02*
X001886Y001058D01*
X001293Y002009D02*
X000740Y002009D01*
X000740Y001851D02*
X001236Y001851D01*
X001106Y001692D02*
X000740Y001692D01*
X000740Y001534D02*
X001048Y001534D01*
X001048Y001375D02*
X000740Y001375D01*
X000740Y001217D02*
X001103Y001217D01*
X001230Y001058D02*
X000740Y001058D01*
X000950Y000741D02*
X007186Y000741D01*
X006578Y001058D02*
X006538Y001058D01*
X006538Y001217D02*
X006578Y001217D01*
X006578Y001375D02*
X006538Y001375D01*
X002629Y005940D02*
X002671Y006041D01*
X002677Y006096D01*
X002677Y007593D01*
X002639Y007555D01*
X002630Y007547D01*
X002478Y007395D01*
X002478Y007395D01*
X002408Y007324D01*
X002408Y007324D01*
X002136Y007212D01*
X002011Y007212D01*
X001990Y007163D01*
X001847Y007019D01*
X001706Y006961D01*
X001761Y006943D01*
X001836Y006905D01*
X001903Y006856D01*
X001962Y006797D01*
X002011Y006729D01*
X002049Y006655D01*
X002075Y006576D01*
X002088Y006493D01*
X002088Y006472D01*
X001578Y006472D01*
X001578Y006432D01*
X002088Y006432D01*
X002088Y006410D01*
X002075Y006328D01*
X002049Y006248D01*
X002011Y006174D01*
X001962Y006106D01*
X001903Y006047D01*
X001836Y005998D01*
X001761Y005960D01*
X001706Y005942D01*
X001847Y005884D01*
X001990Y005741D01*
X002019Y005672D01*
X002259Y005672D01*
X002311Y005677D01*
X002406Y005716D01*
X002446Y005749D01*
X002506Y005809D01*
X002510Y005813D01*
X002595Y005898D01*
X002629Y005940D01*
X002642Y005972D02*
X001784Y005972D01*
X001917Y005813D02*
X002510Y005813D01*
X002677Y006130D02*
X001980Y006130D01*
X002062Y006289D02*
X002677Y006289D01*
X002677Y006447D02*
X001578Y006447D01*
X001538Y006447D02*
X000740Y006447D01*
X000740Y006289D02*
X001054Y006289D01*
X001136Y006130D02*
X000740Y006130D01*
X000740Y005972D02*
X001332Y005972D01*
X001198Y005813D02*
X000740Y005813D01*
X000740Y005655D02*
X001090Y005655D01*
X001048Y005496D02*
X000740Y005496D01*
X000740Y005338D02*
X001053Y005338D01*
X001119Y005179D02*
X000740Y005179D01*
X000740Y005021D02*
X001267Y005021D01*
X001247Y004862D02*
X000740Y004862D01*
X000740Y004704D02*
X001110Y004704D01*
X001048Y004545D02*
X000740Y004545D01*
X000740Y004387D02*
X001048Y004387D01*
X001098Y004228D02*
X000740Y004228D01*
X000740Y004070D02*
X001218Y004070D01*
X001335Y003911D02*
X000740Y003911D01*
X000740Y003753D02*
X001138Y003753D01*
X001065Y003594D02*
X000740Y003594D01*
X000740Y003436D02*
X001048Y003436D01*
X001078Y003277D02*
X000740Y003277D01*
X000740Y003119D02*
X001169Y003119D01*
X001187Y002802D02*
X000740Y002802D01*
X000740Y002960D02*
X001411Y002960D01*
X001085Y002643D02*
X000740Y002643D01*
X000740Y002485D02*
X001048Y002485D01*
X001058Y002326D02*
X000740Y002326D01*
X000740Y002168D02*
X001123Y002168D01*
X001051Y006606D02*
X000740Y006606D01*
X000740Y006764D02*
X001130Y006764D01*
X001315Y006923D02*
X000740Y006923D01*
X000740Y007081D02*
X001207Y007081D01*
X001094Y007240D02*
X000740Y007240D01*
X000740Y007398D02*
X001048Y007398D01*
X001050Y007557D02*
X000740Y007557D01*
X000740Y007715D02*
X001115Y007715D01*
X001259Y007874D02*
X000740Y007874D01*
X000740Y008032D02*
X001256Y008032D01*
X001114Y008191D02*
X000740Y008191D01*
X000740Y008349D02*
X001048Y008349D01*
X001048Y008508D02*
X000740Y008508D01*
X000740Y008666D02*
X001095Y008666D01*
X001210Y008825D02*
X000740Y008825D01*
X000740Y008983D02*
X001356Y008983D01*
X001146Y009142D02*
X000740Y009142D01*
X000740Y009300D02*
X001069Y009300D01*
X001048Y009459D02*
X000740Y009459D01*
X000740Y009617D02*
X001075Y009617D01*
X001161Y009776D02*
X000740Y009776D01*
X000740Y009934D02*
X001391Y009934D01*
X001195Y010093D02*
X000740Y010093D01*
X000740Y010251D02*
X001089Y010251D01*
X001048Y010410D02*
X000740Y010410D01*
X000740Y010568D02*
X001054Y010568D01*
X001120Y010727D02*
X000740Y010727D01*
X000740Y010885D02*
X001272Y010885D01*
X001244Y011044D02*
X000740Y011044D01*
X000740Y011202D02*
X001109Y011202D01*
X001048Y011361D02*
X000740Y011361D01*
X000740Y011519D02*
X001048Y011519D01*
X001100Y011678D02*
X000740Y011678D01*
X000740Y011836D02*
X001221Y011836D01*
X001328Y011995D02*
X000740Y011995D01*
X000740Y012153D02*
X001135Y012153D01*
X001064Y012312D02*
X000740Y012312D01*
X000740Y012470D02*
X001048Y012470D01*
X001079Y012629D02*
X000740Y012629D01*
X000740Y012787D02*
X001172Y012787D01*
X001418Y012946D02*
X000740Y012946D01*
X000740Y013104D02*
X002401Y013104D01*
X002401Y012946D02*
X001697Y012946D01*
X001943Y012787D02*
X002401Y012787D01*
X002401Y012629D02*
X002037Y012629D01*
X002068Y012470D02*
X002401Y012470D01*
X002401Y012312D02*
X002052Y012312D01*
X001981Y012153D02*
X002401Y012153D01*
X002401Y011995D02*
X001788Y011995D01*
X001894Y011836D02*
X002401Y011836D01*
X002401Y011678D02*
X002016Y011678D01*
X002068Y011519D02*
X002401Y011519D01*
X002401Y011361D02*
X002068Y011361D01*
X002007Y011202D02*
X002401Y011202D01*
X002401Y011044D02*
X001871Y011044D01*
X001843Y010885D02*
X002401Y010885D01*
X002401Y010727D02*
X001996Y010727D01*
X002062Y010568D02*
X002401Y010568D01*
X002401Y010410D02*
X002068Y010410D01*
X002027Y010251D02*
X002401Y010251D01*
X002401Y010093D02*
X001920Y010093D01*
X001725Y009934D02*
X002401Y009934D01*
X002401Y009776D02*
X001955Y009776D01*
X002041Y009617D02*
X002401Y009617D01*
X002401Y009459D02*
X002068Y009459D01*
X002047Y009300D02*
X002401Y009300D01*
X002401Y009142D02*
X001969Y009142D01*
X001906Y008825D02*
X002401Y008825D01*
X002401Y008983D02*
X001760Y008983D01*
X002021Y008666D02*
X002401Y008666D01*
X002401Y008508D02*
X002068Y008508D01*
X002068Y008349D02*
X002401Y008349D01*
X002401Y008191D02*
X002002Y008191D01*
X002641Y008104D02*
X002639Y008060D01*
X002633Y008017D01*
X002624Y007975D01*
X002611Y007933D01*
X002594Y007893D01*
X002574Y007854D01*
X002551Y007817D01*
X002524Y007783D01*
X002495Y007750D01*
X002494Y007750D02*
X002342Y007598D01*
X002482Y007398D02*
X002677Y007398D01*
X002677Y007240D02*
X002204Y007240D01*
X001989Y007452D02*
X001558Y007452D01*
X001857Y007874D02*
X002279Y007874D01*
X002387Y008032D02*
X001860Y008032D01*
X001989Y007452D02*
X002033Y007454D01*
X002076Y007460D01*
X002118Y007469D01*
X002160Y007482D01*
X002200Y007499D01*
X002239Y007519D01*
X002276Y007542D01*
X002310Y007569D01*
X002343Y007598D01*
X002085Y007715D02*
X002001Y007715D01*
X001909Y007081D02*
X002677Y007081D01*
X002677Y006923D02*
X001801Y006923D01*
X001986Y006764D02*
X002677Y006764D01*
X002677Y006606D02*
X002065Y006606D01*
X002640Y007557D02*
X002677Y007557D01*
X002641Y008104D02*
X002641Y013743D01*
X002641Y014087D01*
X002401Y014055D02*
X000740Y014055D01*
X000740Y013897D02*
X002401Y013897D01*
X002401Y013738D02*
X000740Y013738D01*
X000740Y013580D02*
X002401Y013580D01*
X002401Y013421D02*
X000740Y013421D01*
X000740Y013263D02*
X002401Y013263D01*
X002641Y014087D02*
X002639Y014131D01*
X002633Y014174D01*
X002624Y014216D01*
X002611Y014258D01*
X002594Y014298D01*
X002574Y014337D01*
X002551Y014374D01*
X002524Y014408D01*
X002495Y014441D01*
X002494Y014441D02*
X001665Y015270D01*
X001589Y015006D02*
X000740Y015006D01*
X000740Y014848D02*
X001747Y014848D01*
X001906Y014689D02*
X000740Y014689D01*
X000740Y014531D02*
X002064Y014531D01*
X002223Y014372D02*
X000740Y014372D01*
X000740Y014214D02*
X002364Y014214D01*
X002888Y015165D02*
X002913Y015165D01*
X002913Y015323D02*
X002730Y015323D01*
X002731Y015482D02*
X002571Y015482D01*
X002658Y015640D02*
X002413Y015640D01*
X002402Y015799D02*
X002663Y015799D01*
X002748Y015957D02*
X002317Y015957D01*
X001519Y015623D02*
X001521Y015579D01*
X001527Y015536D01*
X001536Y015494D01*
X001549Y015452D01*
X001566Y015412D01*
X001586Y015373D01*
X001609Y015336D01*
X001636Y015302D01*
X001665Y015269D01*
X001430Y015165D02*
X000740Y015165D01*
X000740Y015323D02*
X001342Y015323D01*
X001279Y015482D02*
X000740Y015482D01*
X000740Y015640D02*
X001279Y015640D01*
X001279Y015799D02*
X000740Y015799D01*
X000740Y015957D02*
X001279Y015957D01*
X001279Y016116D02*
X000740Y016116D01*
X000740Y016274D02*
X001279Y016274D01*
X001055Y016433D02*
X000998Y016433D01*
X000998Y016591D02*
X001055Y016591D01*
X001026Y016735D02*
X001015Y016156D01*
X000768Y016433D02*
X000740Y016433D01*
X000998Y016763D02*
X000998Y017132D01*
X000987Y017132D01*
X000911Y017116D01*
X000839Y017087D01*
X000774Y017043D01*
X000740Y017009D01*
X000740Y017473D01*
X000813Y017400D01*
X000952Y017343D01*
X001101Y017343D01*
X001214Y017389D01*
X001236Y017367D01*
X001274Y017276D01*
X001279Y017227D01*
X001279Y017044D01*
X001214Y017087D01*
X001142Y017116D01*
X001066Y017132D01*
X001055Y017132D01*
X001055Y016763D01*
X000998Y016763D01*
X000998Y016908D02*
X001055Y016908D01*
X001055Y017067D02*
X000998Y017067D01*
X001518Y017227D02*
X001516Y017270D01*
X001511Y017312D01*
X001501Y017354D01*
X001488Y017395D01*
X001472Y017435D01*
X001452Y017473D01*
X001429Y017509D01*
X001403Y017543D01*
X001374Y017575D01*
X001342Y017604D01*
X001308Y017630D01*
X001272Y017653D01*
X001234Y017673D01*
X001194Y017689D01*
X001153Y017702D01*
X001111Y017712D01*
X001069Y017717D01*
X001026Y017719D01*
X001260Y018018D02*
X002825Y018018D01*
X002775Y018176D02*
X000740Y018176D01*
X000740Y018018D02*
X000792Y018018D01*
X000740Y018335D02*
X002634Y018335D01*
X002347Y018493D02*
X001329Y018493D01*
X001313Y018969D02*
X003152Y018969D01*
X003054Y018810D02*
X002696Y018810D01*
X002911Y018652D02*
X003063Y018652D01*
X003069Y018493D02*
X003176Y018493D01*
X003338Y018335D02*
X007396Y018335D01*
X007396Y018493D02*
X007353Y018493D01*
X007376Y018969D02*
X007396Y018969D01*
X007396Y019127D02*
X006588Y019127D01*
X006763Y018969D02*
X003546Y018969D01*
X003388Y019127D02*
X000740Y019127D01*
X000740Y019286D02*
X003326Y019286D01*
X003355Y019444D02*
X001256Y019444D01*
X000796Y019444D02*
X000740Y019444D01*
X000740Y020078D02*
X000843Y020078D01*
X000740Y020237D02*
X003991Y020237D01*
X003541Y019603D02*
X003062Y019603D01*
X003523Y018493D02*
X006787Y018493D01*
X006816Y018018D02*
X003323Y018018D01*
X003373Y018176D02*
X007396Y018176D01*
X007396Y018018D02*
X007323Y018018D01*
X007204Y017384D02*
X007196Y017384D01*
X007299Y017225D02*
X001759Y017225D01*
X001759Y017067D02*
X006887Y017067D01*
X006734Y016908D02*
X001759Y016908D01*
X001759Y016750D02*
X006693Y016750D01*
X006722Y016591D02*
X001759Y016591D01*
X001759Y016433D02*
X006839Y016433D01*
X007106Y016274D02*
X001759Y016274D01*
X001759Y016116D02*
X007106Y016116D01*
X007106Y015957D02*
X006313Y015957D01*
X006398Y015799D02*
X007106Y015799D01*
X007106Y015640D02*
X006403Y015640D01*
X006329Y015482D02*
X007106Y015482D01*
X007106Y015323D02*
X005949Y015323D01*
X005791Y015165D02*
X007106Y015165D01*
X007106Y015006D02*
X005632Y015006D01*
X005474Y014848D02*
X007106Y014848D01*
X007106Y014689D02*
X005315Y014689D01*
X005157Y014531D02*
X007106Y014531D01*
X007106Y014372D02*
X004998Y014372D01*
X004840Y014214D02*
X007106Y014214D01*
X007106Y014055D02*
X004681Y014055D01*
X004523Y013897D02*
X007106Y013897D01*
X007106Y013738D02*
X004364Y013738D01*
X004206Y013580D02*
X007106Y013580D01*
X007106Y013421D02*
X004086Y013421D01*
X004061Y013263D02*
X007106Y013263D01*
X007106Y013104D02*
X004061Y013104D01*
X004061Y012946D02*
X006322Y012946D01*
X006132Y012787D02*
X004061Y012787D01*
X004061Y012629D02*
X006052Y012629D01*
X006538Y012629D02*
X006578Y012629D01*
X006578Y012787D02*
X006538Y012787D01*
X006538Y012946D02*
X006578Y012946D01*
X006794Y012946D02*
X007106Y012946D01*
X007106Y012787D02*
X006983Y012787D01*
X007064Y012629D02*
X007106Y012629D01*
X005644Y015640D02*
X005379Y015640D01*
X005374Y015799D02*
X005655Y015799D01*
X005740Y015957D02*
X005289Y015957D01*
X005306Y015482D02*
X005486Y015482D01*
X005327Y015323D02*
X004926Y015323D01*
X004767Y015165D02*
X005169Y015165D01*
X005010Y015006D02*
X004609Y015006D01*
X004450Y014848D02*
X004852Y014848D01*
X004693Y014689D02*
X004292Y014689D01*
X004133Y014531D02*
X004535Y014531D01*
X004376Y014372D02*
X003975Y014372D01*
X003852Y014214D02*
X004218Y014214D01*
X004059Y014055D02*
X003825Y014055D01*
X003825Y013897D02*
X003901Y013897D01*
X003670Y014689D02*
X003589Y014689D01*
X003589Y014848D02*
X003828Y014848D01*
X003987Y015006D02*
X003635Y015006D01*
X003783Y015165D02*
X004145Y015165D01*
X004304Y015323D02*
X003942Y015323D01*
X003732Y015957D02*
X003321Y015957D01*
X003406Y015799D02*
X003647Y015799D01*
X003636Y015640D02*
X003411Y015640D01*
X003371Y015482D02*
X003478Y015482D01*
X003133Y015529D02*
X003130Y015554D01*
X003124Y015580D01*
X003116Y015604D01*
X003105Y015628D01*
X003091Y015650D01*
X003075Y015670D01*
X003057Y015689D01*
X004305Y015957D02*
X004716Y015957D01*
X004631Y015799D02*
X004390Y015799D01*
X004395Y015640D02*
X004621Y015640D01*
X004462Y015482D02*
X004321Y015482D01*
X006693Y017701D02*
X001588Y017701D01*
X001688Y017542D02*
X006744Y017542D01*
X006943Y017384D02*
X001754Y017384D01*
X001519Y017227D02*
X001519Y015623D01*
X001279Y017067D02*
X001244Y017067D01*
X001279Y017225D02*
X000740Y017225D01*
X000740Y017067D02*
X000809Y017067D01*
X000852Y017384D02*
X000740Y017384D01*
X001201Y017384D02*
X001220Y017384D01*
X001413Y017859D02*
X006712Y017859D01*
X007253Y017067D02*
X007339Y017067D01*
X007396Y019286D02*
X006933Y019286D01*
X007319Y019444D02*
X007396Y019444D01*
X007396Y020078D02*
X007206Y020078D01*
X006693Y020712D02*
X006358Y020712D01*
X006200Y020554D02*
X006581Y020554D01*
X006423Y020395D02*
X006040Y020395D01*
X005894Y020871D02*
X005436Y020871D01*
X005652Y021029D02*
X006053Y021029D01*
X006211Y021188D02*
X005810Y021188D01*
X005699Y020712D02*
X004696Y020712D01*
X004733Y021188D02*
X004960Y021188D01*
X005709Y020237D02*
X006260Y020237D01*
X006517Y020871D02*
X006720Y020871D01*
X006675Y021029D02*
X006835Y021029D01*
X006528Y021505D02*
X006127Y021505D01*
X006286Y021663D02*
X006687Y021663D01*
X006698Y021822D02*
X006444Y021822D01*
X006603Y021980D02*
X006783Y021980D01*
X006614Y022614D02*
X005969Y022614D01*
X006084Y022773D02*
X006674Y022773D01*
X006722Y022931D02*
X006163Y022931D01*
X006134Y022843D02*
X006134Y022843D01*
X006215Y023090D02*
X006913Y023090D01*
X006370Y021346D02*
X005969Y021346D01*
X006438Y025943D02*
X003526Y025943D01*
X003526Y026101D02*
X006201Y026101D01*
X005862Y026260D02*
X003526Y026260D01*
X003526Y026418D02*
X005243Y026418D01*
X003116Y025626D02*
X002976Y025626D01*
X002976Y025467D02*
X003116Y025467D01*
X003116Y025309D02*
X002976Y025309D01*
X002976Y025150D02*
X003116Y025150D01*
X003116Y024992D02*
X002976Y024992D01*
X002976Y024833D02*
X003116Y024833D01*
X002566Y025943D02*
X002506Y025943D01*
X002506Y026101D02*
X002566Y026101D01*
X002566Y026260D02*
X002506Y026260D01*
X002506Y026418D02*
X002566Y026418D01*
X000777Y022456D02*
X000740Y022456D01*
X000740Y021029D02*
X000792Y021029D01*
X000740Y020395D02*
X000853Y020395D01*
D14*
X001026Y020731D02*
X002483Y020731D01*
X002168Y021735D02*
X001026Y021735D01*
X001559Y022346D02*
X001555Y022384D01*
X001548Y022421D01*
X001537Y022458D01*
X001523Y022494D01*
X001506Y022528D01*
X001486Y022560D01*
X001463Y022591D01*
X001437Y022619D01*
X001409Y022645D01*
X001378Y022668D01*
X001346Y022688D01*
X001312Y022705D01*
X001276Y022719D01*
X001239Y022729D01*
X001202Y022736D01*
X001164Y022740D01*
X001125Y022740D01*
X001026Y019747D02*
X002798Y019747D01*
X002773Y018493D02*
X003074Y018192D01*
X002772Y018492D02*
X002735Y018528D01*
X002695Y018560D01*
X002653Y018590D01*
X002610Y018618D01*
X002564Y018642D01*
X002517Y018663D01*
X002469Y018681D01*
X002420Y018696D01*
X002370Y018708D01*
X002319Y018716D01*
X002267Y018721D01*
X002216Y018723D01*
X001026Y018723D01*
X002641Y013743D02*
X002641Y013723D01*
D15*
X002897Y014638D02*
X002895Y014682D01*
X002889Y014725D01*
X002880Y014767D01*
X002867Y014809D01*
X002850Y014849D01*
X002830Y014888D01*
X002807Y014925D01*
X002780Y014959D01*
X002751Y014992D01*
X002750Y014992D02*
X002030Y015711D01*
X002897Y014638D02*
X002897Y006096D01*
X002750Y005742D02*
X002601Y005593D01*
X003133Y005525D02*
X003131Y005481D01*
X003125Y005438D01*
X003116Y005396D01*
X003103Y005354D01*
X003086Y005314D01*
X003066Y005275D01*
X003043Y005238D01*
X003016Y005204D01*
X002987Y005171D01*
X002986Y005171D02*
X002413Y004598D01*
X002595Y003598D02*
X002562Y003569D01*
X002528Y003542D01*
X002491Y003519D01*
X002452Y003499D01*
X002412Y003482D01*
X002370Y003469D01*
X002328Y003460D01*
X002285Y003454D01*
X002241Y003452D01*
X001558Y003452D01*
X001562Y003448D01*
X001558Y002452D02*
X002174Y002452D01*
X002218Y002454D01*
X002261Y002460D01*
X002303Y002469D01*
X002345Y002482D01*
X002385Y002499D01*
X002424Y002519D01*
X002461Y002542D01*
X002495Y002569D01*
X002528Y002598D01*
X003459Y003529D01*
X003605Y003883D02*
X003605Y014107D01*
X003752Y014460D02*
X005003Y015711D01*
X003751Y014461D02*
X003722Y014428D01*
X003695Y014394D01*
X003672Y014357D01*
X003652Y014318D01*
X003635Y014278D01*
X003622Y014236D01*
X003613Y014194D01*
X003607Y014151D01*
X003605Y014107D01*
X003841Y013319D02*
X003841Y002918D01*
X003695Y002564D02*
X002729Y001598D01*
X002375Y001452D02*
X001558Y001452D01*
X002375Y001452D02*
X002419Y001454D01*
X002462Y001460D01*
X002504Y001469D01*
X002546Y001482D01*
X002586Y001499D01*
X002625Y001519D01*
X002662Y001542D01*
X002696Y001569D01*
X002729Y001598D01*
X003695Y002564D02*
X003724Y002597D01*
X003751Y002631D01*
X003774Y002668D01*
X003794Y002707D01*
X003811Y002747D01*
X003824Y002789D01*
X003833Y002831D01*
X003839Y002874D01*
X003841Y002918D01*
X002594Y003598D02*
X003223Y004226D01*
X003605Y003883D02*
X003603Y003839D01*
X003597Y003796D01*
X003588Y003754D01*
X003575Y003712D01*
X003558Y003672D01*
X003538Y003633D01*
X003515Y003596D01*
X003488Y003562D01*
X003459Y003529D01*
X003369Y004580D02*
X003369Y014855D01*
X003515Y015208D02*
X004019Y015711D01*
X003515Y015209D02*
X003486Y015176D01*
X003459Y015142D01*
X003436Y015105D01*
X003416Y015066D01*
X003399Y015026D01*
X003386Y014984D01*
X003377Y014942D01*
X003371Y014899D01*
X003369Y014855D01*
X003133Y015529D02*
X003133Y005525D01*
X003369Y004580D02*
X003367Y004536D01*
X003361Y004493D01*
X003352Y004451D01*
X003339Y004409D01*
X003322Y004369D01*
X003302Y004330D01*
X003279Y004293D01*
X003252Y004259D01*
X003223Y004226D01*
X002751Y005742D02*
X002780Y005775D01*
X002807Y005809D01*
X002830Y005846D01*
X002850Y005885D01*
X002867Y005925D01*
X002880Y005967D01*
X002889Y006009D01*
X002895Y006052D01*
X002897Y006096D01*
X002601Y005594D02*
X002570Y005565D01*
X002537Y005540D01*
X002501Y005517D01*
X002464Y005497D01*
X002425Y005481D01*
X002384Y005468D01*
X002343Y005459D01*
X002301Y005454D01*
X002259Y005452D01*
X001558Y005452D01*
X002060Y004452D02*
X002104Y004454D01*
X002147Y004460D01*
X002189Y004469D01*
X002231Y004482D01*
X002271Y004499D01*
X002310Y004519D01*
X002347Y004542D01*
X002381Y004569D01*
X002414Y004598D01*
X002060Y004452D02*
X001558Y004452D01*
X003841Y013319D02*
X003843Y013363D01*
X003849Y013406D01*
X003858Y013448D01*
X003871Y013490D01*
X003888Y013530D01*
X003908Y013569D01*
X003931Y013606D01*
X003958Y013640D01*
X003987Y013673D01*
X003988Y013673D02*
X006026Y015711D01*
X007562Y017030D02*
X007560Y017084D01*
X007554Y017138D01*
X007544Y017191D01*
X007530Y017243D01*
X007513Y017294D01*
X007492Y017344D01*
X007468Y017392D01*
X007441Y017438D01*
X007410Y017483D01*
X007376Y017525D01*
X007339Y017564D01*
X007300Y017601D01*
X007258Y017635D01*
X007214Y017666D01*
X007168Y017694D01*
X007120Y017718D01*
X007070Y017739D01*
X007070Y018743D02*
X003349Y018743D01*
X003625Y019314D02*
X006330Y019314D01*
X006381Y019316D01*
X006433Y019321D01*
X006484Y019329D01*
X006534Y019341D01*
X006583Y019356D01*
X006631Y019374D01*
X006678Y019395D01*
X006724Y019419D01*
X006767Y019447D01*
X006809Y019477D01*
X006849Y019509D01*
X006886Y019545D01*
X006887Y019544D02*
X007070Y019727D01*
X006454Y020115D02*
X007070Y020731D01*
X007070Y021735D02*
X005981Y020647D01*
X006453Y020116D02*
X006416Y020080D01*
X006376Y020048D01*
X006334Y020018D01*
X006291Y019990D01*
X006245Y019966D01*
X006198Y019945D01*
X006150Y019927D01*
X006101Y019912D01*
X006051Y019900D01*
X006000Y019892D01*
X005948Y019887D01*
X005897Y019885D01*
X003920Y019885D01*
X004235Y020416D02*
X005425Y020416D01*
X004952Y020967D02*
X004530Y020967D01*
X004805Y021893D02*
X005416Y021893D01*
X005101Y022444D02*
X004826Y022444D01*
X004805Y021893D02*
X004751Y021895D01*
X004697Y021901D01*
X004644Y021910D01*
X004591Y021924D01*
X004540Y021941D01*
X004490Y021961D01*
X004442Y021986D01*
X004395Y022013D01*
X004351Y022044D01*
X004309Y022078D01*
X004269Y022115D01*
X004038Y022672D02*
X004038Y023743D01*
X004039Y022672D02*
X004041Y022621D01*
X004046Y022569D01*
X004054Y022518D01*
X004066Y022468D01*
X004081Y022419D01*
X004099Y022371D01*
X004120Y022324D01*
X004144Y022278D01*
X004172Y022235D01*
X004202Y022193D01*
X004234Y022153D01*
X004270Y022116D01*
X004952Y020968D02*
X005003Y020970D01*
X005055Y020975D01*
X005106Y020983D01*
X005156Y020995D01*
X005205Y021010D01*
X005253Y021028D01*
X005300Y021049D01*
X005346Y021073D01*
X005389Y021101D01*
X005431Y021131D01*
X005471Y021163D01*
X005508Y021199D01*
X005509Y021198D02*
X007050Y022739D01*
X006026Y023369D02*
X006026Y023743D01*
X005101Y023684D02*
X005042Y023743D01*
X005042Y023526D01*
X005121Y023448D01*
X005121Y023054D01*
X005101Y022444D02*
X005159Y022446D01*
X005217Y022451D01*
X005274Y022460D01*
X005331Y022473D01*
X005387Y022489D01*
X005442Y022509D01*
X005495Y022532D01*
X005547Y022558D01*
X005597Y022588D01*
X005645Y022621D01*
X005691Y022656D01*
X005734Y022695D01*
X005775Y022736D01*
X005814Y022779D01*
X005849Y022825D01*
X005882Y022873D01*
X005912Y022923D01*
X005938Y022975D01*
X005961Y023028D01*
X005981Y023083D01*
X005997Y023139D01*
X006010Y023196D01*
X006019Y023253D01*
X006024Y023311D01*
X006026Y023369D01*
X005062Y023723D02*
X005042Y023743D01*
X005981Y020648D02*
X005944Y020612D01*
X005904Y020580D01*
X005862Y020550D01*
X005819Y020522D01*
X005773Y020498D01*
X005726Y020477D01*
X005678Y020459D01*
X005629Y020444D01*
X005579Y020432D01*
X005528Y020424D01*
X005476Y020419D01*
X005425Y020417D01*
X007070Y016735D02*
X007191Y016614D01*
X007326Y016336D02*
X007326Y003865D01*
X007323Y003828D01*
X007317Y003791D01*
X007308Y003755D01*
X007295Y003720D01*
X007279Y003686D01*
X007260Y003654D01*
X007238Y003624D01*
X007214Y003596D01*
X007187Y003570D01*
X007158Y003547D01*
X007126Y003526D01*
X007093Y003509D01*
X007059Y003495D01*
X007023Y003484D01*
X006987Y003476D01*
X006949Y003472D01*
X006912Y003471D01*
X006558Y003471D01*
X006558Y002472D02*
X006609Y002457D01*
X006662Y002445D01*
X006714Y002437D01*
X006768Y002433D01*
X006821Y002432D01*
X006874Y002436D01*
X006927Y002443D01*
X006979Y002453D01*
X007031Y002468D01*
X007081Y002485D01*
X007130Y002507D01*
X007177Y002532D01*
X007223Y002560D01*
X007266Y002591D01*
X007307Y002625D01*
X007346Y002662D01*
X007382Y002701D01*
X007415Y002743D01*
X007445Y002787D01*
X007472Y002833D01*
X007495Y002881D01*
X007515Y002931D01*
X007532Y002981D01*
X007545Y003033D01*
X007554Y003086D01*
X007560Y003139D01*
X007562Y003192D01*
X007562Y017030D01*
X007190Y016614D02*
X007216Y016589D01*
X007239Y016563D01*
X007259Y016534D01*
X007277Y016504D01*
X007293Y016472D01*
X007305Y016439D01*
X007315Y016405D01*
X007322Y016371D01*
X007325Y016336D01*
X003057Y015689D02*
X003034Y015711D01*
X001237Y018723D02*
X001026Y018723D01*
X001026Y018704D01*
X001026Y021735D02*
X001257Y021735D01*
X001558Y022286D02*
X001558Y022345D01*
X001125Y022739D02*
X001026Y022739D01*
D16*
X001558Y022286D03*
X002168Y021735D03*
X002483Y020731D03*
X002798Y019747D03*
X003349Y018743D03*
X003074Y018192D03*
X003625Y019314D03*
X003920Y019885D03*
X004235Y020416D03*
X004530Y020967D03*
X004826Y022444D03*
X005121Y023054D03*
X005416Y021893D03*
X002621Y024078D03*
X002621Y024530D03*
X001420Y024530D03*
X001420Y024078D03*
D17*
X002046Y023781D02*
X002044Y023767D01*
X002039Y023754D01*
X002030Y023743D01*
X002046Y023781D02*
X002046Y025810D01*
M02*
