G75*
%MOIN*%
%OFA0B0*%
%FSLAX25Y25*%
%IPPOS*%
%LPD*%
%AMOC8*
5,1,8,0,0,1.08239X$1,22.5*
%
%ADD10C,0.05000*%
%ADD11C,0.07000*%
%ADD12R,0.06000X0.16000*%
%ADD13C,0.01600*%
%ADD14C,0.02581*%
%ADD15C,0.01000*%
%ADD16C,0.05906*%
D10*
X0023050Y0163300D03*
X0033050Y0163300D03*
X0043050Y0163300D03*
X0053050Y0163300D03*
X0063050Y0163300D03*
X0073050Y0173300D03*
X0073050Y0183300D03*
X0073050Y0193300D03*
X0073050Y0203300D03*
X0073050Y0213300D03*
X0073050Y0223300D03*
X0073050Y0233300D03*
X0063050Y0243300D03*
X0053050Y0243300D03*
X0043050Y0243300D03*
X0033050Y0243300D03*
X0023050Y0243300D03*
X0013050Y0233300D03*
X0013050Y0223300D03*
X0013050Y0213300D03*
X0013050Y0203300D03*
X0013050Y0193300D03*
X0013050Y0183300D03*
X0013050Y0173300D03*
D11*
X0013050Y0123300D03*
X0013050Y0113300D03*
X0013050Y0103300D03*
X0013050Y0093300D03*
X0013050Y0083300D03*
X0013050Y0073300D03*
X0013050Y0063300D03*
X0013050Y0053300D03*
X0013050Y0043300D03*
X0013050Y0033300D03*
X0013050Y0023300D03*
X0013050Y0013300D03*
X0073050Y0013300D03*
X0073050Y0023300D03*
X0073050Y0033300D03*
X0073050Y0043300D03*
X0073050Y0053300D03*
X0073050Y0063300D03*
X0073050Y0073300D03*
X0073050Y0083300D03*
X0073050Y0093300D03*
X0073050Y0103300D03*
X0073050Y0113300D03*
X0073050Y0123300D03*
D12*
X0033050Y0263300D03*
X0023050Y0263300D03*
X0013050Y0263300D03*
D13*
X0004689Y0010674D02*
X0005385Y0008531D01*
X0006709Y0006709D01*
X0008531Y0005385D01*
X0010674Y0004689D01*
X0011800Y0004600D01*
X0074300Y0004600D01*
X0075426Y0004689D01*
X0077569Y0005385D01*
X0079391Y0006709D01*
X0080715Y0008531D01*
X0081411Y0010674D01*
X0081500Y0011800D01*
X0081500Y0029063D01*
X0081395Y0028958D01*
X0081123Y0028686D01*
X0077587Y0025150D01*
X0077950Y0024275D01*
X0077950Y0022325D01*
X0077204Y0020524D01*
X0075826Y0019146D01*
X0074220Y0018481D01*
X0074291Y0018469D01*
X0075084Y0018212D01*
X0075828Y0017833D01*
X0076503Y0017343D01*
X0077093Y0016753D01*
X0077583Y0016078D01*
X0077962Y0015334D01*
X0078219Y0014541D01*
X0078350Y0013717D01*
X0078350Y0013500D01*
X0073250Y0013500D01*
X0073250Y0013100D01*
X0078350Y0013100D01*
X0078350Y0012883D01*
X0078219Y0012059D01*
X0077962Y0011266D01*
X0077583Y0010522D01*
X0077093Y0009847D01*
X0076503Y0009257D01*
X0075828Y0008767D01*
X0075084Y0008388D01*
X0074291Y0008130D01*
X0073467Y0008000D01*
X0073250Y0008000D01*
X0073250Y0013100D01*
X0072850Y0013100D01*
X0072850Y0008000D01*
X0072633Y0008000D01*
X0071809Y0008130D01*
X0071016Y0008388D01*
X0070272Y0008767D01*
X0069597Y0009257D01*
X0069007Y0009847D01*
X0068517Y0010522D01*
X0068138Y0011266D01*
X0067880Y0012059D01*
X0067750Y0012883D01*
X0067750Y0013100D01*
X0072850Y0013100D01*
X0072850Y0013500D01*
X0067750Y0013500D01*
X0067750Y0013717D01*
X0067880Y0014541D01*
X0068138Y0015334D01*
X0068517Y0016078D01*
X0069007Y0016753D01*
X0069597Y0017343D01*
X0070272Y0017833D01*
X0071016Y0018212D01*
X0071809Y0018469D01*
X0071880Y0018481D01*
X0070274Y0019146D01*
X0068896Y0020524D01*
X0068150Y0022325D01*
X0068150Y0024275D01*
X0068896Y0026076D01*
X0070274Y0027454D01*
X0072075Y0028200D01*
X0074025Y0028200D01*
X0074900Y0027837D01*
X0078436Y0031373D01*
X0078436Y0031373D01*
X0078983Y0031920D01*
X0078992Y0031929D01*
X0079378Y0032399D01*
X0079840Y0033516D01*
X0079900Y0034121D01*
X0079900Y0166595D01*
X0079324Y0166019D01*
X0078335Y0165609D01*
X0077265Y0165609D01*
X0076276Y0166019D01*
X0075519Y0166776D01*
X0075109Y0167765D01*
X0075109Y0168554D01*
X0074135Y0169528D01*
X0073826Y0169400D01*
X0072274Y0169400D01*
X0070841Y0169994D01*
X0069744Y0171091D01*
X0069150Y0172524D01*
X0069150Y0174076D01*
X0069744Y0175509D01*
X0070841Y0176606D01*
X0072274Y0177200D01*
X0073826Y0177200D01*
X0075259Y0176606D01*
X0076356Y0175509D01*
X0076950Y0174076D01*
X0076950Y0172524D01*
X0076822Y0172215D01*
X0078046Y0170991D01*
X0078335Y0170991D01*
X0079324Y0170581D01*
X0079900Y0170005D01*
X0079900Y0172479D01*
X0079840Y0173084D01*
X0079378Y0174201D01*
X0078992Y0174671D01*
X0078955Y0174708D01*
X0078436Y0175227D01*
X0078436Y0175227D01*
X0074135Y0179528D01*
X0073826Y0179400D01*
X0072274Y0179400D01*
X0070841Y0179994D01*
X0069744Y0181091D01*
X0069150Y0182524D01*
X0069150Y0184076D01*
X0069744Y0185509D01*
X0070841Y0186606D01*
X0072274Y0187200D01*
X0073826Y0187200D01*
X0075259Y0186606D01*
X0076356Y0185509D01*
X0076950Y0184076D01*
X0076950Y0182524D01*
X0076822Y0182215D01*
X0081500Y0177537D01*
X0081500Y0253615D01*
X0081394Y0255505D01*
X0080552Y0259192D01*
X0078912Y0262598D01*
X0076554Y0265554D01*
X0073598Y0267912D01*
X0070192Y0269552D01*
X0066505Y0270394D01*
X0064615Y0270500D01*
X0037850Y0270500D01*
X0037850Y0264000D01*
X0033750Y0264000D01*
X0033750Y0262600D01*
X0037850Y0262600D01*
X0037850Y0255063D01*
X0037727Y0254605D01*
X0037490Y0254195D01*
X0037155Y0253860D01*
X0036745Y0253623D01*
X0036287Y0253500D01*
X0033750Y0253500D01*
X0033750Y0262600D01*
X0032350Y0262600D01*
X0032350Y0253500D01*
X0029813Y0253500D01*
X0029355Y0253623D01*
X0028945Y0253860D01*
X0028610Y0254195D01*
X0028373Y0254605D01*
X0028250Y0255063D01*
X0028250Y0262600D01*
X0032350Y0262600D01*
X0032350Y0264000D01*
X0028250Y0264000D01*
X0028250Y0270500D01*
X0027450Y0270500D01*
X0027450Y0254720D01*
X0026630Y0253900D01*
X0025250Y0253900D01*
X0025250Y0246610D01*
X0025259Y0246606D01*
X0026356Y0245509D01*
X0026950Y0244076D01*
X0026950Y0242524D01*
X0026356Y0241091D01*
X0025259Y0239994D01*
X0023826Y0239400D01*
X0022274Y0239400D01*
X0020841Y0239994D01*
X0019744Y0241091D01*
X0019150Y0242524D01*
X0019150Y0244076D01*
X0019744Y0245509D01*
X0020841Y0246606D01*
X0020850Y0246610D01*
X0020850Y0253900D01*
X0019470Y0253900D01*
X0018650Y0254720D01*
X0018650Y0270500D01*
X0017850Y0270500D01*
X0017850Y0264000D01*
X0013750Y0264000D01*
X0013750Y0262600D01*
X0017850Y0262600D01*
X0017850Y0255063D01*
X0017727Y0254605D01*
X0017490Y0254195D01*
X0017155Y0253860D01*
X0016745Y0253623D01*
X0016287Y0253500D01*
X0013750Y0253500D01*
X0013750Y0262600D01*
X0012350Y0262600D01*
X0012350Y0253500D01*
X0009813Y0253500D01*
X0009355Y0253623D01*
X0008945Y0253860D01*
X0008610Y0254195D01*
X0008373Y0254605D01*
X0008250Y0255063D01*
X0008250Y0262600D01*
X0012350Y0262600D01*
X0012350Y0264000D01*
X0008250Y0264000D01*
X0008250Y0270500D01*
X0006800Y0270500D01*
X0006371Y0270458D01*
X0005578Y0270129D01*
X0004971Y0269522D01*
X0004642Y0268729D01*
X0004600Y0268300D01*
X0004600Y0011800D01*
X0004689Y0010674D01*
X0004734Y0010535D02*
X0008892Y0010535D01*
X0008896Y0010524D02*
X0010274Y0009146D01*
X0012075Y0008400D01*
X0014025Y0008400D01*
X0015826Y0009146D01*
X0017204Y0010524D01*
X0017950Y0012325D01*
X0017950Y0014275D01*
X0017587Y0015150D01*
X0031486Y0029049D01*
X0031900Y0029463D01*
X0032950Y0031999D01*
X0032950Y0132729D01*
X0033010Y0133334D01*
X0033472Y0134451D01*
X0033858Y0134921D01*
X0033898Y0134961D01*
X0034414Y0135477D01*
X0034414Y0135477D01*
X0059605Y0160668D01*
X0059886Y0160949D01*
X0060841Y0159994D01*
X0062274Y0159400D01*
X0063826Y0159400D01*
X0065259Y0159994D01*
X0066356Y0161091D01*
X0066950Y0162524D01*
X0066950Y0164076D01*
X0066356Y0165509D01*
X0065259Y0166606D01*
X0063826Y0167200D01*
X0062274Y0167200D01*
X0060841Y0166606D01*
X0059744Y0165509D01*
X0059596Y0165153D01*
X0058093Y0164530D01*
X0057561Y0163998D01*
X0056950Y0163387D01*
X0056950Y0164076D01*
X0056356Y0165509D01*
X0055259Y0166606D01*
X0053826Y0167200D01*
X0052274Y0167200D01*
X0050841Y0166606D01*
X0049744Y0165509D01*
X0049441Y0164778D01*
X0048843Y0164530D01*
X0048268Y0163955D01*
X0046950Y0162637D01*
X0046950Y0164076D01*
X0046356Y0165509D01*
X0045259Y0166606D01*
X0043826Y0167200D01*
X0042274Y0167200D01*
X0040841Y0166606D01*
X0039744Y0165509D01*
X0039150Y0164076D01*
X0039150Y0162524D01*
X0039278Y0162215D01*
X0027727Y0150664D01*
X0027634Y0150571D01*
X0026950Y0149887D01*
X0026950Y0150979D01*
X0027010Y0151584D01*
X0027472Y0152701D01*
X0027858Y0153171D01*
X0027878Y0153191D01*
X0028414Y0153727D01*
X0028414Y0153727D01*
X0034272Y0159585D01*
X0035259Y0159994D01*
X0036356Y0161091D01*
X0036950Y0162524D01*
X0036950Y0164076D01*
X0036356Y0165509D01*
X0035259Y0166606D01*
X0033826Y0167200D01*
X0032274Y0167200D01*
X0030841Y0166606D01*
X0029744Y0165509D01*
X0029150Y0164076D01*
X0029150Y0162524D01*
X0029744Y0161091D01*
X0030074Y0160761D01*
X0025727Y0156414D01*
X0025570Y0156257D01*
X0024950Y0155637D01*
X0024950Y0159866D01*
X0025259Y0159994D01*
X0026356Y0161091D01*
X0026950Y0162524D01*
X0026950Y0164076D01*
X0026356Y0165509D01*
X0025259Y0166606D01*
X0023826Y0167200D01*
X0022274Y0167200D01*
X0020841Y0166606D01*
X0019950Y0165715D01*
X0019950Y0177601D01*
X0018900Y0180137D01*
X0018900Y0180137D01*
X0018486Y0180551D01*
X0017929Y0181108D01*
X0017373Y0181664D01*
X0016822Y0182215D01*
X0016950Y0182524D01*
X0016950Y0184076D01*
X0016356Y0185509D01*
X0015259Y0186606D01*
X0013826Y0187200D01*
X0012274Y0187200D01*
X0010841Y0186606D01*
X0009744Y0185509D01*
X0009150Y0184076D01*
X0009150Y0182524D01*
X0009744Y0181091D01*
X0010841Y0179994D01*
X0012274Y0179400D01*
X0013826Y0179400D01*
X0014135Y0179528D01*
X0014686Y0178977D01*
X0015242Y0178421D01*
X0015628Y0177951D01*
X0016090Y0176834D01*
X0016144Y0176287D01*
X0015851Y0176580D01*
X0015304Y0176978D01*
X0014701Y0177285D01*
X0014057Y0177494D01*
X0013500Y0177582D01*
X0013500Y0173750D01*
X0012600Y0173750D01*
X0012600Y0177582D01*
X0012043Y0177494D01*
X0011399Y0177285D01*
X0010796Y0176978D01*
X0010249Y0176580D01*
X0009770Y0176101D01*
X0009372Y0175554D01*
X0009065Y0174951D01*
X0008856Y0174307D01*
X0008768Y0173750D01*
X0012600Y0173750D01*
X0012600Y0172850D01*
X0013500Y0172850D01*
X0013500Y0169018D01*
X0014057Y0169106D01*
X0014701Y0169315D01*
X0015304Y0169622D01*
X0015851Y0170020D01*
X0016150Y0170319D01*
X0016150Y0156999D01*
X0017200Y0154463D01*
X0017200Y0154463D01*
X0017614Y0154049D01*
X0017614Y0154049D01*
X0017686Y0153977D01*
X0017991Y0153672D01*
X0018242Y0153421D01*
X0018628Y0152951D01*
X0019090Y0151834D01*
X0019150Y0151229D01*
X0019150Y0081121D01*
X0019090Y0080516D01*
X0018628Y0079399D01*
X0018242Y0078929D01*
X0018197Y0078884D01*
X0017686Y0078373D01*
X0016296Y0076983D01*
X0015826Y0077454D01*
X0014025Y0078200D01*
X0012075Y0078200D01*
X0010274Y0077454D01*
X0008896Y0076076D01*
X0008150Y0074275D01*
X0008150Y0072325D01*
X0008896Y0070524D01*
X0010274Y0069146D01*
X0011880Y0068481D01*
X0011809Y0068469D01*
X0011016Y0068212D01*
X0010272Y0067833D01*
X0009597Y0067343D01*
X0009007Y0066753D01*
X0008517Y0066078D01*
X0008138Y0065334D01*
X0007880Y0064541D01*
X0007750Y0063717D01*
X0007750Y0063500D01*
X0012850Y0063500D01*
X0012850Y0063100D01*
X0007750Y0063100D01*
X0007750Y0062883D01*
X0007880Y0062059D01*
X0008138Y0061266D01*
X0008517Y0060522D01*
X0009007Y0059847D01*
X0009597Y0059257D01*
X0010272Y0058767D01*
X0011016Y0058388D01*
X0011809Y0058130D01*
X0011880Y0058119D01*
X0010274Y0057454D01*
X0008896Y0056076D01*
X0008150Y0054275D01*
X0008150Y0052325D01*
X0008896Y0050524D01*
X0010274Y0049146D01*
X0012075Y0048400D01*
X0014025Y0048400D01*
X0015826Y0049146D01*
X0017204Y0050524D01*
X0017950Y0052325D01*
X0017950Y0054275D01*
X0017587Y0055150D01*
X0023150Y0060713D01*
X0023150Y0057371D01*
X0023090Y0056766D01*
X0022628Y0055649D01*
X0022242Y0055179D01*
X0022168Y0055105D01*
X0021686Y0054623D01*
X0014900Y0047837D01*
X0014025Y0048200D01*
X0012075Y0048200D01*
X0010274Y0047454D01*
X0008896Y0046076D01*
X0008150Y0044275D01*
X0008150Y0042325D01*
X0008896Y0040524D01*
X0010274Y0039146D01*
X0012075Y0038400D01*
X0014025Y0038400D01*
X0015826Y0039146D01*
X0017204Y0040524D01*
X0017950Y0042325D01*
X0017950Y0044275D01*
X0017587Y0045150D01*
X0025150Y0052713D01*
X0025150Y0049371D01*
X0025090Y0048766D01*
X0024628Y0047649D01*
X0024242Y0047179D01*
X0024199Y0047136D01*
X0023686Y0046623D01*
X0014900Y0037837D01*
X0014025Y0038200D01*
X0012075Y0038200D01*
X0010274Y0037454D01*
X0008896Y0036076D01*
X0008150Y0034275D01*
X0008150Y0032325D01*
X0008896Y0030524D01*
X0010274Y0029146D01*
X0012075Y0028400D01*
X0014025Y0028400D01*
X0015826Y0029146D01*
X0017204Y0030524D01*
X0017950Y0032325D01*
X0017950Y0034275D01*
X0017587Y0035150D01*
X0027150Y0044713D01*
X0027150Y0041371D01*
X0027090Y0040766D01*
X0026628Y0039649D01*
X0026242Y0039179D01*
X0026173Y0039110D01*
X0025686Y0038623D01*
X0014900Y0027837D01*
X0014025Y0028200D01*
X0012075Y0028200D01*
X0010274Y0027454D01*
X0008896Y0026076D01*
X0008150Y0024275D01*
X0008150Y0022325D01*
X0008896Y0020524D01*
X0010274Y0019146D01*
X0012075Y0018400D01*
X0014025Y0018400D01*
X0015826Y0019146D01*
X0017204Y0020524D01*
X0017950Y0022325D01*
X0017950Y0024275D01*
X0017587Y0025150D01*
X0029150Y0036713D01*
X0029150Y0033371D01*
X0029090Y0032766D01*
X0028628Y0031649D01*
X0028242Y0031179D01*
X0028196Y0031133D01*
X0027686Y0030623D01*
X0014900Y0017837D01*
X0014025Y0018200D01*
X0012075Y0018200D01*
X0010274Y0017454D01*
X0008896Y0016076D01*
X0008150Y0014275D01*
X0008150Y0012325D01*
X0008896Y0010524D01*
X0008229Y0012134D02*
X0004600Y0012134D01*
X0004600Y0013732D02*
X0008150Y0013732D01*
X0008587Y0015331D02*
X0004600Y0015331D01*
X0004600Y0016929D02*
X0009750Y0016929D01*
X0009294Y0020126D02*
X0004600Y0020126D01*
X0004600Y0018528D02*
X0011767Y0018528D01*
X0014333Y0018528D02*
X0015591Y0018528D01*
X0016806Y0020126D02*
X0017189Y0020126D01*
X0017701Y0021725D02*
X0018788Y0021725D01*
X0017950Y0023323D02*
X0020386Y0023323D01*
X0018957Y0026520D02*
X0023583Y0026520D01*
X0025182Y0028119D02*
X0020556Y0028119D01*
X0019977Y0032914D02*
X0017950Y0032914D01*
X0017851Y0034513D02*
X0021576Y0034513D01*
X0023174Y0036111D02*
X0018548Y0036111D01*
X0017970Y0040907D02*
X0017362Y0040907D01*
X0017950Y0042505D02*
X0019568Y0042505D01*
X0021167Y0044104D02*
X0017950Y0044104D01*
X0018139Y0045702D02*
X0022765Y0045702D01*
X0023686Y0046623D02*
X0023686Y0046623D01*
X0024342Y0047301D02*
X0019738Y0047301D01*
X0021336Y0048899D02*
X0025104Y0048899D01*
X0025150Y0050498D02*
X0022935Y0050498D01*
X0021686Y0054623D02*
X0021686Y0054623D01*
X0022336Y0055293D02*
X0017730Y0055293D01*
X0017950Y0053695D02*
X0020758Y0053695D01*
X0019159Y0052096D02*
X0017855Y0052096D01*
X0017561Y0050498D02*
X0017178Y0050498D01*
X0015962Y0048899D02*
X0015230Y0048899D01*
X0015988Y0039308D02*
X0016371Y0039308D01*
X0017532Y0031316D02*
X0018379Y0031316D01*
X0016780Y0029717D02*
X0016397Y0029717D01*
X0015182Y0028119D02*
X0014221Y0028119D01*
X0011879Y0028119D02*
X0004600Y0028119D01*
X0004600Y0029717D02*
X0009703Y0029717D01*
X0008568Y0031316D02*
X0004600Y0031316D01*
X0004600Y0032914D02*
X0008150Y0032914D01*
X0008249Y0034513D02*
X0004600Y0034513D01*
X0004600Y0036111D02*
X0008932Y0036111D01*
X0010112Y0039308D02*
X0004600Y0039308D01*
X0004600Y0037710D02*
X0010892Y0037710D01*
X0008738Y0040907D02*
X0004600Y0040907D01*
X0004600Y0042505D02*
X0008150Y0042505D01*
X0008150Y0044104D02*
X0004600Y0044104D01*
X0004600Y0045702D02*
X0008741Y0045702D01*
X0010121Y0047301D02*
X0004600Y0047301D01*
X0004600Y0048899D02*
X0010870Y0048899D01*
X0008922Y0050498D02*
X0004600Y0050498D01*
X0004600Y0052096D02*
X0008245Y0052096D01*
X0008150Y0053695D02*
X0004600Y0053695D01*
X0004600Y0055293D02*
X0008572Y0055293D01*
X0009712Y0056892D02*
X0004600Y0056892D01*
X0004600Y0058490D02*
X0010815Y0058490D01*
X0008832Y0060089D02*
X0004600Y0060089D01*
X0004600Y0061687D02*
X0008001Y0061687D01*
X0007992Y0064884D02*
X0004600Y0064884D01*
X0004600Y0063286D02*
X0012850Y0063286D01*
X0013250Y0063286D02*
X0020330Y0063286D01*
X0020242Y0063179D02*
X0020186Y0063123D01*
X0019686Y0062623D01*
X0017577Y0060514D01*
X0017583Y0060522D01*
X0017962Y0061266D01*
X0018219Y0062059D01*
X0018350Y0062883D01*
X0018350Y0063100D01*
X0013250Y0063100D01*
X0013250Y0063500D01*
X0018350Y0063500D01*
X0018350Y0063717D01*
X0018219Y0064541D01*
X0017962Y0065334D01*
X0017583Y0066078D01*
X0017093Y0066753D01*
X0016503Y0067343D01*
X0015828Y0067833D01*
X0015084Y0068212D01*
X0014291Y0068469D01*
X0014220Y0068481D01*
X0015826Y0069146D01*
X0017204Y0070524D01*
X0017950Y0072325D01*
X0017950Y0073263D01*
X0021150Y0076463D01*
X0021150Y0065371D01*
X0021090Y0064766D01*
X0020628Y0063649D01*
X0020242Y0063179D01*
X0019686Y0062623D02*
X0019686Y0062623D01*
X0018750Y0061687D02*
X0018099Y0061687D01*
X0018108Y0064884D02*
X0021102Y0064884D01*
X0021150Y0066483D02*
X0017289Y0066483D01*
X0016360Y0069680D02*
X0021150Y0069680D01*
X0021150Y0068082D02*
X0015340Y0068082D01*
X0017516Y0071279D02*
X0021150Y0071279D01*
X0021150Y0072877D02*
X0017950Y0072877D01*
X0019163Y0074476D02*
X0021150Y0074476D01*
X0021150Y0076074D02*
X0020761Y0076074D01*
X0019125Y0080870D02*
X0017347Y0080870D01*
X0017204Y0080524D02*
X0017950Y0082325D01*
X0017950Y0084275D01*
X0017204Y0086076D01*
X0015826Y0087454D01*
X0014025Y0088200D01*
X0012075Y0088200D01*
X0010274Y0087454D01*
X0008896Y0086076D01*
X0008150Y0084275D01*
X0008150Y0082325D01*
X0008896Y0080524D01*
X0010274Y0079146D01*
X0012075Y0078400D01*
X0014025Y0078400D01*
X0015826Y0079146D01*
X0017204Y0080524D01*
X0015951Y0079271D02*
X0018523Y0079271D01*
X0017686Y0078373D02*
X0017686Y0078373D01*
X0016986Y0077673D02*
X0015298Y0077673D01*
X0017950Y0082468D02*
X0019150Y0082468D01*
X0019150Y0084067D02*
X0017950Y0084067D01*
X0017374Y0085665D02*
X0019150Y0085665D01*
X0019150Y0087264D02*
X0016016Y0087264D01*
X0015140Y0088862D02*
X0019150Y0088862D01*
X0019150Y0090461D02*
X0017140Y0090461D01*
X0017204Y0090524D02*
X0017950Y0092325D01*
X0017950Y0094275D01*
X0017204Y0096076D01*
X0015826Y0097454D01*
X0014025Y0098200D01*
X0012075Y0098200D01*
X0010274Y0097454D01*
X0008896Y0096076D01*
X0008150Y0094275D01*
X0008150Y0092325D01*
X0008896Y0090524D01*
X0010274Y0089146D01*
X0012075Y0088400D01*
X0014025Y0088400D01*
X0015826Y0089146D01*
X0017204Y0090524D01*
X0017840Y0092059D02*
X0019150Y0092059D01*
X0019150Y0093658D02*
X0017950Y0093658D01*
X0017543Y0095256D02*
X0019150Y0095256D01*
X0019150Y0096855D02*
X0016425Y0096855D01*
X0015826Y0099146D02*
X0017204Y0100524D01*
X0017950Y0102325D01*
X0017950Y0104275D01*
X0017204Y0106076D01*
X0015826Y0107454D01*
X0014025Y0108200D01*
X0012075Y0108200D01*
X0010274Y0107454D01*
X0008896Y0106076D01*
X0008150Y0104275D01*
X0008150Y0102325D01*
X0008896Y0100524D01*
X0010274Y0099146D01*
X0012075Y0098400D01*
X0014025Y0098400D01*
X0015826Y0099146D01*
X0016731Y0100052D02*
X0019150Y0100052D01*
X0019150Y0101650D02*
X0017670Y0101650D01*
X0017950Y0103249D02*
X0019150Y0103249D01*
X0019150Y0104847D02*
X0017713Y0104847D01*
X0016834Y0106446D02*
X0019150Y0106446D01*
X0019150Y0108044D02*
X0014401Y0108044D01*
X0014025Y0108400D02*
X0015826Y0109146D01*
X0017204Y0110524D01*
X0017950Y0112325D01*
X0017950Y0114275D01*
X0017204Y0116076D01*
X0015826Y0117454D01*
X0014025Y0118200D01*
X0012075Y0118200D01*
X0010274Y0117454D01*
X0008896Y0116076D01*
X0008150Y0114275D01*
X0008150Y0112325D01*
X0008896Y0110524D01*
X0010274Y0109146D01*
X0012075Y0108400D01*
X0014025Y0108400D01*
X0016322Y0109643D02*
X0019150Y0109643D01*
X0019150Y0111241D02*
X0017501Y0111241D01*
X0017950Y0112840D02*
X0019150Y0112840D01*
X0019150Y0114438D02*
X0017882Y0114438D01*
X0017220Y0116037D02*
X0019150Y0116037D01*
X0019150Y0117635D02*
X0015388Y0117635D01*
X0014025Y0118400D02*
X0015826Y0119146D01*
X0017204Y0120524D01*
X0017950Y0122325D01*
X0017950Y0124275D01*
X0017204Y0126076D01*
X0015826Y0127454D01*
X0014025Y0128200D01*
X0012075Y0128200D01*
X0010274Y0127454D01*
X0008896Y0126076D01*
X0008150Y0124275D01*
X0008150Y0122325D01*
X0008896Y0120524D01*
X0010274Y0119146D01*
X0012075Y0118400D01*
X0014025Y0118400D01*
X0015914Y0119234D02*
X0019150Y0119234D01*
X0019150Y0120832D02*
X0017332Y0120832D01*
X0017950Y0122431D02*
X0019150Y0122431D01*
X0019150Y0124029D02*
X0017950Y0124029D01*
X0017389Y0125628D02*
X0019150Y0125628D01*
X0019150Y0127226D02*
X0016053Y0127226D01*
X0019150Y0128825D02*
X0004600Y0128825D01*
X0004600Y0130423D02*
X0019150Y0130423D01*
X0019150Y0132022D02*
X0004600Y0132022D01*
X0004600Y0133620D02*
X0019150Y0133620D01*
X0019150Y0135219D02*
X0004600Y0135219D01*
X0004600Y0136818D02*
X0019150Y0136818D01*
X0019150Y0138416D02*
X0004600Y0138416D01*
X0004600Y0140015D02*
X0019150Y0140015D01*
X0019150Y0141613D02*
X0004600Y0141613D01*
X0004600Y0143212D02*
X0019150Y0143212D01*
X0019150Y0144810D02*
X0004600Y0144810D01*
X0004600Y0146409D02*
X0019150Y0146409D01*
X0019150Y0148007D02*
X0004600Y0148007D01*
X0004600Y0149606D02*
X0019150Y0149606D01*
X0019150Y0151204D02*
X0004600Y0151204D01*
X0004600Y0152803D02*
X0018689Y0152803D01*
X0017686Y0153977D02*
X0017686Y0153977D01*
X0017262Y0154401D02*
X0004600Y0154401D01*
X0004600Y0156000D02*
X0016564Y0156000D01*
X0016150Y0157598D02*
X0004600Y0157598D01*
X0004600Y0159197D02*
X0016150Y0159197D01*
X0016150Y0160795D02*
X0004600Y0160795D01*
X0004600Y0162394D02*
X0016150Y0162394D01*
X0016150Y0163992D02*
X0004600Y0163992D01*
X0004600Y0165591D02*
X0016150Y0165591D01*
X0016150Y0167189D02*
X0004600Y0167189D01*
X0004600Y0168788D02*
X0016150Y0168788D01*
X0013500Y0170386D02*
X0012600Y0170386D01*
X0012600Y0169018D02*
X0012600Y0172850D01*
X0008768Y0172850D01*
X0008856Y0172293D01*
X0009065Y0171649D01*
X0009372Y0171046D01*
X0009770Y0170499D01*
X0010249Y0170020D01*
X0010796Y0169622D01*
X0011399Y0169315D01*
X0012043Y0169106D01*
X0012600Y0169018D01*
X0012600Y0171985D02*
X0013500Y0171985D01*
X0012600Y0173583D02*
X0004600Y0173583D01*
X0004600Y0171985D02*
X0008956Y0171985D01*
X0009883Y0170386D02*
X0004600Y0170386D01*
X0004600Y0175182D02*
X0009183Y0175182D01*
X0010525Y0176780D02*
X0004600Y0176780D01*
X0004600Y0178379D02*
X0015277Y0178379D01*
X0014686Y0178977D02*
X0014686Y0178977D01*
X0015575Y0176780D02*
X0016096Y0176780D01*
X0017461Y0181576D02*
X0069543Y0181576D01*
X0069150Y0183174D02*
X0016950Y0183174D01*
X0016661Y0184773D02*
X0069439Y0184773D01*
X0070606Y0186371D02*
X0015494Y0186371D01*
X0014232Y0189568D02*
X0071868Y0189568D01*
X0072274Y0189400D02*
X0073826Y0189400D01*
X0075259Y0189994D01*
X0076356Y0191091D01*
X0076950Y0192524D01*
X0076950Y0194076D01*
X0076356Y0195509D01*
X0075259Y0196606D01*
X0073826Y0197200D01*
X0072274Y0197200D01*
X0070841Y0196606D01*
X0069744Y0195509D01*
X0069616Y0195200D01*
X0039205Y0195200D01*
X0038824Y0195581D01*
X0037835Y0195991D01*
X0036765Y0195991D01*
X0035776Y0195581D01*
X0035019Y0194824D01*
X0034609Y0193835D01*
X0034609Y0192765D01*
X0035019Y0191776D01*
X0035776Y0191019D01*
X0036765Y0190609D01*
X0037835Y0190609D01*
X0038824Y0191019D01*
X0039205Y0191400D01*
X0069616Y0191400D01*
X0069744Y0191091D01*
X0070841Y0189994D01*
X0072274Y0189400D01*
X0074232Y0189568D02*
X0081500Y0189568D01*
X0081500Y0187970D02*
X0004600Y0187970D01*
X0004600Y0189568D02*
X0011868Y0189568D01*
X0012274Y0189400D02*
X0013826Y0189400D01*
X0015259Y0189994D01*
X0016356Y0191091D01*
X0016484Y0191400D01*
X0029895Y0191400D01*
X0030276Y0191019D01*
X0031265Y0190609D01*
X0032335Y0190609D01*
X0033324Y0191019D01*
X0034081Y0191776D01*
X0034491Y0192765D01*
X0034491Y0193835D01*
X0034081Y0194824D01*
X0033324Y0195581D01*
X0032335Y0195991D01*
X0031265Y0195991D01*
X0030276Y0195581D01*
X0029895Y0195200D01*
X0016484Y0195200D01*
X0016356Y0195509D01*
X0015259Y0196606D01*
X0013826Y0197200D01*
X0012274Y0197200D01*
X0010841Y0196606D01*
X0009744Y0195509D01*
X0009150Y0194076D01*
X0009150Y0192524D01*
X0009744Y0191091D01*
X0010841Y0189994D01*
X0012274Y0189400D01*
X0010606Y0186371D02*
X0004600Y0186371D01*
X0004600Y0184773D02*
X0009439Y0184773D01*
X0009150Y0183174D02*
X0004600Y0183174D01*
X0004600Y0181576D02*
X0009543Y0181576D01*
X0010880Y0179977D02*
X0004600Y0179977D01*
X0004600Y0191167D02*
X0009712Y0191167D01*
X0009150Y0192765D02*
X0004600Y0192765D01*
X0004600Y0194364D02*
X0009269Y0194364D01*
X0010197Y0195962D02*
X0004600Y0195962D01*
X0004600Y0197561D02*
X0081500Y0197561D01*
X0081500Y0199159D02*
X0004600Y0199159D01*
X0004600Y0200758D02*
X0010077Y0200758D01*
X0009744Y0201091D02*
X0010841Y0199994D01*
X0012274Y0199400D01*
X0013826Y0199400D01*
X0015259Y0199994D01*
X0016356Y0201091D01*
X0016484Y0201400D01*
X0026645Y0201400D01*
X0027026Y0201019D01*
X0028015Y0200609D01*
X0029085Y0200609D01*
X0030074Y0201019D01*
X0030831Y0201776D01*
X0031241Y0202765D01*
X0031241Y0203835D01*
X0030831Y0204824D01*
X0030074Y0205581D01*
X0029085Y0205991D01*
X0028015Y0205991D01*
X0027026Y0205581D01*
X0026645Y0205200D01*
X0016484Y0205200D01*
X0016356Y0205509D01*
X0015259Y0206606D01*
X0013826Y0207200D01*
X0012274Y0207200D01*
X0010841Y0206606D01*
X0009744Y0205509D01*
X0009150Y0204076D01*
X0009150Y0202524D01*
X0009744Y0201091D01*
X0009219Y0202356D02*
X0004600Y0202356D01*
X0004600Y0203955D02*
X0009150Y0203955D01*
X0009788Y0205553D02*
X0004600Y0205553D01*
X0004600Y0207152D02*
X0012158Y0207152D01*
X0012274Y0209400D02*
X0010841Y0209994D01*
X0009744Y0211091D01*
X0009150Y0212524D01*
X0009150Y0214076D01*
X0009744Y0215509D01*
X0010841Y0216606D01*
X0012274Y0217200D01*
X0013826Y0217200D01*
X0015259Y0216606D01*
X0016356Y0215509D01*
X0016484Y0215200D01*
X0022395Y0215200D01*
X0022776Y0215581D01*
X0023765Y0215991D01*
X0024835Y0215991D01*
X0025824Y0215581D01*
X0026581Y0214824D01*
X0026991Y0213835D01*
X0026991Y0212765D01*
X0026581Y0211776D01*
X0025824Y0211019D01*
X0024835Y0210609D01*
X0023765Y0210609D01*
X0022776Y0211019D01*
X0022395Y0211400D01*
X0016484Y0211400D01*
X0016356Y0211091D01*
X0015259Y0209994D01*
X0013826Y0209400D01*
X0012274Y0209400D01*
X0010486Y0210349D02*
X0004600Y0210349D01*
X0004600Y0208751D02*
X0081500Y0208751D01*
X0081500Y0210349D02*
X0075614Y0210349D01*
X0075259Y0209994D02*
X0076356Y0211091D01*
X0076950Y0212524D01*
X0076950Y0214076D01*
X0076356Y0215509D01*
X0075259Y0216606D01*
X0073826Y0217200D01*
X0072274Y0217200D01*
X0070841Y0216606D01*
X0069744Y0215509D01*
X0069616Y0215200D01*
X0048205Y0215200D01*
X0047824Y0215581D01*
X0046835Y0215991D01*
X0045765Y0215991D01*
X0044776Y0215581D01*
X0044019Y0214824D01*
X0043609Y0213835D01*
X0043609Y0212765D01*
X0044019Y0211776D01*
X0044776Y0211019D01*
X0045765Y0210609D01*
X0046835Y0210609D01*
X0047824Y0211019D01*
X0048205Y0211400D01*
X0069616Y0211400D01*
X0069744Y0211091D01*
X0070841Y0209994D01*
X0072274Y0209400D01*
X0073826Y0209400D01*
X0075259Y0209994D01*
X0073942Y0207152D02*
X0081500Y0207152D01*
X0081500Y0205553D02*
X0076312Y0205553D01*
X0076356Y0205509D02*
X0075259Y0206606D01*
X0073826Y0207200D01*
X0072274Y0207200D01*
X0070841Y0206606D01*
X0069744Y0205509D01*
X0069616Y0205200D01*
X0043705Y0205200D01*
X0043324Y0205581D01*
X0042335Y0205991D01*
X0041265Y0205991D01*
X0040276Y0205581D01*
X0039519Y0204824D01*
X0039109Y0203835D01*
X0039109Y0202765D01*
X0039519Y0201776D01*
X0040276Y0201019D01*
X0041265Y0200609D01*
X0042335Y0200609D01*
X0043324Y0201019D01*
X0043705Y0201400D01*
X0069616Y0201400D01*
X0069744Y0201091D01*
X0070841Y0199994D01*
X0072274Y0199400D01*
X0073826Y0199400D01*
X0075259Y0199994D01*
X0076356Y0201091D01*
X0076950Y0202524D01*
X0076950Y0204076D01*
X0076356Y0205509D01*
X0076950Y0203955D02*
X0081500Y0203955D01*
X0081500Y0202356D02*
X0076880Y0202356D01*
X0076023Y0200758D02*
X0081500Y0200758D01*
X0081500Y0195962D02*
X0075903Y0195962D01*
X0076831Y0194364D02*
X0081500Y0194364D01*
X0081500Y0192765D02*
X0076950Y0192765D01*
X0076388Y0191167D02*
X0081500Y0191167D01*
X0081500Y0186371D02*
X0075494Y0186371D01*
X0076661Y0184773D02*
X0081500Y0184773D01*
X0081500Y0183174D02*
X0076950Y0183174D01*
X0077461Y0181576D02*
X0081500Y0181576D01*
X0081500Y0179977D02*
X0079060Y0179977D01*
X0080658Y0178379D02*
X0081500Y0178379D01*
X0079634Y0173583D02*
X0076950Y0173583D01*
X0077052Y0171985D02*
X0079900Y0171985D01*
X0079900Y0170386D02*
X0079519Y0170386D01*
X0079900Y0165591D02*
X0066275Y0165591D01*
X0066950Y0163992D02*
X0079900Y0163992D01*
X0079900Y0162394D02*
X0066896Y0162394D01*
X0066061Y0160795D02*
X0079900Y0160795D01*
X0079900Y0159197D02*
X0058134Y0159197D01*
X0059605Y0160668D02*
X0059605Y0160668D01*
X0059732Y0160795D02*
X0060039Y0160795D01*
X0058093Y0164530D02*
X0058093Y0164530D01*
X0057555Y0163992D02*
X0056950Y0163992D01*
X0056275Y0165591D02*
X0059825Y0165591D01*
X0062248Y0167189D02*
X0053852Y0167189D01*
X0052248Y0167189D02*
X0043852Y0167189D01*
X0042248Y0167189D02*
X0033852Y0167189D01*
X0032248Y0167189D02*
X0023852Y0167189D01*
X0022248Y0167189D02*
X0019950Y0167189D01*
X0019950Y0168788D02*
X0074875Y0168788D01*
X0075348Y0167189D02*
X0063852Y0167189D01*
X0069373Y0171985D02*
X0019950Y0171985D01*
X0019950Y0173583D02*
X0069150Y0173583D01*
X0069608Y0175182D02*
X0019950Y0175182D01*
X0019950Y0176780D02*
X0071261Y0176780D01*
X0070880Y0179977D02*
X0018966Y0179977D01*
X0019628Y0178379D02*
X0075284Y0178379D01*
X0074839Y0176780D02*
X0076883Y0176780D01*
X0076492Y0175182D02*
X0078481Y0175182D01*
X0079900Y0157598D02*
X0056535Y0157598D01*
X0054937Y0156000D02*
X0079900Y0156000D01*
X0079900Y0154401D02*
X0053338Y0154401D01*
X0051740Y0152803D02*
X0079900Y0152803D01*
X0079900Y0151204D02*
X0050141Y0151204D01*
X0048543Y0149606D02*
X0079900Y0149606D01*
X0079900Y0148007D02*
X0046944Y0148007D01*
X0045346Y0146409D02*
X0079900Y0146409D01*
X0079900Y0144810D02*
X0043747Y0144810D01*
X0042149Y0143212D02*
X0079900Y0143212D01*
X0079900Y0141613D02*
X0040550Y0141613D01*
X0038952Y0140015D02*
X0079900Y0140015D01*
X0079900Y0138416D02*
X0037353Y0138416D01*
X0035755Y0136818D02*
X0079900Y0136818D01*
X0079900Y0135219D02*
X0034156Y0135219D01*
X0033128Y0133620D02*
X0079900Y0133620D01*
X0079900Y0132022D02*
X0032950Y0132022D01*
X0033010Y0133334D02*
X0033010Y0133334D01*
X0032950Y0130423D02*
X0079900Y0130423D01*
X0079900Y0128825D02*
X0032950Y0128825D01*
X0032950Y0127226D02*
X0069481Y0127226D01*
X0069597Y0127343D02*
X0069007Y0126753D01*
X0068517Y0126078D01*
X0068138Y0125334D01*
X0067880Y0124541D01*
X0067750Y0123717D01*
X0067750Y0123500D01*
X0072850Y0123500D01*
X0072850Y0128600D01*
X0072633Y0128600D01*
X0071809Y0128469D01*
X0071016Y0128212D01*
X0070272Y0127833D01*
X0069597Y0127343D01*
X0068288Y0125628D02*
X0032950Y0125628D01*
X0032950Y0124029D02*
X0067799Y0124029D01*
X0067750Y0123100D02*
X0067750Y0122883D01*
X0067880Y0122059D01*
X0068138Y0121266D01*
X0068517Y0120522D01*
X0069007Y0119847D01*
X0069597Y0119257D01*
X0070272Y0118767D01*
X0071016Y0118388D01*
X0071809Y0118130D01*
X0071880Y0118119D01*
X0070274Y0117454D01*
X0068896Y0116076D01*
X0068533Y0115200D01*
X0057455Y0115200D01*
X0057074Y0115581D01*
X0056085Y0115991D01*
X0055015Y0115991D01*
X0054026Y0115581D01*
X0053269Y0114824D01*
X0052859Y0113835D01*
X0052859Y0112765D01*
X0053269Y0111776D01*
X0054026Y0111019D01*
X0055015Y0110609D01*
X0056085Y0110609D01*
X0057074Y0111019D01*
X0057455Y0111400D01*
X0068533Y0111400D01*
X0068896Y0110524D01*
X0070274Y0109146D01*
X0072075Y0108400D01*
X0074025Y0108400D01*
X0075826Y0109146D01*
X0077204Y0110524D01*
X0077950Y0112325D01*
X0077950Y0114275D01*
X0077204Y0116076D01*
X0075826Y0117454D01*
X0074220Y0118119D01*
X0074291Y0118130D01*
X0075084Y0118388D01*
X0075828Y0118767D01*
X0076503Y0119257D01*
X0077093Y0119847D01*
X0077583Y0120522D01*
X0077962Y0121266D01*
X0078219Y0122059D01*
X0078350Y0122883D01*
X0078350Y0123100D01*
X0073250Y0123100D01*
X0073250Y0123500D01*
X0078350Y0123500D01*
X0078350Y0123717D01*
X0078219Y0124541D01*
X0077962Y0125334D01*
X0077583Y0126078D01*
X0077093Y0126753D01*
X0076503Y0127343D01*
X0075828Y0127833D01*
X0075084Y0128212D01*
X0074291Y0128469D01*
X0073467Y0128600D01*
X0073250Y0128600D01*
X0073250Y0123500D01*
X0072850Y0123500D01*
X0072850Y0123100D01*
X0067750Y0123100D01*
X0067822Y0122431D02*
X0032950Y0122431D01*
X0032950Y0120832D02*
X0068359Y0120832D01*
X0068880Y0116037D02*
X0032950Y0116037D01*
X0032950Y0117635D02*
X0070712Y0117635D01*
X0069630Y0119234D02*
X0032950Y0119234D01*
X0032950Y0114438D02*
X0053109Y0114438D01*
X0052859Y0112840D02*
X0032950Y0112840D01*
X0032950Y0111241D02*
X0053804Y0111241D01*
X0057019Y0104824D02*
X0056609Y0103835D01*
X0056609Y0102765D01*
X0057019Y0101776D01*
X0057776Y0101019D01*
X0058765Y0100609D01*
X0059835Y0100609D01*
X0060824Y0101019D01*
X0061205Y0101400D01*
X0068533Y0101400D01*
X0068896Y0100524D01*
X0070274Y0099146D01*
X0072075Y0098400D01*
X0074025Y0098400D01*
X0075826Y0099146D01*
X0077204Y0100524D01*
X0077950Y0102325D01*
X0077950Y0104275D01*
X0077204Y0106076D01*
X0075826Y0107454D01*
X0074025Y0108200D01*
X0072075Y0108200D01*
X0070274Y0107454D01*
X0068896Y0106076D01*
X0068533Y0105200D01*
X0061205Y0105200D01*
X0060824Y0105581D01*
X0059835Y0105991D01*
X0058765Y0105991D01*
X0057776Y0105581D01*
X0057019Y0104824D01*
X0057042Y0104847D02*
X0032950Y0104847D01*
X0032950Y0103249D02*
X0056609Y0103249D01*
X0057145Y0101650D02*
X0032950Y0101650D01*
X0032950Y0100052D02*
X0069369Y0100052D01*
X0070274Y0097454D02*
X0068896Y0096076D01*
X0068533Y0095200D01*
X0064705Y0095200D01*
X0064324Y0095581D01*
X0063335Y0095991D01*
X0062265Y0095991D01*
X0061276Y0095581D01*
X0060519Y0094824D01*
X0060109Y0093835D01*
X0060109Y0092765D01*
X0060519Y0091776D01*
X0061276Y0091019D01*
X0062265Y0090609D01*
X0063335Y0090609D01*
X0064324Y0091019D01*
X0064705Y0091400D01*
X0068533Y0091400D01*
X0068896Y0090524D01*
X0070274Y0089146D01*
X0072075Y0088400D01*
X0074025Y0088400D01*
X0075826Y0089146D01*
X0077204Y0090524D01*
X0077950Y0092325D01*
X0077950Y0094275D01*
X0077204Y0096076D01*
X0075826Y0097454D01*
X0074025Y0098200D01*
X0072075Y0098200D01*
X0070274Y0097454D01*
X0069675Y0096855D02*
X0032950Y0096855D01*
X0032950Y0098453D02*
X0071947Y0098453D01*
X0074153Y0098453D02*
X0079900Y0098453D01*
X0079900Y0096855D02*
X0076425Y0096855D01*
X0076731Y0100052D02*
X0079900Y0100052D01*
X0079900Y0101650D02*
X0077670Y0101650D01*
X0077950Y0103249D02*
X0079900Y0103249D01*
X0079900Y0104847D02*
X0077713Y0104847D01*
X0076834Y0106446D02*
X0079900Y0106446D01*
X0079900Y0108044D02*
X0074401Y0108044D01*
X0076322Y0109643D02*
X0079900Y0109643D01*
X0079900Y0111241D02*
X0077501Y0111241D01*
X0077950Y0112840D02*
X0079900Y0112840D01*
X0079900Y0114438D02*
X0077882Y0114438D01*
X0077220Y0116037D02*
X0079900Y0116037D01*
X0079900Y0117635D02*
X0075388Y0117635D01*
X0076470Y0119234D02*
X0079900Y0119234D01*
X0079900Y0120832D02*
X0077741Y0120832D01*
X0078278Y0122431D02*
X0079900Y0122431D01*
X0079900Y0124029D02*
X0078301Y0124029D01*
X0077812Y0125628D02*
X0079900Y0125628D01*
X0079900Y0127226D02*
X0076619Y0127226D01*
X0073250Y0127226D02*
X0072850Y0127226D01*
X0072850Y0125628D02*
X0073250Y0125628D01*
X0073250Y0124029D02*
X0072850Y0124029D01*
X0068599Y0111241D02*
X0057296Y0111241D01*
X0060951Y0095256D02*
X0032950Y0095256D01*
X0032950Y0093658D02*
X0060109Y0093658D01*
X0060402Y0092059D02*
X0032950Y0092059D01*
X0032950Y0090461D02*
X0068960Y0090461D01*
X0070274Y0087454D02*
X0068896Y0086076D01*
X0068150Y0084275D01*
X0068150Y0082325D01*
X0068896Y0080524D01*
X0070274Y0079146D01*
X0072075Y0078400D01*
X0074025Y0078400D01*
X0075826Y0079146D01*
X0077204Y0080524D01*
X0077950Y0082325D01*
X0077950Y0084275D01*
X0077204Y0086076D01*
X0075826Y0087454D01*
X0074025Y0088200D01*
X0072075Y0088200D01*
X0070274Y0087454D01*
X0070084Y0087264D02*
X0032950Y0087264D01*
X0032950Y0088862D02*
X0070960Y0088862D01*
X0068726Y0085665D02*
X0032950Y0085665D01*
X0032950Y0084067D02*
X0068150Y0084067D01*
X0068150Y0082468D02*
X0032950Y0082468D01*
X0032950Y0080870D02*
X0068753Y0080870D01*
X0070149Y0079271D02*
X0032950Y0079271D01*
X0032950Y0077673D02*
X0070802Y0077673D01*
X0070274Y0077454D02*
X0068896Y0076076D01*
X0068150Y0074275D01*
X0068150Y0072325D01*
X0068896Y0070524D01*
X0070274Y0069146D01*
X0072075Y0068400D01*
X0074025Y0068400D01*
X0075826Y0069146D01*
X0077204Y0070524D01*
X0077950Y0072325D01*
X0077950Y0074275D01*
X0077204Y0076076D01*
X0075826Y0077454D01*
X0074025Y0078200D01*
X0072075Y0078200D01*
X0070274Y0077454D01*
X0068895Y0076074D02*
X0032950Y0076074D01*
X0032950Y0074476D02*
X0068233Y0074476D01*
X0068150Y0072877D02*
X0032950Y0072877D01*
X0032950Y0071279D02*
X0068584Y0071279D01*
X0070274Y0067454D02*
X0068896Y0066076D01*
X0068150Y0064275D01*
X0068150Y0062325D01*
X0068896Y0060524D01*
X0070274Y0059146D01*
X0072075Y0058400D01*
X0074025Y0058400D01*
X0075826Y0059146D01*
X0077204Y0060524D01*
X0077950Y0062325D01*
X0077950Y0064275D01*
X0077204Y0066076D01*
X0075826Y0067454D01*
X0074025Y0068200D01*
X0072075Y0068200D01*
X0070274Y0067454D01*
X0069303Y0066483D02*
X0032950Y0066483D01*
X0032950Y0064884D02*
X0068403Y0064884D01*
X0068150Y0063286D02*
X0032950Y0063286D01*
X0032950Y0061687D02*
X0068414Y0061687D01*
X0069331Y0060089D02*
X0032950Y0060089D01*
X0032950Y0058490D02*
X0071857Y0058490D01*
X0072075Y0058200D02*
X0070274Y0057454D01*
X0068896Y0056076D01*
X0068150Y0054275D01*
X0068150Y0052325D01*
X0068896Y0050524D01*
X0070274Y0049146D01*
X0072075Y0048400D01*
X0074025Y0048400D01*
X0075826Y0049146D01*
X0077204Y0050524D01*
X0077950Y0052325D01*
X0077950Y0054275D01*
X0077204Y0056076D01*
X0075826Y0057454D01*
X0074025Y0058200D01*
X0072075Y0058200D01*
X0074243Y0058490D02*
X0079900Y0058490D01*
X0079900Y0056892D02*
X0076388Y0056892D01*
X0076769Y0060089D02*
X0079900Y0060089D01*
X0079900Y0061687D02*
X0077686Y0061687D01*
X0077950Y0063286D02*
X0079900Y0063286D01*
X0079900Y0064884D02*
X0077697Y0064884D01*
X0076797Y0066483D02*
X0079900Y0066483D01*
X0079900Y0068082D02*
X0074311Y0068082D01*
X0071789Y0068082D02*
X0032950Y0068082D01*
X0032950Y0069680D02*
X0069740Y0069680D01*
X0075298Y0077673D02*
X0079900Y0077673D01*
X0079900Y0079271D02*
X0075951Y0079271D01*
X0077347Y0080870D02*
X0079900Y0080870D01*
X0079900Y0082468D02*
X0077950Y0082468D01*
X0077950Y0084067D02*
X0079900Y0084067D01*
X0079900Y0085665D02*
X0077374Y0085665D01*
X0076016Y0087264D02*
X0079900Y0087264D01*
X0079900Y0088862D02*
X0075140Y0088862D01*
X0077140Y0090461D02*
X0079900Y0090461D01*
X0079900Y0092059D02*
X0077840Y0092059D01*
X0077950Y0093658D02*
X0079900Y0093658D01*
X0079900Y0095256D02*
X0077543Y0095256D01*
X0071699Y0108044D02*
X0032950Y0108044D01*
X0032950Y0106446D02*
X0069266Y0106446D01*
X0069778Y0109643D02*
X0032950Y0109643D01*
X0019150Y0098453D02*
X0014153Y0098453D01*
X0011947Y0098453D02*
X0004600Y0098453D01*
X0004600Y0096855D02*
X0009675Y0096855D01*
X0008557Y0095256D02*
X0004600Y0095256D01*
X0004600Y0093658D02*
X0008150Y0093658D01*
X0008260Y0092059D02*
X0004600Y0092059D01*
X0004600Y0090461D02*
X0008960Y0090461D01*
X0010084Y0087264D02*
X0004600Y0087264D01*
X0004600Y0088862D02*
X0010960Y0088862D01*
X0008726Y0085665D02*
X0004600Y0085665D01*
X0004600Y0084067D02*
X0008150Y0084067D01*
X0008150Y0082468D02*
X0004600Y0082468D01*
X0004600Y0080870D02*
X0008753Y0080870D01*
X0010149Y0079271D02*
X0004600Y0079271D01*
X0004600Y0077673D02*
X0010802Y0077673D01*
X0008895Y0076074D02*
X0004600Y0076074D01*
X0004600Y0074476D02*
X0008233Y0074476D01*
X0008150Y0072877D02*
X0004600Y0072877D01*
X0004600Y0071279D02*
X0008584Y0071279D01*
X0009740Y0069680D02*
X0004600Y0069680D01*
X0004600Y0068082D02*
X0010760Y0068082D01*
X0008811Y0066483D02*
X0004600Y0066483D01*
X0004600Y0100052D02*
X0009369Y0100052D01*
X0008430Y0101650D02*
X0004600Y0101650D01*
X0004600Y0103249D02*
X0008150Y0103249D01*
X0008387Y0104847D02*
X0004600Y0104847D01*
X0004600Y0106446D02*
X0009266Y0106446D01*
X0009778Y0109643D02*
X0004600Y0109643D01*
X0004600Y0111241D02*
X0008599Y0111241D01*
X0008150Y0112840D02*
X0004600Y0112840D01*
X0004600Y0114438D02*
X0008218Y0114438D01*
X0008880Y0116037D02*
X0004600Y0116037D01*
X0004600Y0117635D02*
X0010712Y0117635D01*
X0010186Y0119234D02*
X0004600Y0119234D01*
X0004600Y0120832D02*
X0008768Y0120832D01*
X0008150Y0122431D02*
X0004600Y0122431D01*
X0004600Y0124029D02*
X0008150Y0124029D01*
X0008711Y0125628D02*
X0004600Y0125628D01*
X0004600Y0127226D02*
X0010047Y0127226D01*
X0011699Y0108044D02*
X0004600Y0108044D01*
X0022526Y0060089D02*
X0023150Y0060089D01*
X0023150Y0058490D02*
X0020927Y0058490D01*
X0019329Y0056892D02*
X0023103Y0056892D01*
X0024533Y0052096D02*
X0025150Y0052096D01*
X0026541Y0044104D02*
X0027150Y0044104D01*
X0027150Y0042505D02*
X0024942Y0042505D01*
X0026348Y0039308D02*
X0021745Y0039308D01*
X0023344Y0040907D02*
X0027104Y0040907D01*
X0025686Y0038623D02*
X0025686Y0038623D01*
X0024773Y0037710D02*
X0020147Y0037710D01*
X0022154Y0029717D02*
X0026780Y0029717D01*
X0027686Y0030623D02*
X0027686Y0030623D01*
X0028354Y0031316D02*
X0023753Y0031316D01*
X0025351Y0032914D02*
X0029105Y0032914D01*
X0029150Y0034513D02*
X0026950Y0034513D01*
X0028548Y0036111D02*
X0029150Y0036111D01*
X0032005Y0029717D02*
X0069703Y0029717D01*
X0070274Y0029146D02*
X0072075Y0028400D01*
X0074025Y0028400D01*
X0075826Y0029146D01*
X0077204Y0030524D01*
X0077950Y0032325D01*
X0077950Y0034275D01*
X0077204Y0036076D01*
X0075826Y0037454D01*
X0074025Y0038200D01*
X0072075Y0038200D01*
X0070274Y0037454D01*
X0068896Y0036076D01*
X0068150Y0034275D01*
X0068150Y0032325D01*
X0068896Y0030524D01*
X0070274Y0029146D01*
X0069341Y0026520D02*
X0028957Y0026520D01*
X0027359Y0024922D02*
X0068418Y0024922D01*
X0068150Y0023323D02*
X0025760Y0023323D01*
X0024162Y0021725D02*
X0068399Y0021725D01*
X0069294Y0020126D02*
X0022563Y0020126D01*
X0020965Y0018528D02*
X0071767Y0018528D01*
X0074333Y0018528D02*
X0081500Y0018528D01*
X0081500Y0020126D02*
X0076806Y0020126D01*
X0077701Y0021725D02*
X0081500Y0021725D01*
X0081500Y0023323D02*
X0077950Y0023323D01*
X0077682Y0024922D02*
X0081500Y0024922D01*
X0081500Y0026520D02*
X0078957Y0026520D01*
X0080556Y0028119D02*
X0081500Y0028119D01*
X0079591Y0032914D02*
X0077950Y0032914D01*
X0077851Y0034513D02*
X0079900Y0034513D01*
X0079900Y0036111D02*
X0077168Y0036111D01*
X0075826Y0039146D02*
X0077204Y0040524D01*
X0077950Y0042325D01*
X0077950Y0044275D01*
X0077204Y0046076D01*
X0075826Y0047454D01*
X0074025Y0048200D01*
X0072075Y0048200D01*
X0070274Y0047454D01*
X0068896Y0046076D01*
X0068150Y0044275D01*
X0068150Y0042325D01*
X0068896Y0040524D01*
X0070274Y0039146D01*
X0072075Y0038400D01*
X0074025Y0038400D01*
X0075826Y0039146D01*
X0075988Y0039308D02*
X0079900Y0039308D01*
X0079900Y0037710D02*
X0075208Y0037710D01*
X0077362Y0040907D02*
X0079900Y0040907D01*
X0079900Y0042505D02*
X0077950Y0042505D01*
X0077950Y0044104D02*
X0079900Y0044104D01*
X0079900Y0045702D02*
X0077359Y0045702D01*
X0075979Y0047301D02*
X0079900Y0047301D01*
X0079900Y0048899D02*
X0075230Y0048899D01*
X0077178Y0050498D02*
X0079900Y0050498D01*
X0079900Y0052096D02*
X0077855Y0052096D01*
X0077950Y0053695D02*
X0079900Y0053695D01*
X0079900Y0055293D02*
X0077528Y0055293D01*
X0076360Y0069680D02*
X0079900Y0069680D01*
X0079900Y0071279D02*
X0077516Y0071279D01*
X0077950Y0072877D02*
X0079900Y0072877D01*
X0079900Y0074476D02*
X0077867Y0074476D01*
X0077205Y0076074D02*
X0079900Y0076074D01*
X0069712Y0056892D02*
X0032950Y0056892D01*
X0032950Y0055293D02*
X0068572Y0055293D01*
X0068150Y0053695D02*
X0032950Y0053695D01*
X0032950Y0052096D02*
X0068245Y0052096D01*
X0068922Y0050498D02*
X0032950Y0050498D01*
X0032950Y0048899D02*
X0070870Y0048899D01*
X0070121Y0047301D02*
X0032950Y0047301D01*
X0032950Y0045702D02*
X0068741Y0045702D01*
X0068150Y0044104D02*
X0032950Y0044104D01*
X0032950Y0042505D02*
X0068150Y0042505D01*
X0068738Y0040907D02*
X0032950Y0040907D01*
X0032950Y0039308D02*
X0070112Y0039308D01*
X0070892Y0037710D02*
X0032950Y0037710D01*
X0032950Y0036111D02*
X0068932Y0036111D01*
X0068249Y0034513D02*
X0032950Y0034513D01*
X0032950Y0032914D02*
X0068150Y0032914D01*
X0068568Y0031316D02*
X0032667Y0031316D01*
X0031900Y0029463D02*
X0031900Y0029463D01*
X0031900Y0029463D01*
X0031486Y0029049D02*
X0031486Y0029049D01*
X0030556Y0028119D02*
X0071879Y0028119D01*
X0074221Y0028119D02*
X0075182Y0028119D01*
X0076397Y0029717D02*
X0076780Y0029717D01*
X0077532Y0031316D02*
X0078379Y0031316D01*
X0076916Y0016929D02*
X0081500Y0016929D01*
X0081500Y0015331D02*
X0077963Y0015331D01*
X0078348Y0013732D02*
X0081500Y0013732D01*
X0081500Y0012134D02*
X0078231Y0012134D01*
X0077590Y0010535D02*
X0081366Y0010535D01*
X0080847Y0008937D02*
X0076061Y0008937D01*
X0078057Y0005740D02*
X0008043Y0005740D01*
X0006252Y0007338D02*
X0079848Y0007338D01*
X0073250Y0008937D02*
X0072850Y0008937D01*
X0072850Y0010535D02*
X0073250Y0010535D01*
X0073250Y0012134D02*
X0072850Y0012134D01*
X0070039Y0008937D02*
X0015320Y0008937D01*
X0017208Y0010535D02*
X0068510Y0010535D01*
X0067869Y0012134D02*
X0017871Y0012134D01*
X0017950Y0013732D02*
X0067752Y0013732D01*
X0068137Y0015331D02*
X0017768Y0015331D01*
X0019366Y0016929D02*
X0069184Y0016929D01*
X0068557Y0095256D02*
X0064649Y0095256D01*
X0048305Y0163992D02*
X0046950Y0163992D01*
X0046275Y0165591D02*
X0049825Y0165591D01*
X0048843Y0164530D02*
X0048843Y0164530D01*
X0039825Y0165591D02*
X0036275Y0165591D01*
X0036950Y0163992D02*
X0039150Y0163992D01*
X0039204Y0162394D02*
X0036896Y0162394D01*
X0036061Y0160795D02*
X0037858Y0160795D01*
X0036260Y0159197D02*
X0033884Y0159197D01*
X0034661Y0157598D02*
X0032285Y0157598D01*
X0033063Y0156000D02*
X0030687Y0156000D01*
X0031464Y0154401D02*
X0029088Y0154401D01*
X0029866Y0152803D02*
X0027556Y0152803D01*
X0026972Y0151204D02*
X0028267Y0151204D01*
X0025313Y0156000D02*
X0024950Y0156000D01*
X0024950Y0157598D02*
X0026911Y0157598D01*
X0026061Y0160795D02*
X0030039Y0160795D01*
X0029204Y0162394D02*
X0026896Y0162394D01*
X0026950Y0163992D02*
X0029150Y0163992D01*
X0029825Y0165591D02*
X0026275Y0165591D01*
X0024950Y0159197D02*
X0028510Y0159197D01*
X0019950Y0170386D02*
X0070448Y0170386D01*
X0069712Y0191167D02*
X0038972Y0191167D01*
X0037903Y0195962D02*
X0070197Y0195962D01*
X0070077Y0200758D02*
X0042694Y0200758D01*
X0040906Y0200758D02*
X0029444Y0200758D01*
X0031071Y0202356D02*
X0039279Y0202356D01*
X0039159Y0203955D02*
X0031191Y0203955D01*
X0030102Y0205553D02*
X0040248Y0205553D01*
X0043352Y0205553D02*
X0069788Y0205553D01*
X0072158Y0207152D02*
X0013942Y0207152D01*
X0015614Y0210349D02*
X0070486Y0210349D01*
X0071171Y0216743D02*
X0014929Y0216743D01*
X0013826Y0219400D02*
X0015259Y0219994D01*
X0016356Y0221091D01*
X0016484Y0221400D01*
X0017395Y0221400D01*
X0017776Y0221019D01*
X0018765Y0220609D01*
X0019835Y0220609D01*
X0020824Y0221019D01*
X0021581Y0221776D01*
X0021991Y0222765D01*
X0021991Y0223835D01*
X0021581Y0224824D01*
X0020824Y0225581D01*
X0019835Y0225991D01*
X0018765Y0225991D01*
X0017776Y0225581D01*
X0017395Y0225200D01*
X0016484Y0225200D01*
X0016356Y0225509D01*
X0015259Y0226606D01*
X0013826Y0227200D01*
X0012274Y0227200D01*
X0010841Y0226606D01*
X0009744Y0225509D01*
X0009150Y0224076D01*
X0009150Y0222524D01*
X0009744Y0221091D01*
X0010841Y0219994D01*
X0012274Y0219400D01*
X0013826Y0219400D01*
X0015130Y0219940D02*
X0070970Y0219940D01*
X0070841Y0219994D02*
X0072274Y0219400D01*
X0073826Y0219400D01*
X0075259Y0219994D01*
X0076356Y0221091D01*
X0076950Y0222524D01*
X0076950Y0224076D01*
X0076356Y0225509D01*
X0075259Y0226606D01*
X0073826Y0227200D01*
X0072274Y0227200D01*
X0070841Y0226606D01*
X0069744Y0225509D01*
X0069616Y0225200D01*
X0052705Y0225200D01*
X0052324Y0225581D01*
X0051335Y0225991D01*
X0050265Y0225991D01*
X0049276Y0225581D01*
X0048519Y0224824D01*
X0048109Y0223835D01*
X0048109Y0222765D01*
X0048519Y0221776D01*
X0049276Y0221019D01*
X0050265Y0220609D01*
X0051335Y0220609D01*
X0052324Y0221019D01*
X0052705Y0221400D01*
X0069616Y0221400D01*
X0069744Y0221091D01*
X0070841Y0219994D01*
X0068585Y0225859D02*
X0069574Y0226269D01*
X0070331Y0227026D01*
X0070741Y0228015D01*
X0070741Y0228485D01*
X0071877Y0229565D01*
X0072274Y0229400D01*
X0073826Y0229400D01*
X0075259Y0229994D01*
X0076356Y0231091D01*
X0076950Y0232524D01*
X0076950Y0234076D01*
X0076356Y0235509D01*
X0075259Y0236606D01*
X0073826Y0237200D01*
X0072274Y0237200D01*
X0070841Y0236606D01*
X0069744Y0235509D01*
X0069150Y0234076D01*
X0069150Y0232524D01*
X0069242Y0232303D01*
X0068124Y0231241D01*
X0067515Y0231241D01*
X0066526Y0230831D01*
X0065769Y0230074D01*
X0065359Y0229085D01*
X0065359Y0228015D01*
X0065769Y0227026D01*
X0066526Y0226269D01*
X0067515Y0225859D01*
X0068585Y0225859D01*
X0069639Y0226334D02*
X0070569Y0226334D01*
X0070707Y0227933D02*
X0081500Y0227933D01*
X0081500Y0229531D02*
X0074142Y0229531D01*
X0071958Y0229531D02*
X0071841Y0229531D01*
X0070160Y0235925D02*
X0064574Y0235925D01*
X0064545Y0235360D02*
X0064773Y0239792D01*
X0065259Y0239994D01*
X0066356Y0241091D01*
X0066950Y0242524D01*
X0066950Y0244076D01*
X0066356Y0245509D01*
X0065259Y0246606D01*
X0063826Y0247200D01*
X0062274Y0247200D01*
X0060841Y0246606D01*
X0059744Y0245509D01*
X0059150Y0244076D01*
X0059150Y0242524D01*
X0059744Y0241091D01*
X0060841Y0239994D01*
X0060975Y0239938D01*
X0060750Y0235555D01*
X0060269Y0235074D01*
X0059859Y0234085D01*
X0059859Y0233015D01*
X0060269Y0232026D01*
X0061026Y0231269D01*
X0062015Y0230859D01*
X0063085Y0230859D01*
X0064074Y0231269D01*
X0064831Y0232026D01*
X0065241Y0233015D01*
X0065241Y0234085D01*
X0064831Y0235074D01*
X0064545Y0235360D01*
X0065141Y0234327D02*
X0069254Y0234327D01*
X0069150Y0232728D02*
X0065122Y0232728D01*
X0065544Y0229531D02*
X0014142Y0229531D01*
X0013826Y0229400D02*
X0015259Y0229994D01*
X0016356Y0231091D01*
X0016484Y0231400D01*
X0017145Y0231400D01*
X0017526Y0231019D01*
X0018515Y0230609D01*
X0019585Y0230609D01*
X0020574Y0231019D01*
X0021331Y0231776D01*
X0021741Y0232765D01*
X0021741Y0233835D01*
X0021331Y0234824D01*
X0020574Y0235581D01*
X0019585Y0235991D01*
X0018515Y0235991D01*
X0017526Y0235581D01*
X0017145Y0235200D01*
X0016484Y0235200D01*
X0016356Y0235509D01*
X0015259Y0236606D01*
X0013826Y0237200D01*
X0012274Y0237200D01*
X0010841Y0236606D01*
X0009744Y0235509D01*
X0009150Y0234076D01*
X0009150Y0232524D01*
X0009744Y0231091D01*
X0010841Y0229994D01*
X0012274Y0229400D01*
X0013826Y0229400D01*
X0015531Y0226334D02*
X0066461Y0226334D01*
X0065393Y0227933D02*
X0004600Y0227933D01*
X0004600Y0229531D02*
X0011958Y0229531D01*
X0010569Y0226334D02*
X0004600Y0226334D01*
X0004600Y0224736D02*
X0009423Y0224736D01*
X0009150Y0223137D02*
X0004600Y0223137D01*
X0004600Y0221539D02*
X0009558Y0221539D01*
X0010970Y0219940D02*
X0004600Y0219940D01*
X0004600Y0218342D02*
X0081500Y0218342D01*
X0081500Y0219940D02*
X0075130Y0219940D01*
X0074929Y0216743D02*
X0081500Y0216743D01*
X0081500Y0215145D02*
X0076507Y0215145D01*
X0076950Y0213546D02*
X0081500Y0213546D01*
X0081500Y0211948D02*
X0076711Y0211948D01*
X0076542Y0221539D02*
X0081500Y0221539D01*
X0081500Y0223137D02*
X0076950Y0223137D01*
X0076677Y0224736D02*
X0081500Y0224736D01*
X0081500Y0226334D02*
X0075531Y0226334D01*
X0076372Y0231130D02*
X0081500Y0231130D01*
X0081500Y0232728D02*
X0076950Y0232728D01*
X0076846Y0234327D02*
X0081500Y0234327D01*
X0081500Y0235925D02*
X0075940Y0235925D01*
X0081500Y0237524D02*
X0064656Y0237524D01*
X0064738Y0239122D02*
X0081500Y0239122D01*
X0081500Y0240721D02*
X0065986Y0240721D01*
X0066865Y0242319D02*
X0081500Y0242319D01*
X0081500Y0243918D02*
X0066950Y0243918D01*
X0066349Y0245516D02*
X0081500Y0245516D01*
X0081500Y0247115D02*
X0064031Y0247115D01*
X0062069Y0247115D02*
X0054031Y0247115D01*
X0053826Y0247200D02*
X0052274Y0247200D01*
X0050841Y0246606D01*
X0049744Y0245509D01*
X0049150Y0244076D01*
X0049150Y0242524D01*
X0049744Y0241091D01*
X0050841Y0239994D01*
X0052274Y0239400D01*
X0053826Y0239400D01*
X0054135Y0239528D01*
X0054859Y0238804D01*
X0054859Y0238265D01*
X0055269Y0237276D01*
X0056026Y0236519D01*
X0057015Y0236109D01*
X0058085Y0236109D01*
X0059074Y0236519D01*
X0059831Y0237276D01*
X0060241Y0238265D01*
X0060241Y0239335D01*
X0059831Y0240324D01*
X0059074Y0241081D01*
X0058085Y0241491D01*
X0057546Y0241491D01*
X0056822Y0242215D01*
X0056950Y0242524D01*
X0056950Y0244076D01*
X0056356Y0245509D01*
X0055259Y0246606D01*
X0053826Y0247200D01*
X0052069Y0247115D02*
X0044031Y0247115D01*
X0043826Y0247200D02*
X0042274Y0247200D01*
X0040841Y0246606D01*
X0039744Y0245509D01*
X0039150Y0244076D01*
X0039150Y0242524D01*
X0039744Y0241091D01*
X0040841Y0239994D01*
X0042274Y0239400D01*
X0043826Y0239400D01*
X0044073Y0239502D01*
X0047109Y0236353D01*
X0047109Y0235765D01*
X0047519Y0234776D01*
X0048276Y0234019D01*
X0049265Y0233609D01*
X0050335Y0233609D01*
X0051324Y0234019D01*
X0052081Y0234776D01*
X0052491Y0235765D01*
X0052491Y0236835D01*
X0052081Y0237824D01*
X0051324Y0238581D01*
X0050335Y0238991D01*
X0049845Y0238991D01*
X0046796Y0242152D01*
X0046950Y0242524D01*
X0046950Y0244076D01*
X0046356Y0245509D01*
X0045259Y0246606D01*
X0043826Y0247200D01*
X0042069Y0247115D02*
X0035035Y0247115D01*
X0035304Y0246978D02*
X0034701Y0247285D01*
X0034057Y0247494D01*
X0033500Y0247582D01*
X0033500Y0243750D01*
X0037332Y0243750D01*
X0037244Y0244307D01*
X0037035Y0244951D01*
X0036728Y0245554D01*
X0036330Y0246101D01*
X0035851Y0246580D01*
X0035304Y0246978D01*
X0036747Y0245516D02*
X0039751Y0245516D01*
X0039150Y0243918D02*
X0037306Y0243918D01*
X0037332Y0242850D02*
X0033500Y0242850D01*
X0033500Y0243750D01*
X0032600Y0243750D01*
X0032600Y0247582D01*
X0032043Y0247494D01*
X0031399Y0247285D01*
X0030796Y0246978D01*
X0030249Y0246580D01*
X0029770Y0246101D01*
X0029372Y0245554D01*
X0029065Y0244951D01*
X0028856Y0244307D01*
X0028768Y0243750D01*
X0032600Y0243750D01*
X0032600Y0242850D01*
X0033500Y0242850D01*
X0033500Y0239018D01*
X0034057Y0239106D01*
X0034701Y0239315D01*
X0035304Y0239622D01*
X0035851Y0240020D01*
X0036330Y0240499D01*
X0036728Y0241046D01*
X0037035Y0241649D01*
X0037244Y0242293D01*
X0037332Y0242850D01*
X0037248Y0242319D02*
X0039235Y0242319D01*
X0040114Y0240721D02*
X0036491Y0240721D01*
X0034107Y0239122D02*
X0044439Y0239122D01*
X0045981Y0237524D02*
X0004600Y0237524D01*
X0004600Y0239122D02*
X0031993Y0239122D01*
X0032043Y0239106D02*
X0032600Y0239018D01*
X0032600Y0242850D01*
X0028768Y0242850D01*
X0028856Y0242293D01*
X0029065Y0241649D01*
X0029372Y0241046D01*
X0029770Y0240499D01*
X0030249Y0240020D01*
X0030796Y0239622D01*
X0031399Y0239315D01*
X0032043Y0239106D01*
X0032600Y0239122D02*
X0033500Y0239122D01*
X0033500Y0240721D02*
X0032600Y0240721D01*
X0032600Y0242319D02*
X0033500Y0242319D01*
X0033500Y0243918D02*
X0032600Y0243918D01*
X0032600Y0245516D02*
X0033500Y0245516D01*
X0033500Y0247115D02*
X0032600Y0247115D01*
X0031065Y0247115D02*
X0025250Y0247115D01*
X0025250Y0248713D02*
X0081500Y0248713D01*
X0081500Y0250312D02*
X0025250Y0250312D01*
X0025250Y0251910D02*
X0081500Y0251910D01*
X0081500Y0253509D02*
X0036320Y0253509D01*
X0037850Y0255107D02*
X0081416Y0255107D01*
X0081120Y0256706D02*
X0037850Y0256706D01*
X0037850Y0258304D02*
X0080755Y0258304D01*
X0080210Y0259903D02*
X0037850Y0259903D01*
X0037850Y0261501D02*
X0079440Y0261501D01*
X0078512Y0263100D02*
X0033750Y0263100D01*
X0033750Y0261501D02*
X0032350Y0261501D01*
X0032350Y0259903D02*
X0033750Y0259903D01*
X0033750Y0258304D02*
X0032350Y0258304D01*
X0032350Y0256706D02*
X0033750Y0256706D01*
X0033750Y0255107D02*
X0032350Y0255107D01*
X0032350Y0253509D02*
X0033750Y0253509D01*
X0032350Y0263100D02*
X0027450Y0263100D01*
X0027450Y0264698D02*
X0028250Y0264698D01*
X0028250Y0266297D02*
X0027450Y0266297D01*
X0027450Y0267895D02*
X0028250Y0267895D01*
X0028250Y0269494D02*
X0027450Y0269494D01*
X0027450Y0261501D02*
X0028250Y0261501D01*
X0028250Y0259903D02*
X0027450Y0259903D01*
X0027450Y0258304D02*
X0028250Y0258304D01*
X0028250Y0256706D02*
X0027450Y0256706D01*
X0027450Y0255107D02*
X0028250Y0255107D01*
X0029780Y0253509D02*
X0025250Y0253509D01*
X0026349Y0245516D02*
X0029353Y0245516D01*
X0028794Y0243918D02*
X0026950Y0243918D01*
X0026865Y0242319D02*
X0028852Y0242319D01*
X0029609Y0240721D02*
X0025986Y0240721D01*
X0023050Y0243300D02*
X0023050Y0262050D01*
X0020850Y0253509D02*
X0016320Y0253509D01*
X0017850Y0255107D02*
X0018650Y0255107D01*
X0018650Y0256706D02*
X0017850Y0256706D01*
X0017850Y0258304D02*
X0018650Y0258304D01*
X0018650Y0259903D02*
X0017850Y0259903D01*
X0017850Y0261501D02*
X0018650Y0261501D01*
X0018650Y0263100D02*
X0013750Y0263100D01*
X0013750Y0261501D02*
X0012350Y0261501D01*
X0012350Y0259903D02*
X0013750Y0259903D01*
X0013750Y0258304D02*
X0012350Y0258304D01*
X0012350Y0256706D02*
X0013750Y0256706D01*
X0013750Y0255107D02*
X0012350Y0255107D01*
X0012350Y0253509D02*
X0013750Y0253509D01*
X0012350Y0263100D02*
X0004600Y0263100D01*
X0004600Y0264698D02*
X0008250Y0264698D01*
X0008250Y0266297D02*
X0004600Y0266297D01*
X0004600Y0267895D02*
X0008250Y0267895D01*
X0008250Y0269494D02*
X0004959Y0269494D01*
X0004600Y0261501D02*
X0008250Y0261501D01*
X0008250Y0259903D02*
X0004600Y0259903D01*
X0004600Y0258304D02*
X0008250Y0258304D01*
X0008250Y0256706D02*
X0004600Y0256706D01*
X0004600Y0255107D02*
X0008250Y0255107D01*
X0009780Y0253509D02*
X0004600Y0253509D01*
X0004600Y0251910D02*
X0020850Y0251910D01*
X0020850Y0250312D02*
X0004600Y0250312D01*
X0004600Y0248713D02*
X0020850Y0248713D01*
X0020850Y0247115D02*
X0004600Y0247115D01*
X0004600Y0245516D02*
X0019751Y0245516D01*
X0019150Y0243918D02*
X0004600Y0243918D01*
X0004600Y0242319D02*
X0019235Y0242319D01*
X0020114Y0240721D02*
X0004600Y0240721D01*
X0004600Y0235925D02*
X0010160Y0235925D01*
X0009254Y0234327D02*
X0004600Y0234327D01*
X0004600Y0232728D02*
X0009150Y0232728D01*
X0009728Y0231130D02*
X0004600Y0231130D01*
X0004600Y0216743D02*
X0011171Y0216743D01*
X0009593Y0215145D02*
X0004600Y0215145D01*
X0004600Y0213546D02*
X0009150Y0213546D01*
X0009389Y0211948D02*
X0004600Y0211948D01*
X0016312Y0205553D02*
X0026998Y0205553D01*
X0027656Y0200758D02*
X0016023Y0200758D01*
X0015903Y0195962D02*
X0031197Y0195962D01*
X0032403Y0195962D02*
X0036697Y0195962D01*
X0034828Y0194364D02*
X0034272Y0194364D01*
X0034491Y0192765D02*
X0034609Y0192765D01*
X0035628Y0191167D02*
X0033472Y0191167D01*
X0030128Y0191167D02*
X0016388Y0191167D01*
X0013500Y0176780D02*
X0012600Y0176780D01*
X0012600Y0175182D02*
X0013500Y0175182D01*
X0026652Y0211948D02*
X0043948Y0211948D01*
X0043609Y0213546D02*
X0026991Y0213546D01*
X0026260Y0215145D02*
X0044340Y0215145D01*
X0048756Y0221539D02*
X0021344Y0221539D01*
X0021991Y0223137D02*
X0048109Y0223137D01*
X0048482Y0224736D02*
X0021618Y0224736D01*
X0020685Y0231130D02*
X0061362Y0231130D01*
X0059978Y0232728D02*
X0021725Y0232728D01*
X0021537Y0234327D02*
X0047968Y0234327D01*
X0047109Y0235925D02*
X0019743Y0235925D01*
X0018357Y0235925D02*
X0015940Y0235925D01*
X0016372Y0231130D02*
X0017415Y0231130D01*
X0017850Y0264698D02*
X0018650Y0264698D01*
X0018650Y0266297D02*
X0017850Y0266297D01*
X0017850Y0267895D02*
X0018650Y0267895D01*
X0018650Y0269494D02*
X0017850Y0269494D01*
X0037850Y0269494D02*
X0070313Y0269494D01*
X0073619Y0267895D02*
X0037850Y0267895D01*
X0037850Y0266297D02*
X0075623Y0266297D01*
X0077237Y0264698D02*
X0037850Y0264698D01*
X0046349Y0245516D02*
X0049751Y0245516D01*
X0049150Y0243918D02*
X0046950Y0243918D01*
X0046865Y0242319D02*
X0049235Y0242319D01*
X0050114Y0240721D02*
X0048177Y0240721D01*
X0049718Y0239122D02*
X0054541Y0239122D01*
X0055166Y0237524D02*
X0052205Y0237524D01*
X0052491Y0235925D02*
X0060769Y0235925D01*
X0060851Y0237524D02*
X0059934Y0237524D01*
X0060241Y0239122D02*
X0060933Y0239122D01*
X0060114Y0240721D02*
X0059434Y0240721D01*
X0059235Y0242319D02*
X0056865Y0242319D01*
X0056950Y0243918D02*
X0059150Y0243918D01*
X0059751Y0245516D02*
X0056349Y0245516D01*
X0059959Y0234327D02*
X0051632Y0234327D01*
X0063738Y0231130D02*
X0067247Y0231130D01*
X0021985Y0024922D02*
X0017682Y0024922D01*
X0010780Y0008937D02*
X0005253Y0008937D01*
X0004600Y0021725D02*
X0008399Y0021725D01*
X0008150Y0023323D02*
X0004600Y0023323D01*
X0004600Y0024922D02*
X0008418Y0024922D01*
X0009341Y0026520D02*
X0004600Y0026520D01*
D14*
X0055550Y0113300D03*
X0059300Y0103300D03*
X0062800Y0093300D03*
X0077800Y0168300D03*
X0068050Y0228550D03*
X0062550Y0233550D03*
X0057550Y0238800D03*
X0050800Y0223300D03*
X0046300Y0213300D03*
X0041800Y0203300D03*
X0037300Y0193300D03*
X0031800Y0193300D03*
X0028550Y0203300D03*
X0024300Y0213300D03*
X0019300Y0223300D03*
X0019050Y0233300D03*
X0019050Y0247800D03*
X0019050Y0252050D03*
X0027050Y0252050D03*
X0027050Y0247550D03*
X0049800Y0236300D03*
D15*
X0043050Y0243300D01*
X0050800Y0223300D02*
X0073050Y0223300D01*
X0068050Y0228550D02*
X0073050Y0233300D01*
X0073050Y0213300D02*
X0046300Y0213300D01*
X0041800Y0203300D02*
X0073050Y0203300D01*
X0073050Y0193300D02*
X0037300Y0193300D01*
X0031800Y0193300D02*
X0013050Y0193300D01*
X0013050Y0203300D02*
X0028550Y0203300D01*
X0024300Y0213300D02*
X0013050Y0213300D01*
X0013050Y0223300D02*
X0019300Y0223300D01*
X0019050Y0233300D02*
X0013050Y0233300D01*
X0013050Y0183300D02*
X0016586Y0179764D01*
X0018050Y0176229D02*
X0018050Y0158371D01*
X0019514Y0154836D02*
X0019586Y0154764D01*
X0021050Y0151229D02*
X0021050Y0081121D01*
X0019586Y0077586D02*
X0015300Y0073300D01*
X0013050Y0073300D01*
X0019586Y0077585D02*
X0019683Y0077686D01*
X0019778Y0077789D01*
X0019870Y0077895D01*
X0019959Y0078004D01*
X0020045Y0078114D01*
X0020128Y0078228D01*
X0020207Y0078343D01*
X0020284Y0078461D01*
X0020357Y0078581D01*
X0020426Y0078702D01*
X0020492Y0078826D01*
X0020555Y0078952D01*
X0020614Y0079079D01*
X0020669Y0079208D01*
X0020721Y0079338D01*
X0020769Y0079470D01*
X0020814Y0079603D01*
X0020855Y0079737D01*
X0020892Y0079872D01*
X0020925Y0080008D01*
X0020954Y0080146D01*
X0020979Y0080283D01*
X0021001Y0080422D01*
X0021019Y0080561D01*
X0021032Y0080701D01*
X0021042Y0080841D01*
X0021048Y0080981D01*
X0021050Y0081121D01*
X0023050Y0065371D02*
X0023050Y0163300D01*
X0018050Y0158371D02*
X0018052Y0158231D01*
X0018058Y0158091D01*
X0018068Y0157951D01*
X0018081Y0157811D01*
X0018099Y0157672D01*
X0018121Y0157533D01*
X0018146Y0157396D01*
X0018175Y0157258D01*
X0018208Y0157122D01*
X0018245Y0156987D01*
X0018286Y0156853D01*
X0018331Y0156720D01*
X0018379Y0156588D01*
X0018431Y0156458D01*
X0018486Y0156329D01*
X0018545Y0156202D01*
X0018608Y0156076D01*
X0018674Y0155952D01*
X0018743Y0155831D01*
X0018816Y0155711D01*
X0018893Y0155593D01*
X0018972Y0155478D01*
X0019055Y0155364D01*
X0019141Y0155254D01*
X0019230Y0155145D01*
X0019322Y0155039D01*
X0019417Y0154936D01*
X0019514Y0154835D01*
X0019586Y0154765D02*
X0019683Y0154664D01*
X0019778Y0154561D01*
X0019870Y0154455D01*
X0019959Y0154346D01*
X0020045Y0154236D01*
X0020128Y0154122D01*
X0020207Y0154007D01*
X0020284Y0153889D01*
X0020357Y0153769D01*
X0020426Y0153648D01*
X0020492Y0153524D01*
X0020555Y0153398D01*
X0020614Y0153271D01*
X0020669Y0153142D01*
X0020721Y0153012D01*
X0020769Y0152880D01*
X0020814Y0152747D01*
X0020855Y0152613D01*
X0020892Y0152478D01*
X0020925Y0152342D01*
X0020954Y0152204D01*
X0020979Y0152067D01*
X0021001Y0151928D01*
X0021019Y0151789D01*
X0021032Y0151649D01*
X0021042Y0151509D01*
X0021048Y0151369D01*
X0021050Y0151229D01*
X0025050Y0150979D02*
X0025050Y0057371D01*
X0023586Y0053836D02*
X0013050Y0043300D01*
X0013050Y0033300D02*
X0025586Y0045836D01*
X0027050Y0049371D02*
X0027050Y0145229D01*
X0028514Y0148764D02*
X0043050Y0163300D01*
X0049568Y0162568D02*
X0030514Y0143514D01*
X0027050Y0145229D02*
X0027052Y0145369D01*
X0027058Y0145509D01*
X0027068Y0145649D01*
X0027081Y0145789D01*
X0027099Y0145928D01*
X0027121Y0146067D01*
X0027146Y0146204D01*
X0027175Y0146342D01*
X0027208Y0146478D01*
X0027245Y0146613D01*
X0027286Y0146747D01*
X0027331Y0146880D01*
X0027379Y0147012D01*
X0027431Y0147142D01*
X0027486Y0147271D01*
X0027545Y0147398D01*
X0027608Y0147524D01*
X0027674Y0147648D01*
X0027743Y0147769D01*
X0027816Y0147889D01*
X0027893Y0148007D01*
X0027972Y0148122D01*
X0028055Y0148236D01*
X0028141Y0148346D01*
X0028230Y0148455D01*
X0028322Y0148561D01*
X0028417Y0148664D01*
X0028514Y0148765D01*
X0025050Y0150979D02*
X0025052Y0151119D01*
X0025058Y0151259D01*
X0025068Y0151399D01*
X0025081Y0151539D01*
X0025099Y0151678D01*
X0025121Y0151817D01*
X0025146Y0151954D01*
X0025175Y0152092D01*
X0025208Y0152228D01*
X0025245Y0152363D01*
X0025286Y0152497D01*
X0025331Y0152630D01*
X0025379Y0152762D01*
X0025431Y0152892D01*
X0025486Y0153021D01*
X0025545Y0153148D01*
X0025608Y0153274D01*
X0025674Y0153398D01*
X0025743Y0153519D01*
X0025816Y0153639D01*
X0025893Y0153757D01*
X0025972Y0153872D01*
X0026055Y0153986D01*
X0026141Y0154096D01*
X0026230Y0154205D01*
X0026322Y0154311D01*
X0026417Y0154414D01*
X0026514Y0154515D01*
X0026514Y0154514D02*
X0033050Y0161050D01*
X0033050Y0163300D01*
X0030514Y0143515D02*
X0030417Y0143414D01*
X0030322Y0143311D01*
X0030230Y0143205D01*
X0030141Y0143096D01*
X0030055Y0142986D01*
X0029972Y0142872D01*
X0029893Y0142757D01*
X0029816Y0142639D01*
X0029743Y0142519D01*
X0029674Y0142398D01*
X0029608Y0142274D01*
X0029545Y0142148D01*
X0029486Y0142021D01*
X0029431Y0141892D01*
X0029379Y0141762D01*
X0029331Y0141630D01*
X0029286Y0141497D01*
X0029245Y0141363D01*
X0029208Y0141228D01*
X0029175Y0141092D01*
X0029146Y0140954D01*
X0029121Y0140817D01*
X0029099Y0140678D01*
X0029081Y0140539D01*
X0029068Y0140399D01*
X0029058Y0140259D01*
X0029052Y0140119D01*
X0029050Y0139979D01*
X0029050Y0041371D01*
X0027586Y0037836D02*
X0013050Y0023300D01*
X0013050Y0013300D02*
X0029586Y0029836D01*
X0031050Y0033371D02*
X0031050Y0132729D01*
X0032514Y0136264D02*
X0058818Y0162568D01*
X0060586Y0163300D02*
X0063050Y0163300D01*
X0060586Y0163300D02*
X0060488Y0163298D01*
X0060390Y0163292D01*
X0060292Y0163283D01*
X0060195Y0163269D01*
X0060098Y0163252D01*
X0060002Y0163231D01*
X0059907Y0163206D01*
X0059813Y0163178D01*
X0059721Y0163145D01*
X0059629Y0163110D01*
X0059539Y0163070D01*
X0059451Y0163028D01*
X0059364Y0162981D01*
X0059280Y0162932D01*
X0059197Y0162879D01*
X0059117Y0162823D01*
X0059038Y0162763D01*
X0058962Y0162701D01*
X0058889Y0162636D01*
X0058818Y0162568D01*
X0053050Y0163300D02*
X0051336Y0163300D01*
X0051238Y0163298D01*
X0051140Y0163292D01*
X0051042Y0163283D01*
X0050945Y0163269D01*
X0050848Y0163252D01*
X0050752Y0163231D01*
X0050657Y0163206D01*
X0050563Y0163178D01*
X0050471Y0163145D01*
X0050379Y0163110D01*
X0050289Y0163070D01*
X0050201Y0163028D01*
X0050114Y0162981D01*
X0050030Y0162932D01*
X0049947Y0162879D01*
X0049867Y0162823D01*
X0049788Y0162763D01*
X0049712Y0162701D01*
X0049639Y0162636D01*
X0049568Y0162568D01*
X0032514Y0136265D02*
X0032417Y0136164D01*
X0032322Y0136061D01*
X0032230Y0135955D01*
X0032141Y0135846D01*
X0032055Y0135736D01*
X0031972Y0135622D01*
X0031893Y0135507D01*
X0031816Y0135389D01*
X0031743Y0135269D01*
X0031674Y0135148D01*
X0031608Y0135024D01*
X0031545Y0134898D01*
X0031486Y0134771D01*
X0031431Y0134642D01*
X0031379Y0134512D01*
X0031331Y0134380D01*
X0031286Y0134247D01*
X0031245Y0134113D01*
X0031208Y0133978D01*
X0031175Y0133842D01*
X0031146Y0133704D01*
X0031121Y0133567D01*
X0031099Y0133428D01*
X0031081Y0133289D01*
X0031068Y0133149D01*
X0031058Y0133009D01*
X0031052Y0132869D01*
X0031050Y0132729D01*
X0018050Y0176229D02*
X0018048Y0176369D01*
X0018042Y0176509D01*
X0018032Y0176649D01*
X0018019Y0176789D01*
X0018001Y0176928D01*
X0017979Y0177067D01*
X0017954Y0177204D01*
X0017925Y0177342D01*
X0017892Y0177478D01*
X0017855Y0177613D01*
X0017814Y0177747D01*
X0017769Y0177880D01*
X0017721Y0178012D01*
X0017669Y0178142D01*
X0017614Y0178271D01*
X0017555Y0178398D01*
X0017492Y0178524D01*
X0017426Y0178648D01*
X0017357Y0178769D01*
X0017284Y0178889D01*
X0017207Y0179007D01*
X0017128Y0179122D01*
X0017045Y0179236D01*
X0016959Y0179346D01*
X0016870Y0179455D01*
X0016778Y0179561D01*
X0016683Y0179664D01*
X0016586Y0179765D01*
X0057550Y0238800D02*
X0053050Y0243300D01*
X0063050Y0243300D02*
X0062550Y0233550D01*
X0073050Y0183300D02*
X0080336Y0176014D01*
X0081800Y0172479D02*
X0081800Y0034121D01*
X0080336Y0030586D02*
X0073050Y0023300D01*
X0080336Y0030585D02*
X0080433Y0030686D01*
X0080528Y0030789D01*
X0080620Y0030895D01*
X0080709Y0031004D01*
X0080795Y0031114D01*
X0080878Y0031228D01*
X0080957Y0031343D01*
X0081034Y0031461D01*
X0081107Y0031581D01*
X0081176Y0031702D01*
X0081242Y0031826D01*
X0081305Y0031952D01*
X0081364Y0032079D01*
X0081419Y0032208D01*
X0081471Y0032338D01*
X0081519Y0032470D01*
X0081564Y0032603D01*
X0081605Y0032737D01*
X0081642Y0032872D01*
X0081675Y0033008D01*
X0081704Y0033146D01*
X0081729Y0033283D01*
X0081751Y0033422D01*
X0081769Y0033561D01*
X0081782Y0033701D01*
X0081792Y0033841D01*
X0081798Y0033981D01*
X0081800Y0034121D01*
X0073050Y0093300D02*
X0062800Y0093300D01*
X0059300Y0103300D02*
X0073050Y0103300D01*
X0073050Y0113300D02*
X0055550Y0113300D01*
X0077800Y0168550D02*
X0073050Y0173300D01*
X0080336Y0176015D02*
X0080433Y0175914D01*
X0080528Y0175811D01*
X0080620Y0175705D01*
X0080709Y0175596D01*
X0080795Y0175486D01*
X0080878Y0175372D01*
X0080957Y0175257D01*
X0081034Y0175139D01*
X0081107Y0175019D01*
X0081176Y0174898D01*
X0081242Y0174774D01*
X0081305Y0174648D01*
X0081364Y0174521D01*
X0081419Y0174392D01*
X0081471Y0174262D01*
X0081519Y0174130D01*
X0081564Y0173997D01*
X0081605Y0173863D01*
X0081642Y0173728D01*
X0081675Y0173592D01*
X0081704Y0173454D01*
X0081729Y0173317D01*
X0081751Y0173178D01*
X0081769Y0173039D01*
X0081782Y0172899D01*
X0081792Y0172759D01*
X0081798Y0172619D01*
X0081800Y0172479D01*
X0077800Y0168550D02*
X0077800Y0168300D01*
X0031050Y0033371D02*
X0031048Y0033231D01*
X0031042Y0033091D01*
X0031032Y0032951D01*
X0031019Y0032811D01*
X0031001Y0032672D01*
X0030979Y0032533D01*
X0030954Y0032396D01*
X0030925Y0032258D01*
X0030892Y0032122D01*
X0030855Y0031987D01*
X0030814Y0031853D01*
X0030769Y0031720D01*
X0030721Y0031588D01*
X0030669Y0031458D01*
X0030614Y0031329D01*
X0030555Y0031202D01*
X0030492Y0031076D01*
X0030426Y0030952D01*
X0030357Y0030831D01*
X0030284Y0030711D01*
X0030207Y0030593D01*
X0030128Y0030478D01*
X0030045Y0030364D01*
X0029959Y0030254D01*
X0029870Y0030145D01*
X0029778Y0030039D01*
X0029683Y0029936D01*
X0029586Y0029835D01*
X0027586Y0037835D02*
X0027683Y0037936D01*
X0027778Y0038039D01*
X0027870Y0038145D01*
X0027959Y0038254D01*
X0028045Y0038364D01*
X0028128Y0038478D01*
X0028207Y0038593D01*
X0028284Y0038711D01*
X0028357Y0038831D01*
X0028426Y0038952D01*
X0028492Y0039076D01*
X0028555Y0039202D01*
X0028614Y0039329D01*
X0028669Y0039458D01*
X0028721Y0039588D01*
X0028769Y0039720D01*
X0028814Y0039853D01*
X0028855Y0039987D01*
X0028892Y0040122D01*
X0028925Y0040258D01*
X0028954Y0040396D01*
X0028979Y0040533D01*
X0029001Y0040672D01*
X0029019Y0040811D01*
X0029032Y0040951D01*
X0029042Y0041091D01*
X0029048Y0041231D01*
X0029050Y0041371D01*
X0025586Y0045835D02*
X0025683Y0045936D01*
X0025778Y0046039D01*
X0025870Y0046145D01*
X0025959Y0046254D01*
X0026045Y0046364D01*
X0026128Y0046478D01*
X0026207Y0046593D01*
X0026284Y0046711D01*
X0026357Y0046831D01*
X0026426Y0046952D01*
X0026492Y0047076D01*
X0026555Y0047202D01*
X0026614Y0047329D01*
X0026669Y0047458D01*
X0026721Y0047588D01*
X0026769Y0047720D01*
X0026814Y0047853D01*
X0026855Y0047987D01*
X0026892Y0048122D01*
X0026925Y0048258D01*
X0026954Y0048396D01*
X0026979Y0048533D01*
X0027001Y0048672D01*
X0027019Y0048811D01*
X0027032Y0048951D01*
X0027042Y0049091D01*
X0027048Y0049231D01*
X0027050Y0049371D01*
X0021586Y0061836D02*
X0013050Y0053300D01*
X0021586Y0061835D02*
X0021683Y0061936D01*
X0021778Y0062039D01*
X0021870Y0062145D01*
X0021959Y0062254D01*
X0022045Y0062364D01*
X0022128Y0062478D01*
X0022207Y0062593D01*
X0022284Y0062711D01*
X0022357Y0062831D01*
X0022426Y0062952D01*
X0022492Y0063076D01*
X0022555Y0063202D01*
X0022614Y0063329D01*
X0022669Y0063458D01*
X0022721Y0063588D01*
X0022769Y0063720D01*
X0022814Y0063853D01*
X0022855Y0063987D01*
X0022892Y0064122D01*
X0022925Y0064258D01*
X0022954Y0064396D01*
X0022979Y0064533D01*
X0023001Y0064672D01*
X0023019Y0064811D01*
X0023032Y0064951D01*
X0023042Y0065091D01*
X0023048Y0065231D01*
X0023050Y0065371D01*
X0025050Y0057371D02*
X0025048Y0057231D01*
X0025042Y0057091D01*
X0025032Y0056951D01*
X0025019Y0056811D01*
X0025001Y0056672D01*
X0024979Y0056533D01*
X0024954Y0056396D01*
X0024925Y0056258D01*
X0024892Y0056122D01*
X0024855Y0055987D01*
X0024814Y0055853D01*
X0024769Y0055720D01*
X0024721Y0055588D01*
X0024669Y0055458D01*
X0024614Y0055329D01*
X0024555Y0055202D01*
X0024492Y0055076D01*
X0024426Y0054952D01*
X0024357Y0054831D01*
X0024284Y0054711D01*
X0024207Y0054593D01*
X0024128Y0054478D01*
X0024045Y0054364D01*
X0023959Y0054254D01*
X0023870Y0054145D01*
X0023778Y0054039D01*
X0023683Y0053936D01*
X0023586Y0053835D01*
D16*
X0023050Y0262050D03*
M02*
