G75*
%MOIN*%
%OFA0B0*%
%FSLAX25Y25*%
%IPPOS*%
%LPD*%
%AMOC8*
5,1,8,0,0,1.08239X$1,22.5*
%
%ADD10C,0.00800*%
D10*
X0030401Y0065846D02*
X0029700Y0066547D01*
X0029700Y0067948D01*
X0030401Y0068648D01*
X0029700Y0070450D02*
X0029700Y0073252D01*
X0029700Y0071851D02*
X0033904Y0071851D01*
X0032502Y0070450D01*
X0033203Y0068648D02*
X0033904Y0067948D01*
X0033904Y0066547D01*
X0033203Y0065846D01*
X0030401Y0065846D01*
X0031101Y0094346D02*
X0031101Y0096448D01*
X0031802Y0097148D01*
X0033203Y0097148D01*
X0033904Y0096448D01*
X0033904Y0094346D01*
X0029700Y0094346D01*
X0031101Y0095747D02*
X0029700Y0097148D01*
X0029700Y0098950D02*
X0032502Y0101752D01*
X0033203Y0101752D01*
X0033904Y0101052D01*
X0033904Y0099651D01*
X0033203Y0098950D01*
X0029700Y0098950D02*
X0029700Y0101752D01*
X0029700Y0110846D02*
X0033904Y0110846D01*
X0033904Y0112948D01*
X0033203Y0113648D01*
X0031802Y0113648D01*
X0031101Y0112948D01*
X0031101Y0110846D01*
X0031101Y0112247D02*
X0029700Y0113648D01*
X0029700Y0115450D02*
X0029700Y0118252D01*
X0029700Y0116851D02*
X0033904Y0116851D01*
X0032502Y0115450D01*
M02*
