G75*
%MOIN*%
%OFA0B0*%
%FSLAX25Y25*%
%IPPOS*%
%LPD*%
%AMOC8*
5,1,8,0,0,1.08239X$1,22.5*
%
%ADD10C,0.01000*%
D10*
X0001800Y0011800D02*
X0001800Y0268300D01*
X0001802Y0268440D01*
X0001808Y0268580D01*
X0001818Y0268720D01*
X0001831Y0268860D01*
X0001849Y0268999D01*
X0001871Y0269138D01*
X0001896Y0269275D01*
X0001925Y0269413D01*
X0001958Y0269549D01*
X0001995Y0269684D01*
X0002036Y0269818D01*
X0002081Y0269951D01*
X0002129Y0270083D01*
X0002181Y0270213D01*
X0002236Y0270342D01*
X0002295Y0270469D01*
X0002358Y0270595D01*
X0002424Y0270719D01*
X0002493Y0270840D01*
X0002566Y0270960D01*
X0002643Y0271078D01*
X0002722Y0271193D01*
X0002805Y0271307D01*
X0002891Y0271417D01*
X0002980Y0271526D01*
X0003072Y0271632D01*
X0003167Y0271735D01*
X0003264Y0271836D01*
X0003365Y0271933D01*
X0003468Y0272028D01*
X0003574Y0272120D01*
X0003683Y0272209D01*
X0003793Y0272295D01*
X0003907Y0272378D01*
X0004022Y0272457D01*
X0004140Y0272534D01*
X0004260Y0272607D01*
X0004381Y0272676D01*
X0004505Y0272742D01*
X0004631Y0272805D01*
X0004758Y0272864D01*
X0004887Y0272919D01*
X0005017Y0272971D01*
X0005149Y0273019D01*
X0005282Y0273064D01*
X0005416Y0273105D01*
X0005551Y0273142D01*
X0005687Y0273175D01*
X0005825Y0273204D01*
X0005962Y0273229D01*
X0006101Y0273251D01*
X0006240Y0273269D01*
X0006380Y0273282D01*
X0006520Y0273292D01*
X0006660Y0273298D01*
X0006800Y0273300D01*
X0064615Y0273300D01*
X0065091Y0273294D01*
X0065566Y0273277D01*
X0066041Y0273248D01*
X0066515Y0273208D01*
X0066988Y0273156D01*
X0067459Y0273093D01*
X0067929Y0273019D01*
X0068397Y0272933D01*
X0068863Y0272836D01*
X0069326Y0272728D01*
X0069786Y0272609D01*
X0070244Y0272478D01*
X0070698Y0272337D01*
X0071149Y0272184D01*
X0071595Y0272021D01*
X0072038Y0271847D01*
X0072476Y0271662D01*
X0072910Y0271467D01*
X0073339Y0271261D01*
X0073763Y0271045D01*
X0074182Y0270819D01*
X0074595Y0270583D01*
X0075002Y0270337D01*
X0075403Y0270081D01*
X0075797Y0269815D01*
X0076186Y0269540D01*
X0076567Y0269256D01*
X0076941Y0268963D01*
X0077309Y0268661D01*
X0077669Y0268349D01*
X0078021Y0268030D01*
X0078365Y0267702D01*
X0078702Y0267365D01*
X0079030Y0267021D01*
X0079349Y0266669D01*
X0079661Y0266309D01*
X0079963Y0265941D01*
X0080256Y0265567D01*
X0080540Y0265186D01*
X0080815Y0264797D01*
X0081081Y0264403D01*
X0081337Y0264002D01*
X0081583Y0263595D01*
X0081819Y0263182D01*
X0082045Y0262763D01*
X0082261Y0262339D01*
X0082467Y0261910D01*
X0082662Y0261476D01*
X0082847Y0261038D01*
X0083021Y0260595D01*
X0083184Y0260149D01*
X0083337Y0259698D01*
X0083478Y0259244D01*
X0083609Y0258786D01*
X0083728Y0258326D01*
X0083836Y0257863D01*
X0083933Y0257397D01*
X0084019Y0256929D01*
X0084093Y0256459D01*
X0084156Y0255988D01*
X0084208Y0255515D01*
X0084248Y0255041D01*
X0084277Y0254566D01*
X0084294Y0254091D01*
X0084300Y0253615D01*
X0084300Y0011800D01*
X0084297Y0011558D01*
X0084288Y0011317D01*
X0084274Y0011076D01*
X0084253Y0010835D01*
X0084227Y0010595D01*
X0084195Y0010355D01*
X0084157Y0010116D01*
X0084114Y0009879D01*
X0084064Y0009642D01*
X0084009Y0009407D01*
X0083949Y0009173D01*
X0083882Y0008941D01*
X0083811Y0008710D01*
X0083733Y0008481D01*
X0083650Y0008254D01*
X0083562Y0008029D01*
X0083468Y0007806D01*
X0083369Y0007586D01*
X0083264Y0007368D01*
X0083155Y0007153D01*
X0083040Y0006940D01*
X0082920Y0006730D01*
X0082795Y0006524D01*
X0082665Y0006320D01*
X0082530Y0006119D01*
X0082390Y0005922D01*
X0082246Y0005728D01*
X0082097Y0005538D01*
X0081943Y0005352D01*
X0081785Y0005169D01*
X0081623Y0004990D01*
X0081456Y0004815D01*
X0081285Y0004644D01*
X0081110Y0004477D01*
X0080931Y0004315D01*
X0080748Y0004157D01*
X0080562Y0004003D01*
X0080372Y0003854D01*
X0080178Y0003710D01*
X0079981Y0003570D01*
X0079780Y0003435D01*
X0079576Y0003305D01*
X0079370Y0003180D01*
X0079160Y0003060D01*
X0078947Y0002945D01*
X0078732Y0002836D01*
X0078514Y0002731D01*
X0078294Y0002632D01*
X0078071Y0002538D01*
X0077846Y0002450D01*
X0077619Y0002367D01*
X0077390Y0002289D01*
X0077159Y0002218D01*
X0076927Y0002151D01*
X0076693Y0002091D01*
X0076458Y0002036D01*
X0076221Y0001986D01*
X0075984Y0001943D01*
X0075745Y0001905D01*
X0075505Y0001873D01*
X0075265Y0001847D01*
X0075024Y0001826D01*
X0074783Y0001812D01*
X0074542Y0001803D01*
X0074300Y0001800D01*
X0011800Y0001800D01*
X0011558Y0001803D01*
X0011317Y0001812D01*
X0011076Y0001826D01*
X0010835Y0001847D01*
X0010595Y0001873D01*
X0010355Y0001905D01*
X0010116Y0001943D01*
X0009879Y0001986D01*
X0009642Y0002036D01*
X0009407Y0002091D01*
X0009173Y0002151D01*
X0008941Y0002218D01*
X0008710Y0002289D01*
X0008481Y0002367D01*
X0008254Y0002450D01*
X0008029Y0002538D01*
X0007806Y0002632D01*
X0007586Y0002731D01*
X0007368Y0002836D01*
X0007153Y0002945D01*
X0006940Y0003060D01*
X0006730Y0003180D01*
X0006524Y0003305D01*
X0006320Y0003435D01*
X0006119Y0003570D01*
X0005922Y0003710D01*
X0005728Y0003854D01*
X0005538Y0004003D01*
X0005352Y0004157D01*
X0005169Y0004315D01*
X0004990Y0004477D01*
X0004815Y0004644D01*
X0004644Y0004815D01*
X0004477Y0004990D01*
X0004315Y0005169D01*
X0004157Y0005352D01*
X0004003Y0005538D01*
X0003854Y0005728D01*
X0003710Y0005922D01*
X0003570Y0006119D01*
X0003435Y0006320D01*
X0003305Y0006524D01*
X0003180Y0006730D01*
X0003060Y0006940D01*
X0002945Y0007153D01*
X0002836Y0007368D01*
X0002731Y0007586D01*
X0002632Y0007806D01*
X0002538Y0008029D01*
X0002450Y0008254D01*
X0002367Y0008481D01*
X0002289Y0008710D01*
X0002218Y0008941D01*
X0002151Y0009173D01*
X0002091Y0009407D01*
X0002036Y0009642D01*
X0001986Y0009879D01*
X0001943Y0010116D01*
X0001905Y0010355D01*
X0001873Y0010595D01*
X0001847Y0010835D01*
X0001826Y0011076D01*
X0001812Y0011317D01*
X0001803Y0011558D01*
X0001800Y0011800D01*
M02*
