G75*
%MOIN*%
%OFA0B0*%
%FSLAX24Y24*%
%IPPOS*%
%LPD*%
%AMOC8*
5,1,8,0,0,1.08239X$1,22.5*
%
%ADD10C,0.0160*%
D10*
X000180Y000967D02*
X000180Y026597D01*
X000182Y026636D01*
X000188Y026674D01*
X000197Y026711D01*
X000210Y026748D01*
X000227Y026783D01*
X000246Y026816D01*
X000269Y026847D01*
X000295Y026876D01*
X000324Y026902D01*
X000355Y026925D01*
X000388Y026944D01*
X000423Y026961D01*
X000460Y026974D01*
X000497Y026983D01*
X000535Y026989D01*
X000574Y026991D01*
X005003Y026991D01*
X005111Y026989D01*
X005219Y026983D01*
X005326Y026973D01*
X005433Y026960D01*
X005539Y026942D01*
X005645Y026920D01*
X005750Y026895D01*
X005854Y026866D01*
X005956Y026833D01*
X006058Y026796D01*
X006158Y026756D01*
X006256Y026712D01*
X006353Y026664D01*
X006448Y026613D01*
X006541Y026559D01*
X006632Y026501D01*
X006721Y026440D01*
X006808Y026375D01*
X006892Y026308D01*
X006974Y026237D01*
X007053Y026164D01*
X007129Y026088D01*
X007202Y026009D01*
X007273Y025927D01*
X007340Y025843D01*
X007405Y025756D01*
X007466Y025667D01*
X007524Y025576D01*
X007578Y025483D01*
X007629Y025388D01*
X007677Y025291D01*
X007721Y025193D01*
X007761Y025093D01*
X007798Y024991D01*
X007831Y024889D01*
X007860Y024785D01*
X007885Y024680D01*
X007907Y024574D01*
X007925Y024468D01*
X007938Y024361D01*
X007948Y024254D01*
X007954Y024146D01*
X007956Y024038D01*
X007956Y000967D01*
X007955Y000967D02*
X007953Y000913D01*
X007948Y000860D01*
X007939Y000807D01*
X007926Y000755D01*
X007910Y000703D01*
X007890Y000653D01*
X007867Y000605D01*
X007840Y000558D01*
X007811Y000513D01*
X007778Y000470D01*
X007743Y000430D01*
X007705Y000392D01*
X007665Y000357D01*
X007622Y000324D01*
X007577Y000295D01*
X007530Y000268D01*
X007482Y000245D01*
X007432Y000225D01*
X007380Y000209D01*
X007328Y000196D01*
X007275Y000187D01*
X007222Y000182D01*
X007168Y000180D01*
X000967Y000180D01*
X000913Y000182D01*
X000860Y000187D01*
X000807Y000196D01*
X000755Y000209D01*
X000703Y000225D01*
X000653Y000245D01*
X000605Y000268D01*
X000558Y000295D01*
X000513Y000324D01*
X000470Y000357D01*
X000430Y000392D01*
X000392Y000430D01*
X000357Y000470D01*
X000324Y000513D01*
X000295Y000558D01*
X000268Y000605D01*
X000245Y000653D01*
X000225Y000703D01*
X000209Y000755D01*
X000196Y000807D01*
X000187Y000860D01*
X000182Y000913D01*
X000180Y000967D01*
M02*
