G75*
%MOIN*%
%OFA0B0*%
%FSLAX24Y24*%
%IPPOS*%
%LPD*%
%AMOC8*
5,1,8,0,0,1.08239X$1,22.5*
%
%ADD10C,0.0080*%
%ADD11C,0.0700*%
%ADD12R,0.0600X0.1600*%
%ADD13R,0.0394X0.0433*%
%ADD14R,0.0354X0.0276*%
%ADD15C,0.0120*%
%ADD16C,0.0278*%
%ADD17C,0.0100*%
D10*
X006392Y013507D02*
X006322Y013577D01*
X006322Y013648D01*
X006392Y013718D01*
X006743Y013718D01*
X006743Y013648D02*
X006743Y013788D01*
X006743Y013968D02*
X006392Y013968D01*
X006322Y014038D01*
X006322Y014178D01*
X006392Y014248D01*
X006743Y014248D01*
X006743Y014428D02*
X006322Y014708D01*
X006743Y014708D01*
X006603Y014889D02*
X006603Y014959D01*
X006533Y014959D01*
X006533Y014889D01*
X006603Y014889D01*
X006603Y015119D02*
X006533Y015189D01*
X006533Y015329D01*
X006462Y015399D01*
X006392Y015399D01*
X006322Y015329D01*
X006322Y015189D01*
X006392Y015119D01*
X006392Y014959D02*
X006322Y014959D01*
X006322Y014889D01*
X006392Y014889D01*
X006392Y014959D01*
X006603Y015119D02*
X006673Y015119D01*
X006743Y015189D01*
X006743Y015329D01*
X006673Y015399D01*
X006673Y015579D02*
X006743Y015649D01*
X006743Y015789D01*
X006673Y015859D01*
X006392Y015579D01*
X006322Y015649D01*
X006322Y015789D01*
X006392Y015859D01*
X006673Y015859D01*
X006743Y016040D02*
X006533Y016040D01*
X006603Y016180D01*
X006603Y016250D01*
X006533Y016320D01*
X006392Y016320D01*
X006322Y016250D01*
X006322Y016110D01*
X006392Y016040D01*
X006392Y015579D02*
X006673Y015579D01*
X006743Y016040D02*
X006743Y016320D01*
X006743Y014428D02*
X006322Y014428D01*
D11*
X006558Y012471D03*
X006558Y011471D03*
X006558Y010471D03*
X006558Y009471D03*
X006558Y008471D03*
X006558Y007471D03*
X006558Y006471D03*
X006558Y005471D03*
X006558Y004471D03*
X006558Y003471D03*
X006558Y002471D03*
X006558Y001471D03*
X001558Y001452D03*
X001558Y002452D03*
X001558Y003452D03*
X001558Y004452D03*
X001558Y005452D03*
X001558Y006452D03*
X001558Y007452D03*
X001558Y008452D03*
X001558Y009452D03*
X001558Y010452D03*
X001558Y011452D03*
X001558Y012452D03*
D12*
X001046Y025810D03*
X003046Y025810D03*
D13*
X002434Y007296D03*
X002434Y006627D03*
D14*
X002404Y009530D03*
X002404Y010042D03*
X002395Y010987D03*
X002395Y011499D03*
D15*
X000747Y000855D02*
X000792Y000792D01*
X000855Y000747D01*
X000929Y000723D01*
X000967Y000720D01*
X007168Y000720D01*
X007207Y000723D01*
X007281Y000747D01*
X007343Y000792D01*
X007389Y000855D01*
X007413Y000929D01*
X007416Y000967D01*
X007416Y024038D01*
X007404Y024275D01*
X007312Y024739D01*
X007131Y025176D01*
X006868Y025569D01*
X006533Y025903D01*
X006140Y026166D01*
X005703Y026347D01*
X005239Y026439D01*
X005239Y026439D01*
X005003Y026451D01*
X003506Y026451D01*
X003506Y025870D01*
X003106Y025870D01*
X003106Y025750D01*
X003106Y024850D01*
X003367Y024850D01*
X003408Y024861D01*
X003444Y024882D01*
X003474Y024912D01*
X003495Y024948D01*
X003506Y024989D01*
X003506Y025750D01*
X003106Y025750D01*
X002986Y025750D01*
X002586Y025750D01*
X002586Y024989D01*
X002597Y024948D01*
X002618Y024912D01*
X002648Y024882D01*
X002684Y024861D01*
X002725Y024850D01*
X002986Y024850D01*
X002986Y025750D01*
X002986Y025870D01*
X002586Y025870D01*
X002586Y026451D01*
X001506Y026451D01*
X001506Y025870D01*
X001106Y025870D01*
X001106Y025750D01*
X001106Y024850D01*
X001367Y024850D01*
X001408Y024861D01*
X001444Y024882D01*
X001474Y024912D01*
X001495Y024948D01*
X001506Y024989D01*
X001506Y025750D01*
X001106Y025750D01*
X000986Y025750D01*
X000986Y024850D01*
X000725Y024850D01*
X000720Y024851D01*
X000720Y000967D01*
X000723Y000929D01*
X000747Y000855D01*
X000776Y000815D02*
X007360Y000815D01*
X007413Y000934D02*
X000723Y000934D01*
X000720Y001052D02*
X001264Y001052D01*
X001280Y001036D02*
X001143Y001174D01*
X001068Y001354D01*
X001068Y001549D01*
X001143Y001729D01*
X001280Y001867D01*
X001460Y001942D01*
X001655Y001942D01*
X001836Y001867D01*
X001973Y001729D01*
X002048Y001549D01*
X002048Y001354D01*
X001973Y001174D01*
X001836Y001036D01*
X001655Y000962D01*
X001460Y000962D01*
X001280Y001036D01*
X001146Y001171D02*
X000720Y001171D01*
X000720Y001289D02*
X001095Y001289D01*
X001068Y001408D02*
X000720Y001408D01*
X000720Y001526D02*
X001068Y001526D01*
X001108Y001645D02*
X000720Y001645D01*
X000720Y001763D02*
X001177Y001763D01*
X001316Y001882D02*
X000720Y001882D01*
X000720Y002000D02*
X001367Y002000D01*
X001280Y002036D02*
X001460Y001962D01*
X001655Y001962D01*
X001836Y002036D01*
X001973Y002174D01*
X002048Y002354D01*
X002048Y002549D01*
X001973Y002729D01*
X001836Y002867D01*
X001655Y002942D01*
X001460Y002942D01*
X001280Y002867D01*
X001143Y002729D01*
X001068Y002549D01*
X001068Y002354D01*
X001143Y002174D01*
X001280Y002036D01*
X001198Y002119D02*
X000720Y002119D01*
X000720Y002237D02*
X001116Y002237D01*
X001068Y002356D02*
X000720Y002356D01*
X000720Y002474D02*
X001068Y002474D01*
X001086Y002593D02*
X000720Y002593D01*
X000720Y002711D02*
X001135Y002711D01*
X001243Y002830D02*
X000720Y002830D01*
X000720Y002948D02*
X006429Y002948D01*
X006460Y002961D02*
X006280Y002887D01*
X006143Y002749D01*
X006068Y002569D01*
X006068Y002374D01*
X006143Y002194D01*
X006280Y002056D01*
X006460Y001981D01*
X006655Y001981D01*
X006836Y002056D01*
X006973Y002194D01*
X007048Y002374D01*
X007048Y002569D01*
X006973Y002749D01*
X006836Y002887D01*
X006655Y002961D01*
X006460Y002961D01*
X006460Y002981D02*
X006655Y002981D01*
X006836Y003056D01*
X006973Y003194D01*
X007048Y003374D01*
X007048Y003569D01*
X006973Y003749D01*
X006836Y003887D01*
X006655Y003961D01*
X006460Y003961D01*
X006280Y003887D01*
X006143Y003749D01*
X006068Y003569D01*
X006068Y003374D01*
X006143Y003194D01*
X006280Y003056D01*
X006460Y002981D01*
X006269Y003067D02*
X001866Y003067D01*
X001836Y003036D02*
X001973Y003174D01*
X002048Y003354D01*
X002048Y003549D01*
X001973Y003729D01*
X001836Y003867D01*
X001655Y003942D01*
X001460Y003942D01*
X001280Y003867D01*
X001143Y003729D01*
X001068Y003549D01*
X001068Y003354D01*
X001143Y003174D01*
X001280Y003036D01*
X001460Y002962D01*
X001655Y002962D01*
X001836Y003036D01*
X001978Y003185D02*
X006151Y003185D01*
X006097Y003304D02*
X002027Y003304D01*
X002048Y003422D02*
X006068Y003422D01*
X006068Y003541D02*
X002048Y003541D01*
X002002Y003659D02*
X006105Y003659D01*
X006172Y003778D02*
X001925Y003778D01*
X001836Y004036D02*
X001973Y004174D01*
X002048Y004354D01*
X002048Y004549D01*
X001973Y004729D01*
X001836Y004867D01*
X001655Y004942D01*
X001460Y004942D01*
X001280Y004867D01*
X001143Y004729D01*
X001068Y004549D01*
X001068Y004354D01*
X001143Y004174D01*
X001280Y004036D01*
X001460Y003962D01*
X001655Y003962D01*
X001836Y004036D01*
X001784Y004015D02*
X006379Y004015D01*
X006460Y003981D02*
X006655Y003981D01*
X006836Y004056D01*
X006973Y004194D01*
X007048Y004374D01*
X007048Y004569D01*
X006973Y004749D01*
X006836Y004887D01*
X006655Y004961D01*
X006460Y004961D01*
X006280Y004887D01*
X006143Y004749D01*
X006110Y004671D01*
X005939Y004671D01*
X005863Y004676D01*
X005714Y004716D01*
X005582Y004793D01*
X005524Y004843D01*
X005474Y004893D01*
X005465Y004902D01*
X003741Y006626D01*
X003690Y006684D01*
X003614Y006817D01*
X003574Y006965D01*
X003569Y007042D01*
X003569Y007310D01*
X003642Y007183D01*
X003675Y007150D01*
X005206Y005619D01*
X005227Y005598D01*
X005323Y005502D01*
X005357Y005469D01*
X005582Y005339D01*
X005833Y005271D01*
X006110Y005271D01*
X006143Y005194D01*
X006280Y005056D01*
X006460Y004981D01*
X006655Y004981D01*
X006836Y005056D01*
X006973Y005194D01*
X007048Y005374D01*
X007048Y005569D01*
X006973Y005749D01*
X006836Y005887D01*
X006655Y005961D01*
X006460Y005961D01*
X006280Y005887D01*
X006143Y005749D01*
X006110Y005671D01*
X005963Y005671D01*
X005886Y005676D01*
X005738Y005716D01*
X005605Y005793D01*
X005547Y005843D01*
X005509Y005881D01*
X005489Y005902D01*
X004017Y007374D01*
X003966Y007432D01*
X003889Y007565D01*
X003850Y007713D01*
X003845Y007790D01*
X003845Y008049D01*
X003890Y007938D01*
X003970Y007858D01*
X004023Y007806D01*
X004029Y007800D01*
X004088Y007741D01*
X005271Y006558D01*
X005361Y006469D01*
X005586Y006339D01*
X005837Y006271D01*
X006110Y006271D01*
X006143Y006194D01*
X006280Y006056D01*
X006460Y005981D01*
X006655Y005981D01*
X006836Y006056D01*
X006973Y006194D01*
X007048Y006374D01*
X007048Y006569D01*
X006973Y006749D01*
X006836Y006887D01*
X006655Y006961D01*
X006460Y006961D01*
X006280Y006887D01*
X006143Y006749D01*
X006110Y006671D01*
X005967Y006671D01*
X005890Y006676D01*
X005742Y006716D01*
X005609Y006793D01*
X005551Y006843D01*
X005493Y006902D01*
X005493Y006902D01*
X004312Y008083D01*
X004239Y008172D01*
X004151Y008383D01*
X004140Y008497D01*
X004140Y008580D01*
X004140Y008580D01*
X004139Y008807D01*
X004205Y008647D01*
X004285Y008567D01*
X004358Y008495D01*
X004403Y008450D01*
X005234Y007619D01*
X005292Y007560D01*
X005431Y007422D01*
X005431Y007422D01*
X005794Y007271D01*
X006110Y007271D01*
X006143Y007194D01*
X006280Y007056D01*
X006460Y006981D01*
X006655Y006981D01*
X006836Y007056D01*
X006973Y007194D01*
X007048Y007374D01*
X007048Y007569D01*
X006973Y007749D01*
X006836Y007887D01*
X006655Y007961D01*
X006460Y007961D01*
X006280Y007887D01*
X006143Y007749D01*
X006110Y007671D01*
X005990Y007671D01*
X005876Y007683D01*
X005664Y007770D01*
X005575Y007843D01*
X004657Y008761D01*
X004627Y008791D01*
X004554Y008880D01*
X004466Y009092D01*
X004455Y009206D01*
X004455Y009289D01*
X004455Y009289D01*
X004454Y009515D01*
X004528Y009388D01*
X004561Y009355D01*
X004561Y009355D01*
X005297Y008619D01*
X005308Y008607D01*
X005414Y008502D01*
X005447Y008469D01*
X005672Y008339D01*
X005923Y008271D01*
X006110Y008271D01*
X006143Y008194D01*
X006280Y008056D01*
X006460Y007981D01*
X006655Y007981D01*
X006836Y008056D01*
X006973Y008194D01*
X007048Y008374D01*
X007048Y008569D01*
X006973Y008749D01*
X006836Y008887D01*
X006655Y008961D01*
X006460Y008961D01*
X006280Y008887D01*
X006143Y008749D01*
X006110Y008671D01*
X006053Y008671D01*
X005977Y008676D01*
X005829Y008716D01*
X005696Y008793D01*
X005638Y008843D01*
X005591Y008891D01*
X005579Y008902D01*
X004902Y009579D01*
X004852Y009637D01*
X004775Y009770D01*
X004735Y009918D01*
X004730Y009994D01*
X004730Y011084D01*
X004823Y010923D01*
X004856Y010890D01*
X004908Y010838D01*
X004915Y010832D01*
X004973Y010773D01*
X006100Y009646D01*
X006068Y009569D01*
X006068Y009374D01*
X006143Y009194D01*
X006280Y009056D01*
X006460Y008981D01*
X006655Y008981D01*
X006836Y009056D01*
X006973Y009194D01*
X007048Y009374D01*
X007048Y009569D01*
X006973Y009749D01*
X006836Y009887D01*
X006655Y009961D01*
X006460Y009961D01*
X006383Y009929D01*
X005256Y011056D01*
X005198Y011114D01*
X005147Y011172D01*
X005070Y011305D01*
X005031Y011453D01*
X005026Y011530D01*
X005026Y011789D01*
X005118Y011628D01*
X005210Y011536D01*
X005269Y011478D01*
X006100Y010646D01*
X006068Y010569D01*
X006068Y010374D01*
X006143Y010194D01*
X006280Y010056D01*
X006460Y009981D01*
X006655Y009981D01*
X006836Y010056D01*
X006973Y010194D01*
X007048Y010374D01*
X007048Y010569D01*
X006973Y010749D01*
X006836Y010887D01*
X006655Y010961D01*
X006460Y010961D01*
X006383Y010929D01*
X005552Y011761D01*
X005493Y011819D01*
X005442Y011877D01*
X005366Y012010D01*
X005326Y012158D01*
X005321Y012234D01*
X005321Y012493D01*
X005414Y012333D01*
X005447Y012300D01*
X005447Y012300D01*
X006100Y011646D01*
X006068Y011569D01*
X006068Y011374D01*
X006143Y011194D01*
X006280Y011056D01*
X006460Y010981D01*
X006655Y010981D01*
X006836Y011056D01*
X006973Y011194D01*
X007048Y011374D01*
X007048Y011569D01*
X006973Y011749D01*
X006836Y011887D01*
X006655Y011961D01*
X006460Y011961D01*
X006383Y011929D01*
X006241Y012071D01*
X006291Y012035D01*
X006362Y011999D01*
X006439Y011974D01*
X006518Y011961D01*
X006518Y012431D01*
X006598Y012431D01*
X006598Y011961D01*
X006598Y011961D01*
X006677Y011974D01*
X006754Y011999D01*
X006825Y012035D01*
X006890Y012082D01*
X006947Y012139D01*
X006994Y012204D01*
X007031Y012276D01*
X007055Y012352D01*
X007068Y012431D01*
X007068Y012431D01*
X006598Y012431D01*
X006598Y012511D01*
X007068Y012511D01*
X007068Y012511D01*
X007055Y012591D01*
X007031Y012667D01*
X006994Y012739D01*
X006947Y012804D01*
X006890Y012860D01*
X006825Y012908D01*
X006754Y012944D01*
X006677Y012969D01*
X006598Y012981D01*
X006598Y012511D01*
X006518Y012511D01*
X006518Y012431D01*
X006048Y012431D01*
X006061Y012352D01*
X006085Y012276D01*
X006122Y012204D01*
X006158Y012154D01*
X005788Y012524D01*
X005738Y012582D01*
X005661Y012714D01*
X005621Y012863D01*
X005616Y012939D01*
X005616Y021698D01*
X005653Y021735D01*
X005695Y021837D01*
X005695Y021948D01*
X005653Y022051D01*
X005574Y022129D01*
X005472Y022172D01*
X005361Y022172D01*
X005321Y022155D01*
X005321Y022859D01*
X005358Y022896D01*
X005400Y022999D01*
X005400Y023110D01*
X005358Y023212D01*
X007416Y023212D01*
X007416Y023330D02*
X005183Y023330D01*
X005176Y023333D02*
X005065Y023333D01*
X004963Y023291D01*
X004884Y023212D01*
X000720Y023212D01*
X000720Y023330D02*
X005059Y023330D01*
X005176Y023333D02*
X005279Y023291D01*
X005358Y023212D01*
X005400Y023093D02*
X007416Y023093D01*
X007416Y022975D02*
X005390Y022975D01*
X005321Y022856D02*
X007416Y022856D01*
X007416Y022738D02*
X005321Y022738D01*
X005321Y022619D02*
X007416Y022619D01*
X007416Y022501D02*
X005321Y022501D01*
X005321Y022382D02*
X007416Y022382D01*
X007416Y022264D02*
X005321Y022264D01*
X005416Y021893D02*
X005416Y012939D01*
X005619Y012902D02*
X006284Y012902D01*
X006291Y012908D02*
X006226Y012860D01*
X006169Y012804D01*
X006122Y012739D01*
X006085Y012667D01*
X006061Y012591D01*
X006048Y012511D01*
X006518Y012511D01*
X006518Y012981D01*
X006518Y012981D01*
X006439Y012969D01*
X006362Y012944D01*
X006291Y012908D01*
X005648Y012383D02*
X005612Y012420D01*
X005580Y012460D01*
X005550Y012502D01*
X005522Y012545D01*
X005498Y012591D01*
X005477Y012638D01*
X005459Y012686D01*
X005444Y012735D01*
X005432Y012785D01*
X005424Y012836D01*
X005419Y012888D01*
X005417Y012939D01*
X005616Y013021D02*
X007416Y013021D01*
X007416Y013139D02*
X005616Y013139D01*
X005616Y013258D02*
X007416Y013258D01*
X007416Y013376D02*
X006516Y013376D01*
X006467Y013327D02*
X006572Y013433D01*
X006572Y013538D01*
X006598Y013538D01*
X006668Y013468D01*
X006817Y013468D01*
X006923Y013573D01*
X006923Y013862D01*
X006907Y013878D01*
X006923Y013893D01*
X006923Y014042D01*
X006857Y014108D01*
X006923Y014173D01*
X006923Y014323D01*
X006907Y014338D01*
X006923Y014354D01*
X006923Y014374D01*
X006934Y014390D01*
X006923Y014446D01*
X006923Y014503D01*
X006909Y014517D01*
X006905Y014537D01*
X006857Y014568D01*
X006923Y014634D01*
X006923Y014783D01*
X006817Y014888D01*
X006783Y014888D01*
X006783Y014974D01*
X006817Y015009D01*
X006817Y015009D01*
X006921Y015113D01*
X006923Y015114D01*
X006923Y015188D01*
X006923Y015254D01*
X006923Y015263D01*
X006923Y015328D01*
X006923Y015404D01*
X006837Y015489D01*
X006878Y015530D01*
X006923Y015575D01*
X006923Y015622D01*
X006923Y015724D01*
X006923Y015864D01*
X006923Y015864D01*
X006921Y015865D01*
X006872Y015914D01*
X006923Y015965D01*
X006923Y016394D01*
X006817Y016500D01*
X006668Y016500D01*
X006638Y016469D01*
X006607Y016500D01*
X006318Y016500D01*
X006248Y016430D01*
X006142Y016324D01*
X006142Y016035D01*
X006228Y015949D01*
X006142Y015864D01*
X006142Y015575D01*
X006212Y015505D01*
X006212Y015505D01*
X006228Y015489D01*
X006142Y015404D01*
X006142Y015114D01*
X006183Y015074D01*
X006142Y015033D01*
X006142Y014814D01*
X006158Y014799D01*
X006142Y014783D01*
X006142Y014763D01*
X006131Y014746D01*
X006142Y014691D01*
X006142Y014634D01*
X006157Y014620D01*
X006160Y014600D01*
X006208Y014569D01*
X006208Y014568D01*
X006142Y014503D01*
X006142Y014354D01*
X006193Y014303D01*
X006142Y014253D01*
X006142Y013963D01*
X006248Y013858D01*
X006263Y013843D01*
X006212Y013792D01*
X006142Y013722D01*
X006142Y013647D01*
X006142Y013503D01*
X006248Y013397D01*
X006318Y013327D01*
X006467Y013327D01*
X006572Y013495D02*
X006641Y013495D01*
X006845Y013495D02*
X007416Y013495D01*
X007416Y013613D02*
X006923Y013613D01*
X006923Y013732D02*
X007416Y013732D01*
X007416Y013850D02*
X006923Y013850D01*
X006923Y013969D02*
X007416Y013969D01*
X007416Y014087D02*
X006878Y014087D01*
X006923Y014206D02*
X007416Y014206D01*
X007416Y014324D02*
X006921Y014324D01*
X006923Y014443D02*
X007416Y014443D01*
X007416Y014561D02*
X006867Y014561D01*
X006857Y014568D02*
X006857Y014568D01*
X006923Y014680D02*
X007416Y014680D01*
X007416Y014798D02*
X006907Y014798D01*
X006783Y014917D02*
X007416Y014917D01*
X007416Y015035D02*
X006844Y015035D01*
X006923Y015114D02*
X006923Y015114D01*
X006923Y015154D02*
X007416Y015154D01*
X007416Y015272D02*
X006923Y015272D01*
X006923Y015391D02*
X007416Y015391D01*
X007416Y015509D02*
X006857Y015509D01*
X006923Y015575D02*
X006923Y015575D01*
X006923Y015575D01*
X006923Y015628D02*
X007416Y015628D01*
X007416Y015746D02*
X006923Y015746D01*
X006923Y015724D02*
X006923Y015724D01*
X006923Y015864D02*
X006923Y015864D01*
X006922Y015865D02*
X007416Y015865D01*
X007416Y015983D02*
X006923Y015983D01*
X006923Y016102D02*
X007416Y016102D01*
X007416Y016220D02*
X006923Y016220D01*
X006923Y016339D02*
X007416Y016339D01*
X007416Y016457D02*
X006860Y016457D01*
X007416Y016576D02*
X005616Y016576D01*
X005616Y016694D02*
X007416Y016694D01*
X007416Y016813D02*
X005616Y016813D01*
X005616Y016931D02*
X007416Y016931D01*
X007416Y017050D02*
X005616Y017050D01*
X005616Y017168D02*
X007416Y017168D01*
X007416Y017287D02*
X005616Y017287D01*
X005616Y017405D02*
X007416Y017405D01*
X007416Y017524D02*
X005616Y017524D01*
X005616Y017642D02*
X007416Y017642D01*
X007416Y017761D02*
X005616Y017761D01*
X005616Y017879D02*
X007416Y017879D01*
X007416Y017998D02*
X005616Y017998D01*
X005616Y018116D02*
X007416Y018116D01*
X007416Y018235D02*
X005616Y018235D01*
X005616Y018353D02*
X007416Y018353D01*
X007416Y018472D02*
X005616Y018472D01*
X005616Y018590D02*
X007416Y018590D01*
X007416Y018709D02*
X005616Y018709D01*
X005616Y018827D02*
X007416Y018827D01*
X007416Y018946D02*
X005616Y018946D01*
X005616Y019064D02*
X007416Y019064D01*
X007416Y019183D02*
X005616Y019183D01*
X005616Y019301D02*
X007416Y019301D01*
X007416Y019420D02*
X005616Y019420D01*
X005616Y019538D02*
X007416Y019538D01*
X007416Y019657D02*
X005616Y019657D01*
X005616Y019775D02*
X007416Y019775D01*
X007416Y019894D02*
X005616Y019894D01*
X005616Y020012D02*
X007416Y020012D01*
X007416Y020131D02*
X005616Y020131D01*
X005616Y020249D02*
X007416Y020249D01*
X007416Y020368D02*
X005616Y020368D01*
X005616Y020486D02*
X007416Y020486D01*
X007416Y020605D02*
X005616Y020605D01*
X005616Y020723D02*
X007416Y020723D01*
X007416Y020842D02*
X005616Y020842D01*
X005616Y020960D02*
X007416Y020960D01*
X007416Y021079D02*
X005616Y021079D01*
X005616Y021197D02*
X007416Y021197D01*
X007416Y021316D02*
X005616Y021316D01*
X005616Y021434D02*
X007416Y021434D01*
X007416Y021553D02*
X005616Y021553D01*
X005616Y021671D02*
X007416Y021671D01*
X007416Y021790D02*
X005676Y021790D01*
X005695Y021908D02*
X007416Y021908D01*
X007416Y022027D02*
X005663Y022027D01*
X005535Y022145D02*
X007416Y022145D01*
X007416Y023449D02*
X000720Y023449D01*
X000720Y023567D02*
X007416Y023567D01*
X007416Y023686D02*
X000720Y023686D01*
X000720Y023804D02*
X007416Y023804D01*
X007416Y023923D02*
X000720Y023923D01*
X000720Y024041D02*
X007415Y024041D01*
X007410Y024160D02*
X000720Y024160D01*
X000720Y024278D02*
X007403Y024278D01*
X007380Y024397D02*
X000720Y024397D01*
X000720Y024515D02*
X007356Y024515D01*
X007333Y024634D02*
X000720Y024634D01*
X000720Y024752D02*
X007306Y024752D01*
X007257Y024871D02*
X003425Y024871D01*
X003506Y024989D02*
X007208Y024989D01*
X007159Y025108D02*
X003506Y025108D01*
X003506Y025226D02*
X007097Y025226D01*
X007018Y025345D02*
X003506Y025345D01*
X003506Y025463D02*
X006938Y025463D01*
X006855Y025582D02*
X003506Y025582D01*
X003506Y025700D02*
X006736Y025700D01*
X006618Y025819D02*
X003106Y025819D01*
X003106Y025700D02*
X002986Y025700D01*
X002986Y025582D02*
X003106Y025582D01*
X003106Y025463D02*
X002986Y025463D01*
X002986Y025345D02*
X003106Y025345D01*
X003106Y025226D02*
X002986Y025226D01*
X002986Y025108D02*
X003106Y025108D01*
X003106Y024989D02*
X002986Y024989D01*
X002986Y024871D02*
X003106Y024871D01*
X002667Y024871D02*
X001425Y024871D01*
X001506Y024989D02*
X002586Y024989D01*
X002586Y025108D02*
X001506Y025108D01*
X001506Y025226D02*
X002586Y025226D01*
X002586Y025345D02*
X001506Y025345D01*
X001506Y025463D02*
X002586Y025463D01*
X002586Y025582D02*
X001506Y025582D01*
X001506Y025700D02*
X002586Y025700D01*
X002586Y025937D02*
X001506Y025937D01*
X001506Y026056D02*
X002586Y026056D01*
X002586Y026174D02*
X001506Y026174D01*
X001506Y026293D02*
X002586Y026293D01*
X002586Y026411D02*
X001506Y026411D01*
X001106Y025819D02*
X002986Y025819D01*
X003506Y025937D02*
X006482Y025937D01*
X006305Y026056D02*
X003506Y026056D01*
X003506Y026174D02*
X006120Y026174D01*
X005834Y026293D02*
X003506Y026293D01*
X003506Y026411D02*
X005380Y026411D01*
X004884Y023212D02*
X004842Y023110D01*
X004842Y022999D01*
X004884Y022896D01*
X004921Y022859D01*
X004921Y022706D01*
X004881Y022723D01*
X004770Y022723D01*
X004668Y022680D01*
X004589Y022602D01*
X004547Y022499D01*
X004547Y022388D01*
X004589Y022286D01*
X004626Y022249D01*
X004626Y021230D01*
X004586Y021246D01*
X004475Y021246D01*
X004372Y021204D01*
X004294Y021125D01*
X004251Y021023D01*
X004251Y020912D01*
X004294Y020809D01*
X004330Y020773D01*
X004330Y020679D01*
X004291Y020695D01*
X004180Y020695D01*
X004077Y020653D01*
X003999Y020574D01*
X003956Y020472D01*
X003956Y020361D01*
X003999Y020258D01*
X004035Y020221D01*
X004036Y020139D01*
X003976Y020164D01*
X003865Y020164D01*
X003762Y020121D01*
X003684Y020043D01*
X003641Y019940D01*
X003641Y019829D01*
X003684Y019727D01*
X003720Y019690D01*
X003721Y019576D01*
X003680Y019593D01*
X003569Y019593D01*
X003467Y019550D01*
X003388Y019472D01*
X003346Y019369D01*
X003346Y019258D01*
X003388Y019156D01*
X003445Y019100D01*
X003445Y019006D01*
X003405Y019022D01*
X003294Y019022D01*
X003191Y018980D01*
X003113Y018901D01*
X003070Y018798D01*
X003070Y018687D01*
X003113Y018585D01*
X003169Y018529D01*
X003169Y018454D01*
X003129Y018471D01*
X003018Y018471D01*
X002968Y018450D01*
X002968Y019523D01*
X003035Y019589D01*
X003077Y019691D01*
X003077Y019802D01*
X003035Y019905D01*
X002956Y019983D01*
X002854Y020026D01*
X002743Y020026D01*
X002673Y019997D01*
X002673Y020527D01*
X002720Y020573D01*
X002762Y020676D01*
X002762Y020787D01*
X002720Y020889D01*
X002641Y020968D01*
X002539Y021010D01*
X002428Y021010D01*
X002358Y020981D01*
X002358Y021530D01*
X002405Y021577D01*
X002447Y021680D01*
X002447Y021791D01*
X002405Y021893D01*
X002326Y021972D01*
X002224Y022014D01*
X002113Y022014D01*
X002010Y021972D01*
X001932Y021893D01*
X001889Y021791D01*
X001889Y021680D01*
X001932Y021577D01*
X001978Y021530D01*
X001978Y012718D01*
X001973Y012729D01*
X001836Y012867D01*
X001748Y012903D01*
X001748Y022082D01*
X001795Y022128D01*
X001837Y022231D01*
X001837Y022342D01*
X001795Y022444D01*
X001716Y022523D01*
X001613Y022565D01*
X001502Y022565D01*
X001400Y022523D01*
X001321Y022444D01*
X001279Y022342D01*
X001279Y022231D01*
X001321Y022128D01*
X001368Y022082D01*
X001368Y012903D01*
X001280Y012867D01*
X001143Y012729D01*
X001068Y012549D01*
X001068Y012354D01*
X001143Y012174D01*
X001280Y012036D01*
X001460Y011962D01*
X001655Y011962D01*
X001836Y012036D01*
X001962Y012163D01*
X001943Y012113D01*
X001916Y012078D01*
X001743Y011905D01*
X001655Y011942D01*
X001460Y011942D01*
X001280Y011867D01*
X001143Y011729D01*
X001068Y011549D01*
X001068Y011354D01*
X001143Y011174D01*
X001280Y011036D01*
X001460Y010962D01*
X001655Y010962D01*
X001836Y011036D01*
X001973Y011174D01*
X002048Y011354D01*
X002048Y011549D01*
X002012Y011637D01*
X002133Y011758D01*
X002136Y011758D01*
X002189Y011814D01*
X002243Y011868D01*
X002243Y011870D01*
X002274Y011903D01*
X002293Y011953D01*
X002293Y011777D01*
X002159Y011777D01*
X002077Y011695D01*
X002077Y011303D01*
X002138Y011243D01*
X002077Y011183D01*
X002077Y010939D01*
X001921Y010782D01*
X001836Y010867D01*
X001655Y010942D01*
X001460Y010942D01*
X001280Y010867D01*
X001143Y010729D01*
X001068Y010549D01*
X001068Y010354D01*
X001143Y010174D01*
X001280Y010036D01*
X001460Y009962D01*
X001655Y009962D01*
X001836Y010036D01*
X001973Y010174D01*
X002048Y010354D01*
X002048Y010372D01*
X002049Y010373D01*
X002385Y010709D01*
X002588Y010709D01*
X002588Y010553D01*
X002584Y010510D01*
X002549Y010433D01*
X002521Y010401D01*
X002462Y010349D01*
X002462Y010349D01*
X002430Y010320D01*
X002169Y010320D01*
X002087Y010238D01*
X002087Y009846D01*
X002147Y009786D01*
X002087Y009726D01*
X002087Y009642D01*
X002010Y009642D01*
X001973Y009729D01*
X001836Y009867D01*
X001655Y009942D01*
X001460Y009942D01*
X001280Y009867D01*
X001143Y009729D01*
X001068Y009549D01*
X001068Y009354D01*
X001143Y009174D01*
X001280Y009036D01*
X001460Y008962D01*
X001655Y008962D01*
X001836Y009036D01*
X001973Y009174D01*
X002010Y009262D01*
X002160Y009262D01*
X002169Y009253D01*
X002315Y009253D01*
X002321Y009249D01*
X002338Y009253D01*
X002640Y009253D01*
X002722Y009335D01*
X002722Y009726D01*
X002661Y009786D01*
X002722Y009846D01*
X002722Y010071D01*
X002774Y010118D01*
X002867Y010201D01*
X002884Y010239D01*
X002884Y009162D01*
X002880Y009122D01*
X002849Y009049D01*
X002824Y009018D01*
X002817Y009011D01*
X002768Y008962D01*
X002569Y008763D01*
X002514Y008708D01*
X002513Y008707D01*
X002482Y008682D01*
X002409Y008651D01*
X002369Y008648D01*
X002007Y008648D01*
X001973Y008729D01*
X001836Y008867D01*
X001655Y008942D01*
X001460Y008942D01*
X001280Y008867D01*
X001143Y008729D01*
X001068Y008549D01*
X001068Y008354D01*
X001143Y008174D01*
X001280Y008036D01*
X001460Y007962D01*
X001655Y007962D01*
X001836Y008036D01*
X001973Y008174D01*
X002012Y008268D01*
X002485Y008268D01*
X002700Y008356D01*
X002779Y008435D01*
X002789Y008446D01*
X002838Y008494D01*
X003104Y008760D01*
X003169Y008825D01*
X003169Y006912D01*
X003236Y006660D01*
X003366Y006435D01*
X003400Y006402D01*
X005182Y004619D01*
X005192Y004610D01*
X005300Y004502D01*
X005333Y004469D01*
X005558Y004339D01*
X005809Y004271D01*
X006110Y004271D01*
X006143Y004194D01*
X006280Y004056D01*
X006460Y003981D01*
X006304Y003896D02*
X001765Y003896D01*
X001933Y004133D02*
X006203Y004133D01*
X006118Y004252D02*
X002006Y004252D01*
X002048Y004370D02*
X005503Y004370D01*
X005333Y004469D02*
X005333Y004469D01*
X005313Y004489D02*
X002048Y004489D01*
X002024Y004607D02*
X005194Y004607D01*
X005076Y004726D02*
X001975Y004726D01*
X001858Y004844D02*
X004957Y004844D01*
X004839Y004963D02*
X001658Y004963D01*
X001655Y004962D02*
X001836Y005036D01*
X001973Y005174D01*
X002048Y005354D01*
X002048Y005549D01*
X001973Y005729D01*
X001836Y005867D01*
X001655Y005942D01*
X001460Y005942D01*
X001280Y005867D01*
X001143Y005729D01*
X001068Y005549D01*
X001068Y005354D01*
X001143Y005174D01*
X001280Y005036D01*
X001460Y004962D01*
X001655Y004962D01*
X001881Y005081D02*
X004720Y005081D01*
X004602Y005200D02*
X001984Y005200D01*
X002033Y005318D02*
X004483Y005318D01*
X004365Y005437D02*
X002048Y005437D01*
X002045Y005555D02*
X004246Y005555D01*
X004128Y005674D02*
X001996Y005674D01*
X001910Y005792D02*
X004009Y005792D01*
X003891Y005911D02*
X001730Y005911D01*
X001677Y005954D02*
X001754Y005979D01*
X001825Y006015D01*
X001890Y006063D01*
X001947Y006119D01*
X001994Y006184D01*
X002031Y006256D01*
X002055Y006332D01*
X002068Y006412D01*
X001598Y006412D01*
X001598Y006492D01*
X001518Y006492D01*
X001518Y006962D01*
X001518Y006962D01*
X001439Y006949D01*
X001362Y006924D01*
X001291Y006888D01*
X001226Y006841D01*
X001169Y006784D01*
X001122Y006719D01*
X001085Y006647D01*
X001061Y006571D01*
X001048Y006492D01*
X001048Y006492D01*
X001518Y006492D01*
X001518Y006412D01*
X001048Y006412D01*
X001048Y006412D01*
X001061Y006332D01*
X001085Y006256D01*
X001122Y006184D01*
X001169Y006119D01*
X001226Y006063D01*
X001291Y006015D01*
X001362Y005979D01*
X001439Y005954D01*
X001518Y005942D01*
X001518Y006412D01*
X001598Y006412D01*
X001598Y005942D01*
X001598Y005942D01*
X001677Y005954D01*
X001598Y006029D02*
X001518Y006029D01*
X001518Y005942D02*
X001518Y005942D01*
X001386Y005911D02*
X000720Y005911D01*
X000720Y006029D02*
X001271Y006029D01*
X001148Y006148D02*
X000720Y006148D01*
X000720Y006266D02*
X001082Y006266D01*
X001052Y006385D02*
X000720Y006385D01*
X000720Y006503D02*
X001050Y006503D01*
X001077Y006622D02*
X000720Y006622D01*
X000720Y006740D02*
X001137Y006740D01*
X001251Y006859D02*
X000720Y006859D01*
X000720Y006977D02*
X001422Y006977D01*
X001460Y006962D02*
X001655Y006962D01*
X001836Y007036D01*
X001973Y007174D01*
X002005Y007252D01*
X002097Y007252D01*
X002097Y007022D01*
X002144Y006975D01*
X002139Y006971D01*
X002109Y006942D01*
X002088Y006905D01*
X002077Y006864D01*
X002077Y006665D01*
X002396Y006665D01*
X002396Y006588D01*
X002472Y006588D01*
X002472Y006250D01*
X002652Y006250D01*
X002693Y006261D01*
X002729Y006282D01*
X002759Y006312D01*
X002780Y006349D01*
X002791Y006389D01*
X002791Y006588D01*
X002472Y006588D01*
X002472Y006665D01*
X002791Y006665D01*
X002791Y006864D01*
X002780Y006905D01*
X002759Y006942D01*
X002729Y006971D01*
X002724Y006975D01*
X002771Y007022D01*
X002771Y007571D01*
X002689Y007653D01*
X002233Y007653D01*
X002205Y007653D01*
X002179Y007653D01*
X002178Y007652D01*
X002005Y007652D01*
X001973Y007729D01*
X001836Y007867D01*
X001655Y007942D01*
X001460Y007942D01*
X001280Y007867D01*
X001143Y007729D01*
X001068Y007549D01*
X001068Y007354D01*
X001143Y007174D01*
X001280Y007036D01*
X001460Y006962D01*
X001518Y006859D02*
X001598Y006859D01*
X001598Y006962D02*
X001598Y006962D01*
X001598Y006492D01*
X002068Y006492D01*
X002055Y006571D01*
X002031Y006647D01*
X001994Y006719D01*
X001947Y006784D01*
X001890Y006841D01*
X001825Y006888D01*
X001754Y006924D01*
X001677Y006949D01*
X001598Y006962D01*
X001693Y006977D02*
X002141Y006977D01*
X002097Y007096D02*
X001895Y007096D01*
X001990Y007214D02*
X002097Y007214D01*
X002284Y007452D02*
X001558Y007452D01*
X001896Y007807D02*
X003169Y007807D01*
X003169Y007925D02*
X001695Y007925D01*
X001843Y008044D02*
X003169Y008044D01*
X003169Y008162D02*
X001962Y008162D01*
X001990Y007688D02*
X003169Y007688D01*
X003169Y007570D02*
X002771Y007570D01*
X002771Y007451D02*
X003169Y007451D01*
X003169Y007333D02*
X002771Y007333D01*
X002771Y007214D02*
X003169Y007214D01*
X003169Y007096D02*
X002771Y007096D01*
X002727Y006977D02*
X003169Y006977D01*
X003183Y006859D02*
X002791Y006859D01*
X002791Y006740D02*
X003215Y006740D01*
X003236Y006660D02*
X003236Y006660D01*
X003259Y006622D02*
X002472Y006622D01*
X002396Y006622D02*
X002039Y006622D01*
X002077Y006588D02*
X002077Y006389D01*
X002088Y006349D01*
X002109Y006312D01*
X002139Y006282D01*
X002175Y006261D01*
X002216Y006250D01*
X002396Y006250D01*
X002396Y006588D01*
X002077Y006588D01*
X002066Y006503D02*
X002077Y006503D01*
X002068Y006492D02*
X002068Y006492D01*
X002068Y006412D02*
X002068Y006412D01*
X002064Y006385D02*
X002078Y006385D01*
X002034Y006266D02*
X002166Y006266D01*
X002396Y006266D02*
X002472Y006266D01*
X002472Y006385D02*
X002396Y006385D01*
X002396Y006503D02*
X002472Y006503D01*
X002791Y006503D02*
X003327Y006503D01*
X003366Y006435D02*
X003366Y006435D01*
X003400Y006402D02*
X003400Y006402D01*
X003417Y006385D02*
X002790Y006385D01*
X002702Y006266D02*
X003535Y006266D01*
X003654Y006148D02*
X001968Y006148D01*
X001844Y006029D02*
X003772Y006029D01*
X003864Y006503D02*
X004322Y006503D01*
X004440Y006385D02*
X003982Y006385D01*
X004101Y006266D02*
X004559Y006266D01*
X004677Y006148D02*
X004219Y006148D01*
X004338Y006029D02*
X004796Y006029D01*
X004914Y005911D02*
X004456Y005911D01*
X004575Y005792D02*
X005033Y005792D01*
X005151Y005674D02*
X004693Y005674D01*
X004812Y005555D02*
X005270Y005555D01*
X005357Y005469D02*
X005357Y005469D01*
X005412Y005437D02*
X004930Y005437D01*
X005049Y005318D02*
X005657Y005318D01*
X005582Y005339D02*
X005582Y005339D01*
X005406Y005702D02*
X003875Y007233D01*
X003729Y007096D02*
X003569Y007096D01*
X003642Y007183D02*
X003642Y007183D01*
X003624Y007214D02*
X003569Y007214D01*
X003675Y007150D02*
X003675Y007150D01*
X003573Y006977D02*
X003848Y006977D01*
X003966Y006859D02*
X003602Y006859D01*
X003658Y006740D02*
X004085Y006740D01*
X004203Y006622D02*
X003745Y006622D01*
X003600Y006485D02*
X005382Y004702D01*
X005523Y004844D02*
X006238Y004844D01*
X006133Y004726D02*
X005697Y004726D01*
X005714Y004716D02*
X005714Y004716D01*
X005939Y004471D02*
X006558Y004471D01*
X006736Y004015D02*
X007416Y004015D01*
X007416Y004133D02*
X006913Y004133D01*
X006997Y004252D02*
X007416Y004252D01*
X007416Y004370D02*
X007047Y004370D01*
X007048Y004489D02*
X007416Y004489D01*
X007416Y004607D02*
X007032Y004607D01*
X006983Y004726D02*
X007416Y004726D01*
X007416Y004844D02*
X006878Y004844D01*
X006861Y005081D02*
X007416Y005081D01*
X007416Y004963D02*
X005404Y004963D01*
X005286Y005081D02*
X006255Y005081D01*
X006140Y005200D02*
X005167Y005200D01*
X005480Y005911D02*
X006339Y005911D01*
X006344Y006029D02*
X005361Y006029D01*
X005243Y006148D02*
X006188Y006148D01*
X006112Y006266D02*
X005124Y006266D01*
X005006Y006385D02*
X005506Y006385D01*
X005586Y006339D02*
X005586Y006339D01*
X005700Y006740D02*
X006139Y006740D01*
X006253Y006859D02*
X005536Y006859D01*
X005417Y006977D02*
X007416Y006977D01*
X007416Y006859D02*
X006863Y006859D01*
X006977Y006740D02*
X007416Y006740D01*
X007416Y006622D02*
X007026Y006622D01*
X007048Y006503D02*
X007416Y006503D01*
X007416Y006385D02*
X007048Y006385D01*
X007003Y006266D02*
X007416Y006266D01*
X007416Y006148D02*
X006927Y006148D01*
X006771Y006029D02*
X007416Y006029D01*
X007416Y005911D02*
X006777Y005911D01*
X006930Y005792D02*
X007416Y005792D01*
X007416Y005674D02*
X007004Y005674D01*
X007048Y005555D02*
X007416Y005555D01*
X007416Y005437D02*
X007048Y005437D01*
X007025Y005318D02*
X007416Y005318D01*
X007416Y005200D02*
X006976Y005200D01*
X006558Y005471D02*
X006554Y005475D01*
X006558Y005471D02*
X005963Y005471D01*
X005924Y005674D02*
X006111Y005674D01*
X006186Y005792D02*
X005606Y005792D01*
X005407Y005703D02*
X005444Y005667D01*
X005484Y005635D01*
X005526Y005605D01*
X005569Y005577D01*
X005615Y005553D01*
X005662Y005532D01*
X005710Y005514D01*
X005759Y005499D01*
X005809Y005487D01*
X005860Y005479D01*
X005912Y005474D01*
X005963Y005472D01*
X005383Y004703D02*
X005420Y004667D01*
X005460Y004635D01*
X005502Y004605D01*
X005545Y004577D01*
X005591Y004553D01*
X005638Y004532D01*
X005686Y004514D01*
X005735Y004499D01*
X005785Y004487D01*
X005836Y004479D01*
X005888Y004474D01*
X005939Y004472D01*
X006224Y002830D02*
X001873Y002830D01*
X001981Y002711D02*
X006127Y002711D01*
X006078Y002593D02*
X002030Y002593D01*
X002048Y002474D02*
X006068Y002474D01*
X006075Y002356D02*
X002048Y002356D01*
X002000Y002237D02*
X006124Y002237D01*
X006217Y002119D02*
X001918Y002119D01*
X001800Y001882D02*
X006255Y001882D01*
X006226Y001860D02*
X006169Y001804D01*
X006122Y001739D01*
X006085Y001667D01*
X006061Y001591D01*
X006048Y001511D01*
X006518Y001511D01*
X006518Y001431D01*
X006598Y001431D01*
X006598Y000961D01*
X006598Y000961D01*
X006677Y000974D01*
X006754Y000999D01*
X006825Y001035D01*
X006890Y001082D01*
X006947Y001139D01*
X006994Y001204D01*
X007031Y001276D01*
X007055Y001352D01*
X007068Y001431D01*
X007068Y001431D01*
X006598Y001431D01*
X006598Y001511D01*
X007068Y001511D01*
X007068Y001511D01*
X007055Y001591D01*
X007031Y001667D01*
X006994Y001739D01*
X006947Y001804D01*
X006890Y001860D01*
X006825Y001908D01*
X006754Y001944D01*
X006677Y001969D01*
X006598Y001981D01*
X006598Y001981D01*
X006598Y001511D01*
X006518Y001511D01*
X006518Y001981D01*
X006518Y001981D01*
X006439Y001969D01*
X006362Y001944D01*
X006291Y001908D01*
X006226Y001860D01*
X006140Y001763D02*
X001939Y001763D01*
X002008Y001645D02*
X006078Y001645D01*
X006050Y001526D02*
X002048Y001526D01*
X002048Y001408D02*
X006052Y001408D01*
X006048Y001431D02*
X006061Y001352D01*
X006085Y001276D01*
X006122Y001204D01*
X006169Y001139D01*
X006226Y001082D01*
X006291Y001035D01*
X006362Y000999D01*
X006439Y000974D01*
X006518Y000961D01*
X006518Y001431D01*
X006048Y001431D01*
X006048Y001431D01*
X006048Y001511D02*
X006048Y001511D01*
X006081Y001289D02*
X002021Y001289D01*
X001970Y001171D02*
X006146Y001171D01*
X006267Y001052D02*
X001852Y001052D01*
X001749Y002000D02*
X006415Y002000D01*
X006518Y001882D02*
X006598Y001882D01*
X006598Y001763D02*
X006518Y001763D01*
X006518Y001645D02*
X006598Y001645D01*
X006598Y001526D02*
X006518Y001526D01*
X006518Y001408D02*
X006598Y001408D01*
X006598Y001289D02*
X006518Y001289D01*
X006518Y001171D02*
X006598Y001171D01*
X006598Y001052D02*
X006518Y001052D01*
X006518Y000961D02*
X006518Y000961D01*
X006849Y001052D02*
X007416Y001052D01*
X007416Y001171D02*
X006970Y001171D01*
X007035Y001289D02*
X007416Y001289D01*
X007416Y001408D02*
X007064Y001408D01*
X007066Y001526D02*
X007416Y001526D01*
X007416Y001645D02*
X007038Y001645D01*
X006976Y001763D02*
X007416Y001763D01*
X007416Y001882D02*
X006861Y001882D01*
X006898Y002119D02*
X007416Y002119D01*
X007416Y002237D02*
X006991Y002237D01*
X007041Y002356D02*
X007416Y002356D01*
X007416Y002474D02*
X007048Y002474D01*
X007038Y002593D02*
X007416Y002593D01*
X007416Y002711D02*
X006989Y002711D01*
X006892Y002830D02*
X007416Y002830D01*
X007416Y002948D02*
X006687Y002948D01*
X006846Y003067D02*
X007416Y003067D01*
X007416Y003185D02*
X006965Y003185D01*
X007019Y003304D02*
X007416Y003304D01*
X007416Y003422D02*
X007048Y003422D01*
X007048Y003541D02*
X007416Y003541D01*
X007416Y003659D02*
X007010Y003659D01*
X006944Y003778D02*
X007416Y003778D01*
X007416Y003896D02*
X006812Y003896D01*
X006701Y002000D02*
X007416Y002000D01*
X006546Y006460D02*
X006558Y006471D01*
X005967Y006471D01*
X006240Y007096D02*
X005299Y007096D01*
X005180Y007214D02*
X006134Y007214D01*
X005967Y006472D02*
X005916Y006474D01*
X005864Y006479D01*
X005813Y006487D01*
X005763Y006499D01*
X005714Y006514D01*
X005666Y006532D01*
X005619Y006553D01*
X005573Y006577D01*
X005530Y006605D01*
X005488Y006635D01*
X005448Y006667D01*
X005411Y006703D01*
X005410Y006702D02*
X004170Y007941D01*
X004022Y007807D02*
X003845Y007807D01*
X003845Y007925D02*
X003903Y007925D01*
X003890Y007938D02*
X003890Y007938D01*
X003970Y007858D02*
X003970Y007858D01*
X004088Y007741D02*
X004088Y007741D01*
X004140Y007688D02*
X003856Y007688D01*
X003888Y007570D02*
X004259Y007570D01*
X004377Y007451D02*
X003955Y007451D01*
X004058Y007333D02*
X004496Y007333D01*
X004615Y007214D02*
X004176Y007214D01*
X004295Y007096D02*
X004733Y007096D01*
X004852Y006977D02*
X004413Y006977D01*
X004532Y006859D02*
X004970Y006859D01*
X005089Y006740D02*
X004650Y006740D01*
X004769Y006622D02*
X005207Y006622D01*
X005326Y006503D02*
X004887Y006503D01*
X005062Y007333D02*
X005645Y007333D01*
X005401Y007451D02*
X004943Y007451D01*
X004825Y007570D02*
X005283Y007570D01*
X005292Y007560D02*
X005292Y007560D01*
X005234Y007619D02*
X005234Y007619D01*
X005164Y007688D02*
X004706Y007688D01*
X004588Y007807D02*
X005046Y007807D01*
X004927Y007925D02*
X004469Y007925D01*
X003645Y007790D02*
X003647Y007739D01*
X003652Y007687D01*
X003660Y007636D01*
X003672Y007586D01*
X003687Y007537D01*
X003705Y007489D01*
X003726Y007442D01*
X003750Y007396D01*
X003778Y007353D01*
X003808Y007311D01*
X003840Y007271D01*
X003876Y007234D01*
X003369Y007042D02*
X003371Y006991D01*
X003376Y006939D01*
X003384Y006888D01*
X003396Y006838D01*
X003411Y006789D01*
X003429Y006741D01*
X003450Y006694D01*
X003474Y006648D01*
X003502Y006605D01*
X003532Y006563D01*
X003564Y006523D01*
X003600Y006486D01*
X003369Y007042D02*
X003369Y018704D01*
X003349Y018743D01*
X003158Y018946D02*
X002968Y018946D01*
X002968Y019064D02*
X003445Y019064D01*
X003377Y019183D02*
X002968Y019183D01*
X002968Y019301D02*
X003346Y019301D01*
X003367Y019420D02*
X002968Y019420D01*
X002984Y019538D02*
X003455Y019538D01*
X003625Y019314D02*
X003645Y019274D01*
X003645Y007790D01*
X003845Y008044D02*
X003847Y008044D01*
X003940Y008497D02*
X003920Y019885D01*
X003785Y020131D02*
X002673Y020131D01*
X002673Y020249D02*
X004007Y020249D01*
X003956Y020368D02*
X002673Y020368D01*
X002673Y020486D02*
X003962Y020486D01*
X004029Y020605D02*
X002733Y020605D01*
X002762Y020723D02*
X004330Y020723D01*
X004280Y020842D02*
X002739Y020842D01*
X002649Y020960D02*
X004251Y020960D01*
X004275Y021079D02*
X002358Y021079D01*
X002358Y021197D02*
X004366Y021197D01*
X004530Y020967D02*
X004530Y009994D01*
X004730Y010058D02*
X005688Y010058D01*
X005807Y009940D02*
X004734Y009940D01*
X004761Y009821D02*
X005925Y009821D01*
X006044Y009703D02*
X004814Y009703D01*
X004898Y009584D02*
X006074Y009584D01*
X006068Y009466D02*
X005016Y009466D01*
X005134Y009347D02*
X006079Y009347D01*
X005497Y008703D02*
X005534Y008667D01*
X005574Y008635D01*
X005616Y008605D01*
X005659Y008577D01*
X005705Y008553D01*
X005752Y008532D01*
X005800Y008514D01*
X005849Y008499D01*
X005899Y008487D01*
X005950Y008479D01*
X006002Y008474D01*
X006053Y008472D01*
X006053Y008471D02*
X006558Y008471D01*
X006806Y008044D02*
X007416Y008044D01*
X007416Y008162D02*
X006942Y008162D01*
X007009Y008281D02*
X007416Y008281D01*
X007416Y008399D02*
X007048Y008399D01*
X007048Y008518D02*
X007416Y008518D01*
X007416Y008636D02*
X007020Y008636D01*
X006967Y008755D02*
X007416Y008755D01*
X007416Y008873D02*
X006849Y008873D01*
X006681Y008992D02*
X007416Y008992D01*
X007416Y009110D02*
X006890Y009110D01*
X006988Y009229D02*
X007416Y009229D01*
X007416Y009347D02*
X007037Y009347D01*
X007048Y009466D02*
X007416Y009466D01*
X007416Y009584D02*
X007041Y009584D01*
X006992Y009703D02*
X007416Y009703D01*
X007416Y009821D02*
X006901Y009821D01*
X006838Y010058D02*
X007416Y010058D01*
X007416Y009940D02*
X006707Y009940D01*
X006409Y009940D02*
X006372Y009940D01*
X006278Y010058D02*
X006254Y010058D01*
X006159Y010177D02*
X006135Y010177D01*
X006100Y010295D02*
X006017Y010295D01*
X006068Y010414D02*
X005898Y010414D01*
X005780Y010532D02*
X006068Y010532D01*
X006096Y010651D02*
X005661Y010651D01*
X005543Y010769D02*
X005977Y010769D01*
X005859Y010888D02*
X005424Y010888D01*
X005306Y011006D02*
X005740Y011006D01*
X005622Y011125D02*
X005189Y011125D01*
X005106Y011243D02*
X005503Y011243D01*
X005385Y011362D02*
X005055Y011362D01*
X005029Y011480D02*
X005266Y011480D01*
X005269Y011478D02*
X005269Y011478D01*
X005210Y011536D02*
X005210Y011536D01*
X005148Y011599D02*
X005026Y011599D01*
X005118Y011628D02*
X005118Y011628D01*
X005067Y011717D02*
X005026Y011717D01*
X004826Y011530D02*
X004826Y022444D01*
X004921Y022738D02*
X000720Y022738D01*
X000720Y022856D02*
X004921Y022856D01*
X004852Y022975D02*
X000720Y022975D01*
X000720Y023093D02*
X004842Y023093D01*
X005121Y023054D02*
X005121Y012234D01*
X005324Y012191D02*
X005555Y012191D01*
X005674Y012073D02*
X005349Y012073D01*
X005398Y011954D02*
X005792Y011954D01*
X005911Y011836D02*
X005478Y011836D01*
X005552Y011761D02*
X005552Y011761D01*
X005595Y011717D02*
X006029Y011717D01*
X006080Y011599D02*
X005713Y011599D01*
X004826Y011530D02*
X004828Y011479D01*
X004833Y011427D01*
X004841Y011376D01*
X004853Y011326D01*
X004868Y011277D01*
X004886Y011229D01*
X004907Y011182D01*
X004931Y011136D01*
X004959Y011093D01*
X004989Y011051D01*
X005021Y011011D01*
X005057Y010974D01*
X005056Y010973D02*
X006558Y009471D01*
X006435Y008992D02*
X005490Y008992D01*
X005608Y008873D02*
X006267Y008873D01*
X006149Y008755D02*
X005761Y008755D01*
X005497Y008702D02*
X004761Y009438D01*
X004687Y009229D02*
X004455Y009229D01*
X004454Y009347D02*
X004568Y009347D01*
X004528Y009388D02*
X004528Y009388D01*
X004483Y009466D02*
X004454Y009466D01*
X004464Y009110D02*
X004805Y009110D01*
X004924Y008992D02*
X004508Y008992D01*
X004560Y008873D02*
X005042Y008873D01*
X005161Y008755D02*
X004663Y008755D01*
X004782Y008636D02*
X005279Y008636D01*
X005398Y008518D02*
X004900Y008518D01*
X005019Y008399D02*
X005567Y008399D01*
X005672Y008339D02*
X005672Y008339D01*
X005493Y007925D02*
X006374Y007925D01*
X006309Y008044D02*
X005374Y008044D01*
X005256Y008162D02*
X006174Y008162D01*
X005990Y007472D02*
X005939Y007474D01*
X005887Y007479D01*
X005836Y007487D01*
X005786Y007499D01*
X005737Y007514D01*
X005689Y007532D01*
X005642Y007553D01*
X005597Y007577D01*
X005553Y007605D01*
X005511Y007635D01*
X005471Y007667D01*
X005434Y007702D01*
X004485Y008650D01*
X004335Y008518D02*
X004140Y008518D01*
X004139Y008636D02*
X004216Y008636D01*
X004205Y008647D02*
X004205Y008647D01*
X004285Y008567D02*
X004285Y008567D01*
X004403Y008450D02*
X004403Y008450D01*
X004453Y008399D02*
X004149Y008399D01*
X004193Y008281D02*
X004572Y008281D01*
X004690Y008162D02*
X004246Y008162D01*
X004351Y008044D02*
X004809Y008044D01*
X004171Y007941D02*
X004135Y007979D01*
X004103Y008019D01*
X004073Y008061D01*
X004046Y008104D01*
X004021Y008150D01*
X004000Y008196D01*
X003982Y008244D01*
X003967Y008294D01*
X003955Y008344D01*
X003947Y008394D01*
X003942Y008446D01*
X003940Y008497D01*
X004139Y008755D02*
X004161Y008755D01*
X004255Y009206D02*
X004235Y020416D01*
X004626Y021316D02*
X002358Y021316D01*
X002358Y021434D02*
X004626Y021434D01*
X004626Y021553D02*
X002381Y021553D01*
X002444Y021671D02*
X004626Y021671D01*
X004626Y021790D02*
X002447Y021790D01*
X002390Y021908D02*
X004626Y021908D01*
X004626Y022027D02*
X001748Y022027D01*
X001748Y021908D02*
X001947Y021908D01*
X001889Y021790D02*
X001748Y021790D01*
X001748Y021671D02*
X001893Y021671D01*
X001956Y021553D02*
X001748Y021553D01*
X001748Y021434D02*
X001978Y021434D01*
X001978Y021316D02*
X001748Y021316D01*
X001748Y021197D02*
X001978Y021197D01*
X001978Y021079D02*
X001748Y021079D01*
X001748Y020960D02*
X001978Y020960D01*
X001978Y020842D02*
X001748Y020842D01*
X001748Y020723D02*
X001978Y020723D01*
X001978Y020605D02*
X001748Y020605D01*
X001748Y020486D02*
X001978Y020486D01*
X001978Y020368D02*
X001748Y020368D01*
X001748Y020249D02*
X001978Y020249D01*
X001978Y020131D02*
X001748Y020131D01*
X001748Y020012D02*
X001978Y020012D01*
X001978Y019894D02*
X001748Y019894D01*
X001748Y019775D02*
X001978Y019775D01*
X001978Y019657D02*
X001748Y019657D01*
X001748Y019538D02*
X001978Y019538D01*
X001978Y019420D02*
X001748Y019420D01*
X001748Y019301D02*
X001978Y019301D01*
X001978Y019183D02*
X001748Y019183D01*
X001748Y019064D02*
X001978Y019064D01*
X001978Y018946D02*
X001748Y018946D01*
X001748Y018827D02*
X001978Y018827D01*
X001978Y018709D02*
X001748Y018709D01*
X001748Y018590D02*
X001978Y018590D01*
X001978Y018472D02*
X001748Y018472D01*
X001748Y018353D02*
X001978Y018353D01*
X001978Y018235D02*
X001748Y018235D01*
X001748Y018116D02*
X001978Y018116D01*
X001978Y017998D02*
X001748Y017998D01*
X001748Y017879D02*
X001978Y017879D01*
X001978Y017761D02*
X001748Y017761D01*
X001748Y017642D02*
X001978Y017642D01*
X001978Y017524D02*
X001748Y017524D01*
X001748Y017405D02*
X001978Y017405D01*
X001978Y017287D02*
X001748Y017287D01*
X001748Y017168D02*
X001978Y017168D01*
X001978Y017050D02*
X001748Y017050D01*
X001748Y016931D02*
X001978Y016931D01*
X001978Y016813D02*
X001748Y016813D01*
X001748Y016694D02*
X001978Y016694D01*
X001978Y016576D02*
X001748Y016576D01*
X001748Y016457D02*
X001978Y016457D01*
X001978Y016339D02*
X001748Y016339D01*
X001748Y016220D02*
X001978Y016220D01*
X001978Y016102D02*
X001748Y016102D01*
X001748Y015983D02*
X001978Y015983D01*
X001978Y015865D02*
X001748Y015865D01*
X001748Y015746D02*
X001978Y015746D01*
X001978Y015628D02*
X001748Y015628D01*
X001748Y015509D02*
X001978Y015509D01*
X001978Y015391D02*
X001748Y015391D01*
X001748Y015272D02*
X001978Y015272D01*
X001978Y015154D02*
X001748Y015154D01*
X001748Y015035D02*
X001978Y015035D01*
X001978Y014917D02*
X001748Y014917D01*
X001748Y014798D02*
X001978Y014798D01*
X001978Y014680D02*
X001748Y014680D01*
X001748Y014561D02*
X001978Y014561D01*
X001978Y014443D02*
X001748Y014443D01*
X001748Y014324D02*
X001978Y014324D01*
X001978Y014206D02*
X001748Y014206D01*
X001748Y014087D02*
X001978Y014087D01*
X001978Y013969D02*
X001748Y013969D01*
X001748Y013850D02*
X001978Y013850D01*
X001978Y013732D02*
X001748Y013732D01*
X001748Y013613D02*
X001978Y013613D01*
X001978Y013495D02*
X001748Y013495D01*
X001748Y013376D02*
X001978Y013376D01*
X001978Y013258D02*
X001748Y013258D01*
X001748Y013139D02*
X001978Y013139D01*
X001978Y013021D02*
X001748Y013021D01*
X001750Y012902D02*
X001978Y012902D01*
X001978Y012784D02*
X001919Y012784D01*
X001911Y012073D02*
X001872Y012073D01*
X001792Y011954D02*
X000720Y011954D01*
X000720Y011836D02*
X001249Y011836D01*
X001138Y011717D02*
X000720Y011717D01*
X000720Y011599D02*
X001089Y011599D01*
X001068Y011480D02*
X000720Y011480D01*
X000720Y011362D02*
X001068Y011362D01*
X001114Y011243D02*
X000720Y011243D01*
X000720Y011125D02*
X001192Y011125D01*
X001352Y011006D02*
X000720Y011006D01*
X000720Y010888D02*
X001331Y010888D01*
X001183Y010769D02*
X000720Y010769D01*
X000720Y010651D02*
X001110Y010651D01*
X001068Y010532D02*
X000720Y010532D01*
X000720Y010414D02*
X001068Y010414D01*
X001092Y010295D02*
X000720Y010295D01*
X000720Y010177D02*
X001141Y010177D01*
X001258Y010058D02*
X000720Y010058D01*
X000720Y009940D02*
X001456Y009940D01*
X001660Y009940D02*
X002087Y009940D01*
X002087Y010058D02*
X001858Y010058D01*
X001975Y010177D02*
X002087Y010177D01*
X002145Y010295D02*
X002024Y010295D01*
X002090Y010414D02*
X002532Y010414D01*
X002521Y010401D02*
X002521Y010401D01*
X002586Y010532D02*
X002209Y010532D01*
X002327Y010651D02*
X002588Y010651D01*
X002867Y010201D02*
X002867Y010201D01*
X002867Y010201D01*
X002884Y010177D02*
X002840Y010177D01*
X002884Y010058D02*
X002722Y010058D01*
X002722Y009940D02*
X002884Y009940D01*
X002884Y009821D02*
X002697Y009821D01*
X002722Y009703D02*
X002884Y009703D01*
X002884Y009584D02*
X002722Y009584D01*
X002722Y009466D02*
X002884Y009466D01*
X002884Y009347D02*
X002722Y009347D01*
X002884Y009229D02*
X001996Y009229D01*
X001910Y009110D02*
X002875Y009110D01*
X002798Y008992D02*
X001728Y008992D01*
X001820Y008873D02*
X002680Y008873D01*
X002768Y008962D02*
X002768Y008962D01*
X002569Y008763D02*
X002569Y008763D01*
X002561Y008755D02*
X001948Y008755D01*
X001984Y009703D02*
X002087Y009703D01*
X002112Y009821D02*
X001881Y009821D01*
X001387Y008992D02*
X000720Y008992D01*
X000720Y009110D02*
X001206Y009110D01*
X001120Y009229D02*
X000720Y009229D01*
X000720Y009347D02*
X001071Y009347D01*
X001068Y009466D02*
X000720Y009466D01*
X000720Y009584D02*
X001083Y009584D01*
X001132Y009703D02*
X000720Y009703D01*
X000720Y009821D02*
X001235Y009821D01*
X001296Y008873D02*
X000720Y008873D01*
X000720Y008755D02*
X001168Y008755D01*
X001104Y008636D02*
X000720Y008636D01*
X000720Y008518D02*
X001068Y008518D01*
X001068Y008399D02*
X000720Y008399D01*
X000720Y008281D02*
X001098Y008281D01*
X001154Y008162D02*
X000720Y008162D01*
X000720Y008044D02*
X001273Y008044D01*
X001421Y007925D02*
X000720Y007925D01*
X000720Y007807D02*
X001220Y007807D01*
X001126Y007688D02*
X000720Y007688D01*
X000720Y007570D02*
X001077Y007570D01*
X001068Y007451D02*
X000720Y007451D01*
X000720Y007333D02*
X001077Y007333D01*
X001126Y007214D02*
X000720Y007214D01*
X000720Y007096D02*
X001221Y007096D01*
X001518Y006740D02*
X001598Y006740D01*
X001598Y006622D02*
X001518Y006622D01*
X001518Y006503D02*
X001598Y006503D01*
X001598Y006385D02*
X001518Y006385D01*
X001518Y006266D02*
X001598Y006266D01*
X001598Y006148D02*
X001518Y006148D01*
X001206Y005792D02*
X000720Y005792D01*
X000720Y005674D02*
X001120Y005674D01*
X001071Y005555D02*
X000720Y005555D01*
X000720Y005437D02*
X001068Y005437D01*
X001083Y005318D02*
X000720Y005318D01*
X000720Y005200D02*
X001132Y005200D01*
X001235Y005081D02*
X000720Y005081D01*
X000720Y004963D02*
X001457Y004963D01*
X001258Y004844D02*
X000720Y004844D01*
X000720Y004726D02*
X001141Y004726D01*
X001092Y004607D02*
X000720Y004607D01*
X000720Y004489D02*
X001068Y004489D01*
X001068Y004370D02*
X000720Y004370D01*
X000720Y004252D02*
X001110Y004252D01*
X001183Y004133D02*
X000720Y004133D01*
X000720Y004015D02*
X001332Y004015D01*
X001351Y003896D02*
X000720Y003896D01*
X000720Y003778D02*
X001191Y003778D01*
X001114Y003659D02*
X000720Y003659D01*
X000720Y003541D02*
X001068Y003541D01*
X001068Y003422D02*
X000720Y003422D01*
X000720Y003304D02*
X001089Y003304D01*
X001138Y003185D02*
X000720Y003185D01*
X000720Y003067D02*
X001250Y003067D01*
X001979Y006740D02*
X002077Y006740D01*
X002077Y006859D02*
X001865Y006859D01*
X002434Y007296D02*
X002284Y007452D01*
X002205Y007653D02*
X002205Y007653D01*
X002518Y008281D02*
X003169Y008281D01*
X003169Y008399D02*
X002743Y008399D01*
X002700Y008356D02*
X002700Y008356D01*
X002861Y008518D02*
X003169Y008518D01*
X003169Y008636D02*
X002980Y008636D01*
X003098Y008755D02*
X003169Y008755D01*
X002077Y011006D02*
X001763Y011006D01*
X001785Y010888D02*
X002027Y010888D01*
X002077Y011125D02*
X001924Y011125D01*
X002002Y011243D02*
X002137Y011243D01*
X002077Y011362D02*
X002048Y011362D01*
X002048Y011480D02*
X002077Y011480D01*
X002077Y011599D02*
X002027Y011599D01*
X002092Y011717D02*
X002100Y011717D01*
X002211Y011836D02*
X002293Y011836D01*
X002274Y011903D02*
X002274Y011903D01*
X001366Y012902D02*
X000720Y012902D01*
X000720Y012784D02*
X001197Y012784D01*
X001116Y012665D02*
X000720Y012665D01*
X000720Y012547D02*
X001068Y012547D01*
X001068Y012428D02*
X000720Y012428D01*
X000720Y012310D02*
X001086Y012310D01*
X001135Y012191D02*
X000720Y012191D01*
X000720Y012073D02*
X001244Y012073D01*
X001368Y013021D02*
X000720Y013021D01*
X000720Y013139D02*
X001368Y013139D01*
X001368Y013258D02*
X000720Y013258D01*
X000720Y013376D02*
X001368Y013376D01*
X001368Y013495D02*
X000720Y013495D01*
X000720Y013613D02*
X001368Y013613D01*
X001368Y013732D02*
X000720Y013732D01*
X000720Y013850D02*
X001368Y013850D01*
X001368Y013969D02*
X000720Y013969D01*
X000720Y014087D02*
X001368Y014087D01*
X001368Y014206D02*
X000720Y014206D01*
X000720Y014324D02*
X001368Y014324D01*
X001368Y014443D02*
X000720Y014443D01*
X000720Y014561D02*
X001368Y014561D01*
X001368Y014680D02*
X000720Y014680D01*
X000720Y014798D02*
X001368Y014798D01*
X001368Y014917D02*
X000720Y014917D01*
X000720Y015035D02*
X001368Y015035D01*
X001368Y015154D02*
X000720Y015154D01*
X000720Y015272D02*
X001368Y015272D01*
X001368Y015391D02*
X000720Y015391D01*
X000720Y015509D02*
X001368Y015509D01*
X001368Y015628D02*
X000720Y015628D01*
X000720Y015746D02*
X001368Y015746D01*
X001368Y015865D02*
X000720Y015865D01*
X000720Y015983D02*
X001368Y015983D01*
X001368Y016102D02*
X000720Y016102D01*
X000720Y016220D02*
X001368Y016220D01*
X001368Y016339D02*
X000720Y016339D01*
X000720Y016457D02*
X001368Y016457D01*
X001368Y016576D02*
X000720Y016576D01*
X000720Y016694D02*
X001368Y016694D01*
X001368Y016813D02*
X000720Y016813D01*
X000720Y016931D02*
X001368Y016931D01*
X001368Y017050D02*
X000720Y017050D01*
X000720Y017168D02*
X001368Y017168D01*
X001368Y017287D02*
X000720Y017287D01*
X000720Y017405D02*
X001368Y017405D01*
X001368Y017524D02*
X000720Y017524D01*
X000720Y017642D02*
X001368Y017642D01*
X001368Y017761D02*
X000720Y017761D01*
X000720Y017879D02*
X001368Y017879D01*
X001368Y017998D02*
X000720Y017998D01*
X000720Y018116D02*
X001368Y018116D01*
X001368Y018235D02*
X000720Y018235D01*
X000720Y018353D02*
X001368Y018353D01*
X001368Y018472D02*
X000720Y018472D01*
X000720Y018590D02*
X001368Y018590D01*
X001368Y018709D02*
X000720Y018709D01*
X000720Y018827D02*
X001368Y018827D01*
X001368Y018946D02*
X000720Y018946D01*
X000720Y019064D02*
X001368Y019064D01*
X001368Y019183D02*
X000720Y019183D01*
X000720Y019301D02*
X001368Y019301D01*
X001368Y019420D02*
X000720Y019420D01*
X000720Y019538D02*
X001368Y019538D01*
X001368Y019657D02*
X000720Y019657D01*
X000720Y019775D02*
X001368Y019775D01*
X001368Y019894D02*
X000720Y019894D01*
X000720Y020012D02*
X001368Y020012D01*
X001368Y020131D02*
X000720Y020131D01*
X000720Y020249D02*
X001368Y020249D01*
X001368Y020368D02*
X000720Y020368D01*
X000720Y020486D02*
X001368Y020486D01*
X001368Y020605D02*
X000720Y020605D01*
X000720Y020723D02*
X001368Y020723D01*
X001368Y020842D02*
X000720Y020842D01*
X000720Y020960D02*
X001368Y020960D01*
X001368Y021079D02*
X000720Y021079D01*
X000720Y021197D02*
X001368Y021197D01*
X001368Y021316D02*
X000720Y021316D01*
X000720Y021434D02*
X001368Y021434D01*
X001368Y021553D02*
X000720Y021553D01*
X000720Y021671D02*
X001368Y021671D01*
X001368Y021790D02*
X000720Y021790D01*
X000720Y021908D02*
X001368Y021908D01*
X001368Y022027D02*
X000720Y022027D01*
X000720Y022145D02*
X001314Y022145D01*
X001279Y022264D02*
X000720Y022264D01*
X000720Y022382D02*
X001296Y022382D01*
X001378Y022501D02*
X000720Y022501D01*
X000720Y022619D02*
X004607Y022619D01*
X004547Y022501D02*
X001738Y022501D01*
X001820Y022382D02*
X004549Y022382D01*
X004611Y022264D02*
X001837Y022264D01*
X001802Y022145D02*
X004626Y022145D01*
X003671Y020012D02*
X002886Y020012D01*
X002710Y020012D02*
X002673Y020012D01*
X003039Y019894D02*
X003641Y019894D01*
X003663Y019775D02*
X003077Y019775D01*
X003063Y019657D02*
X003721Y019657D01*
X003082Y018827D02*
X002968Y018827D01*
X002968Y018709D02*
X003070Y018709D01*
X003110Y018590D02*
X002968Y018590D01*
X002968Y018472D02*
X003169Y018472D01*
X001558Y022247D02*
X001558Y022286D01*
X001106Y024871D02*
X000986Y024871D01*
X000986Y024989D02*
X001106Y024989D01*
X001106Y025108D02*
X000986Y025108D01*
X000986Y025226D02*
X001106Y025226D01*
X001106Y025345D02*
X000986Y025345D01*
X000986Y025463D02*
X001106Y025463D01*
X001106Y025582D02*
X000986Y025582D01*
X000986Y025700D02*
X001106Y025700D01*
X005616Y016457D02*
X006275Y016457D01*
X006157Y016339D02*
X005616Y016339D01*
X005616Y016220D02*
X006142Y016220D01*
X006142Y016102D02*
X005616Y016102D01*
X005616Y015983D02*
X006194Y015983D01*
X006143Y015865D02*
X005616Y015865D01*
X005616Y015746D02*
X006142Y015746D01*
X006142Y015628D02*
X005616Y015628D01*
X005616Y015509D02*
X006208Y015509D01*
X006142Y015391D02*
X005616Y015391D01*
X005616Y015272D02*
X006142Y015272D01*
X006142Y015154D02*
X005616Y015154D01*
X005616Y015035D02*
X006145Y015035D01*
X006142Y014917D02*
X005616Y014917D01*
X005616Y014798D02*
X006158Y014798D01*
X006142Y014680D02*
X005616Y014680D01*
X005616Y014561D02*
X006201Y014561D01*
X006142Y014443D02*
X005616Y014443D01*
X005616Y014324D02*
X006172Y014324D01*
X006142Y014206D02*
X005616Y014206D01*
X005616Y014087D02*
X006142Y014087D01*
X006142Y013969D02*
X005616Y013969D01*
X005616Y013850D02*
X006255Y013850D01*
X006212Y013792D02*
X006212Y013792D01*
X006152Y013732D02*
X005616Y013732D01*
X005616Y013613D02*
X006142Y013613D01*
X006142Y013722D02*
X006142Y013722D01*
X006142Y013722D01*
X006150Y013495D02*
X005616Y013495D01*
X005616Y013376D02*
X006269Y013376D01*
X006598Y012981D02*
X006598Y012981D01*
X006598Y012902D02*
X006518Y012902D01*
X006518Y012784D02*
X006598Y012784D01*
X006598Y012665D02*
X006518Y012665D01*
X006518Y012547D02*
X006598Y012547D01*
X006598Y012428D02*
X006518Y012428D01*
X006518Y012310D02*
X006598Y012310D01*
X006598Y012191D02*
X006518Y012191D01*
X006518Y012073D02*
X006598Y012073D01*
X006518Y011961D02*
X006518Y011961D01*
X006444Y011954D02*
X006358Y011954D01*
X006558Y011471D02*
X005647Y012382D01*
X005768Y012547D02*
X006054Y012547D01*
X006048Y012511D02*
X006048Y012511D01*
X006048Y012431D02*
X006048Y012431D01*
X006048Y012428D02*
X005884Y012428D01*
X006002Y012310D02*
X006074Y012310D01*
X006121Y012191D02*
X006131Y012191D01*
X005352Y011678D02*
X005316Y011715D01*
X005284Y011755D01*
X005254Y011797D01*
X005226Y011840D01*
X005202Y011886D01*
X005181Y011933D01*
X005163Y011981D01*
X005148Y012030D01*
X005136Y012080D01*
X005128Y012131D01*
X005123Y012183D01*
X005121Y012234D01*
X005321Y012310D02*
X005437Y012310D01*
X005358Y012428D02*
X005321Y012428D01*
X005689Y012665D02*
X006085Y012665D01*
X006155Y012784D02*
X005642Y012784D01*
X005352Y011678D02*
X006558Y010471D01*
X006833Y010888D02*
X007416Y010888D01*
X007416Y011006D02*
X006716Y011006D01*
X006904Y011125D02*
X007416Y011125D01*
X007416Y011243D02*
X006994Y011243D01*
X007043Y011362D02*
X007416Y011362D01*
X007416Y011480D02*
X007048Y011480D01*
X007035Y011599D02*
X007416Y011599D01*
X007416Y011717D02*
X006986Y011717D01*
X006886Y011836D02*
X007416Y011836D01*
X007416Y011954D02*
X006672Y011954D01*
X006877Y012073D02*
X007416Y012073D01*
X007416Y012191D02*
X006985Y012191D01*
X007042Y012310D02*
X007416Y012310D01*
X007416Y012428D02*
X007068Y012428D01*
X007062Y012547D02*
X007416Y012547D01*
X007416Y012665D02*
X007031Y012665D01*
X006961Y012784D02*
X007416Y012784D01*
X007416Y012902D02*
X006832Y012902D01*
X006068Y011480D02*
X005832Y011480D01*
X005950Y011362D02*
X006073Y011362D01*
X006069Y011243D02*
X006122Y011243D01*
X006187Y011125D02*
X006211Y011125D01*
X006306Y011006D02*
X006400Y011006D01*
X006953Y010769D02*
X007416Y010769D01*
X007416Y010651D02*
X007014Y010651D01*
X007048Y010532D02*
X007416Y010532D01*
X007416Y010414D02*
X007048Y010414D01*
X007015Y010295D02*
X007416Y010295D01*
X007416Y010177D02*
X006956Y010177D01*
X006226Y009110D02*
X005371Y009110D01*
X005253Y009229D02*
X006128Y009229D01*
X005888Y008281D02*
X005137Y008281D01*
X005447Y008469D02*
X005447Y008469D01*
X005619Y007807D02*
X006201Y007807D01*
X006117Y007688D02*
X005862Y007688D01*
X005990Y007471D02*
X006558Y007471D01*
X006546Y007483D01*
X006742Y007925D02*
X007416Y007925D01*
X007416Y007807D02*
X006915Y007807D01*
X006998Y007688D02*
X007416Y007688D01*
X007416Y007570D02*
X007048Y007570D01*
X007048Y007451D02*
X007416Y007451D01*
X007416Y007333D02*
X007031Y007333D01*
X006982Y007214D02*
X007416Y007214D01*
X007416Y007096D02*
X006875Y007096D01*
X005570Y010177D02*
X004730Y010177D01*
X004730Y010295D02*
X005451Y010295D01*
X005333Y010414D02*
X004730Y010414D01*
X004730Y010532D02*
X005214Y010532D01*
X005096Y010651D02*
X004730Y010651D01*
X004730Y010769D02*
X004977Y010769D01*
X004859Y010888D02*
X004730Y010888D01*
X004823Y010923D02*
X004823Y010923D01*
X004775Y011006D02*
X004730Y011006D01*
X004531Y009994D02*
X004533Y009943D01*
X004538Y009891D01*
X004546Y009840D01*
X004558Y009790D01*
X004573Y009741D01*
X004591Y009693D01*
X004612Y009646D01*
X004636Y009600D01*
X004664Y009557D01*
X004694Y009515D01*
X004726Y009475D01*
X004762Y009438D01*
X004255Y009206D02*
X004257Y009155D01*
X004262Y009103D01*
X004270Y009053D01*
X004282Y009003D01*
X004297Y008953D01*
X004315Y008905D01*
X004336Y008858D01*
X004361Y008813D01*
X004388Y008770D01*
X004418Y008728D01*
X004450Y008688D01*
X004486Y008650D01*
X005361Y006469D02*
X005361Y006469D01*
D16*
X003074Y018192D03*
X003349Y018743D03*
X003625Y019314D03*
X003920Y019885D03*
X004235Y020416D03*
X004530Y020967D03*
X004826Y022444D03*
X005121Y023054D03*
X005416Y021893D03*
X002798Y019747D03*
X002483Y020731D03*
X002168Y021735D03*
X001558Y022286D03*
X001420Y024078D03*
X001420Y024530D03*
X002621Y024530D03*
X002621Y024078D03*
D17*
X001558Y022247D02*
X001558Y012452D01*
X002169Y012245D02*
X002168Y012208D01*
X002164Y012172D01*
X002157Y012136D01*
X002147Y012101D01*
X002134Y012067D01*
X002118Y012035D01*
X002099Y012003D01*
X002077Y011974D01*
X002053Y011946D01*
X002053Y011947D02*
X001558Y011452D01*
X002395Y010987D02*
X001859Y010452D01*
X001558Y010452D01*
X001558Y009452D02*
X002355Y009452D01*
X002404Y009530D01*
X002404Y010042D02*
X002647Y010259D01*
X002778Y010553D02*
X002778Y019747D01*
X002798Y019747D01*
X002483Y020731D02*
X002483Y011587D01*
X002395Y011499D01*
X002168Y012245D02*
X002168Y021735D01*
X003074Y018192D02*
X003074Y009162D01*
X002958Y008884D02*
X002648Y008573D01*
X002369Y008458D02*
X001564Y008458D01*
X001558Y008452D01*
X002369Y008457D02*
X002408Y008459D01*
X002446Y008465D01*
X002483Y008474D01*
X002520Y008487D01*
X002555Y008504D01*
X002588Y008523D01*
X002619Y008546D01*
X002648Y008572D01*
X002959Y008883D02*
X002985Y008912D01*
X003008Y008943D01*
X003027Y008976D01*
X003044Y009011D01*
X003057Y009048D01*
X003066Y009085D01*
X003072Y009123D01*
X003074Y009162D01*
X002648Y010259D02*
X002674Y010285D01*
X002698Y010313D01*
X002719Y010344D01*
X002737Y010376D01*
X002752Y010409D01*
X002764Y010444D01*
X002772Y010480D01*
X002777Y010516D01*
X002779Y010553D01*
M02*
