%
M48
M72
T01C0.0118
T02C0.0400
%
T01
X3074Y18192
X3349Y18743
X3625Y19314
X3920Y19885
X4235Y20416
X4530Y20967
X4826Y22444
X5121Y23054
X5416Y21893
X2798Y19747
X2483Y20731
X2168Y21735
X1558Y22286
X1420Y24078
X1420Y24530
X2621Y24530
X2621Y24078
T02
X1558Y1452
X1558Y2452
X1558Y3452
X1558Y4452
X1558Y5452
X1558Y6452
X1558Y7452
X1558Y8452
X1558Y9452
X1558Y10452
X1558Y11452
X1558Y12452
X6558Y12471
X6558Y11471
X6558Y10471
X6558Y9471
X6558Y8471
X6558Y7471
X6558Y6471
X6558Y5471
X6558Y4471
X6558Y3471
X6558Y2471
X6558Y1471
M30
