%
M48
M72
T01C0.0118
T02C0.0394
T03C0.0400
%
T01
X5555Y11330
X5930Y10330
X6280Y9330
X7780Y16830
X6805Y22855
X6255Y23355
X5755Y23880
X5080Y22330
X4630Y21330
X4180Y20330
X3730Y19330
X3180Y19330
X2855Y20330
X2430Y21330
X1930Y22330
X1905Y23330
X1905Y24780
X1905Y25205
X2705Y25205
X2705Y24755
X4980Y23630
T02
X2305Y26205
T03
X1305Y1330
X1305Y2330
X1305Y3330
X1305Y4330
X1305Y5330
X1305Y6330
X1305Y7330
X1305Y8330
X1305Y9330
X1305Y10330
X1305Y11330
X1305Y12330
X7305Y12330
X7305Y11330
X7305Y10330
X7305Y9330
X7305Y8330
X7305Y7330
X7305Y6330
X7305Y5330
X7305Y4330
X7305Y3330
X7305Y2330
X7305Y1330
M30
