G75*
%MOIN*%
%OFA0B0*%
%FSLAX25Y25*%
%IPPOS*%
%LPD*%
%AMOC8*
5,1,8,0,0,1.08239X$1,22.5*
%
%ADD10C,0.00800*%
%ADD11C,0.07000*%
%ADD12R,0.04331X0.03937*%
%ADD13R,0.04252X0.04134*%
%ADD14R,0.06000X0.16000*%
%ADD15C,0.01600*%
%ADD16C,0.02581*%
%ADD17C,0.01000*%
%ADD18C,0.05906*%
D10*
X0050450Y0012524D02*
X0053252Y0012524D01*
X0054654Y0013926D01*
X0053252Y0015327D01*
X0050450Y0015327D01*
X0050450Y0017128D02*
X0054654Y0017128D01*
X0054654Y0019230D01*
X0053953Y0019931D01*
X0052552Y0019931D01*
X0051851Y0019230D01*
X0051851Y0017128D01*
X0052552Y0015327D02*
X0052552Y0012524D01*
X0051851Y0021732D02*
X0051851Y0023834D01*
X0052552Y0024535D01*
X0053953Y0024535D01*
X0054654Y0023834D01*
X0054654Y0021732D01*
X0050450Y0021732D01*
X0051851Y0023133D02*
X0050450Y0024535D01*
X0050450Y0026336D02*
X0051151Y0026336D01*
X0051151Y0027037D01*
X0050450Y0027037D01*
X0050450Y0026336D01*
X0050450Y0028638D02*
X0054654Y0028638D01*
X0053252Y0027037D02*
X0052552Y0027037D01*
X0052552Y0026336D01*
X0053252Y0026336D01*
X0053252Y0027037D01*
X0052552Y0028638D02*
X0052552Y0031441D01*
X0051151Y0033242D02*
X0053953Y0033242D01*
X0054654Y0033943D01*
X0054654Y0035344D01*
X0053953Y0036044D01*
X0051151Y0033242D01*
X0050450Y0033943D01*
X0050450Y0035344D01*
X0051151Y0036044D01*
X0053953Y0036044D01*
X0052552Y0037846D02*
X0053953Y0039247D01*
X0054654Y0040648D01*
X0052552Y0039948D02*
X0052552Y0037846D01*
X0051151Y0037846D01*
X0050450Y0038547D01*
X0050450Y0039948D01*
X0051151Y0040648D01*
X0051851Y0040648D01*
X0052552Y0039948D01*
X0054654Y0031441D02*
X0050450Y0031441D01*
D11*
X0073050Y0033300D03*
X0073050Y0043300D03*
X0073050Y0053300D03*
X0073050Y0063300D03*
X0073050Y0073300D03*
X0073050Y0083300D03*
X0073050Y0093300D03*
X0073050Y0103300D03*
X0073050Y0113300D03*
X0073050Y0123300D03*
X0073050Y0023300D03*
X0073050Y0013300D03*
X0013050Y0013300D03*
X0013050Y0023300D03*
X0013050Y0033300D03*
X0013050Y0043300D03*
X0013050Y0053300D03*
X0013050Y0063300D03*
X0013050Y0073300D03*
X0013050Y0083300D03*
X0013050Y0093300D03*
X0013050Y0103300D03*
X0013050Y0113300D03*
X0013050Y0123300D03*
D12*
X0024300Y0117896D03*
X0024300Y0111204D03*
X0024398Y0101646D03*
X0024398Y0094954D03*
D13*
X0024300Y0072995D03*
X0024300Y0066105D03*
D14*
X0033050Y0263300D03*
X0013050Y0263300D03*
D15*
X0004689Y0010674D02*
X0005385Y0008531D01*
X0006709Y0006709D01*
X0008531Y0005385D01*
X0010674Y0004689D01*
X0011800Y0004600D01*
X0074300Y0004600D01*
X0075426Y0004689D01*
X0077569Y0005385D01*
X0079391Y0006709D01*
X0080715Y0008531D01*
X0081411Y0010674D01*
X0081500Y0011800D01*
X0081500Y0039063D01*
X0081289Y0038852D01*
X0081123Y0038686D01*
X0077587Y0035150D01*
X0077950Y0034275D01*
X0077950Y0032325D01*
X0077204Y0030524D01*
X0075826Y0029146D01*
X0074025Y0028400D01*
X0072075Y0028400D01*
X0070274Y0029146D01*
X0068896Y0030524D01*
X0068150Y0032325D01*
X0068150Y0034275D01*
X0068896Y0036076D01*
X0070274Y0037454D01*
X0072075Y0038200D01*
X0074025Y0038200D01*
X0074900Y0037837D01*
X0078436Y0041373D01*
X0078436Y0041373D01*
X0078973Y0041910D01*
X0078992Y0041929D01*
X0079378Y0042399D01*
X0079840Y0043516D01*
X0079900Y0044121D01*
X0079900Y0162229D01*
X0079840Y0162834D01*
X0079378Y0163951D01*
X0078992Y0164421D01*
X0078945Y0164468D01*
X0078436Y0164977D01*
X0078436Y0164977D01*
X0077804Y0165609D01*
X0077265Y0165609D01*
X0076276Y0166019D01*
X0075519Y0166776D01*
X0075109Y0167765D01*
X0075109Y0168835D01*
X0075519Y0169824D01*
X0076276Y0170581D01*
X0077265Y0170991D01*
X0078335Y0170991D01*
X0079324Y0170581D01*
X0080081Y0169824D01*
X0080491Y0168835D01*
X0080491Y0168296D01*
X0081500Y0167287D01*
X0081500Y0253615D01*
X0081394Y0255505D01*
X0080552Y0259192D01*
X0078912Y0262598D01*
X0076554Y0265554D01*
X0073598Y0267912D01*
X0070192Y0269552D01*
X0066505Y0270394D01*
X0064615Y0270500D01*
X0037850Y0270500D01*
X0037850Y0264000D01*
X0033750Y0264000D01*
X0033750Y0262600D01*
X0037850Y0262600D01*
X0037850Y0255063D01*
X0037727Y0254605D01*
X0037490Y0254195D01*
X0037155Y0253860D01*
X0036745Y0253623D01*
X0036287Y0253500D01*
X0033750Y0253500D01*
X0033750Y0262600D01*
X0032350Y0262600D01*
X0028250Y0262600D01*
X0028250Y0255063D01*
X0028373Y0254605D01*
X0028610Y0254195D01*
X0028945Y0253860D01*
X0029355Y0253623D01*
X0029813Y0253500D01*
X0032350Y0253500D01*
X0032350Y0262600D01*
X0032350Y0264000D01*
X0028250Y0264000D01*
X0028250Y0270500D01*
X0017850Y0270500D01*
X0017850Y0264000D01*
X0013750Y0264000D01*
X0013750Y0262600D01*
X0017850Y0262600D01*
X0017850Y0255063D01*
X0017727Y0254605D01*
X0017490Y0254195D01*
X0017155Y0253860D01*
X0016745Y0253623D01*
X0016287Y0253500D01*
X0013750Y0253500D01*
X0013750Y0262600D01*
X0012350Y0262600D01*
X0012350Y0253500D01*
X0009813Y0253500D01*
X0009355Y0253623D01*
X0008945Y0253860D01*
X0008610Y0254195D01*
X0008373Y0254605D01*
X0008250Y0255063D01*
X0008250Y0262600D01*
X0012350Y0262600D01*
X0012350Y0264000D01*
X0008250Y0264000D01*
X0008250Y0270500D01*
X0006800Y0270500D01*
X0006371Y0270458D01*
X0005578Y0270129D01*
X0004971Y0269522D01*
X0004642Y0268729D01*
X0004600Y0268300D01*
X0004600Y0011800D01*
X0004689Y0010674D01*
X0004734Y0010535D02*
X0008892Y0010535D01*
X0008896Y0010524D02*
X0010274Y0009146D01*
X0012075Y0008400D01*
X0014025Y0008400D01*
X0015826Y0009146D01*
X0017204Y0010524D01*
X0017950Y0012325D01*
X0017950Y0014275D01*
X0017204Y0016076D01*
X0015826Y0017454D01*
X0014025Y0018200D01*
X0012075Y0018200D01*
X0010274Y0017454D01*
X0008896Y0016076D01*
X0008150Y0014275D01*
X0008150Y0012325D01*
X0008896Y0010524D01*
X0008229Y0012134D02*
X0004600Y0012134D01*
X0004600Y0013732D02*
X0008150Y0013732D01*
X0008587Y0015331D02*
X0004600Y0015331D01*
X0004600Y0016929D02*
X0009750Y0016929D01*
X0010274Y0019146D02*
X0008896Y0020524D01*
X0008150Y0022325D01*
X0008150Y0024275D01*
X0008896Y0026076D01*
X0010274Y0027454D01*
X0012075Y0028200D01*
X0014025Y0028200D01*
X0015826Y0027454D01*
X0017204Y0026076D01*
X0017950Y0024275D01*
X0017950Y0022325D01*
X0017204Y0020524D01*
X0015826Y0019146D01*
X0014025Y0018400D01*
X0012075Y0018400D01*
X0010274Y0019146D01*
X0009294Y0020126D02*
X0004600Y0020126D01*
X0004600Y0018528D02*
X0011767Y0018528D01*
X0014333Y0018528D02*
X0049304Y0018528D01*
X0049704Y0018928D02*
X0048650Y0017874D01*
X0048650Y0016383D01*
X0048805Y0016228D01*
X0048650Y0016072D01*
X0048650Y0014581D01*
X0049306Y0013926D01*
X0048650Y0013270D01*
X0048650Y0011779D01*
X0049704Y0010724D01*
X0053998Y0010724D01*
X0055052Y0011779D01*
X0055399Y0012126D01*
X0055399Y0012126D01*
X0055895Y0012621D01*
X0056454Y0013180D01*
X0056454Y0014671D01*
X0055878Y0015247D01*
X0055598Y0015527D01*
X0056454Y0016383D01*
X0056454Y0018485D01*
X0056454Y0019238D01*
X0056454Y0019976D01*
X0056454Y0019976D01*
X0056441Y0019988D01*
X0055948Y0020481D01*
X0056454Y0020987D01*
X0056454Y0023088D01*
X0056454Y0023089D02*
X0056454Y0023842D01*
X0056454Y0024580D01*
X0056441Y0024592D01*
X0055399Y0025634D01*
X0055052Y0025981D01*
X0055052Y0026838D01*
X0055399Y0026838D01*
X0056454Y0027893D01*
X0056454Y0029384D01*
X0055798Y0030039D01*
X0056454Y0030695D01*
X0056454Y0032186D01*
X0055948Y0032692D01*
X0056454Y0033197D01*
X0056454Y0033950D01*
X0056454Y0034598D01*
X0056454Y0034688D01*
X0056454Y0035352D01*
X0056454Y0036089D01*
X0056454Y0036089D01*
X0056441Y0036102D01*
X0055399Y0037144D01*
X0054897Y0037646D01*
X0054925Y0037674D01*
X0055230Y0037775D01*
X0055432Y0038181D01*
X0055753Y0038502D01*
X0055753Y0038822D01*
X0056597Y0040510D01*
X0056125Y0041925D01*
X0054792Y0042592D01*
X0053377Y0042120D01*
X0053226Y0041819D01*
X0052597Y0042448D01*
X0052597Y0042448D01*
X0052597Y0042448D01*
X0051844Y0042448D01*
X0050405Y0042448D01*
X0049351Y0041394D01*
X0048650Y0040693D01*
X0048650Y0037801D01*
X0049506Y0036945D01*
X0048650Y0036089D01*
X0048650Y0033197D01*
X0049155Y0032692D01*
X0048650Y0032186D01*
X0048650Y0030695D01*
X0049306Y0030039D01*
X0048650Y0029384D01*
X0048650Y0027893D01*
X0048705Y0027837D01*
X0048650Y0027782D01*
X0048650Y0025591D01*
X0048805Y0025435D01*
X0048650Y0025280D01*
X0048650Y0023789D01*
X0049306Y0023133D01*
X0048650Y0022478D01*
X0048650Y0020987D01*
X0049704Y0019932D01*
X0050051Y0019932D01*
X0050051Y0018928D01*
X0049704Y0018928D01*
X0049511Y0020126D02*
X0016806Y0020126D01*
X0017701Y0021725D02*
X0048650Y0021725D01*
X0049116Y0023323D02*
X0017950Y0023323D01*
X0017682Y0024922D02*
X0048650Y0024922D01*
X0048650Y0026520D02*
X0016759Y0026520D01*
X0015826Y0029146D02*
X0017204Y0030524D01*
X0017950Y0032325D01*
X0017950Y0034275D01*
X0017204Y0036076D01*
X0015826Y0037454D01*
X0014025Y0038200D01*
X0012075Y0038200D01*
X0010274Y0037454D01*
X0008896Y0036076D01*
X0008150Y0034275D01*
X0008150Y0032325D01*
X0008896Y0030524D01*
X0010274Y0029146D01*
X0012075Y0028400D01*
X0014025Y0028400D01*
X0015826Y0029146D01*
X0016397Y0029717D02*
X0048984Y0029717D01*
X0048650Y0028119D02*
X0014221Y0028119D01*
X0011879Y0028119D02*
X0004600Y0028119D01*
X0004600Y0029717D02*
X0009703Y0029717D01*
X0008568Y0031316D02*
X0004600Y0031316D01*
X0004600Y0032914D02*
X0008150Y0032914D01*
X0008249Y0034513D02*
X0004600Y0034513D01*
X0004600Y0036111D02*
X0008932Y0036111D01*
X0010274Y0039146D02*
X0008896Y0040524D01*
X0008150Y0042325D01*
X0008150Y0044275D01*
X0008896Y0046076D01*
X0010274Y0047454D01*
X0012075Y0048200D01*
X0014025Y0048200D01*
X0015826Y0047454D01*
X0017204Y0046076D01*
X0017950Y0044275D01*
X0017950Y0042325D01*
X0017204Y0040524D01*
X0015826Y0039146D01*
X0014025Y0038400D01*
X0012075Y0038400D01*
X0010274Y0039146D01*
X0010112Y0039308D02*
X0004600Y0039308D01*
X0004600Y0037710D02*
X0010892Y0037710D01*
X0008738Y0040907D02*
X0004600Y0040907D01*
X0004600Y0042505D02*
X0008150Y0042505D01*
X0008150Y0044104D02*
X0004600Y0044104D01*
X0004600Y0045702D02*
X0008741Y0045702D01*
X0010121Y0047301D02*
X0004600Y0047301D01*
X0004600Y0048899D02*
X0010870Y0048899D01*
X0010274Y0049146D02*
X0012075Y0048400D01*
X0014025Y0048400D01*
X0015826Y0049146D01*
X0017204Y0050524D01*
X0017950Y0052325D01*
X0017950Y0054275D01*
X0017204Y0056076D01*
X0015826Y0057454D01*
X0014220Y0058119D01*
X0014291Y0058130D01*
X0015084Y0058388D01*
X0015828Y0058767D01*
X0016503Y0059257D01*
X0017093Y0059847D01*
X0017583Y0060522D01*
X0017962Y0061266D01*
X0018219Y0062059D01*
X0018350Y0062883D01*
X0018350Y0063100D01*
X0013250Y0063100D01*
X0013250Y0063500D01*
X0018350Y0063500D01*
X0018350Y0063717D01*
X0018219Y0064541D01*
X0017962Y0065334D01*
X0017583Y0066078D01*
X0017093Y0066753D01*
X0016503Y0067343D01*
X0015828Y0067833D01*
X0015084Y0068212D01*
X0014291Y0068469D01*
X0014220Y0068481D01*
X0015826Y0069146D01*
X0017204Y0070524D01*
X0017567Y0071400D01*
X0020774Y0071400D01*
X0020774Y0070348D01*
X0021348Y0069774D01*
X0021069Y0069612D01*
X0020734Y0069277D01*
X0020497Y0068867D01*
X0020374Y0068409D01*
X0020374Y0066339D01*
X0024066Y0066339D01*
X0024066Y0065872D01*
X0020374Y0065872D01*
X0020374Y0063801D01*
X0020497Y0063343D01*
X0020734Y0062933D01*
X0021069Y0062598D01*
X0021479Y0062361D01*
X0021937Y0062238D01*
X0024067Y0062238D01*
X0024067Y0065872D01*
X0024533Y0065872D01*
X0024533Y0062238D01*
X0026663Y0062238D01*
X0027121Y0062361D01*
X0027531Y0062598D01*
X0027866Y0062933D01*
X0028103Y0063343D01*
X0028226Y0063801D01*
X0028226Y0065872D01*
X0024534Y0065872D01*
X0024534Y0066339D01*
X0028226Y0066339D01*
X0028226Y0068409D01*
X0028103Y0068867D01*
X0027866Y0069277D01*
X0027531Y0069612D01*
X0027252Y0069774D01*
X0027826Y0070348D01*
X0027826Y0075642D01*
X0027006Y0076462D01*
X0021594Y0076462D01*
X0020774Y0075642D01*
X0020774Y0075200D01*
X0017567Y0075200D01*
X0017204Y0076076D01*
X0015826Y0077454D01*
X0014025Y0078200D01*
X0012075Y0078200D01*
X0010274Y0077454D01*
X0008896Y0076076D01*
X0008150Y0074275D01*
X0008150Y0072325D01*
X0008896Y0070524D01*
X0010274Y0069146D01*
X0011880Y0068481D01*
X0011809Y0068469D01*
X0011016Y0068212D01*
X0010272Y0067833D01*
X0009597Y0067343D01*
X0009007Y0066753D01*
X0008517Y0066078D01*
X0008138Y0065334D01*
X0007880Y0064541D01*
X0007750Y0063717D01*
X0007750Y0063500D01*
X0012850Y0063500D01*
X0012850Y0063100D01*
X0007750Y0063100D01*
X0007750Y0062883D01*
X0007880Y0062059D01*
X0008138Y0061266D01*
X0008517Y0060522D01*
X0009007Y0059847D01*
X0009597Y0059257D01*
X0010272Y0058767D01*
X0011016Y0058388D01*
X0011809Y0058130D01*
X0011880Y0058119D01*
X0010274Y0057454D01*
X0008896Y0056076D01*
X0008150Y0054275D01*
X0008150Y0052325D01*
X0008896Y0050524D01*
X0010274Y0049146D01*
X0008922Y0050498D02*
X0004600Y0050498D01*
X0004600Y0052096D02*
X0008245Y0052096D01*
X0008150Y0053695D02*
X0004600Y0053695D01*
X0004600Y0055293D02*
X0008572Y0055293D01*
X0009712Y0056892D02*
X0004600Y0056892D01*
X0004600Y0058490D02*
X0010815Y0058490D01*
X0008832Y0060089D02*
X0004600Y0060089D01*
X0004600Y0061687D02*
X0008001Y0061687D01*
X0007992Y0064884D02*
X0004600Y0064884D01*
X0004600Y0063286D02*
X0012850Y0063286D01*
X0013250Y0063286D02*
X0020530Y0063286D01*
X0020374Y0064884D02*
X0018108Y0064884D01*
X0017289Y0066483D02*
X0020374Y0066483D01*
X0020374Y0068082D02*
X0015340Y0068082D01*
X0016360Y0069680D02*
X0021186Y0069680D01*
X0020774Y0071279D02*
X0017516Y0071279D01*
X0017205Y0076074D02*
X0021206Y0076074D01*
X0020851Y0081400D02*
X0023387Y0082450D01*
X0024358Y0083421D01*
X0024914Y0083977D01*
X0024914Y0083977D01*
X0032236Y0091299D01*
X0032650Y0091713D01*
X0033700Y0094249D01*
X0033700Y0191395D01*
X0034081Y0191776D01*
X0034491Y0192765D01*
X0034491Y0193835D01*
X0034081Y0194824D01*
X0033324Y0195581D01*
X0032335Y0195991D01*
X0031265Y0195991D01*
X0030430Y0195645D01*
X0030445Y0201390D01*
X0030831Y0201776D01*
X0031241Y0202765D01*
X0031241Y0203835D01*
X0030831Y0204824D01*
X0030074Y0205581D01*
X0029085Y0205991D01*
X0028015Y0205991D01*
X0027026Y0205581D01*
X0026269Y0204824D01*
X0026200Y0204657D01*
X0026200Y0211395D01*
X0026581Y0211776D01*
X0026991Y0212765D01*
X0026991Y0213835D01*
X0026581Y0214824D01*
X0025824Y0215581D01*
X0024835Y0215991D01*
X0023765Y0215991D01*
X0022776Y0215581D01*
X0022019Y0214824D01*
X0021609Y0213835D01*
X0021609Y0212765D01*
X0022019Y0211776D01*
X0022400Y0211395D01*
X0022400Y0121265D01*
X0021555Y0121265D01*
X0021200Y0120910D01*
X0021200Y0221395D01*
X0021581Y0221776D01*
X0021991Y0222765D01*
X0021991Y0223835D01*
X0021581Y0224824D01*
X0020824Y0225581D01*
X0019835Y0225991D01*
X0018765Y0225991D01*
X0017776Y0225581D01*
X0017019Y0224824D01*
X0016609Y0223835D01*
X0016609Y0222765D01*
X0017019Y0221776D01*
X0017400Y0221395D01*
X0017400Y0125602D01*
X0017204Y0126076D01*
X0015826Y0127454D01*
X0014950Y0127817D01*
X0014950Y0225229D01*
X0015010Y0225834D01*
X0015472Y0226951D01*
X0015858Y0227421D01*
X0016414Y0227977D01*
X0016414Y0227977D01*
X0019046Y0230609D01*
X0019585Y0230609D01*
X0020574Y0231019D01*
X0021331Y0231776D01*
X0021741Y0232765D01*
X0021741Y0233835D01*
X0021331Y0234824D01*
X0020574Y0235581D01*
X0019585Y0235991D01*
X0018515Y0235991D01*
X0017526Y0235581D01*
X0016769Y0234824D01*
X0016359Y0233835D01*
X0016359Y0233296D01*
X0013727Y0230664D01*
X0013171Y0230108D01*
X0012200Y0229137D01*
X0011150Y0226601D01*
X0011150Y0127817D01*
X0010274Y0127454D01*
X0008896Y0126076D01*
X0008150Y0124275D01*
X0008150Y0122325D01*
X0008896Y0120524D01*
X0010274Y0119146D01*
X0012075Y0118400D01*
X0014025Y0118400D01*
X0015826Y0119146D01*
X0017089Y0120409D01*
X0016878Y0119899D01*
X0016492Y0119429D01*
X0015936Y0118873D01*
X0014900Y0117837D01*
X0014025Y0118200D01*
X0012075Y0118200D01*
X0010274Y0117454D01*
X0008896Y0116076D01*
X0008150Y0114275D01*
X0008150Y0112325D01*
X0008896Y0110524D01*
X0010274Y0109146D01*
X0012075Y0108400D01*
X0014025Y0108400D01*
X0015826Y0109146D01*
X0017204Y0110524D01*
X0017950Y0112325D01*
X0017950Y0114275D01*
X0017587Y0115150D01*
X0018623Y0116186D01*
X0019179Y0116742D01*
X0020150Y0117713D01*
X0020735Y0119125D01*
X0020735Y0115348D01*
X0021533Y0114550D01*
X0020735Y0113752D01*
X0020735Y0110325D01*
X0017074Y0106664D01*
X0016845Y0106435D01*
X0015826Y0107454D01*
X0014025Y0108200D01*
X0012075Y0108200D01*
X0010274Y0107454D01*
X0008896Y0106076D01*
X0008150Y0104275D01*
X0008150Y0102325D01*
X0008896Y0100524D01*
X0010274Y0099146D01*
X0012075Y0098400D01*
X0014025Y0098400D01*
X0015826Y0099146D01*
X0017204Y0100524D01*
X0017950Y0102325D01*
X0017950Y0102333D01*
X0018234Y0102450D01*
X0018648Y0102864D01*
X0023618Y0107835D01*
X0026406Y0107835D01*
X0026405Y0107617D01*
X0026345Y0107014D01*
X0025882Y0105900D01*
X0025497Y0105432D01*
X0025462Y0105397D01*
X0025080Y0105015D01*
X0021653Y0105015D01*
X0020833Y0104195D01*
X0020833Y0099098D01*
X0021631Y0098300D01*
X0020833Y0097502D01*
X0020833Y0095310D01*
X0020500Y0095225D01*
X0020110Y0095200D01*
X0017567Y0095200D01*
X0017204Y0096076D01*
X0015826Y0097454D01*
X0014025Y0098200D01*
X0012075Y0098200D01*
X0010274Y0097454D01*
X0008896Y0096076D01*
X0008150Y0094275D01*
X0008150Y0092325D01*
X0008896Y0090524D01*
X0010274Y0089146D01*
X0012075Y0088400D01*
X0014025Y0088400D01*
X0015826Y0089146D01*
X0017204Y0090524D01*
X0017567Y0091400D01*
X0020984Y0091400D01*
X0021703Y0091585D01*
X0027144Y0091585D01*
X0027964Y0092405D01*
X0027964Y0097502D01*
X0027166Y0098300D01*
X0027964Y0099098D01*
X0027964Y0102525D01*
X0028261Y0102822D01*
X0029152Y0103713D01*
X0029900Y0105513D01*
X0029900Y0095621D01*
X0029840Y0095016D01*
X0029378Y0093899D01*
X0028992Y0093429D01*
X0028949Y0093386D01*
X0028436Y0092873D01*
X0022227Y0086664D01*
X0021671Y0086108D01*
X0021201Y0085722D01*
X0020084Y0085260D01*
X0019479Y0085200D01*
X0017567Y0085200D01*
X0017204Y0086076D01*
X0015826Y0087454D01*
X0014025Y0088200D01*
X0012075Y0088200D01*
X0010274Y0087454D01*
X0008896Y0086076D01*
X0008150Y0084275D01*
X0008150Y0082325D01*
X0008896Y0080524D01*
X0010274Y0079146D01*
X0012075Y0078400D01*
X0014025Y0078400D01*
X0015826Y0079146D01*
X0017204Y0080524D01*
X0017567Y0081400D01*
X0020851Y0081400D01*
X0023387Y0082450D02*
X0023387Y0082450D01*
X0023405Y0082468D02*
X0035400Y0082468D01*
X0035400Y0080870D02*
X0017347Y0080870D01*
X0015951Y0079271D02*
X0035598Y0079271D01*
X0035400Y0079749D02*
X0036450Y0077213D01*
X0036450Y0077213D01*
X0036864Y0076799D01*
X0037572Y0076091D01*
X0037977Y0075686D01*
X0068513Y0045150D01*
X0068150Y0044275D01*
X0068150Y0042325D01*
X0068896Y0040524D01*
X0070274Y0039146D01*
X0072075Y0038400D01*
X0074025Y0038400D01*
X0075826Y0039146D01*
X0077204Y0040524D01*
X0077950Y0042325D01*
X0077950Y0044275D01*
X0077204Y0046076D01*
X0075826Y0047454D01*
X0074025Y0048200D01*
X0072075Y0048200D01*
X0071200Y0047837D01*
X0040664Y0078373D01*
X0040120Y0078917D01*
X0040108Y0078929D01*
X0039722Y0079399D01*
X0039260Y0080516D01*
X0039200Y0081121D01*
X0039200Y0191395D01*
X0039581Y0191776D01*
X0039900Y0192546D01*
X0039900Y0085249D01*
X0040950Y0082713D01*
X0040950Y0082713D01*
X0041921Y0081742D01*
X0042477Y0081186D01*
X0068513Y0055150D01*
X0068150Y0054275D01*
X0068150Y0052325D01*
X0068896Y0050524D01*
X0070274Y0049146D01*
X0072075Y0048400D01*
X0074025Y0048400D01*
X0075826Y0049146D01*
X0077204Y0050524D01*
X0077950Y0052325D01*
X0077950Y0054275D01*
X0077204Y0056076D01*
X0075826Y0057454D01*
X0074025Y0058200D01*
X0072075Y0058200D01*
X0071200Y0057837D01*
X0045164Y0083873D01*
X0044608Y0084429D01*
X0044222Y0084899D01*
X0043760Y0086016D01*
X0043700Y0086621D01*
X0043700Y0201395D01*
X0044081Y0201776D01*
X0044400Y0202546D01*
X0044400Y0090749D01*
X0045450Y0088213D01*
X0045450Y0088213D01*
X0045864Y0087799D01*
X0046021Y0087642D01*
X0046421Y0087242D01*
X0046977Y0086686D01*
X0068513Y0065150D01*
X0068150Y0064275D01*
X0068150Y0062325D01*
X0068896Y0060524D01*
X0070274Y0059146D01*
X0072075Y0058400D01*
X0074025Y0058400D01*
X0075826Y0059146D01*
X0077204Y0060524D01*
X0077950Y0062325D01*
X0077950Y0064275D01*
X0077204Y0066076D01*
X0075826Y0067454D01*
X0074025Y0068200D01*
X0072075Y0068200D01*
X0071200Y0067837D01*
X0049664Y0089373D01*
X0049108Y0089929D01*
X0048722Y0090399D01*
X0048260Y0091516D01*
X0048200Y0092121D01*
X0048200Y0211395D01*
X0048581Y0211776D01*
X0048900Y0212546D01*
X0048900Y0096249D01*
X0049950Y0093713D01*
X0049950Y0093713D01*
X0050364Y0093299D01*
X0050921Y0092742D01*
X0051477Y0092186D01*
X0068513Y0075150D01*
X0068150Y0074275D01*
X0068150Y0072325D01*
X0068896Y0070524D01*
X0070274Y0069146D01*
X0072075Y0068400D01*
X0074025Y0068400D01*
X0075826Y0069146D01*
X0077204Y0070524D01*
X0077950Y0072325D01*
X0077950Y0074275D01*
X0077204Y0076076D01*
X0075826Y0077454D01*
X0074025Y0078200D01*
X0072075Y0078200D01*
X0071200Y0077837D01*
X0054164Y0094873D01*
X0053608Y0095429D01*
X0053222Y0095899D01*
X0052760Y0097016D01*
X0052700Y0097621D01*
X0052700Y0221395D01*
X0053081Y0221776D01*
X0053491Y0222765D01*
X0053491Y0223835D01*
X0053081Y0224824D01*
X0052324Y0225581D01*
X0051335Y0225991D01*
X0050265Y0225991D01*
X0049276Y0225581D01*
X0048519Y0224824D01*
X0048109Y0223835D01*
X0048109Y0222765D01*
X0048519Y0221776D01*
X0048900Y0221395D01*
X0048900Y0214054D01*
X0048581Y0214824D01*
X0047824Y0215581D01*
X0046835Y0215991D01*
X0045765Y0215991D01*
X0044776Y0215581D01*
X0044019Y0214824D01*
X0043609Y0213835D01*
X0043609Y0212765D01*
X0044019Y0211776D01*
X0044400Y0211395D01*
X0044400Y0204054D01*
X0044081Y0204824D01*
X0043324Y0205581D01*
X0042335Y0205991D01*
X0041265Y0205991D01*
X0040276Y0205581D01*
X0039519Y0204824D01*
X0039109Y0203835D01*
X0039109Y0202765D01*
X0039519Y0201776D01*
X0039900Y0201395D01*
X0039900Y0194054D01*
X0039581Y0194824D01*
X0038824Y0195581D01*
X0037835Y0195991D01*
X0036765Y0195991D01*
X0035776Y0195581D01*
X0035019Y0194824D01*
X0034609Y0193835D01*
X0034609Y0192765D01*
X0035019Y0191776D01*
X0035400Y0191395D01*
X0035400Y0079749D01*
X0036260Y0077673D02*
X0015298Y0077673D01*
X0017374Y0085665D02*
X0021063Y0085665D01*
X0022227Y0086664D02*
X0022227Y0086664D01*
X0022827Y0087264D02*
X0016016Y0087264D01*
X0015140Y0088862D02*
X0024425Y0088862D01*
X0026024Y0090461D02*
X0017140Y0090461D01*
X0017543Y0095256D02*
X0020623Y0095256D01*
X0020833Y0096855D02*
X0016425Y0096855D01*
X0016731Y0100052D02*
X0020833Y0100052D01*
X0020833Y0101650D02*
X0017670Y0101650D01*
X0018234Y0102450D02*
X0018234Y0102450D01*
X0018648Y0102864D02*
X0018648Y0102864D01*
X0019032Y0103249D02*
X0020833Y0103249D01*
X0020631Y0104847D02*
X0021485Y0104847D01*
X0022229Y0106446D02*
X0026108Y0106446D01*
X0027964Y0101650D02*
X0029900Y0101650D01*
X0029900Y0100052D02*
X0027964Y0100052D01*
X0027319Y0098453D02*
X0029900Y0098453D01*
X0029900Y0096855D02*
X0027964Y0096855D01*
X0027964Y0095256D02*
X0029864Y0095256D01*
X0029180Y0093658D02*
X0027964Y0093658D01*
X0028436Y0092873D02*
X0028436Y0092873D01*
X0027622Y0092059D02*
X0027618Y0092059D01*
X0029799Y0088862D02*
X0035400Y0088862D01*
X0035400Y0087264D02*
X0028201Y0087264D01*
X0026602Y0085665D02*
X0035400Y0085665D01*
X0035400Y0084067D02*
X0025004Y0084067D01*
X0024358Y0083421D02*
X0024358Y0083421D01*
X0027394Y0076074D02*
X0037589Y0076074D01*
X0039187Y0074476D02*
X0027826Y0074476D01*
X0027826Y0072877D02*
X0040786Y0072877D01*
X0042384Y0071279D02*
X0027826Y0071279D01*
X0027414Y0069680D02*
X0043983Y0069680D01*
X0045581Y0068082D02*
X0028226Y0068082D01*
X0028226Y0066483D02*
X0047180Y0066483D01*
X0048778Y0064884D02*
X0028226Y0064884D01*
X0028070Y0063286D02*
X0050377Y0063286D01*
X0050955Y0068082D02*
X0055581Y0068082D01*
X0053983Y0069680D02*
X0049357Y0069680D01*
X0050786Y0072877D02*
X0046160Y0072877D01*
X0047758Y0071279D02*
X0052384Y0071279D01*
X0052554Y0066483D02*
X0057180Y0066483D01*
X0058779Y0064884D02*
X0054152Y0064884D01*
X0055751Y0063286D02*
X0060377Y0063286D01*
X0060955Y0068082D02*
X0065581Y0068082D01*
X0063983Y0069680D02*
X0059357Y0069680D01*
X0060786Y0072877D02*
X0056160Y0072877D01*
X0057758Y0071279D02*
X0062384Y0071279D01*
X0062554Y0066483D02*
X0067180Y0066483D01*
X0068403Y0064884D02*
X0064152Y0064884D01*
X0065751Y0063286D02*
X0068150Y0063286D01*
X0068414Y0061687D02*
X0067349Y0061687D01*
X0068948Y0060089D02*
X0069331Y0060089D01*
X0070547Y0058490D02*
X0071857Y0058490D01*
X0074243Y0058490D02*
X0079900Y0058490D01*
X0079900Y0056892D02*
X0076388Y0056892D01*
X0076769Y0060089D02*
X0079900Y0060089D01*
X0079900Y0061687D02*
X0077686Y0061687D01*
X0077950Y0063286D02*
X0079900Y0063286D01*
X0079900Y0064884D02*
X0077697Y0064884D01*
X0076797Y0066483D02*
X0079900Y0066483D01*
X0079900Y0068082D02*
X0074311Y0068082D01*
X0071789Y0068082D02*
X0070955Y0068082D01*
X0069740Y0069680D02*
X0069357Y0069680D01*
X0068584Y0071279D02*
X0067758Y0071279D01*
X0068150Y0072877D02*
X0066160Y0072877D01*
X0067589Y0076074D02*
X0062963Y0076074D01*
X0064561Y0074476D02*
X0068233Y0074476D01*
X0065990Y0077673D02*
X0061364Y0077673D01*
X0061195Y0082468D02*
X0056569Y0082468D01*
X0054970Y0084067D02*
X0059596Y0084067D01*
X0057998Y0085665D02*
X0053372Y0085665D01*
X0054801Y0088862D02*
X0050175Y0088862D01*
X0049664Y0089373D02*
X0049664Y0089373D01*
X0048697Y0090461D02*
X0053202Y0090461D01*
X0051604Y0092059D02*
X0048206Y0092059D01*
X0048200Y0093658D02*
X0050005Y0093658D01*
X0049311Y0095256D02*
X0048200Y0095256D01*
X0048200Y0096855D02*
X0048900Y0096855D01*
X0048900Y0098453D02*
X0048200Y0098453D01*
X0048200Y0100052D02*
X0048900Y0100052D01*
X0048900Y0101650D02*
X0048200Y0101650D01*
X0048200Y0103249D02*
X0048900Y0103249D01*
X0048900Y0104847D02*
X0048200Y0104847D01*
X0048200Y0106446D02*
X0048900Y0106446D01*
X0048900Y0108044D02*
X0048200Y0108044D01*
X0048200Y0109643D02*
X0048900Y0109643D01*
X0048900Y0111241D02*
X0048200Y0111241D01*
X0048200Y0112840D02*
X0048900Y0112840D01*
X0048900Y0114438D02*
X0048200Y0114438D01*
X0048200Y0116037D02*
X0048900Y0116037D01*
X0048900Y0117635D02*
X0048200Y0117635D01*
X0048200Y0119234D02*
X0048900Y0119234D01*
X0048900Y0120832D02*
X0048200Y0120832D01*
X0048200Y0122431D02*
X0048900Y0122431D01*
X0048900Y0124029D02*
X0048200Y0124029D01*
X0048200Y0125628D02*
X0048900Y0125628D01*
X0048900Y0127226D02*
X0048200Y0127226D01*
X0048200Y0128825D02*
X0048900Y0128825D01*
X0048900Y0130423D02*
X0048200Y0130423D01*
X0048200Y0132022D02*
X0048900Y0132022D01*
X0048900Y0133620D02*
X0048200Y0133620D01*
X0048200Y0135219D02*
X0048900Y0135219D01*
X0048900Y0136818D02*
X0048200Y0136818D01*
X0048200Y0138416D02*
X0048900Y0138416D01*
X0048900Y0140015D02*
X0048200Y0140015D01*
X0048200Y0141613D02*
X0048900Y0141613D01*
X0048900Y0143212D02*
X0048200Y0143212D01*
X0048200Y0144810D02*
X0048900Y0144810D01*
X0048900Y0146409D02*
X0048200Y0146409D01*
X0048200Y0148007D02*
X0048900Y0148007D01*
X0048900Y0149606D02*
X0048200Y0149606D01*
X0048200Y0151204D02*
X0048900Y0151204D01*
X0048900Y0152803D02*
X0048200Y0152803D01*
X0048200Y0154401D02*
X0048900Y0154401D01*
X0048900Y0156000D02*
X0048200Y0156000D01*
X0048200Y0157598D02*
X0048900Y0157598D01*
X0048900Y0159197D02*
X0048200Y0159197D01*
X0048200Y0160795D02*
X0048900Y0160795D01*
X0048900Y0162394D02*
X0048200Y0162394D01*
X0048200Y0163992D02*
X0048900Y0163992D01*
X0048900Y0165591D02*
X0048200Y0165591D01*
X0048200Y0167189D02*
X0048900Y0167189D01*
X0048900Y0168788D02*
X0048200Y0168788D01*
X0048200Y0170386D02*
X0048900Y0170386D01*
X0048900Y0171985D02*
X0048200Y0171985D01*
X0048200Y0173583D02*
X0048900Y0173583D01*
X0048900Y0175182D02*
X0048200Y0175182D01*
X0048200Y0176780D02*
X0048900Y0176780D01*
X0048900Y0178379D02*
X0048200Y0178379D01*
X0048200Y0179977D02*
X0048900Y0179977D01*
X0048900Y0181576D02*
X0048200Y0181576D01*
X0048200Y0183174D02*
X0048900Y0183174D01*
X0048900Y0184773D02*
X0048200Y0184773D01*
X0048200Y0186371D02*
X0048900Y0186371D01*
X0048900Y0187970D02*
X0048200Y0187970D01*
X0048200Y0189568D02*
X0048900Y0189568D01*
X0048900Y0191167D02*
X0048200Y0191167D01*
X0048200Y0192765D02*
X0048900Y0192765D01*
X0048900Y0194364D02*
X0048200Y0194364D01*
X0048200Y0195962D02*
X0048900Y0195962D01*
X0048900Y0197561D02*
X0048200Y0197561D01*
X0048200Y0199159D02*
X0048900Y0199159D01*
X0048900Y0200758D02*
X0048200Y0200758D01*
X0048200Y0202356D02*
X0048900Y0202356D01*
X0048900Y0203955D02*
X0048200Y0203955D01*
X0048200Y0205553D02*
X0048900Y0205553D01*
X0048900Y0207152D02*
X0048200Y0207152D01*
X0048200Y0208751D02*
X0048900Y0208751D01*
X0048900Y0210349D02*
X0048200Y0210349D01*
X0048652Y0211948D02*
X0048900Y0211948D01*
X0048900Y0215145D02*
X0048260Y0215145D01*
X0048900Y0216743D02*
X0021200Y0216743D01*
X0021200Y0215145D02*
X0022340Y0215145D01*
X0021609Y0213546D02*
X0021200Y0213546D01*
X0021200Y0211948D02*
X0021948Y0211948D01*
X0022400Y0210349D02*
X0021200Y0210349D01*
X0021200Y0208751D02*
X0022400Y0208751D01*
X0022400Y0207152D02*
X0021200Y0207152D01*
X0021200Y0205553D02*
X0022400Y0205553D01*
X0022400Y0203955D02*
X0021200Y0203955D01*
X0021200Y0202356D02*
X0022400Y0202356D01*
X0022400Y0200758D02*
X0021200Y0200758D01*
X0021200Y0199159D02*
X0022400Y0199159D01*
X0022400Y0197561D02*
X0021200Y0197561D01*
X0021200Y0195962D02*
X0022400Y0195962D01*
X0022400Y0194364D02*
X0021200Y0194364D01*
X0021200Y0192765D02*
X0022400Y0192765D01*
X0022400Y0191167D02*
X0021200Y0191167D01*
X0021200Y0189568D02*
X0022400Y0189568D01*
X0022400Y0187970D02*
X0021200Y0187970D01*
X0021200Y0186371D02*
X0022400Y0186371D01*
X0022400Y0184773D02*
X0021200Y0184773D01*
X0021200Y0183174D02*
X0022400Y0183174D01*
X0022400Y0181576D02*
X0021200Y0181576D01*
X0021200Y0179977D02*
X0022400Y0179977D01*
X0022400Y0178379D02*
X0021200Y0178379D01*
X0021200Y0176780D02*
X0022400Y0176780D01*
X0022400Y0175182D02*
X0021200Y0175182D01*
X0021200Y0173583D02*
X0022400Y0173583D01*
X0022400Y0171985D02*
X0021200Y0171985D01*
X0021200Y0170386D02*
X0022400Y0170386D01*
X0022400Y0168788D02*
X0021200Y0168788D01*
X0021200Y0167189D02*
X0022400Y0167189D01*
X0022400Y0165591D02*
X0021200Y0165591D01*
X0021200Y0163992D02*
X0022400Y0163992D01*
X0022400Y0162394D02*
X0021200Y0162394D01*
X0021200Y0160795D02*
X0022400Y0160795D01*
X0022400Y0159197D02*
X0021200Y0159197D01*
X0021200Y0157598D02*
X0022400Y0157598D01*
X0022400Y0156000D02*
X0021200Y0156000D01*
X0021200Y0154401D02*
X0022400Y0154401D01*
X0022400Y0152803D02*
X0021200Y0152803D01*
X0021200Y0151204D02*
X0022400Y0151204D01*
X0022400Y0149606D02*
X0021200Y0149606D01*
X0021200Y0148007D02*
X0022400Y0148007D01*
X0022400Y0146409D02*
X0021200Y0146409D01*
X0021200Y0144810D02*
X0022400Y0144810D01*
X0022400Y0143212D02*
X0021200Y0143212D01*
X0021200Y0141613D02*
X0022400Y0141613D01*
X0022400Y0140015D02*
X0021200Y0140015D01*
X0021200Y0138416D02*
X0022400Y0138416D01*
X0022400Y0136818D02*
X0021200Y0136818D01*
X0021200Y0135219D02*
X0022400Y0135219D01*
X0022400Y0133620D02*
X0021200Y0133620D01*
X0021200Y0132022D02*
X0022400Y0132022D01*
X0022400Y0130423D02*
X0021200Y0130423D01*
X0021200Y0128825D02*
X0022400Y0128825D01*
X0022400Y0127226D02*
X0021200Y0127226D01*
X0021200Y0125628D02*
X0022400Y0125628D01*
X0022400Y0124029D02*
X0021200Y0124029D01*
X0021200Y0122431D02*
X0022400Y0122431D01*
X0020735Y0117635D02*
X0020072Y0117635D01*
X0020150Y0117713D02*
X0020150Y0117713D01*
X0019179Y0116742D02*
X0019179Y0116742D01*
X0018474Y0116037D02*
X0020735Y0116037D01*
X0021421Y0114438D02*
X0017882Y0114438D01*
X0017950Y0112840D02*
X0020735Y0112840D01*
X0020735Y0111241D02*
X0017501Y0111241D01*
X0016322Y0109643D02*
X0020052Y0109643D01*
X0018454Y0108044D02*
X0014401Y0108044D01*
X0011699Y0108044D02*
X0004600Y0108044D01*
X0004600Y0106446D02*
X0009266Y0106446D01*
X0008387Y0104847D02*
X0004600Y0104847D01*
X0004600Y0103249D02*
X0008150Y0103249D01*
X0008430Y0101650D02*
X0004600Y0101650D01*
X0004600Y0100052D02*
X0009369Y0100052D01*
X0009675Y0096855D02*
X0004600Y0096855D01*
X0004600Y0098453D02*
X0011947Y0098453D01*
X0014153Y0098453D02*
X0021478Y0098453D01*
X0016855Y0106446D02*
X0016834Y0106446D01*
X0017074Y0106664D02*
X0017074Y0106664D01*
X0015936Y0118873D02*
X0015936Y0118873D01*
X0015914Y0119234D02*
X0016297Y0119234D01*
X0017389Y0125628D02*
X0017400Y0125628D01*
X0017400Y0127226D02*
X0016053Y0127226D01*
X0014950Y0128825D02*
X0017400Y0128825D01*
X0017400Y0130423D02*
X0014950Y0130423D01*
X0014950Y0132022D02*
X0017400Y0132022D01*
X0017400Y0133620D02*
X0014950Y0133620D01*
X0014950Y0135219D02*
X0017400Y0135219D01*
X0017400Y0136818D02*
X0014950Y0136818D01*
X0014950Y0138416D02*
X0017400Y0138416D01*
X0017400Y0140015D02*
X0014950Y0140015D01*
X0014950Y0141613D02*
X0017400Y0141613D01*
X0017400Y0143212D02*
X0014950Y0143212D01*
X0014950Y0144810D02*
X0017400Y0144810D01*
X0017400Y0146409D02*
X0014950Y0146409D01*
X0014950Y0148007D02*
X0017400Y0148007D01*
X0017400Y0149606D02*
X0014950Y0149606D01*
X0014950Y0151204D02*
X0017400Y0151204D01*
X0017400Y0152803D02*
X0014950Y0152803D01*
X0014950Y0154401D02*
X0017400Y0154401D01*
X0017400Y0156000D02*
X0014950Y0156000D01*
X0014950Y0157598D02*
X0017400Y0157598D01*
X0017400Y0159197D02*
X0014950Y0159197D01*
X0014950Y0160795D02*
X0017400Y0160795D01*
X0017400Y0162394D02*
X0014950Y0162394D01*
X0014950Y0163992D02*
X0017400Y0163992D01*
X0017400Y0165591D02*
X0014950Y0165591D01*
X0014950Y0167189D02*
X0017400Y0167189D01*
X0017400Y0168788D02*
X0014950Y0168788D01*
X0014950Y0170386D02*
X0017400Y0170386D01*
X0017400Y0171985D02*
X0014950Y0171985D01*
X0014950Y0173583D02*
X0017400Y0173583D01*
X0017400Y0175182D02*
X0014950Y0175182D01*
X0014950Y0176780D02*
X0017400Y0176780D01*
X0017400Y0178379D02*
X0014950Y0178379D01*
X0014950Y0179977D02*
X0017400Y0179977D01*
X0017400Y0181576D02*
X0014950Y0181576D01*
X0014950Y0183174D02*
X0017400Y0183174D01*
X0017400Y0184773D02*
X0014950Y0184773D01*
X0014950Y0186371D02*
X0017400Y0186371D01*
X0017400Y0187970D02*
X0014950Y0187970D01*
X0014950Y0189568D02*
X0017400Y0189568D01*
X0017400Y0191167D02*
X0014950Y0191167D01*
X0014950Y0192765D02*
X0017400Y0192765D01*
X0017400Y0194364D02*
X0014950Y0194364D01*
X0014950Y0195962D02*
X0017400Y0195962D01*
X0017400Y0197561D02*
X0014950Y0197561D01*
X0014950Y0199159D02*
X0017400Y0199159D01*
X0017400Y0200758D02*
X0014950Y0200758D01*
X0014950Y0202356D02*
X0017400Y0202356D01*
X0017400Y0203955D02*
X0014950Y0203955D01*
X0014950Y0205553D02*
X0017400Y0205553D01*
X0017400Y0207152D02*
X0014950Y0207152D01*
X0014950Y0208751D02*
X0017400Y0208751D01*
X0017400Y0210349D02*
X0014950Y0210349D01*
X0014950Y0211948D02*
X0017400Y0211948D01*
X0017400Y0213546D02*
X0014950Y0213546D01*
X0014950Y0215145D02*
X0017400Y0215145D01*
X0017400Y0216743D02*
X0014950Y0216743D01*
X0014950Y0218342D02*
X0017400Y0218342D01*
X0017400Y0219940D02*
X0014950Y0219940D01*
X0014950Y0221539D02*
X0017256Y0221539D01*
X0016609Y0223137D02*
X0014950Y0223137D01*
X0014950Y0224736D02*
X0016982Y0224736D01*
X0016370Y0227933D02*
X0053650Y0227933D01*
X0053650Y0228479D02*
X0053650Y0115205D01*
X0053269Y0114824D01*
X0052859Y0113835D01*
X0052859Y0112765D01*
X0053269Y0111776D01*
X0054026Y0111019D01*
X0055015Y0110609D01*
X0056085Y0110609D01*
X0057074Y0111019D01*
X0057400Y0111345D01*
X0057400Y0105205D01*
X0057019Y0104824D01*
X0056609Y0103835D01*
X0056609Y0102765D01*
X0057019Y0101776D01*
X0057776Y0101019D01*
X0058765Y0100609D01*
X0059835Y0100609D01*
X0060824Y0101019D01*
X0060886Y0101081D01*
X0060897Y0095202D01*
X0060519Y0094824D01*
X0060109Y0093835D01*
X0060109Y0092765D01*
X0060519Y0091776D01*
X0061276Y0091019D01*
X0062265Y0090609D01*
X0063335Y0090609D01*
X0064324Y0091019D01*
X0064650Y0091345D01*
X0064650Y0090499D01*
X0065700Y0087963D01*
X0065700Y0087963D01*
X0066114Y0087549D01*
X0066114Y0087549D01*
X0068513Y0085150D01*
X0068150Y0084275D01*
X0068150Y0082325D01*
X0068896Y0080524D01*
X0070274Y0079146D01*
X0072075Y0078400D01*
X0074025Y0078400D01*
X0075826Y0079146D01*
X0077204Y0080524D01*
X0077950Y0082325D01*
X0077950Y0084275D01*
X0077204Y0086076D01*
X0075826Y0087454D01*
X0074025Y0088200D01*
X0072075Y0088200D01*
X0071200Y0087837D01*
X0069914Y0089123D01*
X0069369Y0089668D01*
X0069358Y0089679D01*
X0068972Y0090149D01*
X0068510Y0091266D01*
X0068485Y0091517D01*
X0068896Y0090524D01*
X0070274Y0089146D01*
X0072075Y0088400D01*
X0074025Y0088400D01*
X0075826Y0089146D01*
X0077204Y0090524D01*
X0077950Y0092325D01*
X0077950Y0094275D01*
X0077204Y0096076D01*
X0075826Y0097454D01*
X0074025Y0098200D01*
X0072075Y0098200D01*
X0070274Y0097454D01*
X0068896Y0096076D01*
X0068450Y0094999D01*
X0068450Y0101601D01*
X0068896Y0100524D01*
X0070274Y0099146D01*
X0072075Y0098400D01*
X0074025Y0098400D01*
X0075826Y0099146D01*
X0077204Y0100524D01*
X0077950Y0102325D01*
X0077950Y0104275D01*
X0077204Y0106076D01*
X0075826Y0107454D01*
X0074025Y0108200D01*
X0072075Y0108200D01*
X0070274Y0107454D01*
X0068896Y0106076D01*
X0068450Y0104999D01*
X0068450Y0111601D01*
X0068896Y0110524D01*
X0070274Y0109146D01*
X0072075Y0108400D01*
X0074025Y0108400D01*
X0075826Y0109146D01*
X0077204Y0110524D01*
X0077950Y0112325D01*
X0077950Y0114275D01*
X0077204Y0116076D01*
X0075826Y0117454D01*
X0074220Y0118119D01*
X0074291Y0118130D01*
X0075084Y0118388D01*
X0075828Y0118767D01*
X0076503Y0119257D01*
X0077093Y0119847D01*
X0077583Y0120522D01*
X0077962Y0121266D01*
X0078219Y0122059D01*
X0078350Y0122883D01*
X0078350Y0123100D01*
X0073250Y0123100D01*
X0073250Y0123500D01*
X0072850Y0123500D01*
X0072850Y0128600D01*
X0072633Y0128600D01*
X0071809Y0128469D01*
X0071016Y0128212D01*
X0070272Y0127833D01*
X0069597Y0127343D01*
X0069007Y0126753D01*
X0068517Y0126078D01*
X0068450Y0125946D01*
X0068450Y0224950D01*
X0068499Y0225497D01*
X0068641Y0225883D01*
X0069574Y0226269D01*
X0070331Y0227026D01*
X0070741Y0228015D01*
X0070741Y0229085D01*
X0070331Y0230074D01*
X0069574Y0230831D01*
X0068585Y0231241D01*
X0067515Y0231241D01*
X0066526Y0230831D01*
X0065769Y0230074D01*
X0065359Y0229085D01*
X0065359Y0228104D01*
X0064650Y0226186D01*
X0064650Y0121342D01*
X0064453Y0231648D01*
X0064831Y0232026D01*
X0065241Y0233015D01*
X0065241Y0234085D01*
X0064831Y0235074D01*
X0064074Y0235831D01*
X0063085Y0236241D01*
X0062015Y0236241D01*
X0061200Y0235903D01*
X0061200Y0236175D01*
X0060318Y0238522D01*
X0060241Y0238610D01*
X0060241Y0239335D01*
X0059831Y0240324D01*
X0059074Y0241081D01*
X0058085Y0241491D01*
X0057015Y0241491D01*
X0056026Y0241081D01*
X0055269Y0240324D01*
X0054859Y0239335D01*
X0054859Y0238265D01*
X0055269Y0237276D01*
X0056026Y0236519D01*
X0057015Y0236109D01*
X0057112Y0236109D01*
X0057350Y0235475D01*
X0057400Y0234921D01*
X0057400Y0229972D01*
X0056400Y0232387D01*
X0056400Y0232387D01*
X0055986Y0232801D01*
X0055429Y0233358D01*
X0054873Y0233914D01*
X0052491Y0236296D01*
X0052491Y0236835D01*
X0052081Y0237824D01*
X0051324Y0238581D01*
X0050335Y0238991D01*
X0049265Y0238991D01*
X0048276Y0238581D01*
X0047519Y0237824D01*
X0047109Y0236835D01*
X0047109Y0235765D01*
X0047519Y0234776D01*
X0048276Y0234019D01*
X0049265Y0233609D01*
X0049804Y0233609D01*
X0052186Y0231227D01*
X0052742Y0230671D01*
X0053128Y0230201D01*
X0053590Y0229084D01*
X0053650Y0228479D01*
X0053405Y0229531D02*
X0017968Y0229531D01*
X0015791Y0232728D02*
X0004600Y0232728D01*
X0004600Y0231130D02*
X0014193Y0231130D01*
X0013727Y0230664D02*
X0013727Y0230664D01*
X0012594Y0229531D02*
X0004600Y0229531D01*
X0004600Y0227933D02*
X0011701Y0227933D01*
X0012200Y0229137D02*
X0012200Y0229137D01*
X0011150Y0226334D02*
X0004600Y0226334D01*
X0004600Y0224736D02*
X0011150Y0224736D01*
X0011150Y0223137D02*
X0004600Y0223137D01*
X0004600Y0221539D02*
X0011150Y0221539D01*
X0011150Y0219940D02*
X0004600Y0219940D01*
X0004600Y0218342D02*
X0011150Y0218342D01*
X0011150Y0216743D02*
X0004600Y0216743D01*
X0004600Y0215145D02*
X0011150Y0215145D01*
X0011150Y0213546D02*
X0004600Y0213546D01*
X0004600Y0211948D02*
X0011150Y0211948D01*
X0011150Y0210349D02*
X0004600Y0210349D01*
X0004600Y0208751D02*
X0011150Y0208751D01*
X0011150Y0207152D02*
X0004600Y0207152D01*
X0004600Y0205553D02*
X0011150Y0205553D01*
X0011150Y0203955D02*
X0004600Y0203955D01*
X0004600Y0202356D02*
X0011150Y0202356D01*
X0011150Y0200758D02*
X0004600Y0200758D01*
X0004600Y0199159D02*
X0011150Y0199159D01*
X0011150Y0197561D02*
X0004600Y0197561D01*
X0004600Y0195962D02*
X0011150Y0195962D01*
X0011150Y0194364D02*
X0004600Y0194364D01*
X0004600Y0192765D02*
X0011150Y0192765D01*
X0011150Y0191167D02*
X0004600Y0191167D01*
X0004600Y0189568D02*
X0011150Y0189568D01*
X0011150Y0187970D02*
X0004600Y0187970D01*
X0004600Y0186371D02*
X0011150Y0186371D01*
X0011150Y0184773D02*
X0004600Y0184773D01*
X0004600Y0183174D02*
X0011150Y0183174D01*
X0011150Y0181576D02*
X0004600Y0181576D01*
X0004600Y0179977D02*
X0011150Y0179977D01*
X0011150Y0178379D02*
X0004600Y0178379D01*
X0004600Y0176780D02*
X0011150Y0176780D01*
X0011150Y0175182D02*
X0004600Y0175182D01*
X0004600Y0173583D02*
X0011150Y0173583D01*
X0011150Y0171985D02*
X0004600Y0171985D01*
X0004600Y0170386D02*
X0011150Y0170386D01*
X0011150Y0168788D02*
X0004600Y0168788D01*
X0004600Y0167189D02*
X0011150Y0167189D01*
X0011150Y0165591D02*
X0004600Y0165591D01*
X0004600Y0163992D02*
X0011150Y0163992D01*
X0011150Y0162394D02*
X0004600Y0162394D01*
X0004600Y0160795D02*
X0011150Y0160795D01*
X0011150Y0159197D02*
X0004600Y0159197D01*
X0004600Y0157598D02*
X0011150Y0157598D01*
X0011150Y0156000D02*
X0004600Y0156000D01*
X0004600Y0154401D02*
X0011150Y0154401D01*
X0011150Y0152803D02*
X0004600Y0152803D01*
X0004600Y0151204D02*
X0011150Y0151204D01*
X0011150Y0149606D02*
X0004600Y0149606D01*
X0004600Y0148007D02*
X0011150Y0148007D01*
X0011150Y0146409D02*
X0004600Y0146409D01*
X0004600Y0144810D02*
X0011150Y0144810D01*
X0011150Y0143212D02*
X0004600Y0143212D01*
X0004600Y0141613D02*
X0011150Y0141613D01*
X0011150Y0140015D02*
X0004600Y0140015D01*
X0004600Y0138416D02*
X0011150Y0138416D01*
X0011150Y0136818D02*
X0004600Y0136818D01*
X0004600Y0135219D02*
X0011150Y0135219D01*
X0011150Y0133620D02*
X0004600Y0133620D01*
X0004600Y0132022D02*
X0011150Y0132022D01*
X0011150Y0130423D02*
X0004600Y0130423D01*
X0004600Y0128825D02*
X0011150Y0128825D01*
X0010047Y0127226D02*
X0004600Y0127226D01*
X0004600Y0125628D02*
X0008711Y0125628D01*
X0008150Y0124029D02*
X0004600Y0124029D01*
X0004600Y0122431D02*
X0008150Y0122431D01*
X0008768Y0120832D02*
X0004600Y0120832D01*
X0004600Y0119234D02*
X0010186Y0119234D01*
X0010712Y0117635D02*
X0004600Y0117635D01*
X0004600Y0116037D02*
X0008880Y0116037D01*
X0008218Y0114438D02*
X0004600Y0114438D01*
X0004600Y0112840D02*
X0008150Y0112840D01*
X0008599Y0111241D02*
X0004600Y0111241D01*
X0004600Y0109643D02*
X0009778Y0109643D01*
X0008557Y0095256D02*
X0004600Y0095256D01*
X0004600Y0093658D02*
X0008150Y0093658D01*
X0008260Y0092059D02*
X0004600Y0092059D01*
X0004600Y0090461D02*
X0008960Y0090461D01*
X0010084Y0087264D02*
X0004600Y0087264D01*
X0004600Y0088862D02*
X0010960Y0088862D01*
X0008726Y0085665D02*
X0004600Y0085665D01*
X0004600Y0084067D02*
X0008150Y0084067D01*
X0008150Y0082468D02*
X0004600Y0082468D01*
X0004600Y0080870D02*
X0008753Y0080870D01*
X0010149Y0079271D02*
X0004600Y0079271D01*
X0004600Y0077673D02*
X0010802Y0077673D01*
X0008895Y0076074D02*
X0004600Y0076074D01*
X0004600Y0074476D02*
X0008233Y0074476D01*
X0008150Y0072877D02*
X0004600Y0072877D01*
X0004600Y0071279D02*
X0008584Y0071279D01*
X0009740Y0069680D02*
X0004600Y0069680D01*
X0004600Y0068082D02*
X0010760Y0068082D01*
X0008811Y0066483D02*
X0004600Y0066483D01*
X0015285Y0058490D02*
X0055173Y0058490D01*
X0056771Y0056892D02*
X0016388Y0056892D01*
X0017528Y0055293D02*
X0058370Y0055293D01*
X0058948Y0060089D02*
X0063574Y0060089D01*
X0061976Y0061687D02*
X0057350Y0061687D01*
X0060547Y0058490D02*
X0065173Y0058490D01*
X0063744Y0055293D02*
X0068370Y0055293D01*
X0068150Y0053695D02*
X0065342Y0053695D01*
X0066941Y0052096D02*
X0068245Y0052096D01*
X0068539Y0050498D02*
X0068922Y0050498D01*
X0070138Y0048899D02*
X0070870Y0048899D01*
X0067961Y0045702D02*
X0017359Y0045702D01*
X0017950Y0044104D02*
X0068150Y0044104D01*
X0068150Y0042505D02*
X0054965Y0042505D01*
X0054532Y0042505D02*
X0017950Y0042505D01*
X0017362Y0040907D02*
X0048863Y0040907D01*
X0048650Y0039308D02*
X0015988Y0039308D01*
X0015208Y0037710D02*
X0048741Y0037710D01*
X0048672Y0036111D02*
X0017168Y0036111D01*
X0017851Y0034513D02*
X0048650Y0034513D01*
X0048933Y0032914D02*
X0017950Y0032914D01*
X0017532Y0031316D02*
X0048650Y0031316D01*
X0048650Y0016929D02*
X0016350Y0016929D01*
X0017513Y0015331D02*
X0048650Y0015331D01*
X0049112Y0013732D02*
X0017950Y0013732D01*
X0017871Y0012134D02*
X0048650Y0012134D01*
X0055052Y0011779D02*
X0055052Y0011779D01*
X0055407Y0012134D02*
X0067869Y0012134D01*
X0067880Y0012059D02*
X0068138Y0011266D01*
X0068517Y0010522D01*
X0069007Y0009847D01*
X0069597Y0009257D01*
X0070272Y0008767D01*
X0071016Y0008388D01*
X0071809Y0008130D01*
X0072633Y0008000D01*
X0072850Y0008000D01*
X0072850Y0013100D01*
X0067750Y0013100D01*
X0067750Y0012883D01*
X0067880Y0012059D01*
X0067750Y0013500D02*
X0072850Y0013500D01*
X0072850Y0013100D01*
X0073250Y0013100D01*
X0073250Y0013500D01*
X0078350Y0013500D01*
X0078350Y0013717D01*
X0078219Y0014541D01*
X0077962Y0015334D01*
X0077583Y0016078D01*
X0077093Y0016753D01*
X0076503Y0017343D01*
X0075828Y0017833D01*
X0075084Y0018212D01*
X0074291Y0018469D01*
X0074220Y0018481D01*
X0075826Y0019146D01*
X0077204Y0020524D01*
X0077950Y0022325D01*
X0077950Y0024275D01*
X0077204Y0026076D01*
X0075826Y0027454D01*
X0074025Y0028200D01*
X0072075Y0028200D01*
X0070274Y0027454D01*
X0068896Y0026076D01*
X0068150Y0024275D01*
X0068150Y0022325D01*
X0068896Y0020524D01*
X0070274Y0019146D01*
X0071880Y0018481D01*
X0071809Y0018469D01*
X0071016Y0018212D01*
X0070272Y0017833D01*
X0069597Y0017343D01*
X0069007Y0016753D01*
X0068517Y0016078D01*
X0068138Y0015334D01*
X0067880Y0014541D01*
X0067750Y0013717D01*
X0067750Y0013500D01*
X0067752Y0013732D02*
X0056454Y0013732D01*
X0055794Y0015331D02*
X0068137Y0015331D01*
X0069184Y0016929D02*
X0056454Y0016929D01*
X0056454Y0018485D02*
X0056454Y0018485D01*
X0056454Y0018528D02*
X0071767Y0018528D01*
X0074333Y0018528D02*
X0081500Y0018528D01*
X0081500Y0020126D02*
X0076806Y0020126D01*
X0077701Y0021725D02*
X0081500Y0021725D01*
X0081500Y0023323D02*
X0077950Y0023323D01*
X0077682Y0024922D02*
X0081500Y0024922D01*
X0081500Y0026520D02*
X0076759Y0026520D01*
X0076397Y0029717D02*
X0081500Y0029717D01*
X0081500Y0028119D02*
X0074221Y0028119D01*
X0071879Y0028119D02*
X0056454Y0028119D01*
X0056120Y0029717D02*
X0069703Y0029717D01*
X0069341Y0026520D02*
X0055052Y0026520D01*
X0055399Y0025634D02*
X0055399Y0025634D01*
X0056112Y0024922D02*
X0068418Y0024922D01*
X0068150Y0023323D02*
X0056454Y0023323D01*
X0056454Y0023089D02*
X0056454Y0023088D01*
X0056454Y0021725D02*
X0068399Y0021725D01*
X0069294Y0020126D02*
X0056303Y0020126D01*
X0056454Y0024580D02*
X0056454Y0024580D01*
X0056454Y0031316D02*
X0068568Y0031316D01*
X0068150Y0032914D02*
X0056171Y0032914D01*
X0056454Y0034513D02*
X0068249Y0034513D01*
X0068932Y0036111D02*
X0056432Y0036111D01*
X0055399Y0037144D02*
X0055399Y0037144D01*
X0055033Y0037710D02*
X0070892Y0037710D01*
X0070112Y0039308D02*
X0055996Y0039308D01*
X0056465Y0040907D02*
X0068738Y0040907D01*
X0066362Y0047301D02*
X0015979Y0047301D01*
X0015230Y0048899D02*
X0064764Y0048899D01*
X0063165Y0050498D02*
X0017178Y0050498D01*
X0017855Y0052096D02*
X0061567Y0052096D01*
X0059968Y0053695D02*
X0017950Y0053695D01*
X0017268Y0060089D02*
X0053574Y0060089D01*
X0051976Y0061687D02*
X0018099Y0061687D01*
X0024067Y0063286D02*
X0024533Y0063286D01*
X0024533Y0064884D02*
X0024067Y0064884D01*
X0031398Y0090461D02*
X0035400Y0090461D01*
X0035400Y0092059D02*
X0032793Y0092059D01*
X0032650Y0091713D02*
X0032650Y0091713D01*
X0032650Y0091713D01*
X0032236Y0091299D02*
X0032236Y0091299D01*
X0033455Y0093658D02*
X0035400Y0093658D01*
X0035400Y0095256D02*
X0033700Y0095256D01*
X0033700Y0096855D02*
X0035400Y0096855D01*
X0035400Y0098453D02*
X0033700Y0098453D01*
X0033700Y0100052D02*
X0035400Y0100052D01*
X0035400Y0101650D02*
X0033700Y0101650D01*
X0033700Y0103249D02*
X0035400Y0103249D01*
X0035400Y0104847D02*
X0033700Y0104847D01*
X0033700Y0106446D02*
X0035400Y0106446D01*
X0035400Y0108044D02*
X0033700Y0108044D01*
X0033700Y0109643D02*
X0035400Y0109643D01*
X0035400Y0111241D02*
X0033700Y0111241D01*
X0033700Y0112840D02*
X0035400Y0112840D01*
X0035400Y0114438D02*
X0033700Y0114438D01*
X0033700Y0116037D02*
X0035400Y0116037D01*
X0035400Y0117635D02*
X0033700Y0117635D01*
X0033700Y0119234D02*
X0035400Y0119234D01*
X0035400Y0120832D02*
X0033700Y0120832D01*
X0033700Y0122431D02*
X0035400Y0122431D01*
X0035400Y0124029D02*
X0033700Y0124029D01*
X0033700Y0125628D02*
X0035400Y0125628D01*
X0035400Y0127226D02*
X0033700Y0127226D01*
X0033700Y0128825D02*
X0035400Y0128825D01*
X0035400Y0130423D02*
X0033700Y0130423D01*
X0033700Y0132022D02*
X0035400Y0132022D01*
X0035400Y0133620D02*
X0033700Y0133620D01*
X0033700Y0135219D02*
X0035400Y0135219D01*
X0035400Y0136818D02*
X0033700Y0136818D01*
X0033700Y0138416D02*
X0035400Y0138416D01*
X0035400Y0140015D02*
X0033700Y0140015D01*
X0033700Y0141613D02*
X0035400Y0141613D01*
X0035400Y0143212D02*
X0033700Y0143212D01*
X0033700Y0144810D02*
X0035400Y0144810D01*
X0035400Y0146409D02*
X0033700Y0146409D01*
X0033700Y0148007D02*
X0035400Y0148007D01*
X0035400Y0149606D02*
X0033700Y0149606D01*
X0033700Y0151204D02*
X0035400Y0151204D01*
X0035400Y0152803D02*
X0033700Y0152803D01*
X0033700Y0154401D02*
X0035400Y0154401D01*
X0035400Y0156000D02*
X0033700Y0156000D01*
X0033700Y0157598D02*
X0035400Y0157598D01*
X0035400Y0159197D02*
X0033700Y0159197D01*
X0033700Y0160795D02*
X0035400Y0160795D01*
X0035400Y0162394D02*
X0033700Y0162394D01*
X0033700Y0163992D02*
X0035400Y0163992D01*
X0035400Y0165591D02*
X0033700Y0165591D01*
X0033700Y0167189D02*
X0035400Y0167189D01*
X0035400Y0168788D02*
X0033700Y0168788D01*
X0033700Y0170386D02*
X0035400Y0170386D01*
X0035400Y0171985D02*
X0033700Y0171985D01*
X0033700Y0173583D02*
X0035400Y0173583D01*
X0035400Y0175182D02*
X0033700Y0175182D01*
X0033700Y0176780D02*
X0035400Y0176780D01*
X0035400Y0178379D02*
X0033700Y0178379D01*
X0033700Y0179977D02*
X0035400Y0179977D01*
X0035400Y0181576D02*
X0033700Y0181576D01*
X0033700Y0183174D02*
X0035400Y0183174D01*
X0035400Y0184773D02*
X0033700Y0184773D01*
X0033700Y0186371D02*
X0035400Y0186371D01*
X0035400Y0187970D02*
X0033700Y0187970D01*
X0033700Y0189568D02*
X0035400Y0189568D01*
X0035400Y0191167D02*
X0033700Y0191167D01*
X0034491Y0192765D02*
X0034609Y0192765D01*
X0034828Y0194364D02*
X0034272Y0194364D01*
X0032403Y0195962D02*
X0036697Y0195962D01*
X0037903Y0195962D02*
X0039900Y0195962D01*
X0039900Y0194364D02*
X0039772Y0194364D01*
X0039900Y0197561D02*
X0030435Y0197561D01*
X0030439Y0199159D02*
X0039900Y0199159D01*
X0039900Y0200758D02*
X0030443Y0200758D01*
X0031071Y0202356D02*
X0039279Y0202356D01*
X0039159Y0203955D02*
X0031191Y0203955D01*
X0030102Y0205553D02*
X0040248Y0205553D01*
X0043352Y0205553D02*
X0044400Y0205553D01*
X0044400Y0207152D02*
X0026200Y0207152D01*
X0026200Y0208751D02*
X0044400Y0208751D01*
X0044400Y0210349D02*
X0026200Y0210349D01*
X0026652Y0211948D02*
X0043948Y0211948D01*
X0043609Y0213546D02*
X0026991Y0213546D01*
X0026260Y0215145D02*
X0044340Y0215145D01*
X0048900Y0218342D02*
X0021200Y0218342D01*
X0021200Y0219940D02*
X0048900Y0219940D01*
X0048756Y0221539D02*
X0021344Y0221539D01*
X0021991Y0223137D02*
X0048109Y0223137D01*
X0048482Y0224736D02*
X0021618Y0224736D01*
X0020685Y0231130D02*
X0052283Y0231130D01*
X0052186Y0231227D02*
X0052186Y0231227D01*
X0052862Y0235925D02*
X0057181Y0235925D01*
X0057400Y0234327D02*
X0054460Y0234327D01*
X0055166Y0237524D02*
X0052205Y0237524D01*
X0054859Y0239122D02*
X0004600Y0239122D01*
X0004600Y0237524D02*
X0047395Y0237524D01*
X0047109Y0235925D02*
X0019743Y0235925D01*
X0021537Y0234327D02*
X0047968Y0234327D01*
X0050685Y0232728D02*
X0021725Y0232728D01*
X0018357Y0235925D02*
X0004600Y0235925D01*
X0004600Y0234327D02*
X0016563Y0234327D01*
X0015217Y0226334D02*
X0053650Y0226334D01*
X0053650Y0224736D02*
X0053118Y0224736D01*
X0053491Y0223137D02*
X0053650Y0223137D01*
X0053650Y0221539D02*
X0052844Y0221539D01*
X0052700Y0219940D02*
X0053650Y0219940D01*
X0053650Y0218342D02*
X0052700Y0218342D01*
X0052700Y0216743D02*
X0053650Y0216743D01*
X0053650Y0215145D02*
X0052700Y0215145D01*
X0052700Y0213546D02*
X0053650Y0213546D01*
X0053650Y0211948D02*
X0052700Y0211948D01*
X0052700Y0210349D02*
X0053650Y0210349D01*
X0053650Y0208751D02*
X0052700Y0208751D01*
X0052700Y0207152D02*
X0053650Y0207152D01*
X0053650Y0205553D02*
X0052700Y0205553D01*
X0052700Y0203955D02*
X0053650Y0203955D01*
X0053650Y0202356D02*
X0052700Y0202356D01*
X0052700Y0200758D02*
X0053650Y0200758D01*
X0053650Y0199159D02*
X0052700Y0199159D01*
X0052700Y0197561D02*
X0053650Y0197561D01*
X0053650Y0195962D02*
X0052700Y0195962D01*
X0052700Y0194364D02*
X0053650Y0194364D01*
X0053650Y0192765D02*
X0052700Y0192765D01*
X0052700Y0191167D02*
X0053650Y0191167D01*
X0053650Y0189568D02*
X0052700Y0189568D01*
X0052700Y0187970D02*
X0053650Y0187970D01*
X0053650Y0186371D02*
X0052700Y0186371D01*
X0052700Y0184773D02*
X0053650Y0184773D01*
X0053650Y0183174D02*
X0052700Y0183174D01*
X0052700Y0181576D02*
X0053650Y0181576D01*
X0053650Y0179977D02*
X0052700Y0179977D01*
X0052700Y0178379D02*
X0053650Y0178379D01*
X0053650Y0176780D02*
X0052700Y0176780D01*
X0052700Y0175182D02*
X0053650Y0175182D01*
X0053650Y0173583D02*
X0052700Y0173583D01*
X0052700Y0171985D02*
X0053650Y0171985D01*
X0053650Y0170386D02*
X0052700Y0170386D01*
X0052700Y0168788D02*
X0053650Y0168788D01*
X0053650Y0167189D02*
X0052700Y0167189D01*
X0052700Y0165591D02*
X0053650Y0165591D01*
X0053650Y0163992D02*
X0052700Y0163992D01*
X0052700Y0162394D02*
X0053650Y0162394D01*
X0053650Y0160795D02*
X0052700Y0160795D01*
X0052700Y0159197D02*
X0053650Y0159197D01*
X0053650Y0157598D02*
X0052700Y0157598D01*
X0052700Y0156000D02*
X0053650Y0156000D01*
X0053650Y0154401D02*
X0052700Y0154401D01*
X0052700Y0152803D02*
X0053650Y0152803D01*
X0053650Y0151204D02*
X0052700Y0151204D01*
X0052700Y0149606D02*
X0053650Y0149606D01*
X0053650Y0148007D02*
X0052700Y0148007D01*
X0052700Y0146409D02*
X0053650Y0146409D01*
X0053650Y0144810D02*
X0052700Y0144810D01*
X0052700Y0143212D02*
X0053650Y0143212D01*
X0053650Y0141613D02*
X0052700Y0141613D01*
X0052700Y0140015D02*
X0053650Y0140015D01*
X0053650Y0138416D02*
X0052700Y0138416D01*
X0052700Y0136818D02*
X0053650Y0136818D01*
X0053650Y0135219D02*
X0052700Y0135219D01*
X0052700Y0133620D02*
X0053650Y0133620D01*
X0053650Y0132022D02*
X0052700Y0132022D01*
X0052700Y0130423D02*
X0053650Y0130423D01*
X0053650Y0128825D02*
X0052700Y0128825D01*
X0052700Y0127226D02*
X0053650Y0127226D01*
X0053650Y0125628D02*
X0052700Y0125628D01*
X0052700Y0124029D02*
X0053650Y0124029D01*
X0053650Y0122431D02*
X0052700Y0122431D01*
X0052700Y0120832D02*
X0053650Y0120832D01*
X0053650Y0119234D02*
X0052700Y0119234D01*
X0052700Y0117635D02*
X0053650Y0117635D01*
X0053650Y0116037D02*
X0052700Y0116037D01*
X0052700Y0114438D02*
X0053109Y0114438D01*
X0052859Y0112840D02*
X0052700Y0112840D01*
X0052700Y0111241D02*
X0053804Y0111241D01*
X0052700Y0109643D02*
X0057400Y0109643D01*
X0057400Y0111241D02*
X0057296Y0111241D01*
X0057400Y0108044D02*
X0052700Y0108044D01*
X0052700Y0106446D02*
X0057400Y0106446D01*
X0057042Y0104847D02*
X0052700Y0104847D01*
X0052700Y0103249D02*
X0056609Y0103249D01*
X0057145Y0101650D02*
X0052700Y0101650D01*
X0052700Y0100052D02*
X0060888Y0100052D01*
X0060891Y0098453D02*
X0052700Y0098453D01*
X0052826Y0096855D02*
X0060894Y0096855D01*
X0060897Y0095256D02*
X0053781Y0095256D01*
X0054164Y0094873D02*
X0054164Y0094873D01*
X0055379Y0093658D02*
X0060109Y0093658D01*
X0060402Y0092059D02*
X0056978Y0092059D01*
X0058576Y0090461D02*
X0064666Y0090461D01*
X0065328Y0088862D02*
X0060175Y0088862D01*
X0061773Y0087264D02*
X0066399Y0087264D01*
X0064970Y0084067D02*
X0068150Y0084067D01*
X0068150Y0082468D02*
X0066569Y0082468D01*
X0068167Y0080870D02*
X0068753Y0080870D01*
X0069766Y0079271D02*
X0070149Y0079271D01*
X0067998Y0085665D02*
X0063372Y0085665D01*
X0062793Y0080870D02*
X0058167Y0080870D01*
X0059766Y0079271D02*
X0064392Y0079271D01*
X0059187Y0074476D02*
X0054561Y0074476D01*
X0052963Y0076074D02*
X0057589Y0076074D01*
X0055990Y0077673D02*
X0051364Y0077673D01*
X0052793Y0080870D02*
X0048167Y0080870D01*
X0049766Y0079271D02*
X0054392Y0079271D01*
X0051195Y0082468D02*
X0046569Y0082468D01*
X0045164Y0083873D02*
X0045164Y0083873D01*
X0044970Y0084067D02*
X0049596Y0084067D01*
X0047998Y0085665D02*
X0043905Y0085665D01*
X0043700Y0087264D02*
X0046399Y0087264D01*
X0046421Y0087242D02*
X0046421Y0087242D01*
X0046977Y0086686D02*
X0046977Y0086686D01*
X0045181Y0088862D02*
X0043700Y0088862D01*
X0043700Y0090461D02*
X0044519Y0090461D01*
X0044400Y0092059D02*
X0043700Y0092059D01*
X0043700Y0093658D02*
X0044400Y0093658D01*
X0044400Y0095256D02*
X0043700Y0095256D01*
X0043700Y0096855D02*
X0044400Y0096855D01*
X0044400Y0098453D02*
X0043700Y0098453D01*
X0043700Y0100052D02*
X0044400Y0100052D01*
X0044400Y0101650D02*
X0043700Y0101650D01*
X0043700Y0103249D02*
X0044400Y0103249D01*
X0044400Y0104847D02*
X0043700Y0104847D01*
X0043700Y0106446D02*
X0044400Y0106446D01*
X0044400Y0108044D02*
X0043700Y0108044D01*
X0043700Y0109643D02*
X0044400Y0109643D01*
X0044400Y0111241D02*
X0043700Y0111241D01*
X0043700Y0112840D02*
X0044400Y0112840D01*
X0044400Y0114438D02*
X0043700Y0114438D01*
X0043700Y0116037D02*
X0044400Y0116037D01*
X0044400Y0117635D02*
X0043700Y0117635D01*
X0043700Y0119234D02*
X0044400Y0119234D01*
X0044400Y0120832D02*
X0043700Y0120832D01*
X0043700Y0122431D02*
X0044400Y0122431D01*
X0044400Y0124029D02*
X0043700Y0124029D01*
X0043700Y0125628D02*
X0044400Y0125628D01*
X0044400Y0127226D02*
X0043700Y0127226D01*
X0043700Y0128825D02*
X0044400Y0128825D01*
X0044400Y0130423D02*
X0043700Y0130423D01*
X0043700Y0132022D02*
X0044400Y0132022D01*
X0044400Y0133620D02*
X0043700Y0133620D01*
X0043700Y0135219D02*
X0044400Y0135219D01*
X0044400Y0136818D02*
X0043700Y0136818D01*
X0043700Y0138416D02*
X0044400Y0138416D01*
X0044400Y0140015D02*
X0043700Y0140015D01*
X0043700Y0141613D02*
X0044400Y0141613D01*
X0044400Y0143212D02*
X0043700Y0143212D01*
X0043700Y0144810D02*
X0044400Y0144810D01*
X0044400Y0146409D02*
X0043700Y0146409D01*
X0043700Y0148007D02*
X0044400Y0148007D01*
X0044400Y0149606D02*
X0043700Y0149606D01*
X0043700Y0151204D02*
X0044400Y0151204D01*
X0044400Y0152803D02*
X0043700Y0152803D01*
X0043700Y0154401D02*
X0044400Y0154401D01*
X0044400Y0156000D02*
X0043700Y0156000D01*
X0043700Y0157598D02*
X0044400Y0157598D01*
X0044400Y0159197D02*
X0043700Y0159197D01*
X0043700Y0160795D02*
X0044400Y0160795D01*
X0044400Y0162394D02*
X0043700Y0162394D01*
X0043700Y0163992D02*
X0044400Y0163992D01*
X0044400Y0165591D02*
X0043700Y0165591D01*
X0043700Y0167189D02*
X0044400Y0167189D01*
X0044400Y0168788D02*
X0043700Y0168788D01*
X0043700Y0170386D02*
X0044400Y0170386D01*
X0044400Y0171985D02*
X0043700Y0171985D01*
X0043700Y0173583D02*
X0044400Y0173583D01*
X0044400Y0175182D02*
X0043700Y0175182D01*
X0043700Y0176780D02*
X0044400Y0176780D01*
X0044400Y0178379D02*
X0043700Y0178379D01*
X0043700Y0179977D02*
X0044400Y0179977D01*
X0044400Y0181576D02*
X0043700Y0181576D01*
X0043700Y0183174D02*
X0044400Y0183174D01*
X0044400Y0184773D02*
X0043700Y0184773D01*
X0043700Y0186371D02*
X0044400Y0186371D01*
X0044400Y0187970D02*
X0043700Y0187970D01*
X0043700Y0189568D02*
X0044400Y0189568D01*
X0044400Y0191167D02*
X0043700Y0191167D01*
X0043700Y0192765D02*
X0044400Y0192765D01*
X0044400Y0194364D02*
X0043700Y0194364D01*
X0043700Y0195962D02*
X0044400Y0195962D01*
X0044400Y0197561D02*
X0043700Y0197561D01*
X0043700Y0199159D02*
X0044400Y0199159D01*
X0044400Y0200758D02*
X0043700Y0200758D01*
X0044321Y0202356D02*
X0044400Y0202356D01*
X0039900Y0191167D02*
X0039200Y0191167D01*
X0039200Y0189568D02*
X0039900Y0189568D01*
X0039900Y0187970D02*
X0039200Y0187970D01*
X0039200Y0186371D02*
X0039900Y0186371D01*
X0039900Y0184773D02*
X0039200Y0184773D01*
X0039200Y0183174D02*
X0039900Y0183174D01*
X0039900Y0181576D02*
X0039200Y0181576D01*
X0039200Y0179977D02*
X0039900Y0179977D01*
X0039900Y0178379D02*
X0039200Y0178379D01*
X0039200Y0176780D02*
X0039900Y0176780D01*
X0039900Y0175182D02*
X0039200Y0175182D01*
X0039200Y0173583D02*
X0039900Y0173583D01*
X0039900Y0171985D02*
X0039200Y0171985D01*
X0039200Y0170386D02*
X0039900Y0170386D01*
X0039900Y0168788D02*
X0039200Y0168788D01*
X0039200Y0167189D02*
X0039900Y0167189D01*
X0039900Y0165591D02*
X0039200Y0165591D01*
X0039200Y0163992D02*
X0039900Y0163992D01*
X0039900Y0162394D02*
X0039200Y0162394D01*
X0039200Y0160795D02*
X0039900Y0160795D01*
X0039900Y0159197D02*
X0039200Y0159197D01*
X0039200Y0157598D02*
X0039900Y0157598D01*
X0039900Y0156000D02*
X0039200Y0156000D01*
X0039200Y0154401D02*
X0039900Y0154401D01*
X0039900Y0152803D02*
X0039200Y0152803D01*
X0039200Y0151204D02*
X0039900Y0151204D01*
X0039900Y0149606D02*
X0039200Y0149606D01*
X0039200Y0148007D02*
X0039900Y0148007D01*
X0039900Y0146409D02*
X0039200Y0146409D01*
X0039200Y0144810D02*
X0039900Y0144810D01*
X0039900Y0143212D02*
X0039200Y0143212D01*
X0039200Y0141613D02*
X0039900Y0141613D01*
X0039900Y0140015D02*
X0039200Y0140015D01*
X0039200Y0138416D02*
X0039900Y0138416D01*
X0039900Y0136818D02*
X0039200Y0136818D01*
X0039200Y0135219D02*
X0039900Y0135219D01*
X0039900Y0133620D02*
X0039200Y0133620D01*
X0039200Y0132022D02*
X0039900Y0132022D01*
X0039900Y0130423D02*
X0039200Y0130423D01*
X0039200Y0128825D02*
X0039900Y0128825D01*
X0039900Y0127226D02*
X0039200Y0127226D01*
X0039200Y0125628D02*
X0039900Y0125628D01*
X0039900Y0124029D02*
X0039200Y0124029D01*
X0039200Y0122431D02*
X0039900Y0122431D01*
X0039900Y0120832D02*
X0039200Y0120832D01*
X0039200Y0119234D02*
X0039900Y0119234D01*
X0039900Y0117635D02*
X0039200Y0117635D01*
X0039200Y0116037D02*
X0039900Y0116037D01*
X0039900Y0114438D02*
X0039200Y0114438D01*
X0039200Y0112840D02*
X0039900Y0112840D01*
X0039900Y0111241D02*
X0039200Y0111241D01*
X0039200Y0109643D02*
X0039900Y0109643D01*
X0039900Y0108044D02*
X0039200Y0108044D01*
X0039200Y0106446D02*
X0039900Y0106446D01*
X0039900Y0104847D02*
X0039200Y0104847D01*
X0039200Y0103249D02*
X0039900Y0103249D01*
X0039900Y0101650D02*
X0039200Y0101650D01*
X0039200Y0100052D02*
X0039900Y0100052D01*
X0039900Y0098453D02*
X0039200Y0098453D01*
X0039200Y0096855D02*
X0039900Y0096855D01*
X0039900Y0095256D02*
X0039200Y0095256D01*
X0039200Y0093658D02*
X0039900Y0093658D01*
X0039900Y0092059D02*
X0039200Y0092059D01*
X0039200Y0090461D02*
X0039900Y0090461D01*
X0039900Y0088862D02*
X0039200Y0088862D01*
X0039200Y0087264D02*
X0039900Y0087264D01*
X0039900Y0085665D02*
X0039200Y0085665D01*
X0039200Y0084067D02*
X0040390Y0084067D01*
X0041195Y0082468D02*
X0039200Y0082468D01*
X0039225Y0080870D02*
X0042793Y0080870D01*
X0042477Y0081186D02*
X0042477Y0081186D01*
X0041921Y0081742D02*
X0041921Y0081742D01*
X0040664Y0078373D02*
X0040664Y0078373D01*
X0041364Y0077673D02*
X0045990Y0077673D01*
X0044392Y0079271D02*
X0039827Y0079271D01*
X0042963Y0076074D02*
X0047589Y0076074D01*
X0049187Y0074476D02*
X0044561Y0074476D01*
X0051773Y0087264D02*
X0056399Y0087264D01*
X0062145Y0056892D02*
X0066771Y0056892D01*
X0075230Y0048899D02*
X0079900Y0048899D01*
X0079900Y0047301D02*
X0075979Y0047301D01*
X0077359Y0045702D02*
X0079900Y0045702D01*
X0079898Y0044104D02*
X0077950Y0044104D01*
X0077950Y0042505D02*
X0079422Y0042505D01*
X0077970Y0040907D02*
X0077362Y0040907D01*
X0076371Y0039308D02*
X0075988Y0039308D01*
X0077851Y0034513D02*
X0081500Y0034513D01*
X0081500Y0036111D02*
X0078548Y0036111D01*
X0080147Y0037710D02*
X0081500Y0037710D01*
X0081500Y0032914D02*
X0077950Y0032914D01*
X0077532Y0031316D02*
X0081500Y0031316D01*
X0081500Y0016929D02*
X0076916Y0016929D01*
X0077963Y0015331D02*
X0081500Y0015331D01*
X0081500Y0013732D02*
X0078348Y0013732D01*
X0078350Y0013100D02*
X0073250Y0013100D01*
X0073250Y0008000D01*
X0073467Y0008000D01*
X0074291Y0008130D01*
X0075084Y0008388D01*
X0075828Y0008767D01*
X0076503Y0009257D01*
X0077093Y0009847D01*
X0077583Y0010522D01*
X0077962Y0011266D01*
X0078219Y0012059D01*
X0078350Y0012883D01*
X0078350Y0013100D01*
X0078231Y0012134D02*
X0081500Y0012134D01*
X0081366Y0010535D02*
X0077590Y0010535D01*
X0078057Y0005740D02*
X0008043Y0005740D01*
X0006252Y0007338D02*
X0079848Y0007338D01*
X0080847Y0008937D02*
X0076061Y0008937D01*
X0073250Y0008937D02*
X0072850Y0008937D01*
X0072850Y0010535D02*
X0073250Y0010535D01*
X0073250Y0012134D02*
X0072850Y0012134D01*
X0070039Y0008937D02*
X0015320Y0008937D01*
X0017208Y0010535D02*
X0068510Y0010535D01*
X0077178Y0050498D02*
X0079900Y0050498D01*
X0079900Y0052096D02*
X0077855Y0052096D01*
X0077950Y0053695D02*
X0079900Y0053695D01*
X0079900Y0055293D02*
X0077528Y0055293D01*
X0076360Y0069680D02*
X0079900Y0069680D01*
X0079900Y0071279D02*
X0077516Y0071279D01*
X0077950Y0072877D02*
X0079900Y0072877D01*
X0079900Y0074476D02*
X0077867Y0074476D01*
X0077205Y0076074D02*
X0079900Y0076074D01*
X0079900Y0077673D02*
X0075298Y0077673D01*
X0075951Y0079271D02*
X0079900Y0079271D01*
X0079900Y0080870D02*
X0077347Y0080870D01*
X0077950Y0082468D02*
X0079900Y0082468D01*
X0079900Y0084067D02*
X0077950Y0084067D01*
X0077374Y0085665D02*
X0079900Y0085665D01*
X0079900Y0087264D02*
X0076016Y0087264D01*
X0075140Y0088862D02*
X0079900Y0088862D01*
X0079900Y0090461D02*
X0077140Y0090461D01*
X0077840Y0092059D02*
X0079900Y0092059D01*
X0079900Y0093658D02*
X0077950Y0093658D01*
X0077543Y0095256D02*
X0079900Y0095256D01*
X0079900Y0096855D02*
X0076425Y0096855D01*
X0076731Y0100052D02*
X0079900Y0100052D01*
X0079900Y0101650D02*
X0077670Y0101650D01*
X0077950Y0103249D02*
X0079900Y0103249D01*
X0079900Y0104847D02*
X0077713Y0104847D01*
X0076834Y0106446D02*
X0079900Y0106446D01*
X0079900Y0108044D02*
X0074401Y0108044D01*
X0076322Y0109643D02*
X0079900Y0109643D01*
X0079900Y0111241D02*
X0077501Y0111241D01*
X0077950Y0112840D02*
X0079900Y0112840D01*
X0079900Y0114438D02*
X0077882Y0114438D01*
X0077220Y0116037D02*
X0079900Y0116037D01*
X0079900Y0117635D02*
X0075388Y0117635D01*
X0076470Y0119234D02*
X0079900Y0119234D01*
X0079900Y0120832D02*
X0077741Y0120832D01*
X0078278Y0122431D02*
X0079900Y0122431D01*
X0079900Y0124029D02*
X0078301Y0124029D01*
X0078350Y0123717D02*
X0078219Y0124541D01*
X0077962Y0125334D01*
X0077583Y0126078D01*
X0077093Y0126753D01*
X0076503Y0127343D01*
X0075828Y0127833D01*
X0075084Y0128212D01*
X0074291Y0128469D01*
X0073467Y0128600D01*
X0073250Y0128600D01*
X0073250Y0123500D01*
X0078350Y0123500D01*
X0078350Y0123717D01*
X0077812Y0125628D02*
X0079900Y0125628D01*
X0079900Y0127226D02*
X0076619Y0127226D01*
X0079900Y0128825D02*
X0068450Y0128825D01*
X0068450Y0130423D02*
X0079900Y0130423D01*
X0079900Y0132022D02*
X0068450Y0132022D01*
X0068450Y0133620D02*
X0079900Y0133620D01*
X0079900Y0135219D02*
X0068450Y0135219D01*
X0068450Y0136818D02*
X0079900Y0136818D01*
X0079900Y0138416D02*
X0068450Y0138416D01*
X0068450Y0140015D02*
X0079900Y0140015D01*
X0079900Y0141613D02*
X0068450Y0141613D01*
X0068450Y0143212D02*
X0079900Y0143212D01*
X0079900Y0144810D02*
X0068450Y0144810D01*
X0068450Y0146409D02*
X0079900Y0146409D01*
X0079900Y0148007D02*
X0068450Y0148007D01*
X0068450Y0149606D02*
X0079900Y0149606D01*
X0079900Y0151204D02*
X0068450Y0151204D01*
X0068450Y0152803D02*
X0079900Y0152803D01*
X0079900Y0154401D02*
X0068450Y0154401D01*
X0068450Y0156000D02*
X0079900Y0156000D01*
X0079900Y0157598D02*
X0068450Y0157598D01*
X0068450Y0159197D02*
X0079900Y0159197D01*
X0079900Y0160795D02*
X0068450Y0160795D01*
X0068450Y0162394D02*
X0079884Y0162394D01*
X0079344Y0163992D02*
X0068450Y0163992D01*
X0068450Y0165591D02*
X0077822Y0165591D01*
X0079519Y0170386D02*
X0081500Y0170386D01*
X0081500Y0168788D02*
X0080491Y0168788D01*
X0081500Y0171985D02*
X0068450Y0171985D01*
X0068450Y0173583D02*
X0081500Y0173583D01*
X0081500Y0175182D02*
X0068450Y0175182D01*
X0068450Y0176780D02*
X0081500Y0176780D01*
X0081500Y0178379D02*
X0068450Y0178379D01*
X0068450Y0179977D02*
X0081500Y0179977D01*
X0081500Y0181576D02*
X0068450Y0181576D01*
X0068450Y0183174D02*
X0081500Y0183174D01*
X0081500Y0184773D02*
X0068450Y0184773D01*
X0068450Y0186371D02*
X0081500Y0186371D01*
X0081500Y0187970D02*
X0068450Y0187970D01*
X0068450Y0189568D02*
X0081500Y0189568D01*
X0081500Y0191167D02*
X0068450Y0191167D01*
X0068450Y0192765D02*
X0081500Y0192765D01*
X0081500Y0194364D02*
X0068450Y0194364D01*
X0068450Y0195962D02*
X0081500Y0195962D01*
X0081500Y0197561D02*
X0068450Y0197561D01*
X0068450Y0199159D02*
X0081500Y0199159D01*
X0081500Y0200758D02*
X0068450Y0200758D01*
X0068450Y0202356D02*
X0081500Y0202356D01*
X0081500Y0203955D02*
X0068450Y0203955D01*
X0068450Y0205553D02*
X0081500Y0205553D01*
X0081500Y0207152D02*
X0068450Y0207152D01*
X0068450Y0208751D02*
X0081500Y0208751D01*
X0081500Y0210349D02*
X0068450Y0210349D01*
X0068450Y0211948D02*
X0081500Y0211948D01*
X0081500Y0213546D02*
X0068450Y0213546D01*
X0068450Y0215145D02*
X0081500Y0215145D01*
X0081500Y0216743D02*
X0068450Y0216743D01*
X0068450Y0218342D02*
X0081500Y0218342D01*
X0081500Y0219940D02*
X0068450Y0219940D01*
X0068450Y0221539D02*
X0081500Y0221539D01*
X0081500Y0223137D02*
X0068450Y0223137D01*
X0068450Y0224736D02*
X0081500Y0224736D01*
X0081500Y0226334D02*
X0069639Y0226334D01*
X0070707Y0227933D02*
X0081500Y0227933D01*
X0081500Y0229531D02*
X0070556Y0229531D01*
X0068853Y0231130D02*
X0081500Y0231130D01*
X0081500Y0232728D02*
X0065122Y0232728D01*
X0065141Y0234327D02*
X0081500Y0234327D01*
X0081500Y0235925D02*
X0063846Y0235925D01*
X0064454Y0231130D02*
X0067247Y0231130D01*
X0065544Y0229531D02*
X0064457Y0229531D01*
X0064460Y0227933D02*
X0065296Y0227933D01*
X0064705Y0226334D02*
X0064463Y0226334D01*
X0064466Y0224736D02*
X0064650Y0224736D01*
X0064650Y0223137D02*
X0064469Y0223137D01*
X0064471Y0221539D02*
X0064650Y0221539D01*
X0064650Y0219940D02*
X0064474Y0219940D01*
X0064477Y0218342D02*
X0064650Y0218342D01*
X0064650Y0216743D02*
X0064480Y0216743D01*
X0064483Y0215145D02*
X0064650Y0215145D01*
X0064650Y0213546D02*
X0064486Y0213546D01*
X0064489Y0211948D02*
X0064650Y0211948D01*
X0064650Y0210349D02*
X0064491Y0210349D01*
X0064494Y0208751D02*
X0064650Y0208751D01*
X0064650Y0207152D02*
X0064497Y0207152D01*
X0064500Y0205553D02*
X0064650Y0205553D01*
X0064650Y0203955D02*
X0064503Y0203955D01*
X0064506Y0202356D02*
X0064650Y0202356D01*
X0064650Y0200758D02*
X0064508Y0200758D01*
X0064511Y0199159D02*
X0064650Y0199159D01*
X0064650Y0197561D02*
X0064514Y0197561D01*
X0064517Y0195962D02*
X0064650Y0195962D01*
X0064650Y0194364D02*
X0064520Y0194364D01*
X0064523Y0192765D02*
X0064650Y0192765D01*
X0064650Y0191167D02*
X0064526Y0191167D01*
X0064528Y0189568D02*
X0064650Y0189568D01*
X0064650Y0187970D02*
X0064531Y0187970D01*
X0064534Y0186371D02*
X0064650Y0186371D01*
X0064650Y0184773D02*
X0064537Y0184773D01*
X0064540Y0183174D02*
X0064650Y0183174D01*
X0064650Y0181576D02*
X0064543Y0181576D01*
X0064545Y0179977D02*
X0064650Y0179977D01*
X0064650Y0178379D02*
X0064548Y0178379D01*
X0064551Y0176780D02*
X0064650Y0176780D01*
X0064650Y0175182D02*
X0064554Y0175182D01*
X0064557Y0173583D02*
X0064650Y0173583D01*
X0064650Y0171985D02*
X0064560Y0171985D01*
X0064563Y0170386D02*
X0064650Y0170386D01*
X0064650Y0168788D02*
X0064565Y0168788D01*
X0064568Y0167189D02*
X0064650Y0167189D01*
X0064650Y0165591D02*
X0064571Y0165591D01*
X0064574Y0163992D02*
X0064650Y0163992D01*
X0064650Y0162394D02*
X0064577Y0162394D01*
X0064580Y0160795D02*
X0064650Y0160795D01*
X0064650Y0159197D02*
X0064583Y0159197D01*
X0064585Y0157598D02*
X0064650Y0157598D01*
X0064650Y0156000D02*
X0064588Y0156000D01*
X0064591Y0154401D02*
X0064650Y0154401D01*
X0064594Y0152803D02*
X0064650Y0152803D01*
X0064597Y0151204D02*
X0064650Y0151204D01*
X0064600Y0149606D02*
X0064650Y0149606D01*
X0064602Y0148007D02*
X0064650Y0148007D01*
X0064605Y0146409D02*
X0064650Y0146409D01*
X0064608Y0144810D02*
X0064650Y0144810D01*
X0064611Y0143212D02*
X0064650Y0143212D01*
X0064614Y0141613D02*
X0064650Y0141613D01*
X0064617Y0140015D02*
X0064650Y0140015D01*
X0064620Y0138416D02*
X0064650Y0138416D01*
X0064622Y0136818D02*
X0064650Y0136818D01*
X0064625Y0135219D02*
X0064650Y0135219D01*
X0064628Y0133620D02*
X0064650Y0133620D01*
X0064631Y0132022D02*
X0064650Y0132022D01*
X0064634Y0130423D02*
X0064650Y0130423D01*
X0064637Y0128825D02*
X0064650Y0128825D01*
X0064640Y0127226D02*
X0064650Y0127226D01*
X0064642Y0125628D02*
X0064650Y0125628D01*
X0064645Y0124029D02*
X0064650Y0124029D01*
X0064648Y0122431D02*
X0064650Y0122431D01*
X0068450Y0127226D02*
X0069481Y0127226D01*
X0072850Y0127226D02*
X0073250Y0127226D01*
X0073250Y0125628D02*
X0072850Y0125628D01*
X0072850Y0124029D02*
X0073250Y0124029D01*
X0068599Y0111241D02*
X0068450Y0111241D01*
X0068450Y0109643D02*
X0069778Y0109643D01*
X0069266Y0106446D02*
X0068450Y0106446D01*
X0068450Y0108044D02*
X0071699Y0108044D01*
X0069369Y0100052D02*
X0068450Y0100052D01*
X0068450Y0098453D02*
X0071947Y0098453D01*
X0074153Y0098453D02*
X0079900Y0098453D01*
X0070960Y0088862D02*
X0070175Y0088862D01*
X0069914Y0089123D02*
X0069914Y0089123D01*
X0068960Y0090461D02*
X0068843Y0090461D01*
X0068557Y0095256D02*
X0068450Y0095256D01*
X0068450Y0096855D02*
X0069675Y0096855D01*
X0068450Y0167189D02*
X0075348Y0167189D01*
X0075109Y0168788D02*
X0068450Y0168788D01*
X0068450Y0170386D02*
X0076081Y0170386D01*
X0057400Y0231130D02*
X0056921Y0231130D01*
X0057400Y0232728D02*
X0056059Y0232728D01*
X0055666Y0240721D02*
X0004600Y0240721D01*
X0004600Y0242319D02*
X0081500Y0242319D01*
X0081500Y0240721D02*
X0059434Y0240721D01*
X0060241Y0239122D02*
X0081500Y0239122D01*
X0081500Y0237524D02*
X0060693Y0237524D01*
X0060318Y0238522D02*
X0060318Y0238522D01*
X0061200Y0235925D02*
X0061254Y0235925D01*
X0070313Y0269494D02*
X0037850Y0269494D01*
X0037850Y0267895D02*
X0073619Y0267895D01*
X0075623Y0266297D02*
X0037850Y0266297D01*
X0037850Y0264698D02*
X0077237Y0264698D01*
X0078512Y0263100D02*
X0033750Y0263100D01*
X0033750Y0261501D02*
X0032350Y0261501D01*
X0032350Y0259903D02*
X0033750Y0259903D01*
X0033750Y0258304D02*
X0032350Y0258304D01*
X0032350Y0256706D02*
X0033750Y0256706D01*
X0033750Y0255107D02*
X0032350Y0255107D01*
X0032350Y0253509D02*
X0033750Y0253509D01*
X0036320Y0253509D02*
X0081500Y0253509D01*
X0081500Y0251910D02*
X0004600Y0251910D01*
X0004600Y0250312D02*
X0081500Y0250312D01*
X0081500Y0248713D02*
X0004600Y0248713D01*
X0004600Y0247115D02*
X0081500Y0247115D01*
X0081500Y0245516D02*
X0004600Y0245516D01*
X0004600Y0243918D02*
X0081500Y0243918D01*
X0081416Y0255107D02*
X0037850Y0255107D01*
X0037850Y0256706D02*
X0081120Y0256706D01*
X0080755Y0258304D02*
X0037850Y0258304D01*
X0037850Y0259903D02*
X0080210Y0259903D01*
X0079440Y0261501D02*
X0037850Y0261501D01*
X0032350Y0263100D02*
X0027327Y0263100D01*
X0027403Y0262916D02*
X0026740Y0264516D01*
X0025516Y0265740D01*
X0023916Y0266403D01*
X0022184Y0266403D01*
X0020584Y0265740D01*
X0019360Y0264516D01*
X0018697Y0262916D01*
X0018697Y0261184D01*
X0019360Y0259584D01*
X0020584Y0258360D01*
X0022184Y0257697D01*
X0023916Y0257697D01*
X0025516Y0258360D01*
X0026740Y0259584D01*
X0027403Y0261184D01*
X0027403Y0262916D01*
X0027403Y0261501D02*
X0028250Y0261501D01*
X0028250Y0259903D02*
X0026872Y0259903D01*
X0028250Y0258304D02*
X0025382Y0258304D01*
X0028250Y0256706D02*
X0017850Y0256706D01*
X0017850Y0258304D02*
X0020718Y0258304D01*
X0019228Y0259903D02*
X0017850Y0259903D01*
X0017850Y0261501D02*
X0018697Y0261501D01*
X0018773Y0263100D02*
X0013750Y0263100D01*
X0013750Y0261501D02*
X0012350Y0261501D01*
X0012350Y0259903D02*
X0013750Y0259903D01*
X0013750Y0258304D02*
X0012350Y0258304D01*
X0012350Y0256706D02*
X0013750Y0256706D01*
X0013750Y0255107D02*
X0012350Y0255107D01*
X0012350Y0253509D02*
X0013750Y0253509D01*
X0016320Y0253509D02*
X0029780Y0253509D01*
X0028250Y0255107D02*
X0017850Y0255107D01*
X0017850Y0264698D02*
X0019543Y0264698D01*
X0017850Y0266297D02*
X0021929Y0266297D01*
X0024171Y0266297D02*
X0028250Y0266297D01*
X0028250Y0267895D02*
X0017850Y0267895D01*
X0017850Y0269494D02*
X0028250Y0269494D01*
X0028250Y0264698D02*
X0026557Y0264698D01*
X0012350Y0263100D02*
X0004600Y0263100D01*
X0004600Y0264698D02*
X0008250Y0264698D01*
X0008250Y0266297D02*
X0004600Y0266297D01*
X0004600Y0267895D02*
X0008250Y0267895D01*
X0008250Y0269494D02*
X0004959Y0269494D01*
X0004600Y0261501D02*
X0008250Y0261501D01*
X0008250Y0259903D02*
X0004600Y0259903D01*
X0004600Y0258304D02*
X0008250Y0258304D01*
X0008250Y0256706D02*
X0004600Y0256706D01*
X0004600Y0255107D02*
X0008250Y0255107D01*
X0009780Y0253509D02*
X0004600Y0253509D01*
X0026200Y0205553D02*
X0026998Y0205553D01*
X0030431Y0195962D02*
X0031197Y0195962D01*
X0029900Y0104847D02*
X0029623Y0104847D01*
X0029152Y0103713D02*
X0029152Y0103713D01*
X0028688Y0103249D02*
X0029900Y0103249D01*
X0009341Y0026520D02*
X0004600Y0026520D01*
X0004600Y0024922D02*
X0008418Y0024922D01*
X0008150Y0023323D02*
X0004600Y0023323D01*
X0004600Y0021725D02*
X0008399Y0021725D01*
X0010780Y0008937D02*
X0005253Y0008937D01*
D16*
X0055550Y0113300D03*
X0059300Y0103300D03*
X0062800Y0093300D03*
X0077800Y0168300D03*
X0068050Y0228550D03*
X0062550Y0233550D03*
X0057550Y0238800D03*
X0050800Y0223300D03*
X0046300Y0213300D03*
X0041800Y0203300D03*
X0037300Y0193300D03*
X0031800Y0193300D03*
X0028550Y0203300D03*
X0024300Y0213300D03*
X0019300Y0223300D03*
X0019050Y0233300D03*
X0019050Y0247800D03*
X0019050Y0252050D03*
X0027050Y0252050D03*
X0027050Y0247550D03*
X0049800Y0236300D03*
D17*
X0054086Y0232014D01*
X0059300Y0234921D02*
X0059298Y0235059D01*
X0059292Y0235197D01*
X0059283Y0235335D01*
X0059269Y0235473D01*
X0059252Y0235610D01*
X0059231Y0235747D01*
X0059207Y0235883D01*
X0059178Y0236018D01*
X0059146Y0236152D01*
X0059110Y0236286D01*
X0059071Y0236418D01*
X0059027Y0236550D01*
X0058981Y0236680D01*
X0058930Y0236808D01*
X0058876Y0236936D01*
X0058819Y0237061D01*
X0058758Y0237185D01*
X0058694Y0237308D01*
X0058626Y0237428D01*
X0058555Y0237547D01*
X0058481Y0237664D01*
X0058403Y0237778D01*
X0058323Y0237890D01*
X0058239Y0238001D01*
X0058152Y0238108D01*
X0058063Y0238214D01*
X0057550Y0238800D01*
X0059300Y0234921D02*
X0059300Y0103300D01*
X0050800Y0097621D02*
X0050802Y0097481D01*
X0050808Y0097341D01*
X0050818Y0097201D01*
X0050831Y0097061D01*
X0050849Y0096922D01*
X0050871Y0096783D01*
X0050896Y0096646D01*
X0050925Y0096508D01*
X0050958Y0096372D01*
X0050995Y0096237D01*
X0051036Y0096103D01*
X0051081Y0095970D01*
X0051129Y0095838D01*
X0051181Y0095708D01*
X0051236Y0095579D01*
X0051295Y0095452D01*
X0051358Y0095326D01*
X0051424Y0095202D01*
X0051493Y0095081D01*
X0051566Y0094961D01*
X0051643Y0094843D01*
X0051722Y0094728D01*
X0051805Y0094614D01*
X0051891Y0094504D01*
X0051980Y0094395D01*
X0052072Y0094289D01*
X0052167Y0094186D01*
X0052264Y0094085D01*
X0052264Y0094086D02*
X0073050Y0073300D01*
X0073050Y0063300D02*
X0047764Y0088586D01*
X0041800Y0086621D02*
X0041802Y0086481D01*
X0041808Y0086341D01*
X0041818Y0086201D01*
X0041831Y0086061D01*
X0041849Y0085922D01*
X0041871Y0085783D01*
X0041896Y0085646D01*
X0041925Y0085508D01*
X0041958Y0085372D01*
X0041995Y0085237D01*
X0042036Y0085103D01*
X0042081Y0084970D01*
X0042129Y0084838D01*
X0042181Y0084708D01*
X0042236Y0084579D01*
X0042295Y0084452D01*
X0042358Y0084326D01*
X0042424Y0084202D01*
X0042493Y0084081D01*
X0042566Y0083961D01*
X0042643Y0083843D01*
X0042722Y0083728D01*
X0042805Y0083614D01*
X0042891Y0083504D01*
X0042980Y0083395D01*
X0043072Y0083289D01*
X0043167Y0083186D01*
X0043264Y0083085D01*
X0043264Y0083086D02*
X0073050Y0053300D01*
X0081800Y0044121D02*
X0081798Y0043981D01*
X0081792Y0043841D01*
X0081782Y0043701D01*
X0081769Y0043561D01*
X0081751Y0043422D01*
X0081729Y0043283D01*
X0081704Y0043146D01*
X0081675Y0043008D01*
X0081642Y0042872D01*
X0081605Y0042737D01*
X0081564Y0042603D01*
X0081519Y0042470D01*
X0081471Y0042338D01*
X0081419Y0042208D01*
X0081364Y0042079D01*
X0081305Y0041952D01*
X0081242Y0041826D01*
X0081176Y0041702D01*
X0081107Y0041581D01*
X0081034Y0041461D01*
X0080957Y0041343D01*
X0080878Y0041228D01*
X0080795Y0041114D01*
X0080709Y0041004D01*
X0080620Y0040895D01*
X0080528Y0040789D01*
X0080433Y0040686D01*
X0080336Y0040585D01*
X0080336Y0040586D02*
X0073050Y0033300D01*
X0073050Y0043300D02*
X0038764Y0077586D01*
X0037300Y0081121D02*
X0037300Y0193300D01*
X0041800Y0203300D02*
X0041800Y0086621D01*
X0037300Y0081121D02*
X0037302Y0080981D01*
X0037308Y0080841D01*
X0037318Y0080701D01*
X0037331Y0080561D01*
X0037349Y0080422D01*
X0037371Y0080283D01*
X0037396Y0080146D01*
X0037425Y0080008D01*
X0037458Y0079872D01*
X0037495Y0079737D01*
X0037536Y0079603D01*
X0037581Y0079470D01*
X0037629Y0079338D01*
X0037681Y0079208D01*
X0037736Y0079079D01*
X0037795Y0078952D01*
X0037858Y0078826D01*
X0037924Y0078702D01*
X0037993Y0078581D01*
X0038066Y0078461D01*
X0038143Y0078343D01*
X0038222Y0078228D01*
X0038305Y0078114D01*
X0038391Y0078004D01*
X0038480Y0077895D01*
X0038572Y0077789D01*
X0038667Y0077686D01*
X0038764Y0077585D01*
X0031800Y0095621D02*
X0031800Y0193300D01*
X0028550Y0203300D02*
X0028305Y0107612D01*
X0026841Y0104089D02*
X0024398Y0101646D01*
X0024398Y0094954D02*
X0022523Y0093920D01*
X0020110Y0093300D02*
X0013050Y0093300D01*
X0013050Y0083300D02*
X0019479Y0083300D01*
X0019619Y0083302D01*
X0019759Y0083308D01*
X0019899Y0083318D01*
X0020039Y0083331D01*
X0020178Y0083349D01*
X0020317Y0083371D01*
X0020454Y0083396D01*
X0020592Y0083425D01*
X0020728Y0083458D01*
X0020863Y0083495D01*
X0020997Y0083536D01*
X0021130Y0083581D01*
X0021262Y0083629D01*
X0021392Y0083681D01*
X0021521Y0083736D01*
X0021648Y0083795D01*
X0021774Y0083858D01*
X0021898Y0083924D01*
X0022019Y0083993D01*
X0022139Y0084066D01*
X0022257Y0084143D01*
X0022372Y0084222D01*
X0022486Y0084305D01*
X0022596Y0084391D01*
X0022705Y0084480D01*
X0022811Y0084572D01*
X0022914Y0084667D01*
X0023015Y0084764D01*
X0023014Y0084764D02*
X0030336Y0092086D01*
X0030336Y0092085D02*
X0030433Y0092186D01*
X0030528Y0092289D01*
X0030620Y0092395D01*
X0030709Y0092504D01*
X0030795Y0092614D01*
X0030878Y0092728D01*
X0030957Y0092843D01*
X0031034Y0092961D01*
X0031107Y0093081D01*
X0031176Y0093202D01*
X0031242Y0093326D01*
X0031305Y0093452D01*
X0031364Y0093579D01*
X0031419Y0093708D01*
X0031471Y0093838D01*
X0031519Y0093970D01*
X0031564Y0094103D01*
X0031605Y0094237D01*
X0031642Y0094372D01*
X0031675Y0094508D01*
X0031704Y0094646D01*
X0031729Y0094783D01*
X0031751Y0094922D01*
X0031769Y0095061D01*
X0031782Y0095201D01*
X0031792Y0095341D01*
X0031798Y0095481D01*
X0031800Y0095621D01*
X0017861Y0104764D02*
X0024300Y0111204D01*
X0028305Y0107611D02*
X0028303Y0107472D01*
X0028296Y0107332D01*
X0028286Y0107193D01*
X0028272Y0107053D01*
X0028254Y0106915D01*
X0028233Y0106777D01*
X0028207Y0106639D01*
X0028178Y0106503D01*
X0028144Y0106367D01*
X0028107Y0106232D01*
X0028067Y0106098D01*
X0028022Y0105966D01*
X0027974Y0105835D01*
X0027922Y0105705D01*
X0027867Y0105576D01*
X0027807Y0105450D01*
X0027745Y0105325D01*
X0027679Y0105201D01*
X0027609Y0105080D01*
X0027537Y0104961D01*
X0027461Y0104844D01*
X0027381Y0104728D01*
X0027299Y0104616D01*
X0027213Y0104505D01*
X0027124Y0104397D01*
X0027033Y0104292D01*
X0026938Y0104189D01*
X0026841Y0104088D01*
X0024300Y0117896D02*
X0024300Y0213300D01*
X0019300Y0223300D02*
X0019300Y0121621D01*
X0017836Y0118086D02*
X0013050Y0113300D01*
X0017861Y0104764D02*
X0017760Y0104667D01*
X0017657Y0104572D01*
X0017551Y0104480D01*
X0017442Y0104391D01*
X0017332Y0104305D01*
X0017218Y0104222D01*
X0017103Y0104143D01*
X0016985Y0104066D01*
X0016865Y0103993D01*
X0016744Y0103924D01*
X0016620Y0103858D01*
X0016494Y0103795D01*
X0016367Y0103736D01*
X0016238Y0103681D01*
X0016108Y0103629D01*
X0015976Y0103581D01*
X0015843Y0103536D01*
X0015709Y0103495D01*
X0015574Y0103458D01*
X0015438Y0103425D01*
X0015300Y0103396D01*
X0015163Y0103371D01*
X0015024Y0103349D01*
X0014885Y0103331D01*
X0014745Y0103318D01*
X0014605Y0103308D01*
X0014465Y0103302D01*
X0014325Y0103300D01*
X0013050Y0103300D01*
X0020110Y0093300D02*
X0020250Y0093302D01*
X0020390Y0093308D01*
X0020529Y0093318D01*
X0020668Y0093331D01*
X0020807Y0093349D01*
X0020945Y0093370D01*
X0021083Y0093396D01*
X0021220Y0093425D01*
X0021355Y0093458D01*
X0021490Y0093494D01*
X0021624Y0093535D01*
X0021757Y0093579D01*
X0021888Y0093627D01*
X0022018Y0093678D01*
X0022147Y0093734D01*
X0022274Y0093792D01*
X0022399Y0093855D01*
X0022522Y0093920D01*
X0023995Y0073300D02*
X0013050Y0073300D01*
X0023995Y0073300D02*
X0024300Y0072995D01*
X0017836Y0118085D02*
X0017933Y0118186D01*
X0018028Y0118289D01*
X0018120Y0118395D01*
X0018209Y0118504D01*
X0018295Y0118614D01*
X0018378Y0118728D01*
X0018457Y0118843D01*
X0018534Y0118961D01*
X0018607Y0119081D01*
X0018676Y0119202D01*
X0018742Y0119326D01*
X0018805Y0119452D01*
X0018864Y0119579D01*
X0018919Y0119708D01*
X0018971Y0119838D01*
X0019019Y0119970D01*
X0019064Y0120103D01*
X0019105Y0120237D01*
X0019142Y0120372D01*
X0019175Y0120508D01*
X0019204Y0120646D01*
X0019229Y0120783D01*
X0019251Y0120922D01*
X0019269Y0121061D01*
X0019282Y0121201D01*
X0019292Y0121341D01*
X0019298Y0121481D01*
X0019300Y0121621D01*
X0013050Y0123300D02*
X0013050Y0225229D01*
X0014514Y0228764D02*
X0019050Y0233300D01*
X0014514Y0228765D02*
X0014417Y0228664D01*
X0014322Y0228561D01*
X0014230Y0228455D01*
X0014141Y0228346D01*
X0014055Y0228236D01*
X0013972Y0228122D01*
X0013893Y0228007D01*
X0013816Y0227889D01*
X0013743Y0227769D01*
X0013674Y0227648D01*
X0013608Y0227524D01*
X0013545Y0227398D01*
X0013486Y0227271D01*
X0013431Y0227142D01*
X0013379Y0227012D01*
X0013331Y0226880D01*
X0013286Y0226747D01*
X0013245Y0226613D01*
X0013208Y0226478D01*
X0013175Y0226342D01*
X0013146Y0226204D01*
X0013121Y0226067D01*
X0013099Y0225928D01*
X0013081Y0225789D01*
X0013068Y0225649D01*
X0013058Y0225509D01*
X0013052Y0225369D01*
X0013050Y0225229D01*
X0046300Y0213300D02*
X0046300Y0092121D01*
X0050800Y0097621D02*
X0050800Y0223300D01*
X0055550Y0228479D02*
X0055548Y0228619D01*
X0055542Y0228759D01*
X0055532Y0228899D01*
X0055519Y0229039D01*
X0055501Y0229178D01*
X0055479Y0229317D01*
X0055454Y0229454D01*
X0055425Y0229592D01*
X0055392Y0229728D01*
X0055355Y0229863D01*
X0055314Y0229997D01*
X0055269Y0230130D01*
X0055221Y0230262D01*
X0055169Y0230392D01*
X0055114Y0230521D01*
X0055055Y0230648D01*
X0054992Y0230774D01*
X0054926Y0230898D01*
X0054857Y0231019D01*
X0054784Y0231139D01*
X0054707Y0231257D01*
X0054628Y0231372D01*
X0054545Y0231486D01*
X0054459Y0231596D01*
X0054370Y0231705D01*
X0054278Y0231811D01*
X0054183Y0231914D01*
X0054086Y0232015D01*
X0055550Y0228479D02*
X0055550Y0113300D01*
X0062800Y0093300D02*
X0062550Y0233550D01*
X0066550Y0224950D02*
X0066550Y0091871D01*
X0068014Y0088336D02*
X0073050Y0083300D01*
X0068014Y0088335D02*
X0067917Y0088436D01*
X0067822Y0088539D01*
X0067730Y0088645D01*
X0067641Y0088754D01*
X0067555Y0088864D01*
X0067472Y0088978D01*
X0067393Y0089093D01*
X0067316Y0089211D01*
X0067243Y0089331D01*
X0067174Y0089452D01*
X0067108Y0089576D01*
X0067045Y0089702D01*
X0066986Y0089829D01*
X0066931Y0089958D01*
X0066879Y0090088D01*
X0066831Y0090220D01*
X0066786Y0090353D01*
X0066745Y0090487D01*
X0066708Y0090622D01*
X0066675Y0090758D01*
X0066646Y0090896D01*
X0066621Y0091033D01*
X0066599Y0091172D01*
X0066581Y0091311D01*
X0066568Y0091451D01*
X0066558Y0091591D01*
X0066552Y0091731D01*
X0066550Y0091871D01*
X0047764Y0088585D02*
X0047667Y0088686D01*
X0047572Y0088789D01*
X0047480Y0088895D01*
X0047391Y0089004D01*
X0047305Y0089114D01*
X0047222Y0089228D01*
X0047143Y0089343D01*
X0047066Y0089461D01*
X0046993Y0089581D01*
X0046924Y0089702D01*
X0046858Y0089826D01*
X0046795Y0089952D01*
X0046736Y0090079D01*
X0046681Y0090208D01*
X0046629Y0090338D01*
X0046581Y0090470D01*
X0046536Y0090603D01*
X0046495Y0090737D01*
X0046458Y0090872D01*
X0046425Y0091008D01*
X0046396Y0091146D01*
X0046371Y0091283D01*
X0046349Y0091422D01*
X0046331Y0091561D01*
X0046318Y0091701D01*
X0046308Y0091841D01*
X0046302Y0091981D01*
X0046300Y0092121D01*
X0081800Y0162229D02*
X0081798Y0162369D01*
X0081792Y0162509D01*
X0081782Y0162649D01*
X0081769Y0162789D01*
X0081751Y0162928D01*
X0081729Y0163067D01*
X0081704Y0163204D01*
X0081675Y0163342D01*
X0081642Y0163478D01*
X0081605Y0163613D01*
X0081564Y0163747D01*
X0081519Y0163880D01*
X0081471Y0164012D01*
X0081419Y0164142D01*
X0081364Y0164271D01*
X0081305Y0164398D01*
X0081242Y0164524D01*
X0081176Y0164648D01*
X0081107Y0164769D01*
X0081034Y0164889D01*
X0080957Y0165007D01*
X0080878Y0165122D01*
X0080795Y0165236D01*
X0080709Y0165346D01*
X0080620Y0165455D01*
X0080528Y0165561D01*
X0080433Y0165664D01*
X0080336Y0165765D01*
X0080336Y0165764D02*
X0077800Y0168300D01*
X0081800Y0162229D02*
X0081800Y0044121D01*
X0066550Y0224950D02*
X0066552Y0225086D01*
X0066557Y0225222D01*
X0066567Y0225358D01*
X0066580Y0225494D01*
X0066596Y0225629D01*
X0066617Y0225764D01*
X0066641Y0225898D01*
X0066668Y0226032D01*
X0066700Y0226164D01*
X0066735Y0226296D01*
X0066773Y0226427D01*
X0066815Y0226556D01*
X0066861Y0226685D01*
X0066910Y0226812D01*
X0066962Y0226938D01*
X0067018Y0227062D01*
X0067077Y0227185D01*
X0067140Y0227306D01*
X0067206Y0227425D01*
X0067275Y0227543D01*
X0067347Y0227658D01*
X0067422Y0227772D01*
X0067501Y0227883D01*
X0067582Y0227992D01*
X0067666Y0228099D01*
X0067754Y0228204D01*
X0068050Y0228550D01*
D18*
X0023050Y0262050D03*
M02*
