G75*
%MOIN*%
%OFA0B0*%
%FSLAX24Y24*%
%IPPOS*%
%LPD*%
%AMOC8*
5,1,8,0,0,1.08239X$1,22.5*
%
%ADD10C,0.0513*%
%ADD11C,0.0780*%
%ADD12R,0.0680X0.1680*%
D10*
X002030Y015711D03*
X001026Y016735D03*
X001026Y017719D03*
X001026Y018723D03*
X001026Y019747D03*
X001026Y020731D03*
X001026Y021735D03*
X001026Y022739D03*
X002030Y023743D03*
X003034Y023743D03*
X004038Y023743D03*
X005042Y023743D03*
X006026Y023743D03*
X007050Y022739D03*
X007070Y021735D03*
X007070Y020731D03*
X007070Y019727D03*
X007070Y018743D03*
X007070Y017739D03*
X007070Y016735D03*
X006026Y015711D03*
X005003Y015711D03*
X004019Y015711D03*
X003034Y015711D03*
D11*
X001558Y001452D03*
X001558Y002452D03*
X001558Y003452D03*
X001558Y004452D03*
X001558Y005452D03*
X001558Y006452D03*
X001558Y007452D03*
X001558Y008452D03*
X001558Y009452D03*
X001558Y010452D03*
X001558Y011452D03*
X001558Y012452D03*
X006558Y012471D03*
X006558Y011471D03*
X006558Y010471D03*
X006558Y009471D03*
X006558Y008471D03*
X006558Y007471D03*
X006558Y006471D03*
X006558Y005471D03*
X006558Y004471D03*
X006558Y003471D03*
X006558Y002471D03*
X006558Y001471D03*
D12*
X003046Y025810D03*
X002046Y025810D03*
X001046Y025810D03*
M02*
