G75*
%MOIN*%
%OFA0B0*%
%FSLAX25Y25*%
%IPPOS*%
%LPD*%
%AMOC8*
5,1,8,0,0,1.08239X$1,22.5*
%
%ADD10C,0.01000*%
%ADD11C,0.00800*%
%ADD12C,0.01200*%
%ADD13C,0.01100*%
%ADD14R,0.02000X0.02000*%
D10*
X0001800Y0011800D02*
X0001800Y0268300D01*
X0001802Y0268440D01*
X0001808Y0268580D01*
X0001818Y0268720D01*
X0001831Y0268860D01*
X0001849Y0268999D01*
X0001871Y0269138D01*
X0001896Y0269275D01*
X0001925Y0269413D01*
X0001958Y0269549D01*
X0001995Y0269684D01*
X0002036Y0269818D01*
X0002081Y0269951D01*
X0002129Y0270083D01*
X0002181Y0270213D01*
X0002236Y0270342D01*
X0002295Y0270469D01*
X0002358Y0270595D01*
X0002424Y0270719D01*
X0002493Y0270840D01*
X0002566Y0270960D01*
X0002643Y0271078D01*
X0002722Y0271193D01*
X0002805Y0271307D01*
X0002891Y0271417D01*
X0002980Y0271526D01*
X0003072Y0271632D01*
X0003167Y0271735D01*
X0003264Y0271836D01*
X0003365Y0271933D01*
X0003468Y0272028D01*
X0003574Y0272120D01*
X0003683Y0272209D01*
X0003793Y0272295D01*
X0003907Y0272378D01*
X0004022Y0272457D01*
X0004140Y0272534D01*
X0004260Y0272607D01*
X0004381Y0272676D01*
X0004505Y0272742D01*
X0004631Y0272805D01*
X0004758Y0272864D01*
X0004887Y0272919D01*
X0005017Y0272971D01*
X0005149Y0273019D01*
X0005282Y0273064D01*
X0005416Y0273105D01*
X0005551Y0273142D01*
X0005687Y0273175D01*
X0005825Y0273204D01*
X0005962Y0273229D01*
X0006101Y0273251D01*
X0006240Y0273269D01*
X0006380Y0273282D01*
X0006520Y0273292D01*
X0006660Y0273298D01*
X0006800Y0273300D01*
X0064615Y0273300D01*
X0065091Y0273294D01*
X0065566Y0273277D01*
X0066041Y0273248D01*
X0066515Y0273208D01*
X0066988Y0273156D01*
X0067459Y0273093D01*
X0067929Y0273019D01*
X0068397Y0272933D01*
X0068863Y0272836D01*
X0069326Y0272728D01*
X0069786Y0272609D01*
X0070244Y0272478D01*
X0070698Y0272337D01*
X0071149Y0272184D01*
X0071595Y0272021D01*
X0072038Y0271847D01*
X0072476Y0271662D01*
X0072910Y0271467D01*
X0073339Y0271261D01*
X0073763Y0271045D01*
X0074182Y0270819D01*
X0074595Y0270583D01*
X0075002Y0270337D01*
X0075403Y0270081D01*
X0075797Y0269815D01*
X0076186Y0269540D01*
X0076567Y0269256D01*
X0076941Y0268963D01*
X0077309Y0268661D01*
X0077669Y0268349D01*
X0078021Y0268030D01*
X0078365Y0267702D01*
X0078702Y0267365D01*
X0079030Y0267021D01*
X0079349Y0266669D01*
X0079661Y0266309D01*
X0079963Y0265941D01*
X0080256Y0265567D01*
X0080540Y0265186D01*
X0080815Y0264797D01*
X0081081Y0264403D01*
X0081337Y0264002D01*
X0081583Y0263595D01*
X0081819Y0263182D01*
X0082045Y0262763D01*
X0082261Y0262339D01*
X0082467Y0261910D01*
X0082662Y0261476D01*
X0082847Y0261038D01*
X0083021Y0260595D01*
X0083184Y0260149D01*
X0083337Y0259698D01*
X0083478Y0259244D01*
X0083609Y0258786D01*
X0083728Y0258326D01*
X0083836Y0257863D01*
X0083933Y0257397D01*
X0084019Y0256929D01*
X0084093Y0256459D01*
X0084156Y0255988D01*
X0084208Y0255515D01*
X0084248Y0255041D01*
X0084277Y0254566D01*
X0084294Y0254091D01*
X0084300Y0253615D01*
X0084300Y0011800D01*
X0084297Y0011558D01*
X0084288Y0011317D01*
X0084274Y0011076D01*
X0084253Y0010835D01*
X0084227Y0010595D01*
X0084195Y0010355D01*
X0084157Y0010116D01*
X0084114Y0009879D01*
X0084064Y0009642D01*
X0084009Y0009407D01*
X0083949Y0009173D01*
X0083882Y0008941D01*
X0083811Y0008710D01*
X0083733Y0008481D01*
X0083650Y0008254D01*
X0083562Y0008029D01*
X0083468Y0007806D01*
X0083369Y0007586D01*
X0083264Y0007368D01*
X0083155Y0007153D01*
X0083040Y0006940D01*
X0082920Y0006730D01*
X0082795Y0006524D01*
X0082665Y0006320D01*
X0082530Y0006119D01*
X0082390Y0005922D01*
X0082246Y0005728D01*
X0082097Y0005538D01*
X0081943Y0005352D01*
X0081785Y0005169D01*
X0081623Y0004990D01*
X0081456Y0004815D01*
X0081285Y0004644D01*
X0081110Y0004477D01*
X0080931Y0004315D01*
X0080748Y0004157D01*
X0080562Y0004003D01*
X0080372Y0003854D01*
X0080178Y0003710D01*
X0079981Y0003570D01*
X0079780Y0003435D01*
X0079576Y0003305D01*
X0079370Y0003180D01*
X0079160Y0003060D01*
X0078947Y0002945D01*
X0078732Y0002836D01*
X0078514Y0002731D01*
X0078294Y0002632D01*
X0078071Y0002538D01*
X0077846Y0002450D01*
X0077619Y0002367D01*
X0077390Y0002289D01*
X0077159Y0002218D01*
X0076927Y0002151D01*
X0076693Y0002091D01*
X0076458Y0002036D01*
X0076221Y0001986D01*
X0075984Y0001943D01*
X0075745Y0001905D01*
X0075505Y0001873D01*
X0075265Y0001847D01*
X0075024Y0001826D01*
X0074783Y0001812D01*
X0074542Y0001803D01*
X0074300Y0001800D01*
X0011800Y0001800D01*
X0011558Y0001803D01*
X0011317Y0001812D01*
X0011076Y0001826D01*
X0010835Y0001847D01*
X0010595Y0001873D01*
X0010355Y0001905D01*
X0010116Y0001943D01*
X0009879Y0001986D01*
X0009642Y0002036D01*
X0009407Y0002091D01*
X0009173Y0002151D01*
X0008941Y0002218D01*
X0008710Y0002289D01*
X0008481Y0002367D01*
X0008254Y0002450D01*
X0008029Y0002538D01*
X0007806Y0002632D01*
X0007586Y0002731D01*
X0007368Y0002836D01*
X0007153Y0002945D01*
X0006940Y0003060D01*
X0006730Y0003180D01*
X0006524Y0003305D01*
X0006320Y0003435D01*
X0006119Y0003570D01*
X0005922Y0003710D01*
X0005728Y0003854D01*
X0005538Y0004003D01*
X0005352Y0004157D01*
X0005169Y0004315D01*
X0004990Y0004477D01*
X0004815Y0004644D01*
X0004644Y0004815D01*
X0004477Y0004990D01*
X0004315Y0005169D01*
X0004157Y0005352D01*
X0004003Y0005538D01*
X0003854Y0005728D01*
X0003710Y0005922D01*
X0003570Y0006119D01*
X0003435Y0006320D01*
X0003305Y0006524D01*
X0003180Y0006730D01*
X0003060Y0006940D01*
X0002945Y0007153D01*
X0002836Y0007368D01*
X0002731Y0007586D01*
X0002632Y0007806D01*
X0002538Y0008029D01*
X0002450Y0008254D01*
X0002367Y0008481D01*
X0002289Y0008710D01*
X0002218Y0008941D01*
X0002151Y0009173D01*
X0002091Y0009407D01*
X0002036Y0009642D01*
X0001986Y0009879D01*
X0001943Y0010116D01*
X0001905Y0010355D01*
X0001873Y0010595D01*
X0001847Y0010835D01*
X0001826Y0011076D01*
X0001812Y0011317D01*
X0001803Y0011558D01*
X0001800Y0011800D01*
D11*
X0020950Y0011200D02*
X0023752Y0011200D01*
X0022351Y0011200D02*
X0022351Y0015404D01*
X0020950Y0014002D01*
X0020950Y0021200D02*
X0023752Y0021200D01*
X0022351Y0021200D02*
X0022351Y0025404D01*
X0020950Y0024002D01*
X0020950Y0031200D02*
X0023752Y0031200D01*
X0022351Y0031200D02*
X0022351Y0035404D01*
X0020950Y0034002D01*
X0020950Y0041200D02*
X0020950Y0045404D01*
X0023052Y0045404D01*
X0023752Y0044703D01*
X0023752Y0043302D01*
X0023052Y0042601D01*
X0020950Y0042601D01*
X0022351Y0042601D02*
X0023752Y0041200D01*
X0025554Y0041901D02*
X0026255Y0041200D01*
X0027656Y0041200D01*
X0028356Y0041901D01*
X0028356Y0042601D01*
X0027656Y0043302D01*
X0026255Y0043302D01*
X0025554Y0044002D01*
X0025554Y0044703D01*
X0026255Y0045404D01*
X0027656Y0045404D01*
X0028356Y0044703D01*
X0030158Y0045404D02*
X0032960Y0045404D01*
X0031559Y0045404D02*
X0031559Y0041200D01*
X0027656Y0035404D02*
X0028356Y0034703D01*
X0025554Y0031901D01*
X0026255Y0031200D01*
X0027656Y0031200D01*
X0028356Y0031901D01*
X0028356Y0034703D01*
X0027656Y0035404D02*
X0026255Y0035404D01*
X0025554Y0034703D01*
X0025554Y0031901D01*
X0026955Y0025404D02*
X0026955Y0021200D01*
X0025554Y0021200D02*
X0028356Y0021200D01*
X0025554Y0024002D02*
X0026955Y0025404D01*
X0026255Y0015404D02*
X0025554Y0014703D01*
X0026255Y0015404D02*
X0027656Y0015404D01*
X0028356Y0014703D01*
X0028356Y0014002D01*
X0025554Y0011200D01*
X0028356Y0011200D01*
X0026955Y0051200D02*
X0026955Y0055404D01*
X0025554Y0055404D02*
X0028356Y0055404D01*
X0030158Y0054703D02*
X0030158Y0051901D01*
X0030858Y0051200D01*
X0032260Y0051200D01*
X0032960Y0051901D01*
X0032960Y0053302D01*
X0031559Y0053302D01*
X0030158Y0054703D02*
X0030858Y0055404D01*
X0032260Y0055404D01*
X0032960Y0054703D01*
X0032260Y0061200D02*
X0030158Y0061200D01*
X0030158Y0065404D01*
X0032260Y0065404D01*
X0032960Y0064703D01*
X0032960Y0061901D01*
X0032260Y0061200D01*
X0033861Y0071200D02*
X0035262Y0072601D01*
X0035262Y0075404D01*
X0032460Y0075404D02*
X0032460Y0072601D01*
X0033861Y0071200D01*
X0030658Y0071901D02*
X0029958Y0071200D01*
X0028556Y0071200D01*
X0027856Y0071901D01*
X0029257Y0073302D02*
X0029958Y0073302D01*
X0030658Y0072601D01*
X0030658Y0071901D01*
X0029958Y0073302D02*
X0030658Y0074002D01*
X0030658Y0074703D01*
X0029958Y0075404D01*
X0028556Y0075404D01*
X0027856Y0074703D01*
X0026255Y0071901D02*
X0026255Y0071200D01*
X0025554Y0071200D01*
X0025554Y0071901D01*
X0026255Y0071901D01*
X0023752Y0071901D02*
X0023052Y0071200D01*
X0021651Y0071200D01*
X0020950Y0071901D01*
X0022351Y0073302D02*
X0023052Y0073302D01*
X0023752Y0072601D01*
X0023752Y0071901D01*
X0023052Y0073302D02*
X0023752Y0074002D01*
X0023752Y0074703D01*
X0023052Y0075404D01*
X0021651Y0075404D01*
X0020950Y0074703D01*
X0021651Y0081200D02*
X0020950Y0081901D01*
X0021651Y0081200D02*
X0023052Y0081200D01*
X0023752Y0081901D01*
X0023752Y0083302D01*
X0023052Y0084002D01*
X0022351Y0084002D01*
X0020950Y0083302D01*
X0020950Y0085404D01*
X0023752Y0085404D01*
X0022351Y0091200D02*
X0022351Y0095404D01*
X0020950Y0095404D02*
X0023752Y0095404D01*
X0025554Y0095404D02*
X0028356Y0091200D01*
X0025554Y0091200D02*
X0028356Y0095404D01*
X0028356Y0101200D02*
X0025554Y0105404D01*
X0023752Y0104703D02*
X0023752Y0103302D01*
X0023052Y0102601D01*
X0020950Y0102601D01*
X0020950Y0101200D02*
X0020950Y0105404D01*
X0023052Y0105404D01*
X0023752Y0104703D01*
X0022351Y0102601D02*
X0023752Y0101200D01*
X0025554Y0101200D02*
X0028356Y0105404D01*
X0023752Y0111200D02*
X0020950Y0111200D01*
X0023752Y0114002D01*
X0023752Y0114703D01*
X0023052Y0115404D01*
X0021651Y0115404D01*
X0020950Y0114703D01*
X0020950Y0121200D02*
X0023752Y0121200D01*
X0022351Y0121200D02*
X0022351Y0125404D01*
X0020950Y0124002D01*
X0016252Y0150299D02*
X0016252Y0154502D01*
X0014151Y0154502D01*
X0013450Y0153802D01*
X0013450Y0152401D01*
X0014151Y0151700D01*
X0016252Y0151700D01*
X0018054Y0152401D02*
X0018755Y0151700D01*
X0020856Y0151700D01*
X0020856Y0154502D01*
X0022658Y0154502D02*
X0023358Y0154502D01*
X0023358Y0151700D01*
X0022658Y0151700D02*
X0024059Y0151700D01*
X0023358Y0155904D02*
X0023358Y0156604D01*
X0025727Y0155904D02*
X0026428Y0155904D01*
X0026428Y0151700D01*
X0027128Y0151700D02*
X0025727Y0151700D01*
X0028796Y0151700D02*
X0030198Y0151700D01*
X0029497Y0151700D02*
X0029497Y0154502D01*
X0028796Y0154502D01*
X0029497Y0155904D02*
X0029497Y0156604D01*
X0031866Y0154502D02*
X0034668Y0151700D01*
X0031866Y0151700D02*
X0034668Y0154502D01*
X0036470Y0152401D02*
X0037170Y0152401D01*
X0037170Y0151700D01*
X0036470Y0151700D01*
X0036470Y0152401D01*
X0038772Y0152401D02*
X0039472Y0151700D01*
X0041574Y0151700D01*
X0041574Y0154502D02*
X0039472Y0154502D01*
X0038772Y0153802D01*
X0038772Y0152401D01*
X0043375Y0152401D02*
X0044076Y0151700D01*
X0045477Y0151700D01*
X0046178Y0152401D01*
X0046178Y0153802D01*
X0045477Y0154502D01*
X0044076Y0154502D01*
X0043375Y0153802D01*
X0043375Y0152401D01*
X0047979Y0151700D02*
X0047979Y0154502D01*
X0048680Y0154502D01*
X0049381Y0153802D01*
X0050081Y0154502D01*
X0050782Y0153802D01*
X0050782Y0151700D01*
X0049381Y0151700D02*
X0049381Y0153802D01*
X0053839Y0125404D02*
X0053138Y0124703D01*
X0053138Y0121901D01*
X0053839Y0121200D01*
X0055240Y0121200D01*
X0055941Y0121901D01*
X0055941Y0123302D01*
X0054539Y0123302D01*
X0055941Y0124703D02*
X0055240Y0125404D01*
X0053839Y0125404D01*
X0057742Y0125404D02*
X0057742Y0121200D01*
X0060545Y0121200D02*
X0057742Y0125404D01*
X0060545Y0125404D02*
X0060545Y0121200D01*
X0062346Y0121200D02*
X0064448Y0121200D01*
X0065148Y0121901D01*
X0065148Y0124703D01*
X0064448Y0125404D01*
X0062346Y0125404D01*
X0062346Y0121200D01*
X0063047Y0115404D02*
X0062346Y0114703D01*
X0063047Y0115404D02*
X0064448Y0115404D01*
X0065148Y0114703D01*
X0065148Y0114002D01*
X0062346Y0111200D01*
X0065148Y0111200D01*
X0063747Y0105404D02*
X0063747Y0101200D01*
X0062346Y0101200D02*
X0065148Y0101200D01*
X0062346Y0104002D02*
X0063747Y0105404D01*
X0060545Y0104703D02*
X0060545Y0104002D01*
X0057742Y0101200D01*
X0060545Y0101200D01*
X0060545Y0104703D02*
X0059844Y0105404D01*
X0058443Y0105404D01*
X0057742Y0104703D01*
X0057742Y0111200D02*
X0060545Y0114002D01*
X0060545Y0114703D01*
X0059844Y0115404D01*
X0058443Y0115404D01*
X0057742Y0114703D01*
X0057742Y0111200D02*
X0060545Y0111200D01*
X0059844Y0095404D02*
X0058443Y0095404D01*
X0057742Y0094703D01*
X0060545Y0094002D02*
X0057742Y0091200D01*
X0060545Y0091200D01*
X0060545Y0094002D02*
X0060545Y0094703D01*
X0059844Y0095404D01*
X0062346Y0094703D02*
X0062346Y0091901D01*
X0065148Y0094703D01*
X0065148Y0091901D01*
X0064448Y0091200D01*
X0063047Y0091200D01*
X0062346Y0091901D01*
X0062346Y0094703D02*
X0063047Y0095404D01*
X0064448Y0095404D01*
X0065148Y0094703D01*
X0064448Y0085404D02*
X0063047Y0085404D01*
X0062346Y0084703D01*
X0062346Y0084002D01*
X0063047Y0083302D01*
X0065148Y0083302D01*
X0065148Y0084703D02*
X0064448Y0085404D01*
X0065148Y0084703D02*
X0065148Y0081901D01*
X0064448Y0081200D01*
X0063047Y0081200D01*
X0062346Y0081901D01*
X0060545Y0081200D02*
X0057742Y0081200D01*
X0057742Y0084002D02*
X0059143Y0085404D01*
X0059143Y0081200D01*
X0059143Y0075404D02*
X0059143Y0071200D01*
X0057742Y0071200D02*
X0060545Y0071200D01*
X0062346Y0071901D02*
X0062346Y0072601D01*
X0063047Y0073302D01*
X0064448Y0073302D01*
X0065148Y0072601D01*
X0065148Y0071901D01*
X0064448Y0071200D01*
X0063047Y0071200D01*
X0062346Y0071901D01*
X0063047Y0073302D02*
X0062346Y0074002D01*
X0062346Y0074703D01*
X0063047Y0075404D01*
X0064448Y0075404D01*
X0065148Y0074703D01*
X0065148Y0074002D01*
X0064448Y0073302D01*
X0065148Y0065404D02*
X0062346Y0065404D01*
X0065148Y0064703D02*
X0062346Y0061901D01*
X0062346Y0061200D01*
X0060545Y0061200D02*
X0057742Y0061200D01*
X0057742Y0064002D02*
X0059143Y0065404D01*
X0059143Y0061200D01*
X0059143Y0055404D02*
X0059143Y0051200D01*
X0057742Y0051200D02*
X0060545Y0051200D01*
X0062346Y0051901D02*
X0063047Y0051200D01*
X0064448Y0051200D01*
X0065148Y0051901D01*
X0065148Y0052601D01*
X0064448Y0053302D01*
X0062346Y0053302D01*
X0062346Y0051901D01*
X0062346Y0053302D02*
X0063747Y0054703D01*
X0065148Y0055404D01*
X0065148Y0064703D02*
X0065148Y0065404D01*
X0057742Y0074002D02*
X0059143Y0075404D01*
X0059143Y0055404D02*
X0057742Y0054002D01*
X0059143Y0045404D02*
X0059143Y0041200D01*
X0057742Y0041200D02*
X0060545Y0041200D01*
X0062346Y0041901D02*
X0063047Y0041200D01*
X0064448Y0041200D01*
X0065148Y0041901D01*
X0065148Y0043302D01*
X0064448Y0044002D01*
X0063747Y0044002D01*
X0062346Y0043302D01*
X0062346Y0045404D01*
X0065148Y0045404D01*
X0063698Y0035404D02*
X0062297Y0035404D01*
X0061596Y0034703D01*
X0061596Y0031901D02*
X0062297Y0031200D01*
X0063698Y0031200D01*
X0064398Y0031901D01*
X0064398Y0032601D01*
X0063698Y0033302D01*
X0062997Y0033302D01*
X0063698Y0033302D02*
X0064398Y0034002D01*
X0064398Y0034703D01*
X0063698Y0035404D01*
X0063047Y0025404D02*
X0064448Y0025404D01*
X0065148Y0024703D01*
X0065148Y0021901D01*
X0064448Y0021200D01*
X0063047Y0021200D01*
X0062346Y0021901D01*
X0062346Y0024703D01*
X0063047Y0025404D01*
X0063747Y0022601D02*
X0065148Y0021200D01*
X0064448Y0015404D02*
X0062346Y0015404D01*
X0062346Y0011200D01*
X0064448Y0011200D01*
X0065148Y0011901D01*
X0065148Y0014703D01*
X0064448Y0015404D01*
X0060545Y0015404D02*
X0060545Y0011200D01*
X0057742Y0015404D01*
X0057742Y0011200D01*
X0055941Y0011901D02*
X0055941Y0013302D01*
X0054539Y0013302D01*
X0053138Y0014703D02*
X0053138Y0011901D01*
X0053839Y0011200D01*
X0055240Y0011200D01*
X0055941Y0011901D01*
X0055941Y0014703D02*
X0055240Y0015404D01*
X0053839Y0015404D01*
X0053138Y0014703D01*
X0053138Y0021200D02*
X0053138Y0025404D01*
X0055941Y0025404D01*
X0057742Y0025404D02*
X0059844Y0025404D01*
X0060545Y0024703D01*
X0060545Y0023302D01*
X0059844Y0022601D01*
X0057742Y0022601D01*
X0057742Y0021200D02*
X0057742Y0025404D01*
X0059143Y0022601D02*
X0060545Y0021200D01*
X0059795Y0031200D02*
X0056992Y0031200D01*
X0058393Y0031200D02*
X0058393Y0035404D01*
X0056992Y0034002D01*
X0057742Y0044002D02*
X0059143Y0045404D01*
X0054539Y0023302D02*
X0053138Y0023302D01*
X0028356Y0061200D02*
X0028356Y0065404D01*
X0025554Y0065404D02*
X0028356Y0061200D01*
X0025554Y0061200D02*
X0025554Y0065404D01*
X0023752Y0064703D02*
X0023052Y0065404D01*
X0021651Y0065404D01*
X0020950Y0064703D01*
X0020950Y0061901D01*
X0021651Y0061200D01*
X0023052Y0061200D01*
X0023752Y0061901D01*
X0023752Y0063302D01*
X0022351Y0063302D01*
X0022351Y0055404D02*
X0023752Y0055404D01*
X0023052Y0055404D02*
X0023052Y0051901D01*
X0022351Y0051200D01*
X0021651Y0051200D01*
X0020950Y0051901D01*
X0018054Y0152401D02*
X0018054Y0154502D01*
D12*
X0018050Y0163300D02*
X0013050Y0163300D01*
X0013050Y0168300D01*
X0019960Y0228300D02*
X0019962Y0228449D01*
X0019968Y0228599D01*
X0019978Y0228748D01*
X0019992Y0228897D01*
X0020010Y0229045D01*
X0020032Y0229193D01*
X0020058Y0229340D01*
X0020087Y0229487D01*
X0020121Y0229632D01*
X0020159Y0229777D01*
X0020200Y0229920D01*
X0020245Y0230063D01*
X0020294Y0230204D01*
X0020347Y0230344D01*
X0020404Y0230482D01*
X0020464Y0230619D01*
X0020528Y0230754D01*
X0020595Y0230888D01*
X0020666Y0231019D01*
X0020740Y0231149D01*
X0020818Y0231276D01*
X0020899Y0231402D01*
X0020984Y0231525D01*
X0021072Y0231646D01*
X0021163Y0231764D01*
X0021257Y0231880D01*
X0021354Y0231994D01*
X0021455Y0232105D01*
X0021558Y0232213D01*
X0021664Y0232318D01*
X0021773Y0232421D01*
X0021884Y0232520D01*
X0021998Y0232617D01*
X0022115Y0232710D01*
X0022234Y0232800D01*
X0022356Y0232887D01*
X0022479Y0232971D01*
X0022605Y0233052D01*
X0022733Y0233129D01*
X0022864Y0233202D01*
X0022996Y0233272D01*
X0023129Y0233339D01*
X0023265Y0233402D01*
X0023402Y0233461D01*
X0023541Y0233516D01*
X0023681Y0233568D01*
X0023823Y0233616D01*
X0023965Y0233661D01*
X0024109Y0233701D01*
X0024254Y0233738D01*
X0024400Y0233770D01*
X0024547Y0233799D01*
X0024694Y0233824D01*
X0024842Y0233845D01*
X0024990Y0233862D01*
X0025139Y0233875D01*
X0025289Y0233884D01*
X0025438Y0233889D01*
X0025587Y0233890D01*
X0025737Y0233887D01*
X0025886Y0233880D01*
X0026035Y0233869D01*
X0026184Y0233854D01*
X0026332Y0233835D01*
X0026480Y0233812D01*
X0026627Y0233785D01*
X0026773Y0233755D01*
X0026918Y0233720D01*
X0027063Y0233681D01*
X0027206Y0233639D01*
X0027348Y0233593D01*
X0027489Y0233543D01*
X0027629Y0233489D01*
X0027767Y0233432D01*
X0027903Y0233371D01*
X0028038Y0233306D01*
X0028171Y0233238D01*
X0028302Y0233166D01*
X0028431Y0233090D01*
X0028558Y0233012D01*
X0028683Y0232930D01*
X0028805Y0232844D01*
X0028926Y0232756D01*
X0029044Y0232664D01*
X0029159Y0232569D01*
X0029272Y0232471D01*
X0029382Y0232370D01*
X0029489Y0232266D01*
X0029594Y0232159D01*
X0029696Y0232050D01*
X0029795Y0231938D01*
X0029890Y0231823D01*
X0029983Y0231705D01*
X0030072Y0231586D01*
X0030159Y0231464D01*
X0030242Y0231339D01*
X0030321Y0231213D01*
X0030397Y0231084D01*
X0030470Y0230954D01*
X0030539Y0230821D01*
X0030605Y0230687D01*
X0030667Y0230551D01*
X0030725Y0230413D01*
X0030780Y0230274D01*
X0030831Y0230134D01*
X0030878Y0229992D01*
X0030921Y0229849D01*
X0030961Y0229705D01*
X0030996Y0229559D01*
X0031028Y0229413D01*
X0031056Y0229267D01*
X0031080Y0229119D01*
X0031100Y0228971D01*
X0031116Y0228822D01*
X0031128Y0228673D01*
X0031136Y0228524D01*
X0031140Y0228375D01*
X0031140Y0228225D01*
X0031136Y0228076D01*
X0031128Y0227927D01*
X0031116Y0227778D01*
X0031100Y0227629D01*
X0031080Y0227481D01*
X0031056Y0227333D01*
X0031028Y0227187D01*
X0030996Y0227041D01*
X0030961Y0226895D01*
X0030921Y0226751D01*
X0030878Y0226608D01*
X0030831Y0226466D01*
X0030780Y0226326D01*
X0030725Y0226187D01*
X0030667Y0226049D01*
X0030605Y0225913D01*
X0030539Y0225779D01*
X0030470Y0225646D01*
X0030397Y0225516D01*
X0030321Y0225387D01*
X0030242Y0225261D01*
X0030159Y0225136D01*
X0030072Y0225014D01*
X0029983Y0224895D01*
X0029890Y0224777D01*
X0029795Y0224662D01*
X0029696Y0224550D01*
X0029594Y0224441D01*
X0029489Y0224334D01*
X0029382Y0224230D01*
X0029272Y0224129D01*
X0029159Y0224031D01*
X0029044Y0223936D01*
X0028926Y0223844D01*
X0028805Y0223756D01*
X0028683Y0223670D01*
X0028558Y0223588D01*
X0028431Y0223510D01*
X0028302Y0223434D01*
X0028171Y0223362D01*
X0028038Y0223294D01*
X0027903Y0223229D01*
X0027767Y0223168D01*
X0027629Y0223111D01*
X0027489Y0223057D01*
X0027348Y0223007D01*
X0027206Y0222961D01*
X0027063Y0222919D01*
X0026918Y0222880D01*
X0026773Y0222845D01*
X0026627Y0222815D01*
X0026480Y0222788D01*
X0026332Y0222765D01*
X0026184Y0222746D01*
X0026035Y0222731D01*
X0025886Y0222720D01*
X0025737Y0222713D01*
X0025587Y0222710D01*
X0025438Y0222711D01*
X0025289Y0222716D01*
X0025139Y0222725D01*
X0024990Y0222738D01*
X0024842Y0222755D01*
X0024694Y0222776D01*
X0024547Y0222801D01*
X0024400Y0222830D01*
X0024254Y0222862D01*
X0024109Y0222899D01*
X0023965Y0222939D01*
X0023823Y0222984D01*
X0023681Y0223032D01*
X0023541Y0223084D01*
X0023402Y0223139D01*
X0023265Y0223198D01*
X0023129Y0223261D01*
X0022996Y0223328D01*
X0022864Y0223398D01*
X0022733Y0223471D01*
X0022605Y0223548D01*
X0022479Y0223629D01*
X0022356Y0223713D01*
X0022234Y0223800D01*
X0022115Y0223890D01*
X0021998Y0223983D01*
X0021884Y0224080D01*
X0021773Y0224179D01*
X0021664Y0224282D01*
X0021558Y0224387D01*
X0021455Y0224495D01*
X0021354Y0224606D01*
X0021257Y0224720D01*
X0021163Y0224836D01*
X0021072Y0224954D01*
X0020984Y0225075D01*
X0020899Y0225198D01*
X0020818Y0225324D01*
X0020740Y0225451D01*
X0020666Y0225581D01*
X0020595Y0225712D01*
X0020528Y0225846D01*
X0020464Y0225981D01*
X0020404Y0226118D01*
X0020347Y0226256D01*
X0020294Y0226396D01*
X0020245Y0226537D01*
X0020200Y0226680D01*
X0020159Y0226823D01*
X0020121Y0226968D01*
X0020087Y0227113D01*
X0020058Y0227260D01*
X0020032Y0227407D01*
X0020010Y0227555D01*
X0019992Y0227703D01*
X0019978Y0227852D01*
X0019968Y0228001D01*
X0019962Y0228151D01*
X0019960Y0228300D01*
X0018050Y0243300D02*
X0013050Y0243300D01*
X0013050Y0238300D01*
X0068050Y0243300D02*
X0073050Y0243300D01*
X0073050Y0238300D01*
X0073050Y0168300D02*
X0073050Y0163300D01*
X0068050Y0163300D01*
X0077800Y0023550D02*
X0080050Y0023550D01*
X0080050Y0013300D01*
X0077550Y0013300D01*
D13*
X0026021Y0171625D02*
X0027005Y0172609D01*
X0027005Y0174578D01*
X0026021Y0175562D01*
X0022084Y0175562D01*
X0021100Y0174578D01*
X0021100Y0172609D01*
X0022084Y0171625D01*
X0021100Y0177891D02*
X0021100Y0179859D01*
X0021100Y0178875D02*
X0027005Y0178875D01*
X0027005Y0179859D02*
X0027005Y0177891D01*
X0026021Y0182368D02*
X0024053Y0182368D01*
X0023068Y0183352D01*
X0023068Y0186305D01*
X0023068Y0184336D02*
X0021100Y0182368D01*
X0021100Y0186305D02*
X0027005Y0186305D01*
X0027005Y0183352D01*
X0026021Y0182368D01*
X0024053Y0188813D02*
X0023068Y0188813D01*
X0023068Y0192750D01*
X0022084Y0192750D02*
X0024053Y0192750D01*
X0025037Y0191766D01*
X0025037Y0189797D01*
X0024053Y0188813D01*
X0021100Y0191766D02*
X0022084Y0192750D01*
X0021100Y0191766D02*
X0021100Y0189797D01*
D14*
X0013050Y0123300D03*
X0013050Y0113300D03*
X0013050Y0103300D03*
X0013050Y0093300D03*
X0013050Y0083300D03*
X0013050Y0073300D03*
X0013050Y0063300D03*
X0013050Y0053300D03*
X0013050Y0043300D03*
X0013050Y0033300D03*
X0013050Y0023300D03*
X0013050Y0013300D03*
X0073050Y0013300D03*
X0073050Y0023300D03*
X0073050Y0033300D03*
X0073050Y0043300D03*
X0073050Y0053300D03*
X0073050Y0063300D03*
X0073050Y0073300D03*
X0073050Y0083300D03*
X0073050Y0093300D03*
X0073050Y0103300D03*
X0073050Y0113300D03*
X0073050Y0123300D03*
M02*
